# MagicaVoxel @ Ephtracy

# group
o 

# material
mtllib ConveyorStraightRight.mtl
usemtl palette

# normals
vn -1 0 0
vn 1 0 0
vn 0 0 1
vn 0 0 -1
vn 0 -1 0
vn 0 1 0

# texcoords
vt 0.00976563 0.5
vt 0.150391 0.5
vt 0.154297 0.5
vt 0.158203 0.5

# verts
v -0.6 0 0.8
v -0.6 0 -0.8
v -0.6 0.2 0.8
v -0.6 0.2 -0.8
v -0.5 0.2 0.8
v -0.5 0.2 -0.8
v -0.5 0.3 0.8
v -0.5 0.3 -0.8
v -0.4 0.1 0.7
v -0.4 0.1 -0.7
v -0.4 0.2 0.7
v -0.4 0.2 -0.7
v -0.2 0.1 0.5
v -0.2 0.1 0.4
v -0.2 0.1 -0.3
v -0.2 0.1 -0.4
v -0.2 0.2 0.5
v -0.2 0.2 0.4
v -0.2 0.2 -0.3
v -0.2 0.2 -0.4
v -0.1 0.1 0.4
v -0.1 0.1 0.3
v -0.1 0.1 -0.4
v -0.1 0.1 -0.5
v -0.1 0.2 0.4
v -0.1 0.2 0.3
v -0.1 0.2 -0.4
v -0.1 0.2 -0.5
v 0.1 0.1 0.5
v 0.1 0.1 0.4
v 0.1 0.1 -0.3
v 0.1 0.1 -0.4
v 0.1 0.2 0.5
v 0.1 0.2 0.4
v 0.1 0.2 -0.3
v 0.1 0.2 -0.4
v 0.3 0.1 0.8
v 0.3 0.1 0.7
v 0.3 0.1 0.3
v 0.3 0.1 -0.3
v 0.3 0.1 -0.7
v 0.3 0.1 -0.8
v 0.3 0.3 0.8
v 0.3 0.3 0.3
v 0.3 0.3 -0.3
v 0.3 0.3 -0.8
v 0.4 0.1 0.2
v 0.4 0.1 0.1
v 0.4 0.1 -0.1
v 0.4 0.1 -0.2
v 0.4 0.2 0.2
v 0.4 0.2 0.1
v 0.4 0.2 -0.1
v 0.4 0.2 -0.2
v 0.5 0.1 0.7
v 0.5 0.1 0.5
v 0.5 0.1 0.1
v 0.5 0.1 -0.1
v 0.5 0.1 -0.5
v 0.5 0.1 -0.7
v 0.5 0.2 0.7
v 0.5 0.2 0.5
v 0.5 0.2 0.1
v 0.5 0.2 -0.1
v 0.5 0.2 -0.5
v 0.5 0.2 -0.7
v 0.7 0.1 0.5
v 0.7 0.1 0.4
v 0.7 0.1 -0.4
v 0.7 0.1 -0.5
v 0.7 0.2 0.5
v 0.7 0.2 0.4
v 0.7 0.2 -0.4
v 0.7 0.2 -0.5
v -0.5 0.1 0.7
v -0.5 0.1 -0.7
v -0.5 0.2 0.7
v -0.5 0.2 -0.7
v -0.3 0.1 0.8
v -0.3 0.1 0.7
v -0.3 0.1 -0.7
v -0.3 0.1 -0.8
v -0.3 0.3 0.8
v -0.3 0.3 -0.8
v -0.1 0.1 0.5
v -0.1 0.1 0.4
v -0.1 0.1 -0.3
v -0.1 0.1 -0.4
v -0.1 0.2 0.5
v -0.1 0.2 0.4
v -0.1 0.2 -0.3
v -0.1 0.2 -0.4
v 0.1 0.1 0.4
v 0.1 0.1 0.3
v 0.1 0.1 -0.4
v 0.1 0.1 -0.5
v 0.1 0.2 0.4
v 0.1 0.2 0.3
v 0.1 0.2 -0.4
v 0.1 0.2 -0.5
v 0.2 0.1 0.5
v 0.2 0.1 0.4
v 0.2 0.1 -0.3
v 0.2 0.1 -0.4
v 0.2 0.2 0.5
v 0.2 0.2 0.4
v 0.2 0.2 -0.3
v 0.2 0.2 -0.4
v 0.4 0.1 0.7
v 0.4 0.1 0.4
v 0.4 0.1 -0.4
v 0.4 0.1 -0.7
v 0.4 0.2 0.7
v 0.4 0.2 0.4
v 0.4 0.2 -0.4
v 0.4 0.2 -0.7
v 0.5 0.1 0.2
v 0.5 0.1 0.1
v 0.5 0.1 -0.1
v 0.5 0.1 -0.2
v 0.5 0.2 0.8
v 0.5 0.2 0.5
v 0.5 0.2 0.2
v 0.5 0.2 0.1
v 0.5 0.2 -0.1
v 0.5 0.2 -0.2
v 0.5 0.2 -0.5
v 0.5 0.2 -0.8
v 0.5 0.3 0.8
v 0.5 0.3 0.5
v 0.5 0.3 -0.5
v 0.5 0.3 -0.8
v 0.6 0 0.8
v 0.6 0 0.6
v 0.6 0 -0.6
v 0.6 0 -0.8
v 0.6 0.1 0.1
v 0.6 0.1 -0.1
v 0.6 0.2 0.8
v 0.6 0.2 0.6
v 0.6 0.2 0.1
v 0.6 0.2 -0.1
v 0.6 0.2 -0.6
v 0.6 0.2 -0.8
v 0.8 0 0.6
v 0.8 0 0.3
v 0.8 0 -0.3
v 0.8 0 -0.6
v 0.8 0.1 0.3
v 0.8 0.1 -0.3
v 0.8 0.2 0.6
v 0.8 0.2 0.5
v 0.8 0.2 -0.5
v 0.8 0.2 -0.6
v 0.8 0.3 0.5
v 0.8 0.3 0.3
v 0.8 0.3 -0.3
v 0.8 0.3 -0.5
v -0.6 0 0.8
v -0.6 0.2 0.8
v -0.5 0.2 0.8
v -0.5 0.3 0.8
v -0.3 0 0.8
v -0.3 0.1 0.8
v -0.3 0.3 0.8
v 0.3 0 0.8
v 0.3 0.1 0.8
v 0.3 0.3 0.8
v 0.5 0.2 0.8
v 0.5 0.3 0.8
v 0.6 0 0.8
v 0.6 0.2 0.8
v 0.6 0 0.6
v 0.6 0.2 0.6
v 0.8 0 0.6
v 0.8 0.2 0.6
v -0.2 0.1 0.5
v -0.2 0.2 0.5
v -0.1 0.1 0.5
v -0.1 0.2 0.5
v 0.1 0.1 0.5
v 0.1 0.2 0.5
v 0.2 0.1 0.5
v 0.2 0.2 0.5
v 0.5 0.2 0.5
v 0.5 0.3 0.5
v 0.8 0.2 0.5
v 0.8 0.3 0.5
v -0.1 0.1 0.4
v -0.1 0.2 0.4
v 0.1 0.1 0.4
v 0.1 0.2 0.4
v 0.4 0.1 0.4
v 0.4 0.2 0.4
v 0.7 0.1 0.4
v 0.7 0.2 0.4
v 0.4 0.1 0.2
v 0.4 0.2 0.2
v 0.5 0.1 0.2
v 0.5 0.2 0.2
v 0.5 0.1 0.1
v 0.5 0.2 0.1
v 0.6 0.1 0.1
v 0.6 0.2 0.1
v 0.4 0.1 -0.1
v 0.4 0.2 -0.1
v 0.5 0.1 -0.1
v 0.5 0.2 -0.1
v -0.2 0.1 -0.3
v -0.2 0.2 -0.3
v -0.1 0.1 -0.3
v -0.1 0.2 -0.3
v 0.1 0.1 -0.3
v 0.1 0.2 -0.3
v 0.2 0.1 -0.3
v 0.2 0.2 -0.3
v 0.3 0.1 -0.3
v 0.3 0.3 -0.3
v 0.7 0.1 -0.3
v 0.8 0.1 -0.3
v 0.8 0.3 -0.3
v -0.1 0.1 -0.4
v -0.1 0.2 -0.4
v 0.1 0.1 -0.4
v 0.1 0.2 -0.4
v 0.5 0.1 -0.5
v 0.5 0.2 -0.5
v 0.7 0.1 -0.5
v 0.7 0.2 -0.5
v -0.5 0.1 -0.7
v -0.5 0.2 -0.7
v -0.4 0.1 -0.7
v -0.4 0.2 -0.7
v 0.4 0.1 -0.7
v 0.4 0.2 -0.7
v 0.5 0.1 -0.7
v 0.5 0.2 -0.7
v -0.5 0.1 0.7
v -0.5 0.2 0.7
v -0.4 0.1 0.7
v -0.4 0.2 0.7
v 0.4 0.1 0.7
v 0.4 0.2 0.7
v 0.5 0.1 0.7
v 0.5 0.2 0.7
v 0.5 0.1 0.5
v 0.5 0.2 0.5
v 0.7 0.1 0.5
v 0.7 0.2 0.5
v -0.2 0.1 0.4
v -0.2 0.2 0.4
v -0.1 0.1 0.4
v -0.1 0.2 0.4
v 0.1 0.1 0.4
v 0.1 0.2 0.4
v 0.2 0.1 0.4
v 0.2 0.2 0.4
v -0.1 0.1 0.3
v -0.1 0.2 0.3
v 0.1 0.1 0.3
v 0.1 0.2 0.3
v 0.3 0.1 0.3
v 0.3 0.3 0.3
v 0.7 0.1 0.3
v 0.8 0.1 0.3
v 0.8 0.3 0.3
v 0.4 0.1 0.1
v 0.4 0.2 0.1
v 0.5 0.1 0.1
v 0.5 0.2 0.1
v 0.5 0.1 -0.1
v 0.5 0.2 -0.1
v 0.6 0.1 -0.1
v 0.6 0.2 -0.1
v 0.4 0.1 -0.2
v 0.4 0.2 -0.2
v 0.5 0.1 -0.2
v 0.5 0.2 -0.2
v -0.2 0.1 -0.4
v -0.2 0.2 -0.4
v -0.1 0.1 -0.4
v -0.1 0.2 -0.4
v 0.1 0.1 -0.4
v 0.1 0.2 -0.4
v 0.2 0.1 -0.4
v 0.2 0.2 -0.4
v 0.4 0.1 -0.4
v 0.4 0.2 -0.4
v 0.7 0.1 -0.4
v 0.7 0.2 -0.4
v -0.1 0.1 -0.5
v -0.1 0.2 -0.5
v 0.1 0.1 -0.5
v 0.1 0.2 -0.5
v 0.5 0.2 -0.5
v 0.5 0.3 -0.5
v 0.8 0.2 -0.5
v 0.8 0.3 -0.5
v 0.6 0 -0.6
v 0.6 0.2 -0.6
v 0.8 0 -0.6
v 0.8 0.2 -0.6
v -0.6 0 -0.8
v -0.6 0.2 -0.8
v -0.5 0.2 -0.8
v -0.5 0.3 -0.8
v -0.3 0 -0.8
v -0.3 0.1 -0.8
v -0.3 0.3 -0.8
v 0.3 0 -0.8
v 0.3 0.1 -0.8
v 0.3 0.3 -0.8
v 0.5 0.2 -0.8
v 0.5 0.3 -0.8
v 0.6 0 -0.8
v 0.6 0.2 -0.8
v -0.6 0 0.8
v -0.3 0 0.8
v 0.3 0 0.8
v 0.6 0 0.8
v -0.3 0 0.7
v 0.3 0 0.7
v 0.6 0 0.6
v 0.8 0 0.6
v 0.3 0 0.3
v 0.7 0 0.3
v 0.8 0 0.3
v 0.3 0 -0.3
v 0.7 0 -0.3
v 0.8 0 -0.3
v 0.6 0 -0.6
v 0.8 0 -0.6
v -0.3 0 -0.7
v 0.3 0 -0.7
v -0.6 0 -0.8
v -0.3 0 -0.8
v 0.3 0 -0.8
v 0.6 0 -0.8
v -0.5 0.2 0.7
v -0.4 0.2 0.7
v 0.4 0.2 0.7
v 0.5 0.2 0.7
v 0.5 0.2 0.5
v 0.7 0.2 0.5
v 0.4 0.2 0.4
v 0.7 0.2 0.4
v 0.4 0.2 -0.4
v 0.7 0.2 -0.4
v 0.5 0.2 -0.5
v 0.7 0.2 -0.5
v -0.5 0.2 -0.7
v -0.4 0.2 -0.7
v 0.4 0.2 -0.7
v 0.5 0.2 -0.7
v -0.3 0.1 0.8
v 0.3 0.1 0.8
v -0.5 0.1 0.7
v -0.4 0.1 0.7
v -0.3 0.1 0.7
v 0.3 0.1 0.7
v 0.4 0.1 0.7
v 0.5 0.1 0.7
v -0.2 0.1 0.5
v -0.1 0.1 0.5
v 0.1 0.1 0.5
v 0.2 0.1 0.5
v 0.5 0.1 0.5
v 0.7 0.1 0.5
v -0.2 0.1 0.4
v -0.1 0.1 0.4
v 0.1 0.1 0.4
v 0.2 0.1 0.4
v 0.4 0.1 0.4
v 0.7 0.1 0.4
v -0.1 0.1 0.3
v 0.1 0.1 0.3
v 0.3 0.1 0.3
v 0.7 0.1 0.3
v 0.8 0.1 0.3
v 0.4 0.1 0.2
v 0.5 0.1 0.2
v 0.4 0.1 0.1
v 0.5 0.1 0.1
v 0.6 0.1 0.1
v 0.4 0.1 -0.1
v 0.5 0.1 -0.1
v 0.6 0.1 -0.1
v 0.4 0.1 -0.2
v 0.5 0.1 -0.2
v -0.2 0.1 -0.3
v -0.1 0.1 -0.3
v 0.1 0.1 -0.3
v 0.2 0.1 -0.3
v 0.3 0.1 -0.3
v 0.7 0.1 -0.3
v 0.8 0.1 -0.3
v -0.2 0.1 -0.4
v -0.1 0.1 -0.4
v 0.1 0.1 -0.4
v 0.2 0.1 -0.4
v 0.4 0.1 -0.4
v 0.7 0.1 -0.4
v -0.1 0.1 -0.5
v 0.1 0.1 -0.5
v 0.5 0.1 -0.5
v 0.7 0.1 -0.5
v -0.5 0.1 -0.7
v -0.4 0.1 -0.7
v -0.3 0.1 -0.7
v 0.3 0.1 -0.7
v 0.4 0.1 -0.7
v 0.5 0.1 -0.7
v -0.3 0.1 -0.8
v 0.3 0.1 -0.8
v -0.6 0.2 0.8
v -0.5 0.2 0.8
v 0.5 0.2 0.8
v 0.6 0.2 0.8
v 0.6 0.2 0.6
v 0.8 0.2 0.6
v -0.2 0.2 0.5
v -0.1 0.2 0.5
v 0.1 0.2 0.5
v 0.2 0.2 0.5
v 0.5 0.2 0.5
v 0.8 0.2 0.5
v -0.2 0.2 0.4
v -0.1 0.2 0.4
v 0.1 0.2 0.4
v 0.2 0.2 0.4
v -0.1 0.2 0.3
v 0.1 0.2 0.3
v 0.4 0.2 0.2
v 0.5 0.2 0.2
v 0.4 0.2 0.1
v 0.5 0.2 0.1
v 0.6 0.2 0.1
v 0.4 0.2 -0.1
v 0.5 0.2 -0.1
v 0.6 0.2 -0.1
v 0.4 0.2 -0.2
v 0.5 0.2 -0.2
v -0.2 0.2 -0.3
v -0.1 0.2 -0.3
v 0.1 0.2 -0.3
v 0.2 0.2 -0.3
v -0.2 0.2 -0.4
v -0.1 0.2 -0.4
v 0.1 0.2 -0.4
v 0.2 0.2 -0.4
v -0.1 0.2 -0.5
v 0.1 0.2 -0.5
v 0.5 0.2 -0.5
v 0.8 0.2 -0.5
v 0.6 0.2 -0.6
v 0.8 0.2 -0.6
v -0.6 0.2 -0.8
v -0.5 0.2 -0.8
v 0.5 0.2 -0.8
v 0.6 0.2 -0.8
v -0.5 0.3 0.8
v -0.3 0.3 0.8
v 0.3 0.3 0.8
v 0.5 0.3 0.8
v 0.5 0.3 0.5
v 0.8 0.3 0.5
v 0.3 0.3 0.3
v 0.8 0.3 0.3
v 0.3 0.3 -0.3
v 0.8 0.3 -0.3
v 0.5 0.3 -0.5
v 0.8 0.3 -0.5
v -0.5 0.3 -0.8
v -0.3 0.3 -0.8
v 0.3 0.3 -0.8
v 0.5 0.3 -0.8

# faces
f 3/4/1 2/4/1 1/4/1
f 4/4/1 2/4/1 3/4/1
f 7/4/1 6/4/1 5/4/1
f 8/4/1 6/4/1 7/4/1
f 11/4/1 10/4/1 9/4/1
f 12/4/1 10/4/1 11/4/1
f 17/1/1 14/1/1 13/1/1
f 18/1/1 14/1/1 17/1/1
f 19/1/1 16/1/1 15/1/1
f 20/1/1 16/1/1 19/1/1
f 25/1/1 22/1/1 21/1/1
f 26/1/1 22/1/1 25/1/1
f 27/1/1 24/1/1 23/1/1
f 28/1/1 24/1/1 27/1/1
f 33/1/1 30/1/1 29/1/1
f 34/1/1 30/1/1 33/1/1
f 35/1/1 32/1/1 31/1/1
f 36/1/1 32/1/1 35/1/1
f 43/4/1 38/4/1 37/4/1
f 43/4/1 39/4/1 38/4/1
f 44/4/1 39/4/1 43/4/1
f 45/4/1 42/4/1 41/4/1
f 45/4/1 41/4/1 40/4/1
f 46/4/1 42/4/1 45/4/1
f 51/1/1 48/1/1 47/1/1
f 52/1/1 48/1/1 51/1/1
f 53/1/1 50/1/1 49/1/1
f 54/1/1 50/1/1 53/1/1
f 61/4/1 56/4/1 55/4/1
f 62/4/1 56/4/1 61/4/1
f 63/1/1 58/1/1 57/1/1
f 64/1/1 58/1/1 63/1/1
f 65/4/1 60/4/1 59/4/1
f 66/4/1 60/4/1 65/4/1
f 71/4/1 68/4/1 67/4/1
f 72/4/1 68/4/1 71/4/1
f 73/4/1 70/4/1 69/4/1
f 74/4/1 70/4/1 73/4/1
f 75/4/2 76/4/2 77/4/2
f 77/4/2 76/4/2 78/4/2
f 79/4/2 80/4/2 83/4/2
f 81/4/2 82/4/2 83/4/2
f 80/4/2 81/4/2 83/4/2
f 83/4/2 82/4/2 84/4/2
f 85/1/2 86/1/2 89/1/2
f 89/1/2 86/1/2 90/1/2
f 87/1/2 88/1/2 91/1/2
f 91/1/2 88/1/2 92/1/2
f 93/1/2 94/1/2 97/1/2
f 97/1/2 94/1/2 98/1/2
f 95/1/2 96/1/2 99/1/2
f 99/1/2 96/1/2 100/1/2
f 101/1/2 102/1/2 105/1/2
f 105/1/2 102/1/2 106/1/2
f 103/1/2 104/1/2 107/1/2
f 107/1/2 104/1/2 108/1/2
f 109/4/2 110/4/2 113/4/2
f 113/4/2 110/4/2 114/4/2
f 111/4/2 112/4/2 115/4/2
f 115/4/2 112/4/2 116/4/2
f 117/1/2 118/1/2 123/1/2
f 123/1/2 118/1/2 124/1/2
f 119/1/2 120/1/2 125/1/2
f 125/1/2 120/1/2 126/1/2
f 121/4/2 122/4/2 129/4/2
f 129/4/2 122/4/2 130/4/2
f 127/4/2 128/4/2 131/4/2
f 131/4/2 128/4/2 132/4/2
f 133/4/2 134/4/2 139/4/2
f 139/4/2 134/4/2 140/4/2
f 137/1/2 138/1/2 141/1/2
f 141/1/2 138/1/2 142/1/2
f 135/4/2 136/4/2 143/4/2
f 143/4/2 136/4/2 144/4/2
f 145/4/2 146/4/2 149/4/2
f 146/2/2 147/2/2 149/2/2
f 147/4/2 148/4/2 150/4/2
f 149/2/2 147/2/2 150/2/2
f 145/4/2 149/4/2 151/4/2
f 151/4/2 149/4/2 152/4/2
f 150/4/2 148/4/2 153/4/2
f 153/4/2 148/4/2 154/4/2
f 152/4/2 149/4/2 155/4/2
f 155/4/2 149/4/2 156/4/2
f 150/4/2 153/4/2 157/4/2
f 157/4/2 153/4/2 158/4/2
f 161/4/3 160/4/3 159/4/3
f 163/4/3 161/4/3 159/4/3
f 163/4/3 162/4/3 161/4/3
f 164/4/3 162/4/3 163/4/3
f 165/4/3 162/4/3 164/4/3
f 166/2/3 164/2/3 163/2/3
f 167/2/3 164/2/3 166/2/3
f 169/4/3 167/4/3 166/4/3
f 169/4/3 168/4/3 167/4/3
f 170/4/3 168/4/3 169/4/3
f 171/4/3 169/4/3 166/4/3
f 172/4/3 169/4/3 171/4/3
f 175/4/3 174/4/3 173/4/3
f 176/4/3 174/4/3 175/4/3
f 179/1/3 178/1/3 177/1/3
f 180/1/3 178/1/3 179/1/3
f 183/1/3 182/1/3 181/1/3
f 184/1/3 182/1/3 183/1/3
f 187/4/3 186/4/3 185/4/3
f 188/4/3 186/4/3 187/4/3
f 191/1/3 190/1/3 189/1/3
f 192/1/3 190/1/3 191/1/3
f 195/4/3 194/4/3 193/4/3
f 196/4/3 194/4/3 195/4/3
f 199/1/3 198/1/3 197/1/3
f 200/1/3 198/1/3 199/1/3
f 203/1/3 202/1/3 201/1/3
f 204/1/3 202/1/3 203/1/3
f 207/1/3 206/1/3 205/1/3
f 208/1/3 206/1/3 207/1/3
f 211/1/3 210/1/3 209/1/3
f 212/1/3 210/1/3 211/1/3
f 215/1/3 214/1/3 213/1/3
f 216/1/3 214/1/3 215/1/3
f 219/4/3 218/4/3 217/4/3
f 220/4/3 218/4/3 219/4/3
f 221/4/3 218/4/3 220/4/3
f 224/1/3 223/1/3 222/1/3
f 225/1/3 223/1/3 224/1/3
f 228/4/3 227/4/3 226/4/3
f 229/4/3 227/4/3 228/4/3
f 232/4/3 231/4/3 230/4/3
f 233/4/3 231/4/3 232/4/3
f 236/4/3 235/4/3 234/4/3
f 237/4/3 235/4/3 236/4/3
f 238/4/4 239/4/4 240/4/4
f 240/4/4 239/4/4 241/4/4
f 242/4/4 243/4/4 244/4/4
f 244/4/4 243/4/4 245/4/4
f 246/4/4 247/4/4 248/4/4
f 248/4/4 247/4/4 249/4/4
f 250/1/4 251/1/4 252/1/4
f 252/1/4 251/1/4 253/1/4
f 254/1/4 255/1/4 256/1/4
f 256/1/4 255/1/4 257/1/4
f 258/1/4 259/1/4 260/1/4
f 260/1/4 259/1/4 261/1/4
f 262/4/4 263/4/4 264/4/4
f 264/4/4 263/4/4 265/4/4
f 265/4/4 263/4/4 266/4/4
f 267/1/4 268/1/4 269/1/4
f 269/1/4 268/1/4 270/1/4
f 271/1/4 272/1/4 273/1/4
f 273/1/4 272/1/4 274/1/4
f 275/1/4 276/1/4 277/1/4
f 277/1/4 276/1/4 278/1/4
f 279/1/4 280/1/4 281/1/4
f 281/1/4 280/1/4 282/1/4
f 283/1/4 284/1/4 285/1/4
f 285/1/4 284/1/4 286/1/4
f 287/4/4 288/4/4 289/4/4
f 289/4/4 288/4/4 290/4/4
f 291/1/4 292/1/4 293/1/4
f 293/1/4 292/1/4 294/1/4
f 295/4/4 296/4/4 297/4/4
f 297/4/4 296/4/4 298/4/4
f 299/4/4 300/4/4 301/4/4
f 301/4/4 300/4/4 302/4/4
f 303/4/4 304/4/4 305/4/4
f 303/4/4 305/4/4 307/4/4
f 305/4/4 306/4/4 307/4/4
f 307/4/4 306/4/4 308/4/4
f 308/4/4 306/4/4 309/4/4
f 307/2/4 308/2/4 310/2/4
f 310/2/4 308/2/4 311/2/4
f 310/4/4 311/4/4 313/4/4
f 311/4/4 312/4/4 313/4/4
f 313/4/4 312/4/4 314/4/4
f 310/4/4 313/4/4 315/4/4
f 315/4/4 313/4/4 316/4/4
f 321/4/5 318/4/5 317/4/5
f 321/2/5 319/2/5 318/2/5
f 322/4/5 320/4/5 319/4/5
f 322/2/5 319/2/5 321/2/5
f 323/4/5 320/4/5 322/4/5
f 325/3/5 322/3/5 321/3/5
f 325/4/5 324/4/5 323/4/5
f 325/4/5 323/4/5 322/4/5
f 326/4/5 324/4/5 325/4/5
f 327/4/5 324/4/5 326/4/5
f 328/3/5 325/3/5 321/3/5
f 328/3/5 326/3/5 325/3/5
f 329/2/5 327/2/5 326/2/5
f 329/3/5 326/3/5 328/3/5
f 330/2/5 327/2/5 329/2/5
f 331/4/5 329/4/5 328/4/5
f 331/4/5 330/4/5 329/4/5
f 332/4/5 330/4/5 331/4/5
f 333/4/5 321/4/5 317/4/5
f 333/3/5 328/3/5 321/3/5
f 334/4/5 331/4/5 328/4/5
f 334/3/5 328/3/5 333/3/5
f 335/4/5 333/4/5 317/4/5
f 336/2/5 334/2/5 333/2/5
f 336/4/5 333/4/5 335/4/5
f 337/4/5 331/4/5 334/4/5
f 337/2/5 334/2/5 336/2/5
f 338/4/5 331/4/5 337/4/5
f 343/4/5 342/4/5 341/4/5
f 345/4/5 343/4/5 341/4/5
f 345/4/5 344/4/5 343/4/5
f 346/4/5 344/4/5 345/4/5
f 349/4/5 348/4/5 347/4/5
f 350/4/5 348/4/5 349/4/5
f 351/4/5 340/4/5 339/4/5
f 352/4/5 340/4/5 351/4/5
f 353/4/5 349/4/5 347/4/5
f 354/4/5 349/4/5 353/4/5
f 355/2/6 356/2/6 359/2/6
f 359/2/6 356/2/6 360/2/6
f 359/3/6 360/3/6 363/3/6
f 363/3/6 360/3/6 364/3/6
f 364/3/6 360/3/6 365/3/6
f 365/3/6 360/3/6 366/3/6
f 361/4/6 362/4/6 367/4/6
f 359/3/6 363/3/6 369/3/6
f 364/3/6 365/3/6 370/3/6
f 370/3/6 365/3/6 371/3/6
f 366/3/6 360/3/6 372/3/6
f 367/4/6 368/4/6 373/4/6
f 361/4/6 367/4/6 373/4/6
f 373/4/6 368/4/6 374/4/6
f 369/3/6 370/3/6 375/3/6
f 371/3/6 372/3/6 376/3/6
f 372/3/6 360/3/6 377/3/6
f 376/3/6 372/3/6 377/3/6
f 377/3/6 378/3/6 380/3/6
f 375/3/6 376/3/6 380/3/6
f 376/3/6 377/3/6 380/3/6
f 380/3/6 378/3/6 381/3/6
f 375/3/6 380/3/6 382/3/6
f 381/3/6 378/3/6 383/3/6
f 383/3/6 378/3/6 384/3/6
f 375/3/6 382/3/6 385/3/6
f 382/3/6 383/3/6 385/3/6
f 385/3/6 383/3/6 386/3/6
f 384/3/6 378/3/6 387/3/6
f 375/3/6 385/3/6 388/3/6
f 386/3/6 387/3/6 389/3/6
f 369/3/6 375/3/6 390/3/6
f 388/3/6 389/3/6 390/3/6
f 359/3/6 369/3/6 390/3/6
f 375/3/6 388/3/6 390/3/6
f 390/3/6 389/3/6 391/3/6
f 391/3/6 389/3/6 392/3/6
f 392/3/6 389/3/6 393/3/6
f 393/3/6 389/3/6 394/3/6
f 378/2/6 379/2/6 395/2/6
f 394/3/6 389/3/6 395/3/6
f 389/3/6 387/3/6 395/3/6
f 387/3/6 378/3/6 395/3/6
f 395/2/6 379/2/6 396/2/6
f 359/3/6 390/3/6 397/3/6
f 391/3/6 392/3/6 398/3/6
f 398/3/6 392/3/6 399/3/6
f 393/3/6 394/3/6 400/3/6
f 397/3/6 398/3/6 403/3/6
f 399/3/6 400/3/6 404/3/6
f 401/4/6 402/4/6 405/4/6
f 405/4/6 402/4/6 406/4/6
f 357/4/6 358/4/6 407/4/6
f 407/4/6 358/4/6 408/4/6
f 403/3/6 404/3/6 409/3/6
f 359/3/6 397/3/6 409/3/6
f 397/3/6 403/3/6 409/3/6
f 400/3/6 394/3/6 410/3/6
f 409/3/6 404/3/6 410/3/6
f 404/3/6 400/3/6 410/3/6
f 401/4/6 405/4/6 411/4/6
f 411/4/6 405/4/6 412/4/6
f 409/2/6 410/2/6 413/2/6
f 413/2/6 410/2/6 414/2/6
f 417/4/6 418/4/6 419/4/6
f 417/4/6 419/4/6 425/4/6
f 419/4/6 420/4/6 425/4/6
f 425/4/6 420/4/6 426/4/6
f 421/1/6 422/1/6 427/1/6
f 427/1/6 422/1/6 428/1/6
f 423/1/6 424/1/6 429/1/6
f 429/1/6 424/1/6 430/1/6
f 428/1/6 429/1/6 431/1/6
f 431/1/6 429/1/6 432/1/6
f 433/1/6 434/1/6 435/1/6
f 435/1/6 434/1/6 436/1/6
f 436/1/6 437/1/6 439/1/6
f 439/1/6 437/1/6 440/1/6
f 438/1/6 439/1/6 441/1/6
f 441/1/6 439/1/6 442/1/6
f 443/1/6 444/1/6 447/1/6
f 447/1/6 444/1/6 448/1/6
f 445/1/6 446/1/6 449/1/6
f 449/1/6 446/1/6 450/1/6
f 448/1/6 449/1/6 451/1/6
f 451/1/6 449/1/6 452/1/6
f 453/4/6 454/4/6 455/4/6
f 455/4/6 454/4/6 456/4/6
f 415/4/6 416/4/6 457/4/6
f 457/4/6 416/4/6 458/4/6
f 453/4/6 455/4/6 459/4/6
f 459/4/6 455/4/6 460/4/6
f 463/4/6 464/4/6 465/4/6
f 463/4/6 465/4/6 467/4/6
f 465/4/6 466/4/6 467/4/6
f 467/4/6 466/4/6 468/4/6
f 469/4/6 470/4/6 471/4/6
f 471/4/6 470/4/6 472/4/6
f 461/4/6 462/4/6 473/4/6
f 473/4/6 462/4/6 474/4/6
f 469/4/6 471/4/6 475/4/6
f 475/4/6 471/4/6 476/4/6
