# MagicaVoxel @ Ephtracy

# group
o 

# material
mtllib WeaponSpinningBlade.mtl
usemtl palette

# normals
vn -1 0 0
vn 1 0 0
vn 0 0 1
vn 0 0 -1
vn 0 -1 0
vn 0 1 0

# texcoords
vt 0.0878906 0.5
vt 0.142578 0.5
vt 0.146484 0.5
vt 0.150391 0.5
vt 0.162109 0.5
vt 0.166016 0.5
vt 0.169922 0.5

# verts
v -0.6 1.1 1.6
v -0.6 1.1 0.8
v -0.6 1.2 1.6
v -0.6 1.2 0.8
v -0.5 0.8 1.7
v -0.5 0.8 1.6
v -0.5 0.8 1.5
v -0.5 0.8 1.4
v -0.5 0.9 1.8
v -0.5 0.9 1.7
v -0.5 0.9 1.6
v -0.5 0.9 1.5
v -0.5 0.9 1.4
v -0.5 0.9 1.3
v -0.5 1 1.9
v -0.5 1 1.8
v -0.5 1 1.7
v -0.5 1 1.4
v -0.5 1 1.3
v -0.5 1 1.2
v -0.5 1.1 1.9
v -0.5 1.1 1.8
v -0.5 1.1 1.6
v -0.5 1.1 1.4
v -0.5 1.1 1.3
v -0.5 1.1 1.2
v -0.5 1.2 1.9
v -0.5 1.2 1.8
v -0.5 1.2 1.6
v -0.5 1.2 1.4
v -0.5 1.2 1.3
v -0.5 1.2 1.2
v -0.5 1.3 1.9
v -0.5 1.3 1.8
v -0.5 1.3 1.7
v -0.5 1.3 1.4
v -0.5 1.3 1.3
v -0.5 1.3 1.2
v -0.5 1.4 1.8
v -0.5 1.4 1.7
v -0.5 1.4 1.6
v -0.5 1.4 1.5
v -0.5 1.4 1.4
v -0.5 1.4 1.3
v -0.5 1.5 1.7
v -0.5 1.5 1.6
v -0.5 1.5 1.5
v -0.5 1.5 1.4
v -0.4 1 1
v -0.4 1 0.5
v -0.4 1.1 1.2
v -0.4 1.1 1
v -0.4 1.1 0.9
v -0.4 1.1 0.8
v -0.4 1.1 0.6
v -0.4 1.2 1.2
v -0.4 1.2 1
v -0.4 1.2 0.9
v -0.4 1.2 0.8
v -0.4 1.2 0.6
v -0.4 1.3 1
v -0.4 1.3 0.5
v -0.3 0.9 0.8
v -0.3 0.9 0.5
v -0.3 1 0.8
v -0.3 1 0.5
v -0.3 1 0.4
v -0.3 1.3 0.8
v -0.3 1.3 0.5
v -0.3 1.3 0.4
v -0.3 1.4 0.8
v -0.3 1.4 0.5
v 0.3 0.9 0.8
v 0.3 0.9 0.5
v 0.3 1 0.9
v 0.3 1 0.8
v 0.3 1 0.5
v 0.3 1 0.4
v 0.3 1.3 0.9
v 0.3 1.3 0.8
v 0.3 1.3 0.5
v 0.3 1.3 0.4
v 0.3 1.4 0.8
v 0.3 1.4 0.5
v 0.4 1 1
v 0.4 1 0.9
v 0.4 1.1 1.6
v 0.4 1.1 1
v 0.4 1.2 1.6
v 0.4 1.2 1
v 0.4 1.3 1
v 0.4 1.3 0.9
v 0.5 0.8 1.7
v 0.5 0.8 1.6
v 0.5 0.8 1.5
v 0.5 0.8 1.4
v 0.5 0.9 1.8
v 0.5 0.9 1.7
v 0.5 0.9 1.6
v 0.5 0.9 1.5
v 0.5 0.9 1.4
v 0.5 0.9 1.3
v 0.5 1 1.9
v 0.5 1 1.8
v 0.5 1 1.7
v 0.5 1 1.4
v 0.5 1 1.3
v 0.5 1 1.2
v 0.5 1.1 1.9
v 0.5 1.1 1.8
v 0.5 1.1 1.6
v 0.5 1.1 1.4
v 0.5 1.1 1.3
v 0.5 1.1 1.2
v 0.5 1.2 1.9
v 0.5 1.2 1.8
v 0.5 1.2 1.6
v 0.5 1.2 1.4
v 0.5 1.2 1.3
v 0.5 1.2 1.2
v 0.5 1.3 1.9
v 0.5 1.3 1.8
v 0.5 1.3 1.7
v 0.5 1.3 1.4
v 0.5 1.3 1.3
v 0.5 1.3 1.2
v 0.5 1.4 1.8
v 0.5 1.4 1.7
v 0.5 1.4 1.6
v 0.5 1.4 1.5
v 0.5 1.4 1.4
v 0.5 1.4 1.3
v 0.5 1.5 1.7
v 0.5 1.5 1.6
v 0.5 1.5 1.5
v 0.5 1.5 1.4
v 0.6 1.1 1.2
v 0.6 1.1 0.9
v 0.6 1.2 1.2
v 0.6 1.2 0.9
v -0.5 1.1 1.2
v -0.5 1.1 0.9
v -0.5 1.2 1.2
v -0.5 1.2 0.9
v -0.4 0.8 1.7
v -0.4 0.8 1.6
v -0.4 0.8 1.5
v -0.4 0.8 1.4
v -0.4 0.9 1.8
v -0.4 0.9 1.7
v -0.4 0.9 1.6
v -0.4 0.9 1.5
v -0.4 0.9 1.4
v -0.4 0.9 1.3
v -0.4 1 1.9
v -0.4 1 1.8
v -0.4 1 1.7
v -0.4 1 1.4
v -0.4 1 1.3
v -0.4 1 1.2
v -0.4 1.1 1.9
v -0.4 1.1 1.8
v -0.4 1.1 1.6
v -0.4 1.1 1.4
v -0.4 1.1 1.3
v -0.4 1.1 1.2
v -0.4 1.2 1.9
v -0.4 1.2 1.8
v -0.4 1.2 1.6
v -0.4 1.2 1.4
v -0.4 1.2 1.3
v -0.4 1.2 1.2
v -0.4 1.3 1.9
v -0.4 1.3 1.8
v -0.4 1.3 1.7
v -0.4 1.3 1.4
v -0.4 1.3 1.3
v -0.4 1.3 1.2
v -0.4 1.4 1.8
v -0.4 1.4 1.7
v -0.4 1.4 1.6
v -0.4 1.4 1.5
v -0.4 1.4 1.4
v -0.4 1.4 1.3
v -0.4 1.5 1.7
v -0.4 1.5 1.6
v -0.4 1.5 1.5
v -0.4 1.5 1.4
v -0.3 1 1
v -0.3 1 0.9
v -0.3 1.1 1.6
v -0.3 1.1 1
v -0.3 1.2 1.6
v -0.3 1.2 1
v -0.3 1.3 1
v -0.3 1.3 0.9
v -0.2 0.9 0.8
v -0.2 0.9 0.5
v -0.2 1 0.9
v -0.2 1 0.8
v -0.2 1 0.5
v -0.2 1 0.4
v -0.2 1.3 0.9
v -0.2 1.3 0.8
v -0.2 1.3 0.5
v -0.2 1.3 0.4
v -0.2 1.4 0.8
v -0.2 1.4 0.5
v 0.4 0.9 0.8
v 0.4 0.9 0.5
v 0.4 1 0.8
v 0.4 1 0.5
v 0.4 1 0.4
v 0.4 1.3 0.8
v 0.4 1.3 0.5
v 0.4 1.3 0.4
v 0.4 1.4 0.8
v 0.4 1.4 0.5
v 0.5 1 1
v 0.5 1 0.5
v 0.5 1.1 1.2
v 0.5 1.1 1
v 0.5 1.1 0.9
v 0.5 1.1 0.8
v 0.5 1.1 0.6
v 0.5 1.2 1.2
v 0.5 1.2 1
v 0.5 1.2 0.9
v 0.5 1.2 0.8
v 0.5 1.2 0.6
v 0.5 1.3 1
v 0.5 1.3 0.5
v 0.6 0.8 1.7
v 0.6 0.8 1.6
v 0.6 0.8 1.5
v 0.6 0.8 1.4
v 0.6 0.9 1.8
v 0.6 0.9 1.7
v 0.6 0.9 1.6
v 0.6 0.9 1.5
v 0.6 0.9 1.4
v 0.6 0.9 1.3
v 0.6 1 1.9
v 0.6 1 1.8
v 0.6 1 1.7
v 0.6 1 1.4
v 0.6 1 1.3
v 0.6 1 1.2
v 0.6 1.1 1.9
v 0.6 1.1 1.8
v 0.6 1.1 1.6
v 0.6 1.1 1.4
v 0.6 1.1 1.3
v 0.6 1.1 1.2
v 0.6 1.2 1.9
v 0.6 1.2 1.8
v 0.6 1.2 1.6
v 0.6 1.2 1.4
v 0.6 1.2 1.3
v 0.6 1.2 1.2
v 0.6 1.3 1.9
v 0.6 1.3 1.8
v 0.6 1.3 1.7
v 0.6 1.3 1.4
v 0.6 1.3 1.3
v 0.6 1.3 1.2
v 0.6 1.4 1.8
v 0.6 1.4 1.7
v 0.6 1.4 1.6
v 0.6 1.4 1.5
v 0.6 1.4 1.4
v 0.6 1.4 1.3
v 0.6 1.5 1.7
v 0.6 1.5 1.6
v 0.6 1.5 1.5
v 0.6 1.5 1.4
v 0.7 1.1 1.6
v 0.7 1.1 0.8
v 0.7 1.2 1.6
v 0.7 1.2 0.8
v -0.5 1 1.9
v -0.5 1.1 1.9
v -0.5 1.2 1.9
v -0.5 1.3 1.9
v -0.4 1 1.9
v -0.4 1.1 1.9
v -0.4 1.2 1.9
v -0.4 1.3 1.9
v 0.5 1 1.9
v 0.5 1.1 1.9
v 0.5 1.2 1.9
v 0.5 1.3 1.9
v 0.6 1 1.9
v 0.6 1.1 1.9
v 0.6 1.2 1.9
v 0.6 1.3 1.9
v -0.5 0.9 1.8
v -0.5 1 1.8
v -0.5 1.3 1.8
v -0.5 1.4 1.8
v -0.4 0.9 1.8
v -0.4 1 1.8
v -0.4 1.3 1.8
v -0.4 1.4 1.8
v 0.5 0.9 1.8
v 0.5 1 1.8
v 0.5 1.3 1.8
v 0.5 1.4 1.8
v 0.6 0.9 1.8
v 0.6 1 1.8
v 0.6 1.3 1.8
v 0.6 1.4 1.8
v -0.5 0.8 1.7
v -0.5 0.9 1.7
v -0.5 1.4 1.7
v -0.5 1.5 1.7
v -0.4 0.8 1.7
v -0.4 0.9 1.7
v -0.4 1.4 1.7
v -0.4 1.5 1.7
v 0.5 0.8 1.7
v 0.5 0.9 1.7
v 0.5 1.4 1.7
v 0.5 1.5 1.7
v 0.6 0.8 1.7
v 0.6 0.9 1.7
v 0.6 1.4 1.7
v 0.6 1.5 1.7
v -0.6 1.1 1.6
v -0.6 1.2 1.6
v -0.5 1.1 1.6
v -0.5 1.2 1.6
v -0.4 1.1 1.6
v -0.4 1.2 1.6
v -0.3 1.1 1.6
v -0.3 1.2 1.6
v 0.4 1.1 1.6
v 0.4 1.2 1.6
v 0.5 1.1 1.6
v 0.5 1.2 1.6
v 0.6 1.1 1.6
v 0.6 1.2 1.6
v 0.7 1.1 1.6
v 0.7 1.2 1.6
v -0.4 1 1
v -0.4 1.1 1
v -0.4 1.2 1
v -0.4 1.3 1
v -0.3 1 1
v -0.3 1.1 1
v -0.3 1.2 1
v -0.3 1.3 1
v 0.4 1 1
v 0.4 1.1 1
v 0.4 1.2 1
v 0.4 1.3 1
v 0.5 1 1
v 0.5 1.1 1
v 0.5 1.2 1
v 0.5 1.3 1
v -0.5 1.1 0.9
v -0.5 1.2 0.9
v -0.4 1.1 0.9
v -0.4 1.2 0.9
v -0.3 1 0.9
v -0.3 1.3 0.9
v -0.2 1 0.9
v -0.2 1.3 0.9
v 0.3 1 0.9
v 0.3 1.3 0.9
v 0.4 1 0.9
v 0.4 1.3 0.9
v 0.5 1.1 0.9
v 0.5 1.2 0.9
v 0.6 1.1 0.9
v 0.6 1.2 0.9
v -0.3 0.9 0.8
v -0.3 1 0.8
v -0.3 1.3 0.8
v -0.3 1.4 0.8
v -0.2 0.9 0.8
v -0.2 1 0.8
v -0.2 1.3 0.8
v -0.2 1.4 0.8
v 0.3 0.9 0.8
v 0.3 1 0.8
v 0.3 1.3 0.8
v 0.3 1.4 0.8
v 0.4 0.9 0.8
v 0.4 1 0.8
v 0.4 1.3 0.8
v 0.4 1.4 0.8
v -0.5 0.8 1.4
v -0.5 0.9 1.4
v -0.5 1.4 1.4
v -0.5 1.5 1.4
v -0.4 0.8 1.4
v -0.4 0.9 1.4
v -0.4 1.4 1.4
v -0.4 1.5 1.4
v 0.5 0.8 1.4
v 0.5 0.9 1.4
v 0.5 1.4 1.4
v 0.5 1.5 1.4
v 0.6 0.8 1.4
v 0.6 0.9 1.4
v 0.6 1.4 1.4
v 0.6 1.5 1.4
v -0.5 0.9 1.3
v -0.5 1 1.3
v -0.5 1.3 1.3
v -0.5 1.4 1.3
v -0.4 0.9 1.3
v -0.4 1 1.3
v -0.4 1.3 1.3
v -0.4 1.4 1.3
v 0.5 0.9 1.3
v 0.5 1 1.3
v 0.5 1.3 1.3
v 0.5 1.4 1.3
v 0.6 0.9 1.3
v 0.6 1 1.3
v 0.6 1.3 1.3
v 0.6 1.4 1.3
v -0.5 1 1.2
v -0.5 1.1 1.2
v -0.5 1.2 1.2
v -0.5 1.3 1.2
v -0.4 1 1.2
v -0.4 1.1 1.2
v -0.4 1.2 1.2
v -0.4 1.3 1.2
v 0.5 1 1.2
v 0.5 1.1 1.2
v 0.5 1.2 1.2
v 0.5 1.3 1.2
v 0.6 1 1.2
v 0.6 1.1 1.2
v 0.6 1.2 1.2
v 0.6 1.3 1.2
v -0.6 1.1 0.8
v -0.6 1.2 0.8
v -0.4 1.1 0.8
v -0.4 1.2 0.8
v 0.5 1.1 0.8
v 0.5 1.2 0.8
v 0.7 1.1 0.8
v 0.7 1.2 0.8
v -0.4 1 0.5
v -0.4 1.3 0.5
v -0.3 0.9 0.5
v -0.3 1 0.5
v -0.3 1.3 0.5
v -0.3 1.4 0.5
v -0.2 0.9 0.5
v -0.2 1 0.5
v -0.2 1.3 0.5
v -0.2 1.4 0.5
v 0.3 0.9 0.5
v 0.3 1 0.5
v 0.3 1.3 0.5
v 0.3 1.4 0.5
v 0.4 0.9 0.5
v 0.4 1 0.5
v 0.4 1.3 0.5
v 0.4 1.4 0.5
v 0.5 1 0.5
v 0.5 1.3 0.5
v -0.3 1 0.4
v -0.3 1.3 0.4
v -0.2 1 0.4
v -0.2 1.3 0.4
v 0.3 1 0.4
v 0.3 1.3 0.4
v 0.4 1 0.4
v 0.4 1.3 0.4
v -0.5 0.8 1.7
v -0.4 0.8 1.7
v 0.5 0.8 1.7
v 0.6 0.8 1.7
v -0.5 0.8 1.6
v -0.4 0.8 1.6
v 0.5 0.8 1.6
v 0.6 0.8 1.6
v -0.5 0.8 1.5
v -0.4 0.8 1.5
v 0.5 0.8 1.5
v 0.6 0.8 1.5
v -0.5 0.8 1.4
v -0.4 0.8 1.4
v 0.5 0.8 1.4
v 0.6 0.8 1.4
v -0.5 0.9 1.8
v -0.4 0.9 1.8
v 0.5 0.9 1.8
v 0.6 0.9 1.8
v -0.5 0.9 1.7
v -0.4 0.9 1.7
v 0.5 0.9 1.7
v 0.6 0.9 1.7
v -0.5 0.9 1.4
v -0.4 0.9 1.4
v 0.5 0.9 1.4
v 0.6 0.9 1.4
v -0.5 0.9 1.3
v -0.4 0.9 1.3
v 0.5 0.9 1.3
v 0.6 0.9 1.3
v -0.3 0.9 0.8
v -0.2 0.9 0.8
v 0.3 0.9 0.8
v 0.4 0.9 0.8
v -0.3 0.9 0.5
v -0.2 0.9 0.5
v 0.3 0.9 0.5
v 0.4 0.9 0.5
v -0.5 1 1.9
v -0.4 1 1.9
v 0.5 1 1.9
v 0.6 1 1.9
v -0.5 1 1.8
v -0.4 1 1.8
v 0.5 1 1.8
v 0.6 1 1.8
v -0.5 1 1.3
v -0.4 1 1.3
v 0.5 1 1.3
v 0.6 1 1.3
v -0.5 1 1.2
v -0.4 1 1.2
v 0.5 1 1.2
v 0.6 1 1.2
v -0.4 1 1
v -0.3 1 1
v 0.4 1 1
v 0.5 1 1
v -0.3 1 0.9
v -0.2 1 0.9
v 0.3 1 0.9
v 0.4 1 0.9
v -0.3 1 0.8
v -0.2 1 0.8
v 0.3 1 0.8
v 0.4 1 0.8
v -0.4 1 0.5
v -0.3 1 0.5
v -0.2 1 0.5
v 0.3 1 0.5
v 0.4 1 0.5
v 0.5 1 0.5
v -0.3 1 0.4
v -0.2 1 0.4
v 0.3 1 0.4
v 0.4 1 0.4
v -0.6 1.1 1.6
v -0.5 1.1 1.6
v -0.4 1.1 1.6
v -0.3 1.1 1.6
v 0.4 1.1 1.6
v 0.5 1.1 1.6
v 0.6 1.1 1.6
v 0.7 1.1 1.6
v -0.5 1.1 1.4
v -0.4 1.1 1.4
v 0.5 1.1 1.4
v 0.6 1.1 1.4
v -0.5 1.1 1.3
v -0.4 1.1 1.3
v 0.5 1.1 1.3
v 0.6 1.1 1.3
v -0.5 1.1 1.2
v -0.4 1.1 1.2
v 0.5 1.1 1.2
v 0.6 1.1 1.2
v -0.4 1.1 1
v -0.3 1.1 1
v 0.4 1.1 1
v 0.5 1.1 1
v -0.5 1.1 0.9
v -0.4 1.1 0.9
v 0.5 1.1 0.9
v 0.6 1.1 0.9
v -0.6 1.1 0.8
v -0.4 1.1 0.8
v 0.5 1.1 0.8
v 0.7 1.1 0.8
v -0.6 1.2 1.6
v -0.5 1.2 1.6
v -0.4 1.2 1.6
v -0.3 1.2 1.6
v 0.4 1.2 1.6
v 0.5 1.2 1.6
v 0.6 1.2 1.6
v 0.7 1.2 1.6
v -0.5 1.2 1.4
v -0.4 1.2 1.4
v 0.5 1.2 1.4
v 0.6 1.2 1.4
v -0.5 1.2 1.3
v -0.4 1.2 1.3
v 0.5 1.2 1.3
v 0.6 1.2 1.3
v -0.5 1.2 1.2
v -0.4 1.2 1.2
v 0.5 1.2 1.2
v 0.6 1.2 1.2
v -0.4 1.2 1
v -0.3 1.2 1
v 0.4 1.2 1
v 0.5 1.2 1
v -0.5 1.2 0.9
v -0.4 1.2 0.9
v 0.5 1.2 0.9
v 0.6 1.2 0.9
v -0.6 1.2 0.8
v -0.4 1.2 0.8
v 0.5 1.2 0.8
v 0.7 1.2 0.8
v -0.5 1.3 1.9
v -0.4 1.3 1.9
v 0.5 1.3 1.9
v 0.6 1.3 1.9
v -0.5 1.3 1.8
v -0.4 1.3 1.8
v 0.5 1.3 1.8
v 0.6 1.3 1.8
v -0.5 1.3 1.3
v -0.4 1.3 1.3
v 0.5 1.3 1.3
v 0.6 1.3 1.3
v -0.5 1.3 1.2
v -0.4 1.3 1.2
v 0.5 1.3 1.2
v 0.6 1.3 1.2
v -0.4 1.3 1
v -0.3 1.3 1
v 0.4 1.3 1
v 0.5 1.3 1
v -0.3 1.3 0.9
v -0.2 1.3 0.9
v 0.3 1.3 0.9
v 0.4 1.3 0.9
v -0.3 1.3 0.8
v -0.2 1.3 0.8
v 0.3 1.3 0.8
v 0.4 1.3 0.8
v -0.4 1.3 0.5
v -0.3 1.3 0.5
v -0.2 1.3 0.5
v 0.3 1.3 0.5
v 0.4 1.3 0.5
v 0.5 1.3 0.5
v -0.3 1.3 0.4
v -0.2 1.3 0.4
v 0.3 1.3 0.4
v 0.4 1.3 0.4
v -0.5 1.4 1.8
v -0.4 1.4 1.8
v 0.5 1.4 1.8
v 0.6 1.4 1.8
v -0.5 1.4 1.7
v -0.4 1.4 1.7
v 0.5 1.4 1.7
v 0.6 1.4 1.7
v -0.5 1.4 1.4
v -0.4 1.4 1.4
v 0.5 1.4 1.4
v 0.6 1.4 1.4
v -0.5 1.4 1.3
v -0.4 1.4 1.3
v 0.5 1.4 1.3
v 0.6 1.4 1.3
v -0.3 1.4 0.8
v -0.2 1.4 0.8
v 0.3 1.4 0.8
v 0.4 1.4 0.8
v -0.3 1.4 0.5
v -0.2 1.4 0.5
v 0.3 1.4 0.5
v 0.4 1.4 0.5
v -0.5 1.5 1.7
v -0.4 1.5 1.7
v 0.5 1.5 1.7
v 0.6 1.5 1.7
v -0.5 1.5 1.6
v -0.4 1.5 1.6
v 0.5 1.5 1.6
v 0.6 1.5 1.6
v -0.5 1.5 1.5
v -0.4 1.5 1.5
v 0.5 1.5 1.5
v 0.6 1.5 1.5
v -0.5 1.5 1.4
v -0.4 1.5 1.4
v 0.5 1.5 1.4
v 0.6 1.5 1.4

# faces
f 3/4/1 2/4/1 1/4/1
f 4/4/1 2/4/1 3/4/1
f 10/6/1 6/6/1 5/6/1
f 11/7/1 7/7/1 6/7/1
f 11/6/1 6/6/1 10/6/1
f 12/6/1 8/6/1 7/6/1
f 12/7/1 7/7/1 11/7/1
f 13/6/1 8/6/1 12/6/1
f 16/7/1 10/7/1 9/7/1
f 17/5/1 11/5/1 10/5/1
f 17/5/1 12/5/1 11/5/1
f 17/7/1 10/7/1 16/7/1
f 17/5/1 13/5/1 12/5/1
f 18/7/1 14/7/1 13/7/1
f 18/5/1 13/5/1 17/5/1
f 19/7/1 14/7/1 18/7/1
f 21/6/1 16/6/1 15/6/1
f 22/5/1 17/5/1 16/5/1
f 22/6/1 16/6/1 21/6/1
f 23/1/1 18/1/1 17/1/1
f 24/5/1 19/5/1 18/5/1
f 24/1/1 18/1/1 23/1/1
f 25/6/1 20/6/1 19/6/1
f 25/5/1 19/5/1 24/5/1
f 26/6/1 20/6/1 25/6/1
f 27/7/1 22/7/1 21/7/1
f 28/5/1 17/5/1 22/5/1
f 28/7/1 22/7/1 27/7/1
f 29/1/1 23/1/1 17/1/1
f 33/6/1 28/6/1 27/6/1
f 34/5/1 17/5/1 28/5/1
f 34/6/1 28/6/1 33/6/1
f 35/1/1 29/1/1 17/1/1
f 35/5/1 17/5/1 34/5/1
f 35/1/1 30/1/1 29/1/1
f 36/5/1 31/5/1 30/5/1
f 36/1/1 30/1/1 35/1/1
f 37/6/1 32/6/1 31/6/1
f 37/5/1 31/5/1 36/5/1
f 38/6/1 32/6/1 37/6/1
f 39/7/1 35/7/1 34/7/1
f 40/5/1 36/5/1 35/5/1
f 40/7/1 35/7/1 39/7/1
f 41/5/1 36/5/1 40/5/1
f 42/5/1 36/5/1 41/5/1
f 43/7/1 37/7/1 36/7/1
f 43/5/1 36/5/1 42/5/1
f 44/7/1 37/7/1 43/7/1
f 45/6/1 41/6/1 40/6/1
f 46/7/1 42/7/1 41/7/1
f 46/6/1 41/6/1 45/6/1
f 47/6/1 43/6/1 42/6/1
f 47/7/1 42/7/1 46/7/1
f 48/6/1 43/6/1 47/6/1
f 52/4/1 50/4/1 49/4/1
f 53/4/1 50/4/1 52/4/1
f 54/4/1 50/4/1 53/4/1
f 55/4/1 50/4/1 54/4/1
f 56/4/1 52/4/1 51/4/1
f 56/4/1 53/4/1 52/4/1
f 57/4/1 53/4/1 56/4/1
f 58/4/1 53/4/1 57/4/1
f 59/1/1 55/1/1 54/1/1
f 60/4/1 50/4/1 55/4/1
f 60/1/1 55/1/1 59/1/1
f 61/4/1 59/4/1 58/4/1
f 61/4/1 58/4/1 57/4/1
f 61/4/1 60/4/1 59/4/1
f 62/4/1 50/4/1 60/4/1
f 62/4/1 60/4/1 61/4/1
f 65/3/1 64/3/1 63/3/1
f 66/3/1 64/3/1 65/3/1
f 69/3/1 67/3/1 66/3/1
f 70/3/1 67/3/1 69/3/1
f 71/3/1 69/3/1 68/3/1
f 72/3/1 69/3/1 71/3/1
f 76/3/1 74/3/1 73/3/1
f 77/3/1 74/3/1 76/3/1
f 79/3/1 76/3/1 75/3/1
f 80/2/1 77/2/1 76/2/1
f 80/3/1 76/3/1 79/3/1
f 81/3/1 78/3/1 77/3/1
f 81/2/1 77/2/1 80/2/1
f 82/3/1 78/3/1 81/3/1
f 83/3/1 81/3/1 80/3/1
f 84/3/1 81/3/1 83/3/1
f 88/4/1 86/4/1 85/4/1
f 89/4/1 88/4/1 87/4/1
f 90/4/1 86/4/1 88/4/1
f 90/4/1 88/4/1 89/4/1
f 91/4/1 86/4/1 90/4/1
f 92/4/1 86/4/1 91/4/1
f 98/6/1 94/6/1 93/6/1
f 99/7/1 95/7/1 94/7/1
f 99/6/1 94/6/1 98/6/1
f 100/6/1 96/6/1 95/6/1
f 100/7/1 95/7/1 99/7/1
f 101/6/1 96/6/1 100/6/1
f 104/7/1 98/7/1 97/7/1
f 105/5/1 99/5/1 98/5/1
f 105/5/1 100/5/1 99/5/1
f 105/7/1 98/7/1 104/7/1
f 105/5/1 101/5/1 100/5/1
f 106/7/1 102/7/1 101/7/1
f 106/5/1 101/5/1 105/5/1
f 107/7/1 102/7/1 106/7/1
f 109/6/1 104/6/1 103/6/1
f 110/5/1 105/5/1 104/5/1
f 110/6/1 104/6/1 109/6/1
f 111/1/1 106/1/1 105/1/1
f 112/5/1 107/5/1 106/5/1
f 112/1/1 106/1/1 111/1/1
f 113/6/1 108/6/1 107/6/1
f 113/5/1 107/5/1 112/5/1
f 114/6/1 108/6/1 113/6/1
f 115/7/1 110/7/1 109/7/1
f 116/5/1 105/5/1 110/5/1
f 116/7/1 110/7/1 115/7/1
f 117/1/1 111/1/1 105/1/1
f 121/6/1 116/6/1 115/6/1
f 122/5/1 105/5/1 116/5/1
f 122/6/1 116/6/1 121/6/1
f 123/1/1 117/1/1 105/1/1
f 123/5/1 105/5/1 122/5/1
f 123/1/1 118/1/1 117/1/1
f 124/5/1 119/5/1 118/5/1
f 124/1/1 118/1/1 123/1/1
f 125/6/1 120/6/1 119/6/1
f 125/5/1 119/5/1 124/5/1
f 126/6/1 120/6/1 125/6/1
f 127/7/1 123/7/1 122/7/1
f 128/5/1 124/5/1 123/5/1
f 128/7/1 123/7/1 127/7/1
f 129/5/1 124/5/1 128/5/1
f 130/5/1 124/5/1 129/5/1
f 131/7/1 125/7/1 124/7/1
f 131/5/1 124/5/1 130/5/1
f 132/7/1 125/7/1 131/7/1
f 133/6/1 129/6/1 128/6/1
f 134/7/1 130/7/1 129/7/1
f 134/6/1 129/6/1 133/6/1
f 135/6/1 131/6/1 130/6/1
f 135/7/1 130/7/1 134/7/1
f 136/6/1 131/6/1 135/6/1
f 139/4/1 138/4/1 137/4/1
f 140/4/1 138/4/1 139/4/1
f 141/4/2 142/4/2 143/4/2
f 143/4/2 142/4/2 144/4/2
f 145/6/2 146/6/2 150/6/2
f 146/7/2 147/7/2 151/7/2
f 150/6/2 146/6/2 151/6/2
f 147/6/2 148/6/2 152/6/2
f 151/7/2 147/7/2 152/7/2
f 152/6/2 148/6/2 153/6/2
f 149/7/2 150/7/2 156/7/2
f 150/5/2 151/5/2 157/5/2
f 151/5/2 152/5/2 157/5/2
f 156/7/2 150/7/2 157/7/2
f 152/5/2 153/5/2 157/5/2
f 153/7/2 154/7/2 158/7/2
f 157/5/2 153/5/2 158/5/2
f 158/7/2 154/7/2 159/7/2
f 155/6/2 156/6/2 161/6/2
f 156/5/2 157/5/2 162/5/2
f 161/6/2 156/6/2 162/6/2
f 157/1/2 158/1/2 163/1/2
f 158/5/2 159/5/2 164/5/2
f 163/1/2 158/1/2 164/1/2
f 159/6/2 160/6/2 165/6/2
f 164/5/2 159/5/2 165/5/2
f 165/6/2 160/6/2 166/6/2
f 161/7/2 162/7/2 167/7/2
f 162/5/2 157/5/2 168/5/2
f 167/7/2 162/7/2 168/7/2
f 157/1/2 163/1/2 169/1/2
f 167/6/2 168/6/2 173/6/2
f 168/5/2 157/5/2 174/5/2
f 173/6/2 168/6/2 174/6/2
f 157/1/2 169/1/2 175/1/2
f 174/5/2 157/5/2 175/5/2
f 169/1/2 170/1/2 175/1/2
f 170/5/2 171/5/2 176/5/2
f 175/1/2 170/1/2 176/1/2
f 171/6/2 172/6/2 177/6/2
f 176/5/2 171/5/2 177/5/2
f 177/6/2 172/6/2 178/6/2
f 174/7/2 175/7/2 179/7/2
f 175/5/2 176/5/2 180/5/2
f 179/7/2 175/7/2 180/7/2
f 180/5/2 176/5/2 181/5/2
f 181/5/2 176/5/2 182/5/2
f 176/7/2 177/7/2 183/7/2
f 182/5/2 176/5/2 183/5/2
f 183/7/2 177/7/2 184/7/2
f 180/6/2 181/6/2 185/6/2
f 181/7/2 182/7/2 186/7/2
f 185/6/2 181/6/2 186/6/2
f 182/6/2 183/6/2 187/6/2
f 186/7/2 182/7/2 187/7/2
f 187/6/2 183/6/2 188/6/2
f 189/4/2 190/4/2 192/4/2
f 191/4/2 192/4/2 193/4/2
f 192/4/2 190/4/2 194/4/2
f 193/4/2 192/4/2 194/4/2
f 194/4/2 190/4/2 195/4/2
f 195/4/2 190/4/2 196/4/2
f 197/3/2 198/3/2 200/3/2
f 200/3/2 198/3/2 201/3/2
f 199/3/2 200/3/2 203/3/2
f 200/2/2 201/2/2 204/2/2
f 203/3/2 200/3/2 204/3/2
f 201/3/2 202/3/2 205/3/2
f 204/2/2 201/2/2 205/2/2
f 205/3/2 202/3/2 206/3/2
f 204/3/2 205/3/2 207/3/2
f 207/3/2 205/3/2 208/3/2
f 209/3/2 210/3/2 211/3/2
f 211/3/2 210/3/2 212/3/2
f 212/3/2 213/3/2 215/3/2
f 215/3/2 213/3/2 216/3/2
f 214/3/2 215/3/2 217/3/2
f 217/3/2 215/3/2 218/3/2
f 219/4/2 220/4/2 222/4/2
f 222/4/2 220/4/2 223/4/2
f 223/4/2 220/4/2 224/4/2
f 224/4/2 220/4/2 225/4/2
f 221/4/2 222/4/2 226/4/2
f 222/4/2 223/4/2 226/4/2
f 226/4/2 223/4/2 227/4/2
f 227/4/2 223/4/2 228/4/2
f 224/1/2 225/1/2 229/1/2
f 225/4/2 220/4/2 230/4/2
f 229/1/2 225/1/2 230/1/2
f 228/4/2 229/4/2 231/4/2
f 227/4/2 228/4/2 231/4/2
f 229/4/2 230/4/2 231/4/2
f 230/4/2 220/4/2 232/4/2
f 231/4/2 230/4/2 232/4/2
f 233/6/2 234/6/2 238/6/2
f 234/7/2 235/7/2 239/7/2
f 238/6/2 234/6/2 239/6/2
f 235/6/2 236/6/2 240/6/2
f 239/7/2 235/7/2 240/7/2
f 240/6/2 236/6/2 241/6/2
f 237/7/2 238/7/2 244/7/2
f 238/5/2 239/5/2 245/5/2
f 239/5/2 240/5/2 245/5/2
f 244/7/2 238/7/2 245/7/2
f 240/5/2 241/5/2 245/5/2
f 241/7/2 242/7/2 246/7/2
f 245/5/2 241/5/2 246/5/2
f 246/7/2 242/7/2 247/7/2
f 243/6/2 244/6/2 249/6/2
f 244/5/2 245/5/2 250/5/2
f 249/6/2 244/6/2 250/6/2
f 245/1/2 246/1/2 251/1/2
f 246/5/2 247/5/2 252/5/2
f 251/1/2 246/1/2 252/1/2
f 247/6/2 248/6/2 253/6/2
f 252/5/2 247/5/2 253/5/2
f 253/6/2 248/6/2 254/6/2
f 249/7/2 250/7/2 255/7/2
f 250/5/2 245/5/2 256/5/2
f 255/7/2 250/7/2 256/7/2
f 245/1/2 251/1/2 257/1/2
f 255/6/2 256/6/2 261/6/2
f 256/5/2 245/5/2 262/5/2
f 261/6/2 256/6/2 262/6/2
f 245/1/2 257/1/2 263/1/2
f 262/5/2 245/5/2 263/5/2
f 257/1/2 258/1/2 263/1/2
f 258/5/2 259/5/2 264/5/2
f 263/1/2 258/1/2 264/1/2
f 259/6/2 260/6/2 265/6/2
f 264/5/2 259/5/2 265/5/2
f 265/6/2 260/6/2 266/6/2
f 262/7/2 263/7/2 267/7/2
f 263/5/2 264/5/2 268/5/2
f 267/7/2 263/7/2 268/7/2
f 268/5/2 264/5/2 269/5/2
f 269/5/2 264/5/2 270/5/2
f 264/7/2 265/7/2 271/7/2
f 270/5/2 264/5/2 271/5/2
f 271/7/2 265/7/2 272/7/2
f 268/6/2 269/6/2 273/6/2
f 269/7/2 270/7/2 274/7/2
f 273/6/2 269/6/2 274/6/2
f 270/6/2 271/6/2 275/6/2
f 274/7/2 270/7/2 275/7/2
f 275/6/2 271/6/2 276/6/2
f 277/4/2 278/4/2 279/4/2
f 279/4/2 278/4/2 280/4/2
f 285/6/3 282/6/3 281/6/3
f 286/7/3 283/7/3 282/7/3
f 286/6/3 282/6/3 285/6/3
f 287/6/3 284/6/3 283/6/3
f 287/7/3 283/7/3 286/7/3
f 288/6/3 284/6/3 287/6/3
f 293/6/3 290/6/3 289/6/3
f 294/7/3 291/7/3 290/7/3
f 294/6/3 290/6/3 293/6/3
f 295/6/3 292/6/3 291/6/3
f 295/7/3 291/7/3 294/7/3
f 296/6/3 292/6/3 295/6/3
f 301/7/3 298/7/3 297/7/3
f 302/7/3 298/7/3 301/7/3
f 303/7/3 300/7/3 299/7/3
f 304/7/3 300/7/3 303/7/3
f 309/7/3 306/7/3 305/7/3
f 310/7/3 306/7/3 309/7/3
f 311/7/3 308/7/3 307/7/3
f 312/7/3 308/7/3 311/7/3
f 317/6/3 314/6/3 313/6/3
f 318/6/3 314/6/3 317/6/3
f 319/6/3 316/6/3 315/6/3
f 320/6/3 316/6/3 319/6/3
f 325/6/3 322/6/3 321/6/3
f 326/6/3 322/6/3 325/6/3
f 327/6/3 324/6/3 323/6/3
f 328/6/3 324/6/3 327/6/3
f 331/4/3 330/4/3 329/4/3
f 332/4/3 330/4/3 331/4/3
f 335/4/3 334/4/3 333/4/3
f 336/4/3 334/4/3 335/4/3
f 339/4/3 338/4/3 337/4/3
f 340/4/3 338/4/3 339/4/3
f 343/4/3 342/4/3 341/4/3
f 344/4/3 342/4/3 343/4/3
f 349/4/3 346/4/3 345/4/3
f 350/4/3 346/4/3 349/4/3
f 351/4/3 348/4/3 347/4/3
f 352/4/3 348/4/3 351/4/3
f 357/4/3 354/4/3 353/4/3
f 358/4/3 354/4/3 357/4/3
f 359/4/3 356/4/3 355/4/3
f 360/4/3 356/4/3 359/4/3
f 363/4/3 362/4/3 361/4/3
f 364/4/3 362/4/3 363/4/3
f 367/3/3 366/3/3 365/3/3
f 368/3/3 366/3/3 367/3/3
f 371/3/3 370/3/3 369/3/3
f 372/3/3 370/3/3 371/3/3
f 375/4/3 374/4/3 373/4/3
f 376/4/3 374/4/3 375/4/3
f 381/3/3 378/3/3 377/3/3
f 382/3/3 378/3/3 381/3/3
f 383/3/3 380/3/3 379/3/3
f 384/3/3 380/3/3 383/3/3
f 389/3/3 386/3/3 385/3/3
f 390/3/3 386/3/3 389/3/3
f 391/3/3 388/3/3 387/3/3
f 392/3/3 388/3/3 391/3/3
f 393/6/4 394/6/4 397/6/4
f 397/6/4 394/6/4 398/6/4
f 395/6/4 396/6/4 399/6/4
f 399/6/4 396/6/4 400/6/4
f 401/6/4 402/6/4 405/6/4
f 405/6/4 402/6/4 406/6/4
f 403/6/4 404/6/4 407/6/4
f 407/6/4 404/6/4 408/6/4
f 409/7/4 410/7/4 413/7/4
f 413/7/4 410/7/4 414/7/4
f 411/7/4 412/7/4 415/7/4
f 415/7/4 412/7/4 416/7/4
f 417/7/4 418/7/4 421/7/4
f 421/7/4 418/7/4 422/7/4
f 419/7/4 420/7/4 423/7/4
f 423/7/4 420/7/4 424/7/4
f 425/6/4 426/6/4 429/6/4
f 426/7/4 427/7/4 430/7/4
f 429/6/4 426/6/4 430/6/4
f 427/6/4 428/6/4 431/6/4
f 430/7/4 427/7/4 431/7/4
f 431/6/4 428/6/4 432/6/4
f 433/6/4 434/6/4 437/6/4
f 434/7/4 435/7/4 438/7/4
f 437/6/4 434/6/4 438/6/4
f 435/6/4 436/6/4 439/6/4
f 438/7/4 435/7/4 439/7/4
f 439/6/4 436/6/4 440/6/4
f 441/4/4 442/4/4 443/4/4
f 443/4/4 442/4/4 444/4/4
f 445/4/4 446/4/4 447/4/4
f 447/4/4 446/4/4 448/4/4
f 449/4/4 450/4/4 452/4/4
f 452/4/4 450/4/4 453/4/4
f 451/3/4 452/3/4 455/3/4
f 455/3/4 452/3/4 456/3/4
f 453/3/4 454/3/4 457/3/4
f 457/3/4 454/3/4 458/3/4
f 459/3/4 460/3/4 463/3/4
f 463/3/4 460/3/4 464/3/4
f 461/3/4 462/3/4 465/3/4
f 465/3/4 462/3/4 466/3/4
f 464/4/4 465/4/4 467/4/4
f 467/4/4 465/4/4 468/4/4
f 469/3/4 470/3/4 471/3/4
f 471/3/4 470/3/4 472/3/4
f 473/3/4 474/3/4 475/3/4
f 475/3/4 474/3/4 476/3/4
f 481/6/5 478/6/5 477/6/5
f 482/6/5 478/6/5 481/6/5
f 483/6/5 480/6/5 479/6/5
f 484/6/5 480/6/5 483/6/5
f 485/7/5 482/7/5 481/7/5
f 486/7/5 482/7/5 485/7/5
f 487/7/5 484/7/5 483/7/5
f 488/7/5 484/7/5 487/7/5
f 489/6/5 486/6/5 485/6/5
f 490/6/5 486/6/5 489/6/5
f 491/6/5 488/6/5 487/6/5
f 492/6/5 488/6/5 491/6/5
f 497/7/5 494/7/5 493/7/5
f 498/7/5 494/7/5 497/7/5
f 499/7/5 496/7/5 495/7/5
f 500/7/5 496/7/5 499/7/5
f 505/7/5 502/7/5 501/7/5
f 506/7/5 502/7/5 505/7/5
f 507/7/5 504/7/5 503/7/5
f 508/7/5 504/7/5 507/7/5
f 513/3/5 510/3/5 509/3/5
f 514/3/5 510/3/5 513/3/5
f 515/3/5 512/3/5 511/3/5
f 516/3/5 512/3/5 515/3/5
f 521/6/5 518/6/5 517/6/5
f 522/6/5 518/6/5 521/6/5
f 523/6/5 520/6/5 519/6/5
f 524/6/5 520/6/5 523/6/5
f 529/6/5 526/6/5 525/6/5
f 530/6/5 526/6/5 529/6/5
f 531/6/5 528/6/5 527/6/5
f 532/6/5 528/6/5 531/6/5
f 537/4/5 534/4/5 533/4/5
f 540/4/5 536/4/5 535/4/5
f 541/3/5 538/3/5 537/3/5
f 541/4/5 537/4/5 533/4/5
f 542/3/5 538/3/5 541/3/5
f 543/3/5 540/3/5 539/3/5
f 544/4/5 536/4/5 540/4/5
f 544/3/5 540/3/5 543/3/5
f 545/4/5 541/4/5 533/4/5
f 546/4/5 541/4/5 545/4/5
f 549/4/5 536/4/5 544/4/5
f 550/4/5 536/4/5 549/4/5
f 551/3/5 547/3/5 546/3/5
f 552/3/5 547/3/5 551/3/5
f 553/3/5 549/3/5 548/3/5
f 554/3/5 549/3/5 553/3/5
f 563/4/5 556/4/5 555/4/5
f 564/4/5 558/4/5 557/4/5
f 565/4/5 560/4/5 559/4/5
f 566/4/5 562/4/5 561/4/5
f 567/4/5 563/4/5 555/4/5
f 568/4/5 558/4/5 564/4/5
f 569/4/5 565/4/5 559/4/5
f 570/4/5 562/4/5 566/4/5
f 571/4/5 567/4/5 555/4/5
f 572/4/5 558/4/5 568/4/5
f 573/4/5 569/4/5 559/4/5
f 574/4/5 562/4/5 570/4/5
f 575/4/5 558/4/5 572/4/5
f 576/4/5 558/4/5 575/4/5
f 577/4/5 573/4/5 559/4/5
f 578/4/5 573/4/5 577/4/5
f 579/4/5 571/4/5 555/4/5
f 582/4/5 562/4/5 574/4/5
f 583/4/5 580/4/5 579/4/5
f 583/4/5 579/4/5 555/4/5
f 584/4/5 580/4/5 583/4/5
f 585/4/5 582/4/5 581/4/5
f 586/4/5 562/4/5 582/4/5
f 586/4/5 582/4/5 585/4/5
f 587/4/6 588/4/6 595/4/6
f 589/4/6 590/4/6 596/4/6
f 591/4/6 592/4/6 597/4/6
f 593/4/6 594/4/6 598/4/6
f 587/4/6 595/4/6 599/4/6
f 596/4/6 590/4/6 600/4/6
f 591/4/6 597/4/6 601/4/6
f 598/4/6 594/4/6 602/4/6
f 587/4/6 599/4/6 603/4/6
f 600/4/6 590/4/6 604/4/6
f 591/4/6 601/4/6 605/4/6
f 602/4/6 594/4/6 606/4/6
f 604/4/6 590/4/6 607/4/6
f 607/4/6 590/4/6 608/4/6
f 591/4/6 605/4/6 609/4/6
f 609/4/6 605/4/6 610/4/6
f 587/4/6 603/4/6 611/4/6
f 606/4/6 594/4/6 614/4/6
f 611/4/6 612/4/6 615/4/6
f 587/4/6 611/4/6 615/4/6
f 615/4/6 612/4/6 616/4/6
f 613/4/6 614/4/6 617/4/6
f 614/4/6 594/4/6 618/4/6
f 617/4/6 614/4/6 618/4/6
f 619/6/6 620/6/6 623/6/6
f 623/6/6 620/6/6 624/6/6
f 621/6/6 622/6/6 625/6/6
f 625/6/6 622/6/6 626/6/6
f 627/6/6 628/6/6 631/6/6
f 631/6/6 628/6/6 632/6/6
f 629/6/6 630/6/6 633/6/6
f 633/6/6 630/6/6 634/6/6
f 635/4/6 636/4/6 639/4/6
f 637/4/6 638/4/6 642/4/6
f 639/3/6 640/3/6 643/3/6
f 635/4/6 639/4/6 643/4/6
f 643/3/6 640/3/6 644/3/6
f 641/3/6 642/3/6 645/3/6
f 642/4/6 638/4/6 646/4/6
f 645/3/6 642/3/6 646/3/6
f 635/4/6 643/4/6 647/4/6
f 647/4/6 643/4/6 648/4/6
f 646/4/6 638/4/6 651/4/6
f 651/4/6 638/4/6 652/4/6
f 648/3/6 649/3/6 653/3/6
f 653/3/6 649/3/6 654/3/6
f 650/3/6 651/3/6 655/3/6
f 655/3/6 651/3/6 656/3/6
f 657/7/6 658/7/6 661/7/6
f 661/7/6 658/7/6 662/7/6
f 659/7/6 660/7/6 663/7/6
f 663/7/6 660/7/6 664/7/6
f 665/7/6 666/7/6 669/7/6
f 669/7/6 666/7/6 670/7/6
f 667/7/6 668/7/6 671/7/6
f 671/7/6 668/7/6 672/7/6
f 673/3/6 674/3/6 677/3/6
f 677/3/6 674/3/6 678/3/6
f 675/3/6 676/3/6 679/3/6
f 679/3/6 676/3/6 680/3/6
f 681/6/6 682/6/6 685/6/6
f 685/6/6 682/6/6 686/6/6
f 683/6/6 684/6/6 687/6/6
f 687/6/6 684/6/6 688/6/6
f 685/7/6 686/7/6 689/7/6
f 689/7/6 686/7/6 690/7/6
f 687/7/6 688/7/6 691/7/6
f 691/7/6 688/7/6 692/7/6
f 689/6/6 690/6/6 693/6/6
f 693/6/6 690/6/6 694/6/6
f 691/6/6 692/6/6 695/6/6
f 695/6/6 692/6/6 696/6/6
