# MagicaVoxel @ Ephtracy

# group
o 

# material
mtllib WeaponBase.mtl
usemtl palette

# normals
vn -1 0 0
vn 1 0 0
vn 0 0 1
vn 0 0 -1
vn 0 -1 0
vn 0 1 0

# texcoords
vt 0.0488281 0.5
vt 0.0527344 0.5
vt 0.142578 0.5

# verts
v -0.4 0.8 1.2
v -0.4 0.8 1
v -0.4 0.8 0.8
v -0.4 0.9 0.8
v -0.4 0.9 0.6
v -0.4 1 1.2
v -0.4 1 1
v -0.4 1 0.9
v -0.4 1 0.6
v -0.4 1 0.5
v -0.4 1.1 0.9
v -0.4 1.1 0.8
v -0.4 1.3 0.8
v -0.4 1.3 0.5
v -0.3 0.9 0.6
v -0.3 0.9 0.5
v -0.3 1 0.6
v -0.3 1 0.5
v -0.3 1 0.4
v -0.3 1.1 0.9
v -0.3 1.1 0.8
v -0.3 1.3 0.9
v -0.3 1.3 0.8
v -0.3 1.3 0.5
v -0.3 1.3 0.4
v -0.3 1.4 0.8
v -0.3 1.4 0.5
v 0.3 0.8 1.2
v 0.3 0.8 1.1
v 0.3 0.8 1
v 0.3 0.9 0.8
v 0.3 0.9 0.5
v 0.3 1 1.2
v 0.3 1 1.1
v 0.3 1 1
v 0.3 1 0.9
v 0.3 1 0.8
v 0.3 1 0.5
v 0.3 1 0.4
v 0.3 1.3 0.9
v 0.3 1.3 0.8
v 0.3 1.3 0.5
v 0.3 1.3 0.4
v 0.3 1.4 0.8
v 0.3 1.4 0.5
v 0.4 0.8 1
v 0.4 0.8 0.8
v 0.4 0.9 0.8
v 0.4 1 1
v 0.4 1 0.9
v 0.4 1 0.8
v -0.3 0.8 1
v -0.3 0.8 0.8
v -0.3 0.9 0.8
v -0.3 1 1
v -0.3 1 0.9
v -0.3 1 0.8
v -0.2 0.8 1.2
v -0.2 0.8 1.1
v -0.2 0.8 1
v -0.2 0.9 0.8
v -0.2 0.9 0.5
v -0.2 1 1.2
v -0.2 1 1.1
v -0.2 1 1
v -0.2 1 0.9
v -0.2 1 0.8
v -0.2 1 0.5
v -0.2 1 0.4
v -0.2 1.3 0.9
v -0.2 1.3 0.8
v -0.2 1.3 0.5
v -0.2 1.3 0.4
v -0.2 1.4 0.8
v -0.2 1.4 0.5
v 0.4 0.9 0.6
v 0.4 0.9 0.5
v 0.4 1 0.6
v 0.4 1 0.5
v 0.4 1 0.4
v 0.4 1.1 0.9
v 0.4 1.1 0.8
v 0.4 1.3 0.9
v 0.4 1.3 0.8
v 0.4 1.3 0.5
v 0.4 1.3 0.4
v 0.4 1.4 0.8
v 0.4 1.4 0.5
v 0.5 0.8 1.2
v 0.5 0.8 1
v 0.5 0.8 0.8
v 0.5 0.9 0.8
v 0.5 0.9 0.6
v 0.5 1 1.2
v 0.5 1 1
v 0.5 1 0.9
v 0.5 1 0.6
v 0.5 1 0.5
v 0.5 1.1 0.9
v 0.5 1.1 0.8
v 0.5 1.3 0.8
v 0.5 1.3 0.5
v -0.4 0.8 1.2
v -0.4 1 1.2
v -0.2 0.8 1.2
v -0.2 1 1.2
v 0.3 0.8 1.2
v 0.3 1 1.2
v 0.5 0.8 1.2
v 0.5 1 1.2
v -0.4 1 0.9
v -0.4 1.1 0.9
v -0.3 1 0.9
v -0.3 1.1 0.9
v -0.3 1.3 0.9
v -0.2 1 0.9
v -0.2 1.3 0.9
v 0.3 1 0.9
v 0.3 1.3 0.9
v 0.4 1 0.9
v 0.4 1.1 0.9
v 0.4 1.3 0.9
v 0.5 1 0.9
v 0.5 1.1 0.9
v -0.4 1.1 0.8
v -0.4 1.3 0.8
v -0.3 0.9 0.8
v -0.3 1 0.8
v -0.3 1.1 0.8
v -0.3 1.3 0.8
v -0.3 1.4 0.8
v -0.2 0.9 0.8
v -0.2 1 0.8
v -0.2 1.3 0.8
v -0.2 1.4 0.8
v 0.3 0.9 0.8
v 0.3 1 0.8
v 0.3 1.3 0.8
v 0.3 1.4 0.8
v 0.4 0.9 0.8
v 0.4 1 0.8
v 0.4 1.1 0.8
v 0.4 1.3 0.8
v 0.4 1.4 0.8
v 0.5 1.1 0.8
v 0.5 1.3 0.8
v -0.3 0.8 1
v -0.3 1 1
v -0.2 0.8 1
v -0.2 1 1
v 0.3 0.8 1
v 0.3 1 1
v 0.4 0.8 1
v 0.4 1 1
v -0.4 0.8 0.8
v -0.4 0.9 0.8
v -0.3 0.8 0.8
v -0.3 0.9 0.8
v 0.4 0.8 0.8
v 0.4 0.9 0.8
v 0.5 0.8 0.8
v 0.5 0.9 0.8
v -0.4 0.9 0.6
v -0.4 1 0.6
v -0.3 0.9 0.6
v -0.3 1 0.6
v 0.4 0.9 0.6
v 0.4 1 0.6
v 0.5 0.9 0.6
v 0.5 1 0.6
v -0.4 1 0.5
v -0.4 1.3 0.5
v -0.3 0.9 0.5
v -0.3 1 0.5
v -0.3 1.3 0.5
v -0.3 1.4 0.5
v -0.2 0.9 0.5
v -0.2 1 0.5
v -0.2 1.3 0.5
v -0.2 1.4 0.5
v 0.3 0.9 0.5
v 0.3 1 0.5
v 0.3 1.3 0.5
v 0.3 1.4 0.5
v 0.4 0.9 0.5
v 0.4 1 0.5
v 0.4 1.3 0.5
v 0.4 1.4 0.5
v 0.5 1 0.5
v 0.5 1.3 0.5
v -0.3 1 0.4
v -0.3 1.3 0.4
v -0.2 1 0.4
v -0.2 1.3 0.4
v 0.3 1 0.4
v 0.3 1.3 0.4
v 0.4 1 0.4
v 0.4 1.3 0.4
v -0.4 0.8 1.2
v -0.2 0.8 1.2
v 0.3 0.8 1.2
v 0.5 0.8 1.2
v -0.3 0.8 1.1
v -0.2 0.8 1.1
v 0.3 0.8 1.1
v 0.4 0.8 1.1
v -0.4 0.8 1
v -0.3 0.8 1
v -0.2 0.8 1
v 0.3 0.8 1
v 0.4 0.8 1
v 0.5 0.8 1
v -0.4 0.8 0.8
v -0.3 0.8 0.8
v 0.4 0.8 0.8
v 0.5 0.8 0.8
v -0.4 0.9 0.8
v -0.3 0.9 0.8
v -0.2 0.9 0.8
v 0.3 0.9 0.8
v 0.4 0.9 0.8
v 0.5 0.9 0.8
v -0.4 0.9 0.6
v -0.3 0.9 0.6
v 0.4 0.9 0.6
v 0.5 0.9 0.6
v -0.3 0.9 0.5
v -0.2 0.9 0.5
v 0.3 0.9 0.5
v 0.4 0.9 0.5
v -0.3 1 0.9
v -0.2 1 0.9
v 0.3 1 0.9
v 0.4 1 0.9
v -0.3 1 0.8
v -0.2 1 0.8
v 0.3 1 0.8
v 0.4 1 0.8
v -0.4 1 0.6
v -0.3 1 0.6
v 0.4 1 0.6
v 0.5 1 0.6
v -0.4 1 0.5
v -0.3 1 0.5
v -0.2 1 0.5
v 0.3 1 0.5
v 0.4 1 0.5
v 0.5 1 0.5
v -0.3 1 0.4
v -0.2 1 0.4
v 0.3 1 0.4
v 0.4 1 0.4
v -0.4 1 1.2
v -0.2 1 1.2
v 0.3 1 1.2
v 0.5 1 1.2
v -0.3 1 1.1
v -0.2 1 1.1
v 0.3 1 1.1
v 0.4 1 1.1
v -0.4 1 1
v -0.3 1 1
v -0.2 1 1
v 0.3 1 1
v 0.4 1 1
v 0.5 1 1
v -0.4 1 0.9
v -0.3 1 0.9
v 0.4 1 0.9
v 0.5 1 0.9
v -0.4 1.1 0.9
v -0.3 1.1 0.9
v 0.4 1.1 0.9
v 0.5 1.1 0.9
v -0.4 1.1 0.8
v -0.3 1.1 0.8
v 0.4 1.1 0.8
v 0.5 1.1 0.8
v -0.3 1.3 0.9
v -0.2 1.3 0.9
v 0.3 1.3 0.9
v 0.4 1.3 0.9
v -0.4 1.3 0.8
v -0.3 1.3 0.8
v -0.2 1.3 0.8
v 0.3 1.3 0.8
v 0.4 1.3 0.8
v 0.5 1.3 0.8
v -0.4 1.3 0.5
v -0.3 1.3 0.5
v -0.2 1.3 0.5
v 0.3 1.3 0.5
v 0.4 1.3 0.5
v 0.5 1.3 0.5
v -0.3 1.3 0.4
v -0.2 1.3 0.4
v 0.3 1.3 0.4
v 0.4 1.3 0.4
v -0.3 1.4 0.8
v -0.2 1.4 0.8
v 0.3 1.4 0.8
v 0.4 1.4 0.8
v -0.3 1.4 0.5
v -0.2 1.4 0.5
v 0.3 1.4 0.5
v 0.4 1.4 0.5

# faces
f 4/2/1 3/2/1 2/2/1
f 6/1/1 2/1/1 1/1/1
f 7/2/1 5/2/1 4/2/1
f 7/1/1 2/1/1 6/1/1
f 7/2/1 4/2/1 2/2/1
f 8/2/1 5/2/1 7/2/1
f 9/2/1 5/2/1 8/2/1
f 11/2/1 10/2/1 9/2/1
f 11/2/1 9/2/1 8/2/1
f 12/2/1 10/2/1 11/2/1
f 13/2/1 10/2/1 12/2/1
f 14/2/1 10/2/1 13/2/1
f 17/1/1 16/1/1 15/1/1
f 18/1/1 16/1/1 17/1/1
f 22/1/1 21/1/1 20/1/1
f 23/1/1 21/1/1 22/1/1
f 24/1/1 19/1/1 18/1/1
f 25/1/1 19/1/1 24/1/1
f 26/1/1 24/1/1 23/1/1
f 27/1/1 24/1/1 26/1/1
f 33/1/1 29/1/1 28/1/1
f 34/2/1 30/2/1 29/2/1
f 34/1/1 29/1/1 33/1/1
f 35/2/1 30/2/1 34/2/1
f 37/1/1 32/1/1 31/1/1
f 38/1/1 32/1/1 37/1/1
f 40/1/1 37/1/1 36/1/1
f 41/3/1 38/3/1 37/3/1
f 41/1/1 37/1/1 40/1/1
f 42/1/1 39/1/1 38/1/1
f 42/3/1 38/3/1 41/3/1
f 43/1/1 39/1/1 42/1/1
f 44/1/1 42/1/1 41/1/1
f 45/1/1 42/1/1 44/1/1
f 48/2/1 47/2/1 46/2/1
f 49/2/1 48/2/1 46/2/1
f 50/2/1 48/2/1 49/2/1
f 51/2/1 48/2/1 50/2/1
f 52/2/2 53/2/2 54/2/2
f 52/2/2 54/2/2 55/2/2
f 55/2/2 54/2/2 56/2/2
f 56/2/2 54/2/2 57/2/2
f 58/1/2 59/1/2 63/1/2
f 59/2/2 60/2/2 64/2/2
f 63/1/2 59/1/2 64/1/2
f 64/2/2 60/2/2 65/2/2
f 61/1/2 62/1/2 67/1/2
f 67/1/2 62/1/2 68/1/2
f 66/1/2 67/1/2 70/1/2
f 67/3/2 68/3/2 71/3/2
f 70/1/2 67/1/2 71/1/2
f 68/1/2 69/1/2 72/1/2
f 71/3/2 68/3/2 72/3/2
f 72/1/2 69/1/2 73/1/2
f 71/1/2 72/1/2 74/1/2
f 74/1/2 72/1/2 75/1/2
f 76/1/2 77/1/2 78/1/2
f 78/1/2 77/1/2 79/1/2
f 81/1/2 82/1/2 83/1/2
f 83/1/2 82/1/2 84/1/2
f 79/1/2 80/1/2 85/1/2
f 85/1/2 80/1/2 86/1/2
f 84/1/2 85/1/2 87/1/2
f 87/1/2 85/1/2 88/1/2
f 90/2/2 91/2/2 92/2/2
f 89/1/2 90/1/2 94/1/2
f 92/2/2 93/2/2 95/2/2
f 94/1/2 90/1/2 95/1/2
f 90/2/2 92/2/2 95/2/2
f 95/2/2 93/2/2 96/2/2
f 96/2/2 93/2/2 97/2/2
f 97/2/2 98/2/2 99/2/2
f 96/2/2 97/2/2 99/2/2
f 99/2/2 98/2/2 100/2/2
f 100/2/2 98/2/2 101/2/2
f 101/2/2 98/2/2 102/2/2
f 105/1/3 104/1/3 103/1/3
f 106/1/3 104/1/3 105/1/3
f 109/1/3 108/1/3 107/1/3
f 110/1/3 108/1/3 109/1/3
f 113/2/3 112/2/3 111/2/3
f 114/2/3 112/2/3 113/2/3
f 116/1/3 114/1/3 113/1/3
f 116/1/3 115/1/3 114/1/3
f 117/1/3 115/1/3 116/1/3
f 120/1/3 119/1/3 118/1/3
f 121/1/3 119/1/3 120/1/3
f 122/1/3 119/1/3 121/1/3
f 123/2/3 121/2/3 120/2/3
f 124/2/3 121/2/3 123/2/3
f 129/2/3 126/2/3 125/2/3
f 130/2/3 126/2/3 129/2/3
f 132/1/3 128/1/3 127/1/3
f 133/1/3 128/1/3 132/1/3
f 134/1/3 131/1/3 130/1/3
f 135/1/3 131/1/3 134/1/3
f 140/1/3 137/1/3 136/1/3
f 141/1/3 137/1/3 140/1/3
f 143/1/3 139/1/3 138/1/3
f 144/1/3 139/1/3 143/1/3
f 145/2/3 143/2/3 142/2/3
f 146/2/3 143/2/3 145/2/3
f 147/2/4 148/2/4 149/2/4
f 149/2/4 148/2/4 150/2/4
f 151/2/4 152/2/4 153/2/4
f 153/2/4 152/2/4 154/2/4
f 155/2/4 156/2/4 157/2/4
f 157/2/4 156/2/4 158/2/4
f 159/2/4 160/2/4 161/2/4
f 161/2/4 160/2/4 162/2/4
f 163/2/4 164/2/4 165/2/4
f 165/2/4 164/2/4 166/2/4
f 167/2/4 168/2/4 169/2/4
f 169/2/4 168/2/4 170/2/4
f 171/2/4 172/2/4 174/2/4
f 174/2/4 172/2/4 175/2/4
f 173/1/4 174/1/4 177/1/4
f 177/1/4 174/1/4 178/1/4
f 175/1/4 176/1/4 179/1/4
f 179/1/4 176/1/4 180/1/4
f 181/1/4 182/1/4 185/1/4
f 185/1/4 182/1/4 186/1/4
f 183/1/4 184/1/4 187/1/4
f 187/1/4 184/1/4 188/1/4
f 186/2/4 187/2/4 189/2/4
f 189/2/4 187/2/4 190/2/4
f 191/1/4 192/1/4 193/1/4
f 193/1/4 192/1/4 194/1/4
f 195/1/4 196/1/4 197/1/4
f 197/1/4 196/1/4 198/1/4
f 203/1/5 200/1/5 199/1/5
f 204/1/5 200/1/5 203/1/5
f 205/1/5 202/1/5 201/1/5
f 206/1/5 202/1/5 205/1/5
f 207/1/5 203/1/5 199/1/5
f 208/2/5 204/2/5 203/2/5
f 208/1/5 203/1/5 207/1/5
f 209/2/5 204/2/5 208/2/5
f 210/2/5 206/2/5 205/2/5
f 211/1/5 202/1/5 206/1/5
f 211/2/5 206/2/5 210/2/5
f 212/1/5 202/1/5 211/1/5
f 213/2/5 208/2/5 207/2/5
f 214/2/5 208/2/5 213/2/5
f 215/2/5 212/2/5 211/2/5
f 216/2/5 212/2/5 215/2/5
f 223/2/5 218/2/5 217/2/5
f 224/1/5 219/1/5 218/1/5
f 224/2/5 218/2/5 223/2/5
f 225/2/5 222/2/5 221/2/5
f 225/1/5 221/1/5 220/1/5
f 226/2/5 222/2/5 225/2/5
f 227/1/5 219/1/5 224/1/5
f 228/1/5 219/1/5 227/1/5
f 229/1/5 225/1/5 220/1/5
f 230/1/5 225/1/5 229/1/5
f 235/1/5 232/1/5 231/1/5
f 236/1/5 232/1/5 235/1/5
f 237/1/5 234/1/5 233/1/5
f 238/1/5 234/1/5 237/1/5
f 243/2/5 240/2/5 239/2/5
f 244/2/5 240/2/5 243/2/5
f 247/2/5 242/2/5 241/2/5
f 248/2/5 242/2/5 247/2/5
f 249/1/5 245/1/5 244/1/5
f 250/1/5 245/1/5 249/1/5
f 251/1/5 247/1/5 246/1/5
f 252/1/5 247/1/5 251/1/5
f 253/1/6 254/1/6 257/1/6
f 257/1/6 254/1/6 258/1/6
f 255/1/6 256/1/6 259/1/6
f 259/1/6 256/1/6 260/1/6
f 253/1/6 257/1/6 261/1/6
f 257/2/6 258/2/6 262/2/6
f 261/1/6 257/1/6 262/1/6
f 262/2/6 258/2/6 263/2/6
f 259/2/6 260/2/6 264/2/6
f 260/1/6 256/1/6 265/1/6
f 264/2/6 260/2/6 265/2/6
f 265/1/6 256/1/6 266/1/6
f 261/2/6 262/2/6 267/2/6
f 267/2/6 262/2/6 268/2/6
f 265/2/6 266/2/6 269/2/6
f 269/2/6 266/2/6 270/2/6
f 271/2/6 272/2/6 275/2/6
f 275/2/6 272/2/6 276/2/6
f 273/2/6 274/2/6 277/2/6
f 277/2/6 274/2/6 278/2/6
f 279/1/6 280/1/6 284/1/6
f 284/1/6 280/1/6 285/1/6
f 281/1/6 282/1/6 286/1/6
f 286/1/6 282/1/6 287/1/6
f 283/2/6 284/2/6 289/2/6
f 289/2/6 284/2/6 290/2/6
f 287/2/6 288/2/6 293/2/6
f 293/2/6 288/2/6 294/2/6
f 290/1/6 291/1/6 295/1/6
f 295/1/6 291/1/6 296/1/6
f 292/1/6 293/1/6 297/1/6
f 297/1/6 293/1/6 298/1/6
f 299/1/6 300/1/6 303/1/6
f 303/1/6 300/1/6 304/1/6
f 301/1/6 302/1/6 305/1/6
f 305/1/6 302/1/6 306/1/6
