# MagicaVoxel @ Ephtracy

# group
o 

# material
mtllib ConveyorRight.mtl
usemtl palette

# normals
vn -1 0 0
vn 1 0 0
vn 0 0 1
vn 0 0 -1
vn 0 -1 0
vn 0 1 0

# texcoords
vt 0.00976563 0.5
vt 0.150391 0.5
vt 0.154297 0.5
vt 0.158203 0.5

# verts
v -0.6 0 0.8
v -0.6 0 -0.5
v -0.6 0.2 0.8
v -0.6 0.2 -0.5
v -0.5 0 -0.5
v -0.5 0 -0.6
v -0.5 0.2 0.8
v -0.5 0.2 -0.4
v -0.5 0.2 -0.5
v -0.5 0.2 -0.6
v -0.5 0.3 0.8
v -0.5 0.3 -0.4
v -0.4 0.1 0.7
v -0.4 0.1 0.4
v -0.4 0.2 0.7
v -0.4 0.2 0.4
v -0.4 0.2 -0.4
v -0.4 0.2 -0.5
v -0.4 0.3 -0.4
v -0.4 0.3 -0.5
v -0.2 0.1 0.5
v -0.2 0.1 0.4
v -0.2 0.2 0.5
v -0.2 0.2 0.4
v -0.1 0.1 0.4
v -0.1 0.1 0.3
v -0.1 0.1 0
v -0.1 0.1 -0.1
v -0.1 0.2 0.4
v -0.1 0.2 0.3
v -0.1 0.2 0
v -0.1 0.2 -0.1
v 0.1 0.1 0.5
v 0.1 0.1 0.4
v 0.1 0.1 0.2
v 0.1 0.1 0
v 0.1 0.2 0.5
v 0.1 0.2 0.4
v 0.1 0.2 0.2
v 0.1 0.2 0
v 0.3 0.1 0.8
v 0.3 0.1 0.7
v 0.3 0.1 0.3
v 0.3 0.3 0.8
v 0.3 0.3 0.3
v 0.4 0.1 0.2
v 0.4 0.1 0.1
v 0.4 0.1 -0.1
v 0.4 0.1 -0.2
v 0.4 0.2 0.2
v 0.4 0.2 0.1
v 0.4 0.2 -0.1
v 0.4 0.2 -0.2
v 0.5 0.1 0.7
v 0.5 0.1 0.5
v 0.5 0.1 0.1
v 0.5 0.1 -0.1
v 0.5 0.2 0.7
v 0.5 0.2 0.5
v 0.5 0.2 0.1
v 0.5 0.2 -0.1
v 0.7 0.1 0.5
v 0.7 0.1 0.4
v 0.7 0.1 -0.4
v 0.7 0.1 -0.5
v 0.7 0.2 0.5
v 0.7 0.2 0.4
v 0.7 0.2 -0.4
v 0.7 0.2 -0.5
v -0.5 0.1 0.7
v -0.5 0.1 0.4
v -0.5 0.2 0.7
v -0.5 0.2 0.4
v -0.3 0.1 0.8
v -0.3 0.1 0.7
v -0.3 0.1 -0.3
v -0.3 0.3 0.8
v -0.3 0.3 -0.3
v -0.1 0.1 0.5
v -0.1 0.1 0.4
v -0.1 0.2 0.5
v -0.1 0.2 0.4
v 0.1 0.1 0.4
v 0.1 0.1 0.3
v 0.1 0.1 0
v 0.1 0.1 -0.1
v 0.1 0.2 0.4
v 0.1 0.2 0.3
v 0.1 0.2 0
v 0.1 0.2 -0.1
v 0.2 0.1 0.5
v 0.2 0.1 0.4
v 0.2 0.1 0.2
v 0.2 0.1 0
v 0.2 0.2 0.5
v 0.2 0.2 0.4
v 0.2 0.2 0.2
v 0.2 0.2 0
v 0.4 0.1 0.7
v 0.4 0.1 0.4
v 0.4 0.1 -0.4
v 0.4 0.1 -0.5
v 0.4 0.2 0.7
v 0.4 0.2 0.4
v 0.4 0.2 -0.4
v 0.4 0.2 -0.5
v 0.5 0.1 0.2
v 0.5 0.1 0.1
v 0.5 0.1 -0.1
v 0.5 0.1 -0.2
v 0.5 0.2 0.8
v 0.5 0.2 0.5
v 0.5 0.2 0.2
v 0.5 0.2 0.1
v 0.5 0.2 -0.1
v 0.5 0.2 -0.2
v 0.5 0.3 0.8
v 0.5 0.3 0.5
v 0.6 0 0.8
v 0.6 0 0.6
v 0.6 0.1 0.1
v 0.6 0.1 -0.1
v 0.6 0.2 0.8
v 0.6 0.2 0.6
v 0.6 0.2 0.1
v 0.6 0.2 -0.1
v 0.8 0 0.6
v 0.8 0 0.3
v 0.8 0 -0.3
v 0.8 0 -0.6
v 0.8 0.1 0.3
v 0.8 0.1 -0.3
v 0.8 0.2 0.6
v 0.8 0.2 0.5
v 0.8 0.2 -0.5
v 0.8 0.2 -0.6
v 0.8 0.3 0.5
v 0.8 0.3 0.3
v 0.8 0.3 -0.3
v 0.8 0.3 -0.5
v -0.6 0 0.8
v -0.6 0.2 0.8
v -0.5 0.2 0.8
v -0.5 0.3 0.8
v -0.3 0 0.8
v -0.3 0.1 0.8
v -0.3 0.3 0.8
v 0.3 0 0.8
v 0.3 0.1 0.8
v 0.3 0.3 0.8
v 0.5 0.2 0.8
v 0.5 0.3 0.8
v 0.6 0 0.8
v 0.6 0.2 0.8
v 0.6 0 0.6
v 0.6 0.2 0.6
v 0.8 0 0.6
v 0.8 0.2 0.6
v -0.2 0.1 0.5
v -0.2 0.2 0.5
v -0.1 0.1 0.5
v -0.1 0.2 0.5
v 0.1 0.1 0.5
v 0.1 0.2 0.5
v 0.2 0.1 0.5
v 0.2 0.2 0.5
v 0.5 0.2 0.5
v 0.5 0.3 0.5
v 0.8 0.2 0.5
v 0.8 0.3 0.5
v -0.5 0.1 0.4
v -0.5 0.2 0.4
v -0.4 0.1 0.4
v -0.4 0.2 0.4
v -0.1 0.1 0.4
v -0.1 0.2 0.4
v 0.1 0.1 0.4
v 0.1 0.2 0.4
v 0.4 0.1 0.4
v 0.4 0.2 0.4
v 0.7 0.1 0.4
v 0.7 0.2 0.4
v 0.1 0.1 0.2
v 0.1 0.2 0.2
v 0.2 0.1 0.2
v 0.2 0.2 0.2
v 0.4 0.1 0.2
v 0.4 0.2 0.2
v 0.5 0.1 0.2
v 0.5 0.2 0.2
v 0.5 0.1 0.1
v 0.5 0.2 0.1
v 0.6 0.1 0.1
v 0.6 0.2 0.1
v -0.1 0.1 0
v -0.1 0.2 0
v 0.1 0.1 0
v 0.1 0.2 0
v 0.4 0.1 -0.1
v 0.4 0.2 -0.1
v 0.5 0.1 -0.1
v 0.5 0.2 -0.1
v -0.3 0.1 -0.3
v -0.3 0.3 -0.3
v 0.7 0.1 -0.3
v 0.8 0.1 -0.3
v 0.8 0.3 -0.3
v 0.4 0.1 -0.5
v 0.4 0.2 -0.5
v 0.7 0.1 -0.5
v 0.7 0.2 -0.5
v -0.5 0.1 0.7
v -0.5 0.2 0.7
v -0.4 0.1 0.7
v -0.4 0.2 0.7
v 0.4 0.1 0.7
v 0.4 0.2 0.7
v 0.5 0.1 0.7
v 0.5 0.2 0.7
v 0.5 0.1 0.5
v 0.5 0.2 0.5
v 0.7 0.1 0.5
v 0.7 0.2 0.5
v -0.2 0.1 0.4
v -0.2 0.2 0.4
v -0.1 0.1 0.4
v -0.1 0.2 0.4
v 0.1 0.1 0.4
v 0.1 0.2 0.4
v 0.2 0.1 0.4
v 0.2 0.2 0.4
v -0.1 0.1 0.3
v -0.1 0.2 0.3
v 0.1 0.1 0.3
v 0.1 0.2 0.3
v 0.3 0.1 0.3
v 0.3 0.3 0.3
v 0.7 0.1 0.3
v 0.8 0.1 0.3
v 0.8 0.3 0.3
v 0.4 0.1 0.1
v 0.4 0.2 0.1
v 0.5 0.1 0.1
v 0.5 0.2 0.1
v 0.1 0.1 0
v 0.1 0.2 0
v 0.2 0.1 0
v 0.2 0.2 0
v -0.1 0.1 -0.1
v -0.1 0.2 -0.1
v 0.1 0.1 -0.1
v 0.1 0.2 -0.1
v 0.5 0.1 -0.1
v 0.5 0.2 -0.1
v 0.6 0.1 -0.1
v 0.6 0.2 -0.1
v 0.4 0.1 -0.2
v 0.4 0.2 -0.2
v 0.5 0.1 -0.2
v 0.5 0.2 -0.2
v -0.5 0.2 -0.4
v -0.5 0.3 -0.4
v -0.4 0.2 -0.4
v -0.4 0.3 -0.4
v 0.4 0.1 -0.4
v 0.4 0.2 -0.4
v 0.7 0.1 -0.4
v 0.7 0.2 -0.4
v -0.6 0 -0.5
v -0.6 0.2 -0.5
v -0.5 0 -0.5
v -0.5 0.2 -0.5
v -0.4 0.2 -0.5
v -0.4 0.3 -0.5
v 0.8 0.2 -0.5
v 0.8 0.3 -0.5
v -0.5 0 -0.6
v -0.5 0.2 -0.6
v 0.8 0 -0.6
v 0.8 0.2 -0.6
v -0.6 0 0.8
v -0.3 0 0.8
v 0.3 0 0.8
v 0.6 0 0.8
v -0.3 0 0.7
v 0.3 0 0.7
v 0.6 0 0.6
v 0.8 0 0.6
v 0.3 0 0.3
v 0.7 0 0.3
v 0.8 0 0.3
v -0.3 0 -0.3
v 0.7 0 -0.3
v 0.8 0 -0.3
v -0.6 0 -0.5
v -0.5 0 -0.5
v -0.5 0 -0.6
v 0.8 0 -0.6
v -0.5 0.2 0.7
v -0.4 0.2 0.7
v 0.4 0.2 0.7
v 0.5 0.2 0.7
v 0.5 0.2 0.5
v 0.7 0.2 0.5
v -0.5 0.2 0.4
v -0.4 0.2 0.4
v 0.4 0.2 0.4
v 0.7 0.2 0.4
v 0.4 0.2 -0.4
v 0.7 0.2 -0.4
v 0.4 0.2 -0.5
v 0.7 0.2 -0.5
v -0.3 0.1 0.8
v 0.3 0.1 0.8
v -0.5 0.1 0.7
v -0.4 0.1 0.7
v -0.3 0.1 0.7
v 0.3 0.1 0.7
v 0.4 0.1 0.7
v 0.5 0.1 0.7
v -0.2 0.1 0.5
v -0.1 0.1 0.5
v 0.1 0.1 0.5
v 0.2 0.1 0.5
v 0.5 0.1 0.5
v 0.7 0.1 0.5
v -0.5 0.1 0.4
v -0.4 0.1 0.4
v -0.2 0.1 0.4
v -0.1 0.1 0.4
v 0.1 0.1 0.4
v 0.2 0.1 0.4
v 0.4 0.1 0.4
v 0.7 0.1 0.4
v -0.1 0.1 0.3
v 0.1 0.1 0.3
v 0.3 0.1 0.3
v 0.7 0.1 0.3
v 0.8 0.1 0.3
v 0.1 0.1 0.2
v 0.2 0.1 0.2
v 0.4 0.1 0.2
v 0.5 0.1 0.2
v 0.4 0.1 0.1
v 0.5 0.1 0.1
v 0.6 0.1 0.1
v -0.1 0.1 0
v 0.1 0.1 0
v 0.2 0.1 0
v -0.1 0.1 -0.1
v 0.1 0.1 -0.1
v 0.4 0.1 -0.1
v 0.5 0.1 -0.1
v 0.6 0.1 -0.1
v 0.4 0.1 -0.2
v 0.5 0.1 -0.2
v -0.3 0.1 -0.3
v 0.7 0.1 -0.3
v 0.8 0.1 -0.3
v 0.4 0.1 -0.4
v 0.7 0.1 -0.4
v 0.4 0.1 -0.5
v 0.7 0.1 -0.5
v -0.6 0.2 0.8
v -0.5 0.2 0.8
v 0.5 0.2 0.8
v 0.6 0.2 0.8
v 0.6 0.2 0.6
v 0.8 0.2 0.6
v -0.2 0.2 0.5
v -0.1 0.2 0.5
v 0.1 0.2 0.5
v 0.2 0.2 0.5
v 0.5 0.2 0.5
v 0.8 0.2 0.5
v -0.2 0.2 0.4
v -0.1 0.2 0.4
v 0.1 0.2 0.4
v 0.2 0.2 0.4
v -0.1 0.2 0.3
v 0.1 0.2 0.3
v 0.1 0.2 0.2
v 0.2 0.2 0.2
v 0.4 0.2 0.2
v 0.5 0.2 0.2
v 0.4 0.2 0.1
v 0.5 0.2 0.1
v 0.6 0.2 0.1
v -0.1 0.2 0
v 0.1 0.2 0
v 0.2 0.2 0
v -0.1 0.2 -0.1
v 0.1 0.2 -0.1
v 0.4 0.2 -0.1
v 0.5 0.2 -0.1
v 0.6 0.2 -0.1
v 0.4 0.2 -0.2
v 0.5 0.2 -0.2
v -0.5 0.2 -0.4
v -0.4 0.2 -0.4
v -0.6 0.2 -0.5
v -0.5 0.2 -0.5
v -0.4 0.2 -0.5
v 0.8 0.2 -0.5
v -0.5 0.2 -0.6
v 0.8 0.2 -0.6
v -0.5 0.3 0.8
v -0.3 0.3 0.8
v 0.3 0.3 0.8
v 0.5 0.3 0.8
v 0.5 0.3 0.5
v 0.8 0.3 0.5
v 0.3 0.3 0.3
v 0.8 0.3 0.3
v -0.3 0.3 -0.3
v 0.8 0.3 -0.3
v -0.5 0.3 -0.4
v -0.4 0.3 -0.4
v -0.4 0.3 -0.5
v 0.8 0.3 -0.5

# faces
f 3/4/1 2/4/1 1/4/1
f 4/4/1 2/4/1 3/4/1
f 9/4/1 6/4/1 5/4/1
f 10/4/1 6/4/1 9/4/1
f 11/4/1 8/4/1 7/4/1
f 12/4/1 8/4/1 11/4/1
f 15/4/1 14/4/1 13/4/1
f 16/4/1 14/4/1 15/4/1
f 19/4/1 18/4/1 17/4/1
f 20/4/1 18/4/1 19/4/1
f 23/1/1 22/1/1 21/1/1
f 24/1/1 22/1/1 23/1/1
f 29/1/1 26/1/1 25/1/1
f 30/1/1 26/1/1 29/1/1
f 31/1/1 28/1/1 27/1/1
f 32/1/1 28/1/1 31/1/1
f 37/1/1 34/1/1 33/1/1
f 38/1/1 34/1/1 37/1/1
f 39/1/1 36/1/1 35/1/1
f 40/1/1 36/1/1 39/1/1
f 44/4/1 42/4/1 41/4/1
f 44/4/1 43/4/1 42/4/1
f 45/4/1 43/4/1 44/4/1
f 50/1/1 47/1/1 46/1/1
f 51/1/1 47/1/1 50/1/1
f 52/1/1 49/1/1 48/1/1
f 53/1/1 49/1/1 52/1/1
f 58/4/1 55/4/1 54/4/1
f 59/4/1 55/4/1 58/4/1
f 60/1/1 57/1/1 56/1/1
f 61/1/1 57/1/1 60/1/1
f 66/4/1 63/4/1 62/4/1
f 67/4/1 63/4/1 66/4/1
f 68/4/1 65/4/1 64/4/1
f 69/4/1 65/4/1 68/4/1
f 70/4/2 71/4/2 72/4/2
f 72/4/2 71/4/2 73/4/2
f 74/4/2 75/4/2 77/4/2
f 75/4/2 76/4/2 77/4/2
f 77/4/2 76/4/2 78/4/2
f 79/1/2 80/1/2 81/1/2
f 81/1/2 80/1/2 82/1/2
f 83/1/2 84/1/2 87/1/2
f 87/1/2 84/1/2 88/1/2
f 85/1/2 86/1/2 89/1/2
f 89/1/2 86/1/2 90/1/2
f 91/1/2 92/1/2 95/1/2
f 95/1/2 92/1/2 96/1/2
f 93/1/2 94/1/2 97/1/2
f 97/1/2 94/1/2 98/1/2
f 99/4/2 100/4/2 103/4/2
f 103/4/2 100/4/2 104/4/2
f 101/4/2 102/4/2 105/4/2
f 105/4/2 102/4/2 106/4/2
f 107/1/2 108/1/2 113/1/2
f 113/1/2 108/1/2 114/1/2
f 109/1/2 110/1/2 115/1/2
f 115/1/2 110/1/2 116/1/2
f 111/4/2 112/4/2 117/4/2
f 117/4/2 112/4/2 118/4/2
f 119/4/2 120/4/2 123/4/2
f 123/4/2 120/4/2 124/4/2
f 121/1/2 122/1/2 125/1/2
f 125/1/2 122/1/2 126/1/2
f 127/4/2 128/4/2 131/4/2
f 128/2/2 129/2/2 131/2/2
f 129/4/2 130/4/2 132/4/2
f 131/2/2 129/2/2 132/2/2
f 127/4/2 131/4/2 133/4/2
f 133/4/2 131/4/2 134/4/2
f 132/4/2 130/4/2 135/4/2
f 135/4/2 130/4/2 136/4/2
f 134/4/2 131/4/2 137/4/2
f 137/4/2 131/4/2 138/4/2
f 132/4/2 135/4/2 139/4/2
f 139/4/2 135/4/2 140/4/2
f 143/4/3 142/4/3 141/4/3
f 145/4/3 143/4/3 141/4/3
f 145/4/3 144/4/3 143/4/3
f 146/4/3 144/4/3 145/4/3
f 147/4/3 144/4/3 146/4/3
f 148/2/3 146/2/3 145/2/3
f 149/2/3 146/2/3 148/2/3
f 151/4/3 149/4/3 148/4/3
f 151/4/3 150/4/3 149/4/3
f 152/4/3 150/4/3 151/4/3
f 153/4/3 151/4/3 148/4/3
f 154/4/3 151/4/3 153/4/3
f 157/4/3 156/4/3 155/4/3
f 158/4/3 156/4/3 157/4/3
f 161/1/3 160/1/3 159/1/3
f 162/1/3 160/1/3 161/1/3
f 165/1/3 164/1/3 163/1/3
f 166/1/3 164/1/3 165/1/3
f 169/4/3 168/4/3 167/4/3
f 170/4/3 168/4/3 169/4/3
f 173/4/3 172/4/3 171/4/3
f 174/4/3 172/4/3 173/4/3
f 177/1/3 176/1/3 175/1/3
f 178/1/3 176/1/3 177/1/3
f 181/4/3 180/4/3 179/4/3
f 182/4/3 180/4/3 181/4/3
f 185/1/3 184/1/3 183/1/3
f 186/1/3 184/1/3 185/1/3
f 189/1/3 188/1/3 187/1/3
f 190/1/3 188/1/3 189/1/3
f 193/1/3 192/1/3 191/1/3
f 194/1/3 192/1/3 193/1/3
f 197/1/3 196/1/3 195/1/3
f 198/1/3 196/1/3 197/1/3
f 201/1/3 200/1/3 199/1/3
f 202/1/3 200/1/3 201/1/3
f 205/4/3 204/4/3 203/4/3
f 206/4/3 204/4/3 205/4/3
f 207/4/3 204/4/3 206/4/3
f 210/4/3 209/4/3 208/4/3
f 211/4/3 209/4/3 210/4/3
f 212/4/4 213/4/4 214/4/4
f 214/4/4 213/4/4 215/4/4
f 216/4/4 217/4/4 218/4/4
f 218/4/4 217/4/4 219/4/4
f 220/4/4 221/4/4 222/4/4
f 222/4/4 221/4/4 223/4/4
f 224/1/4 225/1/4 226/1/4
f 226/1/4 225/1/4 227/1/4
f 228/1/4 229/1/4 230/1/4
f 230/1/4 229/1/4 231/1/4
f 232/1/4 233/1/4 234/1/4
f 234/1/4 233/1/4 235/1/4
f 236/4/4 237/4/4 238/4/4
f 238/4/4 237/4/4 239/4/4
f 239/4/4 237/4/4 240/4/4
f 241/1/4 242/1/4 243/1/4
f 243/1/4 242/1/4 244/1/4
f 245/1/4 246/1/4 247/1/4
f 247/1/4 246/1/4 248/1/4
f 249/1/4 250/1/4 251/1/4
f 251/1/4 250/1/4 252/1/4
f 253/1/4 254/1/4 255/1/4
f 255/1/4 254/1/4 256/1/4
f 257/1/4 258/1/4 259/1/4
f 259/1/4 258/1/4 260/1/4
f 261/4/4 262/4/4 263/4/4
f 263/4/4 262/4/4 264/4/4
f 265/4/4 266/4/4 267/4/4
f 267/4/4 266/4/4 268/4/4
f 269/4/4 270/4/4 271/4/4
f 271/4/4 270/4/4 272/4/4
f 273/4/4 274/4/4 275/4/4
f 275/4/4 274/4/4 276/4/4
f 277/4/4 278/4/4 279/4/4
f 279/4/4 278/4/4 280/4/4
f 285/4/5 282/4/5 281/4/5
f 285/2/5 283/2/5 282/2/5
f 286/4/5 284/4/5 283/4/5
f 286/2/5 283/2/5 285/2/5
f 287/4/5 284/4/5 286/4/5
f 289/3/5 286/3/5 285/3/5
f 289/4/5 288/4/5 287/4/5
f 289/4/5 287/4/5 286/4/5
f 290/4/5 288/4/5 289/4/5
f 291/4/5 288/4/5 290/4/5
f 292/4/5 285/4/5 281/4/5
f 292/3/5 289/3/5 285/3/5
f 292/3/5 290/3/5 289/3/5
f 293/2/5 291/2/5 290/2/5
f 293/3/5 290/3/5 292/3/5
f 294/2/5 291/2/5 293/2/5
f 295/4/5 292/4/5 281/4/5
f 295/4/5 293/4/5 292/4/5
f 295/4/5 294/4/5 293/4/5
f 296/4/5 294/4/5 295/4/5
f 297/4/5 294/4/5 296/4/5
f 298/4/5 294/4/5 297/4/5
f 303/4/5 302/4/5 301/4/5
f 305/4/5 300/4/5 299/4/5
f 306/4/5 300/4/5 305/4/5
f 307/4/5 304/4/5 303/4/5
f 307/4/5 303/4/5 301/4/5
f 308/4/5 304/4/5 307/4/5
f 311/4/5 310/4/5 309/4/5
f 312/4/5 310/4/5 311/4/5
f 313/2/6 314/2/6 317/2/6
f 317/2/6 314/2/6 318/2/6
f 317/3/6 318/3/6 321/3/6
f 321/3/6 318/3/6 322/3/6
f 322/3/6 318/3/6 323/3/6
f 323/3/6 318/3/6 324/3/6
f 319/4/6 320/4/6 325/4/6
f 315/4/6 316/4/6 327/4/6
f 327/4/6 316/4/6 328/4/6
f 317/3/6 321/3/6 329/3/6
f 322/3/6 323/3/6 330/3/6
f 330/3/6 323/3/6 331/3/6
f 324/3/6 318/3/6 332/3/6
f 325/4/6 326/4/6 333/4/6
f 319/4/6 325/4/6 333/4/6
f 333/4/6 326/4/6 334/4/6
f 329/3/6 330/3/6 335/3/6
f 331/3/6 332/3/6 336/3/6
f 332/3/6 318/3/6 337/3/6
f 336/3/6 332/3/6 337/3/6
f 337/3/6 338/3/6 340/3/6
f 335/3/6 336/3/6 340/3/6
f 336/3/6 337/3/6 340/3/6
f 340/3/6 338/3/6 341/3/6
f 341/3/6 338/3/6 342/3/6
f 342/3/6 338/3/6 343/3/6
f 341/3/6 342/3/6 344/3/6
f 343/3/6 338/3/6 345/3/6
f 345/3/6 338/3/6 346/3/6
f 329/3/6 335/3/6 347/3/6
f 335/3/6 340/3/6 347/3/6
f 347/3/6 340/3/6 348/3/6
f 344/3/6 345/3/6 349/3/6
f 341/3/6 344/3/6 349/3/6
f 329/3/6 347/3/6 350/3/6
f 348/3/6 349/3/6 351/3/6
f 349/3/6 345/3/6 352/3/6
f 351/3/6 349/3/6 352/3/6
f 352/3/6 345/3/6 353/3/6
f 346/3/6 338/3/6 354/3/6
f 350/3/6 351/3/6 355/3/6
f 351/3/6 352/3/6 355/3/6
f 353/3/6 354/3/6 356/3/6
f 350/3/6 355/3/6 357/3/6
f 355/3/6 356/3/6 357/3/6
f 317/3/6 329/3/6 357/3/6
f 329/3/6 350/3/6 357/3/6
f 356/3/6 354/3/6 358/3/6
f 357/3/6 356/3/6 358/3/6
f 338/2/6 339/2/6 358/2/6
f 354/3/6 338/3/6 358/3/6
f 358/2/6 339/2/6 359/2/6
f 360/4/6 361/4/6 362/4/6
f 362/4/6 361/4/6 363/4/6
f 366/4/6 367/4/6 368/4/6
f 366/4/6 368/4/6 374/4/6
f 368/4/6 369/4/6 374/4/6
f 374/4/6 369/4/6 375/4/6
f 370/1/6 371/1/6 376/1/6
f 376/1/6 371/1/6 377/1/6
f 372/1/6 373/1/6 378/1/6
f 378/1/6 373/1/6 379/1/6
f 377/1/6 378/1/6 380/1/6
f 380/1/6 378/1/6 381/1/6
f 384/1/6 385/1/6 386/1/6
f 386/1/6 385/1/6 387/1/6
f 382/1/6 383/1/6 390/1/6
f 390/1/6 383/1/6 391/1/6
f 389/1/6 390/1/6 392/1/6
f 392/1/6 390/1/6 393/1/6
f 387/1/6 388/1/6 395/1/6
f 395/1/6 388/1/6 396/1/6
f 394/1/6 395/1/6 397/1/6
f 397/1/6 395/1/6 398/1/6
f 364/4/6 365/4/6 399/4/6
f 364/4/6 399/4/6 401/4/6
f 399/4/6 400/4/6 401/4/6
f 401/4/6 400/4/6 402/4/6
f 402/4/6 400/4/6 403/4/6
f 402/4/6 403/4/6 405/4/6
f 403/4/6 404/4/6 405/4/6
f 405/4/6 404/4/6 406/4/6
f 409/4/6 410/4/6 411/4/6
f 409/4/6 411/4/6 413/4/6
f 411/4/6 412/4/6 413/4/6
f 413/4/6 412/4/6 414/4/6
f 407/4/6 408/4/6 415/4/6
f 407/4/6 415/4/6 417/4/6
f 415/4/6 416/4/6 417/4/6
f 417/4/6 416/4/6 418/4/6
f 418/4/6 416/4/6 419/4/6
f 419/4/6 416/4/6 420/4/6
