# MagicaVoxel @ Ephtracy

# group
o 

# material
mtllib ConveyorLeftRight.mtl
usemtl palette

# normals
vn -1 0 0
vn 1 0 0
vn 0 0 1
vn 0 0 -1
vn 0 -1 0
vn 0 1 0

# texcoords
vt 0.00976563 0.5
vt 0.150391 0.5
vt 0.154297 0.5
vt 0.158203 0.5

# verts
v -0.8 0 0.6
v -0.8 0 0.3
v -0.8 0 -0.3
v -0.8 0 -0.6
v -0.8 0.1 0.3
v -0.8 0.1 -0.3
v -0.8 0.2 0.6
v -0.8 0.2 0.5
v -0.8 0.2 -0.5
v -0.8 0.2 -0.6
v -0.8 0.3 0.5
v -0.8 0.3 0.3
v -0.8 0.3 -0.3
v -0.8 0.3 -0.5
v -0.6 0 0.8
v -0.6 0 0.6
v -0.6 0.2 0.8
v -0.6 0.2 0.6
v -0.5 0.1 0.1
v -0.5 0.1 -0.1
v -0.5 0.2 0.8
v -0.5 0.2 0.5
v -0.5 0.2 0.1
v -0.5 0.2 -0.1
v -0.5 0.3 0.8
v -0.5 0.3 0.5
v -0.4 0.1 0.7
v -0.4 0.1 0.4
v -0.4 0.1 0.2
v -0.4 0.1 0.1
v -0.4 0.1 -0.1
v -0.4 0.1 -0.2
v -0.4 0.2 0.7
v -0.4 0.2 0.4
v -0.4 0.2 0.2
v -0.4 0.2 0.1
v -0.4 0.2 -0.1
v -0.4 0.2 -0.2
v -0.2 0.1 0.5
v -0.2 0.1 0.4
v -0.2 0.2 0.5
v -0.2 0.2 0.4
v -0.1 0.1 0.4
v -0.1 0.1 0.3
v -0.1 0.2 0.4
v -0.1 0.2 0.3
v 0.1 0.1 0.5
v 0.1 0.1 0.4
v 0.1 0.2 0.5
v 0.1 0.2 0.4
v 0.3 0.1 0.8
v 0.3 0.1 0.7
v 0.3 0.1 0.3
v 0.3 0.1 0.2
v 0.3 0.1 0.1
v 0.3 0.1 -0.1
v 0.3 0.1 -0.2
v 0.3 0.2 0.2
v 0.3 0.2 0.1
v 0.3 0.2 -0.1
v 0.3 0.2 -0.2
v 0.3 0.3 0.8
v 0.3 0.3 0.3
v 0.4 0.1 0.1
v 0.4 0.1 -0.1
v 0.4 0.1 -0.4
v 0.4 0.1 -0.5
v 0.4 0.2 0.1
v 0.4 0.2 -0.1
v 0.4 0.2 -0.4
v 0.4 0.2 -0.5
v 0.5 0.1 0.7
v 0.5 0.1 0.4
v 0.5 0.2 0.7
v 0.5 0.2 0.4
v -0.7 0.1 0.5
v -0.7 0.1 0.4
v -0.7 0.1 -0.4
v -0.7 0.1 -0.5
v -0.7 0.2 0.5
v -0.7 0.2 0.4
v -0.7 0.2 -0.4
v -0.7 0.2 -0.5
v -0.5 0.1 0.7
v -0.5 0.1 0.5
v -0.5 0.2 0.7
v -0.5 0.2 0.5
v -0.4 0.1 0.1
v -0.4 0.1 -0.1
v -0.4 0.2 0.1
v -0.4 0.2 -0.1
v -0.3 0.1 0.8
v -0.3 0.1 0.7
v -0.3 0.1 0.3
v -0.3 0.1 0.2
v -0.3 0.1 0.1
v -0.3 0.1 -0.1
v -0.3 0.1 -0.2
v -0.3 0.2 0.2
v -0.3 0.2 0.1
v -0.3 0.2 -0.1
v -0.3 0.2 -0.2
v -0.3 0.3 0.8
v -0.3 0.3 0.3
v -0.1 0.1 0.5
v -0.1 0.1 0.4
v -0.1 0.2 0.5
v -0.1 0.2 0.4
v 0.1 0.1 0.4
v 0.1 0.1 0.3
v 0.1 0.2 0.4
v 0.1 0.2 0.3
v 0.2 0.1 0.5
v 0.2 0.1 0.4
v 0.2 0.2 0.5
v 0.2 0.2 0.4
v 0.4 0.1 0.7
v 0.4 0.1 0.4
v 0.4 0.1 0.2
v 0.4 0.1 0.1
v 0.4 0.1 -0.1
v 0.4 0.1 -0.2
v 0.4 0.2 0.7
v 0.4 0.2 0.4
v 0.4 0.2 0.2
v 0.4 0.2 0.1
v 0.4 0.2 -0.1
v 0.4 0.2 -0.2
v 0.5 0.1 0.1
v 0.5 0.1 -0.1
v 0.5 0.2 0.8
v 0.5 0.2 0.5
v 0.5 0.2 0.1
v 0.5 0.2 -0.1
v 0.5 0.3 0.8
v 0.5 0.3 0.5
v 0.6 0 0.8
v 0.6 0 0.6
v 0.6 0.1 0.6
v 0.6 0.1 0.5
v 0.6 0.2 0.8
v 0.6 0.2 0.5
v 0.8 0 0.6
v 0.8 0 0.3
v 0.8 0 -0.3
v 0.8 0 -0.6
v 0.8 0.1 0.6
v 0.8 0.1 0.5
v 0.8 0.1 0.3
v 0.8 0.1 -0.3
v 0.8 0.2 -0.5
v 0.8 0.2 -0.6
v 0.8 0.3 0.5
v 0.8 0.3 0.3
v 0.8 0.3 -0.3
v 0.8 0.3 -0.5
v -0.6 0 0.8
v -0.6 0.2 0.8
v -0.5 0.2 0.8
v -0.5 0.3 0.8
v -0.3 0 0.8
v -0.3 0.1 0.8
v -0.3 0.3 0.8
v 0.3 0 0.8
v 0.3 0.1 0.8
v 0.3 0.3 0.8
v 0.5 0.2 0.8
v 0.5 0.3 0.8
v 0.6 0 0.8
v 0.6 0.2 0.8
v -0.8 0 0.6
v -0.8 0.2 0.6
v -0.6 0 0.6
v -0.6 0.2 0.6
v 0.6 0 0.6
v 0.6 0.1 0.6
v 0.8 0 0.6
v 0.8 0.1 0.6
v -0.8 0.2 0.5
v -0.8 0.3 0.5
v -0.5 0.2 0.5
v -0.5 0.3 0.5
v -0.2 0.1 0.5
v -0.2 0.2 0.5
v -0.1 0.1 0.5
v -0.1 0.2 0.5
v 0.1 0.1 0.5
v 0.1 0.2 0.5
v 0.2 0.1 0.5
v 0.2 0.2 0.5
v 0.5 0.2 0.5
v 0.5 0.3 0.5
v 0.6 0.1 0.5
v 0.6 0.2 0.5
v 0.8 0.1 0.5
v 0.8 0.3 0.5
v -0.7 0.1 0.4
v -0.7 0.2 0.4
v -0.4 0.1 0.4
v -0.4 0.2 0.4
v -0.1 0.1 0.4
v -0.1 0.2 0.4
v 0.1 0.1 0.4
v 0.1 0.2 0.4
v 0.4 0.1 0.4
v 0.4 0.2 0.4
v 0.5 0.1 0.4
v 0.5 0.2 0.4
v -0.4 0.1 0.2
v -0.4 0.2 0.2
v -0.3 0.1 0.2
v -0.3 0.2 0.2
v 0.3 0.1 0.2
v 0.3 0.2 0.2
v 0.4 0.1 0.2
v 0.4 0.2 0.2
v -0.5 0.1 0.1
v -0.5 0.2 0.1
v -0.4 0.1 0.1
v -0.4 0.2 0.1
v 0.4 0.1 0.1
v 0.4 0.2 0.1
v 0.5 0.1 0.1
v 0.5 0.2 0.1
v -0.4 0.1 -0.1
v -0.4 0.2 -0.1
v -0.3 0.1 -0.1
v -0.3 0.2 -0.1
v 0.3 0.1 -0.1
v 0.3 0.2 -0.1
v 0.4 0.1 -0.1
v 0.4 0.2 -0.1
v -0.8 0.1 -0.3
v -0.8 0.3 -0.3
v -0.7 0.1 -0.3
v 0.7 0.1 -0.3
v 0.8 0.1 -0.3
v 0.8 0.3 -0.3
v -0.7 0.1 -0.5
v -0.7 0.2 -0.5
v 0.4 0.1 -0.5
v 0.4 0.2 -0.5
v -0.5 0.1 0.7
v -0.5 0.2 0.7
v -0.4 0.1 0.7
v -0.4 0.2 0.7
v 0.4 0.1 0.7
v 0.4 0.2 0.7
v 0.5 0.1 0.7
v 0.5 0.2 0.7
v -0.7 0.1 0.5
v -0.7 0.2 0.5
v -0.5 0.1 0.5
v -0.5 0.2 0.5
v -0.2 0.1 0.4
v -0.2 0.2 0.4
v -0.1 0.1 0.4
v -0.1 0.2 0.4
v 0.1 0.1 0.4
v 0.1 0.2 0.4
v 0.2 0.1 0.4
v 0.2 0.2 0.4
v -0.8 0.1 0.3
v -0.8 0.3 0.3
v -0.7 0.1 0.3
v -0.3 0.1 0.3
v -0.3 0.3 0.3
v -0.1 0.1 0.3
v -0.1 0.2 0.3
v 0.1 0.1 0.3
v 0.1 0.2 0.3
v 0.3 0.1 0.3
v 0.3 0.3 0.3
v 0.7 0.1 0.3
v 0.8 0.1 0.3
v 0.8 0.3 0.3
v -0.4 0.1 0.1
v -0.4 0.2 0.1
v -0.3 0.1 0.1
v -0.3 0.2 0.1
v 0.3 0.1 0.1
v 0.3 0.2 0.1
v 0.4 0.1 0.1
v 0.4 0.2 0.1
v -0.5 0.1 -0.1
v -0.5 0.2 -0.1
v -0.4 0.1 -0.1
v -0.4 0.2 -0.1
v 0.4 0.1 -0.1
v 0.4 0.2 -0.1
v 0.5 0.1 -0.1
v 0.5 0.2 -0.1
v -0.4 0.1 -0.2
v -0.4 0.2 -0.2
v -0.3 0.1 -0.2
v -0.3 0.2 -0.2
v 0.3 0.1 -0.2
v 0.3 0.2 -0.2
v 0.4 0.1 -0.2
v 0.4 0.2 -0.2
v -0.7 0.1 -0.4
v -0.7 0.2 -0.4
v 0.4 0.1 -0.4
v 0.4 0.2 -0.4
v -0.8 0.2 -0.5
v -0.8 0.3 -0.5
v 0.8 0.2 -0.5
v 0.8 0.3 -0.5
v -0.8 0 -0.6
v -0.8 0.2 -0.6
v 0.8 0 -0.6
v 0.8 0.2 -0.6
v -0.6 0 0.8
v -0.3 0 0.8
v 0.3 0 0.8
v 0.6 0 0.8
v -0.3 0 0.7
v 0.3 0 0.7
v -0.8 0 0.6
v -0.6 0 0.6
v 0.6 0 0.6
v 0.8 0 0.6
v -0.8 0 0.3
v -0.7 0 0.3
v -0.3 0 0.3
v 0.3 0 0.3
v 0.7 0 0.3
v 0.8 0 0.3
v -0.8 0 -0.3
v -0.7 0 -0.3
v 0.7 0 -0.3
v 0.8 0 -0.3
v -0.8 0 -0.6
v 0.8 0 -0.6
v -0.5 0.2 0.7
v -0.4 0.2 0.7
v 0.4 0.2 0.7
v 0.5 0.2 0.7
v -0.7 0.2 0.5
v -0.5 0.2 0.5
v -0.7 0.2 0.4
v -0.4 0.2 0.4
v 0.4 0.2 0.4
v 0.5 0.2 0.4
v -0.7 0.2 -0.4
v 0.4 0.2 -0.4
v -0.7 0.2 -0.5
v 0.4 0.2 -0.5
v -0.3 0.1 0.8
v 0.3 0.1 0.8
v -0.5 0.1 0.7
v -0.4 0.1 0.7
v -0.3 0.1 0.7
v 0.3 0.1 0.7
v 0.4 0.1 0.7
v 0.5 0.1 0.7
v 0.6 0.1 0.6
v 0.8 0.1 0.6
v -0.7 0.1 0.5
v -0.5 0.1 0.5
v -0.2 0.1 0.5
v -0.1 0.1 0.5
v 0.1 0.1 0.5
v 0.2 0.1 0.5
v 0.6 0.1 0.5
v 0.8 0.1 0.5
v -0.7 0.1 0.4
v -0.4 0.1 0.4
v -0.2 0.1 0.4
v -0.1 0.1 0.4
v 0.1 0.1 0.4
v 0.2 0.1 0.4
v 0.4 0.1 0.4
v 0.5 0.1 0.4
v -0.8 0.1 0.3
v -0.7 0.1 0.3
v -0.3 0.1 0.3
v -0.1 0.1 0.3
v 0.1 0.1 0.3
v 0.3 0.1 0.3
v 0.7 0.1 0.3
v 0.8 0.1 0.3
v -0.4 0.1 0.2
v -0.3 0.1 0.2
v 0.3 0.1 0.2
v 0.4 0.1 0.2
v -0.5 0.1 0.1
v -0.4 0.1 0.1
v -0.3 0.1 0.1
v 0.3 0.1 0.1
v 0.4 0.1 0.1
v 0.5 0.1 0.1
v -0.5 0.1 -0.1
v -0.4 0.1 -0.1
v -0.3 0.1 -0.1
v 0.3 0.1 -0.1
v 0.4 0.1 -0.1
v 0.5 0.1 -0.1
v -0.4 0.1 -0.2
v -0.3 0.1 -0.2
v 0.3 0.1 -0.2
v 0.4 0.1 -0.2
v -0.8 0.1 -0.3
v -0.7 0.1 -0.3
v 0.7 0.1 -0.3
v 0.8 0.1 -0.3
v -0.7 0.1 -0.4
v 0.4 0.1 -0.4
v -0.7 0.1 -0.5
v 0.4 0.1 -0.5
v -0.6 0.2 0.8
v -0.5 0.2 0.8
v 0.5 0.2 0.8
v 0.6 0.2 0.8
v -0.8 0.2 0.6
v -0.6 0.2 0.6
v -0.8 0.2 0.5
v -0.5 0.2 0.5
v -0.2 0.2 0.5
v -0.1 0.2 0.5
v 0.1 0.2 0.5
v 0.2 0.2 0.5
v 0.5 0.2 0.5
v 0.6 0.2 0.5
v -0.2 0.2 0.4
v -0.1 0.2 0.4
v 0.1 0.2 0.4
v 0.2 0.2 0.4
v -0.1 0.2 0.3
v 0.1 0.2 0.3
v -0.4 0.2 0.2
v -0.3 0.2 0.2
v 0.3 0.2 0.2
v 0.4 0.2 0.2
v -0.5 0.2 0.1
v -0.4 0.2 0.1
v -0.3 0.2 0.1
v 0.3 0.2 0.1
v 0.4 0.2 0.1
v 0.5 0.2 0.1
v -0.5 0.2 -0.1
v -0.4 0.2 -0.1
v -0.3 0.2 -0.1
v 0.3 0.2 -0.1
v 0.4 0.2 -0.1
v 0.5 0.2 -0.1
v -0.4 0.2 -0.2
v -0.3 0.2 -0.2
v 0.3 0.2 -0.2
v 0.4 0.2 -0.2
v -0.8 0.2 -0.5
v 0.8 0.2 -0.5
v -0.8 0.2 -0.6
v 0.8 0.2 -0.6
v -0.5 0.3 0.8
v -0.3 0.3 0.8
v 0.3 0.3 0.8
v 0.5 0.3 0.8
v -0.8 0.3 0.5
v -0.5 0.3 0.5
v 0.5 0.3 0.5
v 0.8 0.3 0.5
v -0.8 0.3 0.3
v -0.3 0.3 0.3
v 0.3 0.3 0.3
v 0.8 0.3 0.3
v -0.8 0.3 -0.3
v 0.8 0.3 -0.3
v -0.8 0.3 -0.5
v 0.8 0.3 -0.5

# faces
f 5/4/1 2/4/1 1/4/1
f 5/2/1 3/2/1 2/2/1
f 6/4/1 4/4/1 3/4/1
f 6/2/1 3/2/1 5/2/1
f 7/4/1 5/4/1 1/4/1
f 8/4/1 5/4/1 7/4/1
f 9/4/1 4/4/1 6/4/1
f 10/4/1 4/4/1 9/4/1
f 11/4/1 5/4/1 8/4/1
f 12/4/1 5/4/1 11/4/1
f 13/4/1 9/4/1 6/4/1
f 14/4/1 9/4/1 13/4/1
f 17/4/1 16/4/1 15/4/1
f 18/4/1 16/4/1 17/4/1
f 23/1/1 20/1/1 19/1/1
f 24/1/1 20/1/1 23/1/1
f 25/4/1 22/4/1 21/4/1
f 26/4/1 22/4/1 25/4/1
f 33/4/1 28/4/1 27/4/1
f 34/4/1 28/4/1 33/4/1
f 35/1/1 30/1/1 29/1/1
f 36/1/1 30/1/1 35/1/1
f 37/1/1 32/1/1 31/1/1
f 38/1/1 32/1/1 37/1/1
f 41/1/1 40/1/1 39/1/1
f 42/1/1 40/1/1 41/1/1
f 45/1/1 44/1/1 43/1/1
f 46/1/1 44/1/1 45/1/1
f 49/1/1 48/1/1 47/1/1
f 50/1/1 48/1/1 49/1/1
f 58/1/1 55/1/1 54/1/1
f 59/1/1 55/1/1 58/1/1
f 60/1/1 57/1/1 56/1/1
f 61/1/1 57/1/1 60/1/1
f 62/4/1 52/4/1 51/4/1
f 62/4/1 53/4/1 52/4/1
f 63/4/1 53/4/1 62/4/1
f 68/1/1 65/1/1 64/1/1
f 69/1/1 65/1/1 68/1/1
f 70/4/1 67/4/1 66/4/1
f 71/4/1 67/4/1 70/4/1
f 74/4/1 73/4/1 72/4/1
f 75/4/1 73/4/1 74/4/1
f 76/4/2 77/4/2 80/4/2
f 80/4/2 77/4/2 81/4/2
f 78/4/2 79/4/2 82/4/2
f 82/4/2 79/4/2 83/4/2
f 84/4/2 85/4/2 86/4/2
f 86/4/2 85/4/2 87/4/2
f 88/1/2 89/1/2 90/1/2
f 90/1/2 89/1/2 91/1/2
f 95/1/2 96/1/2 99/1/2
f 99/1/2 96/1/2 100/1/2
f 97/1/2 98/1/2 101/1/2
f 101/1/2 98/1/2 102/1/2
f 92/4/2 93/4/2 103/4/2
f 93/4/2 94/4/2 103/4/2
f 103/4/2 94/4/2 104/4/2
f 105/1/2 106/1/2 107/1/2
f 107/1/2 106/1/2 108/1/2
f 109/1/2 110/1/2 111/1/2
f 111/1/2 110/1/2 112/1/2
f 113/1/2 114/1/2 115/1/2
f 115/1/2 114/1/2 116/1/2
f 117/4/2 118/4/2 123/4/2
f 123/4/2 118/4/2 124/4/2
f 119/1/2 120/1/2 125/1/2
f 125/1/2 120/1/2 126/1/2
f 121/1/2 122/1/2 127/1/2
f 127/1/2 122/1/2 128/1/2
f 129/1/2 130/1/2 133/1/2
f 133/1/2 130/1/2 134/1/2
f 131/4/2 132/4/2 135/4/2
f 135/4/2 132/4/2 136/4/2
f 137/4/2 138/4/2 139/4/2
f 137/4/2 139/4/2 141/4/2
f 139/4/2 140/4/2 141/4/2
f 141/4/2 140/4/2 142/4/2
f 143/4/2 144/4/2 147/4/2
f 147/4/2 144/4/2 148/4/2
f 144/2/2 145/2/2 149/2/2
f 148/4/2 144/4/2 149/4/2
f 145/4/2 146/4/2 150/4/2
f 149/2/2 145/2/2 150/2/2
f 150/4/2 146/4/2 151/4/2
f 151/4/2 146/4/2 152/4/2
f 148/4/2 149/4/2 153/4/2
f 153/4/2 149/4/2 154/4/2
f 150/4/2 151/4/2 155/4/2
f 155/4/2 151/4/2 156/4/2
f 159/4/3 158/4/3 157/4/3
f 161/4/3 159/4/3 157/4/3
f 161/4/3 160/4/3 159/4/3
f 162/4/3 160/4/3 161/4/3
f 163/4/3 160/4/3 162/4/3
f 164/2/3 162/2/3 161/2/3
f 165/2/3 162/2/3 164/2/3
f 167/4/3 165/4/3 164/4/3
f 167/4/3 166/4/3 165/4/3
f 168/4/3 166/4/3 167/4/3
f 169/4/3 167/4/3 164/4/3
f 170/4/3 167/4/3 169/4/3
f 173/4/3 172/4/3 171/4/3
f 174/4/3 172/4/3 173/4/3
f 177/4/3 176/4/3 175/4/3
f 178/4/3 176/4/3 177/4/3
f 181/4/3 180/4/3 179/4/3
f 182/4/3 180/4/3 181/4/3
f 185/1/3 184/1/3 183/1/3
f 186/1/3 184/1/3 185/1/3
f 189/1/3 188/1/3 187/1/3
f 190/1/3 188/1/3 189/1/3
f 194/4/3 192/4/3 191/4/3
f 195/4/3 194/4/3 193/4/3
f 196/4/3 192/4/3 194/4/3
f 196/4/3 194/4/3 195/4/3
f 199/4/3 198/4/3 197/4/3
f 200/4/3 198/4/3 199/4/3
f 203/1/3 202/1/3 201/1/3
f 204/1/3 202/1/3 203/1/3
f 207/4/3 206/4/3 205/4/3
f 208/4/3 206/4/3 207/4/3
f 211/1/3 210/1/3 209/1/3
f 212/1/3 210/1/3 211/1/3
f 215/1/3 214/1/3 213/1/3
f 216/1/3 214/1/3 215/1/3
f 219/1/3 218/1/3 217/1/3
f 220/1/3 218/1/3 219/1/3
f 223/1/3 222/1/3 221/1/3
f 224/1/3 222/1/3 223/1/3
f 227/1/3 226/1/3 225/1/3
f 228/1/3 226/1/3 227/1/3
f 231/1/3 230/1/3 229/1/3
f 232/1/3 230/1/3 231/1/3
f 235/4/3 234/4/3 233/4/3
f 236/4/3 234/4/3 235/4/3
f 237/4/3 234/4/3 236/4/3
f 238/4/3 234/4/3 237/4/3
f 241/4/3 240/4/3 239/4/3
f 242/4/3 240/4/3 241/4/3
f 243/4/4 244/4/4 245/4/4
f 245/4/4 244/4/4 246/4/4
f 247/4/4 248/4/4 249/4/4
f 249/4/4 248/4/4 250/4/4
f 251/4/4 252/4/4 253/4/4
f 253/4/4 252/4/4 254/4/4
f 255/1/4 256/1/4 257/1/4
f 257/1/4 256/1/4 258/1/4
f 259/1/4 260/1/4 261/1/4
f 261/1/4 260/1/4 262/1/4
f 263/4/4 264/4/4 265/4/4
f 265/4/4 264/4/4 266/4/4
f 266/4/4 264/4/4 267/4/4
f 268/1/4 269/1/4 270/1/4
f 270/1/4 269/1/4 271/1/4
f 272/4/4 273/4/4 274/4/4
f 274/4/4 273/4/4 275/4/4
f 275/4/4 273/4/4 276/4/4
f 277/1/4 278/1/4 279/1/4
f 279/1/4 278/1/4 280/1/4
f 281/1/4 282/1/4 283/1/4
f 283/1/4 282/1/4 284/1/4
f 285/1/4 286/1/4 287/1/4
f 287/1/4 286/1/4 288/1/4
f 289/1/4 290/1/4 291/1/4
f 291/1/4 290/1/4 292/1/4
f 293/1/4 294/1/4 295/1/4
f 295/1/4 294/1/4 296/1/4
f 297/1/4 298/1/4 299/1/4
f 299/1/4 298/1/4 300/1/4
f 301/4/4 302/4/4 303/4/4
f 303/4/4 302/4/4 304/4/4
f 305/4/4 306/4/4 307/4/4
f 307/4/4 306/4/4 308/4/4
f 309/4/4 310/4/4 311/4/4
f 311/4/4 310/4/4 312/4/4
f 317/4/5 314/4/5 313/4/5
f 317/2/5 315/2/5 314/2/5
f 318/4/5 316/4/5 315/4/5
f 318/2/5 315/2/5 317/2/5
f 320/4/5 317/4/5 313/4/5
f 321/4/5 316/4/5 318/4/5
f 323/4/5 320/4/5 319/4/5
f 324/4/5 320/4/5 323/4/5
f 325/3/5 318/3/5 317/3/5
f 325/4/5 320/4/5 324/4/5
f 325/4/5 317/4/5 320/4/5
f 326/4/5 322/4/5 321/4/5
f 326/3/5 318/3/5 325/3/5
f 326/4/5 321/4/5 318/4/5
f 327/4/5 322/4/5 326/4/5
f 328/4/5 322/4/5 327/4/5
f 329/2/5 324/2/5 323/2/5
f 330/3/5 325/3/5 324/3/5
f 330/2/5 324/2/5 329/2/5
f 330/3/5 326/3/5 325/3/5
f 330/3/5 327/3/5 326/3/5
f 331/2/5 328/2/5 327/2/5
f 331/3/5 327/3/5 330/3/5
f 332/2/5 328/2/5 331/2/5
f 333/4/5 330/4/5 329/4/5
f 333/4/5 331/4/5 330/4/5
f 333/4/5 332/4/5 331/4/5
f 334/4/5 332/4/5 333/4/5
f 340/4/5 336/4/5 335/4/5
f 341/4/5 340/4/5 339/4/5
f 342/4/5 336/4/5 340/4/5
f 342/4/5 340/4/5 341/4/5
f 343/4/5 338/4/5 337/4/5
f 344/4/5 338/4/5 343/4/5
f 347/4/5 346/4/5 345/4/5
f 348/4/5 346/4/5 347/4/5
f 349/2/6 350/2/6 353/2/6
f 353/2/6 350/2/6 354/2/6
f 351/4/6 352/4/6 360/4/6
f 353/3/6 354/3/6 361/3/6
f 361/3/6 354/3/6 362/3/6
f 362/3/6 354/3/6 363/3/6
f 363/3/6 354/3/6 364/3/6
f 357/4/6 358/4/6 365/4/6
f 365/4/6 358/4/6 366/4/6
f 359/4/6 360/4/6 367/4/6
f 360/4/6 352/4/6 368/4/6
f 367/4/6 360/4/6 368/4/6
f 353/3/6 361/3/6 369/3/6
f 362/3/6 363/3/6 370/3/6
f 370/3/6 363/3/6 371/3/6
f 364/3/6 354/3/6 372/3/6
f 355/4/6 356/4/6 373/4/6
f 373/4/6 356/4/6 374/4/6
f 353/3/6 369/3/6 377/3/6
f 369/3/6 370/3/6 377/3/6
f 377/3/6 370/3/6 378/3/6
f 371/3/6 372/3/6 379/3/6
f 372/3/6 354/3/6 380/3/6
f 379/3/6 372/3/6 380/3/6
f 379/3/6 380/3/6 383/3/6
f 377/3/6 378/3/6 383/3/6
f 380/3/6 381/3/6 383/3/6
f 378/3/6 379/3/6 383/3/6
f 376/3/6 377/3/6 383/3/6
f 383/3/6 381/3/6 384/3/6
f 384/3/6 381/3/6 385/3/6
f 385/3/6 381/3/6 386/3/6
f 376/3/6 383/3/6 387/3/6
f 387/3/6 383/3/6 388/3/6
f 384/3/6 385/3/6 389/3/6
f 389/3/6 385/3/6 390/3/6
f 386/3/6 381/3/6 391/3/6
f 391/3/6 381/3/6 392/3/6
f 376/3/6 387/3/6 393/3/6
f 389/3/6 390/3/6 394/3/6
f 390/3/6 391/3/6 394/3/6
f 388/3/6 389/3/6 394/3/6
f 394/3/6 391/3/6 395/3/6
f 395/3/6 391/3/6 396/3/6
f 396/3/6 391/3/6 397/3/6
f 392/3/6 381/3/6 398/3/6
f 393/3/6 394/3/6 399/3/6
f 395/3/6 396/3/6 400/3/6
f 400/3/6 396/3/6 401/3/6
f 397/3/6 398/3/6 402/3/6
f 375/2/6 376/2/6 403/2/6
f 401/3/6 402/3/6 404/3/6
f 403/2/6 376/2/6 404/2/6
f 376/3/6 393/3/6 404/3/6
f 400/3/6 401/3/6 404/3/6
f 393/3/6 399/3/6 404/3/6
f 399/3/6 400/3/6 404/3/6
f 381/2/6 382/2/6 405/2/6
f 404/3/6 402/3/6 405/3/6
f 402/3/6 398/3/6 405/3/6
f 398/3/6 381/3/6 405/3/6
f 405/2/6 382/2/6 406/2/6
f 407/4/6 408/4/6 409/4/6
f 409/4/6 408/4/6 410/4/6
f 411/4/6 412/4/6 416/4/6
f 415/4/6 416/4/6 417/4/6
f 416/4/6 412/4/6 418/4/6
f 417/4/6 416/4/6 418/4/6
f 413/4/6 414/4/6 423/4/6
f 423/4/6 414/4/6 424/4/6
f 419/1/6 420/1/6 425/1/6
f 425/1/6 420/1/6 426/1/6
f 421/1/6 422/1/6 427/1/6
f 427/1/6 422/1/6 428/1/6
f 426/1/6 427/1/6 429/1/6
f 429/1/6 427/1/6 430/1/6
f 431/1/6 432/1/6 436/1/6
f 436/1/6 432/1/6 437/1/6
f 433/1/6 434/1/6 438/1/6
f 438/1/6 434/1/6 439/1/6
f 435/1/6 436/1/6 441/1/6
f 441/1/6 436/1/6 442/1/6
f 439/1/6 440/1/6 445/1/6
f 445/1/6 440/1/6 446/1/6
f 442/1/6 443/1/6 447/1/6
f 447/1/6 443/1/6 448/1/6
f 444/1/6 445/1/6 449/1/6
f 449/1/6 445/1/6 450/1/6
f 451/4/6 452/4/6 453/4/6
f 453/4/6 452/4/6 454/4/6
f 455/4/6 456/4/6 460/4/6
f 457/4/6 458/4/6 461/4/6
f 459/4/6 460/4/6 463/4/6
f 460/4/6 456/4/6 464/4/6
f 463/4/6 460/4/6 464/4/6
f 461/4/6 462/4/6 465/4/6
f 457/4/6 461/4/6 465/4/6
f 465/4/6 462/4/6 466/4/6
f 467/4/6 468/4/6 469/4/6
f 469/4/6 468/4/6 470/4/6
