# MagicaVoxel @ Ephtracy

# group
o 

# material
mtllib ConveyorLeftRight.mtl
usemtl palette

# normals
vn -1 0 0
vn 1 0 0
vn 0 0 1
vn 0 0 -1
vn 0 -1 0
vn 0 1 0

# texcoords
vt 0.00976563 0.5
vt 0.150391 0.5
vt 0.154297 0.5
vt 0.158203 0.5

# verts
v -0.5 0 0.4
v -0.5 0 0.2
v -0.5 0 -0.2
v -0.5 0 -0.4
v -0.5 0.1 0.2
v -0.5 0.1 -0.2
v -0.5 0.2 0.4
v -0.5 0.2 0.3
v -0.5 0.2 -0.3
v -0.5 0.2 -0.4
v -0.5 0.3 0.3
v -0.5 0.3 0.2
v -0.5 0.3 -0.2
v -0.5 0.3 -0.3
v -0.4 0 0.5
v -0.4 0 0.4
v -0.4 0.1 0.1
v -0.4 0.1 -0.1
v -0.4 0.2 0.5
v -0.4 0.2 0.4
v -0.4 0.2 0.1
v -0.4 0.2 -0.1
v -0.3 0.1 0.2
v -0.3 0.1 0.1
v -0.3 0.1 -0.1
v -0.3 0.1 -0.2
v -0.3 0.2 0.5
v -0.3 0.2 0.3
v -0.3 0.2 0.2
v -0.3 0.2 0.1
v -0.3 0.2 -0.1
v -0.3 0.2 -0.2
v -0.3 0.3 0.5
v -0.3 0.3 0.3
v -0.2 0.1 0.4
v -0.2 0.1 0.3
v -0.2 0.1 -0.2
v -0.2 0.1 -0.3
v -0.2 0.2 0.4
v -0.2 0.2 0.3
v -0.2 0.2 -0.2
v -0.2 0.2 -0.3
v -0.1 0.1 0.3
v -0.1 0.1 0.2
v -0.1 0.2 0.3
v -0.1 0.2 0.2
v 0.1 0.1 0.4
v 0.1 0.1 0.3
v 0.1 0.2 0.4
v 0.1 0.2 0.3
v 0.2 0.1 0.5
v 0.2 0.1 0.4
v 0.2 0.1 0.3
v 0.2 0.1 0.2
v 0.2 0.1 0.1
v 0.2 0.1 -0.1
v 0.2 0.1 -0.2
v 0.2 0.2 0.4
v 0.2 0.2 0.3
v 0.2 0.2 0.2
v 0.2 0.2 0.1
v 0.2 0.2 -0.1
v 0.2 0.2 -0.2
v 0.2 0.3 0.5
v 0.2 0.3 0.2
v 0.3 0.1 0.4
v 0.3 0.1 0.3
v 0.3 0.1 0.1
v 0.3 0.1 -0.1
v 0.3 0.1 -0.2
v 0.3 0.1 -0.3
v 0.3 0.2 0.4
v 0.3 0.2 0.3
v 0.3 0.2 0.1
v 0.3 0.2 -0.1
v 0.3 0.2 -0.2
v 0.3 0.2 -0.3
v -0.3 0.1 0.4
v -0.3 0.1 0.3
v -0.3 0.1 0.1
v -0.3 0.1 -0.1
v -0.3 0.1 -0.2
v -0.3 0.1 -0.3
v -0.3 0.2 0.4
v -0.3 0.2 0.3
v -0.3 0.2 0.1
v -0.3 0.2 -0.1
v -0.3 0.2 -0.2
v -0.3 0.2 -0.3
v -0.2 0.1 0.5
v -0.2 0.1 0.4
v -0.2 0.1 0.3
v -0.2 0.1 0.2
v -0.2 0.1 0.1
v -0.2 0.1 -0.1
v -0.2 0.1 -0.2
v -0.2 0.2 0.4
v -0.2 0.2 0.3
v -0.2 0.2 0.2
v -0.2 0.2 0.1
v -0.2 0.2 -0.1
v -0.2 0.2 -0.2
v -0.2 0.3 0.5
v -0.2 0.3 0.2
v -0.1 0.1 0.4
v -0.1 0.1 0.3
v -0.1 0.2 0.4
v -0.1 0.2 0.3
v 0.1 0.1 0.3
v 0.1 0.1 0.2
v 0.1 0.2 0.3
v 0.1 0.2 0.2
v 0.2 0.1 0.4
v 0.2 0.1 0.3
v 0.2 0.1 -0.2
v 0.2 0.1 -0.3
v 0.2 0.2 0.4
v 0.2 0.2 0.3
v 0.2 0.2 -0.2
v 0.2 0.2 -0.3
v 0.3 0.1 0.2
v 0.3 0.1 0.1
v 0.3 0.1 -0.1
v 0.3 0.1 -0.2
v 0.3 0.2 0.5
v 0.3 0.2 0.3
v 0.3 0.2 0.2
v 0.3 0.2 0.1
v 0.3 0.2 -0.1
v 0.3 0.2 -0.2
v 0.3 0.3 0.5
v 0.3 0.3 0.3
v 0.4 0 0.5
v 0.4 0 0.4
v 0.4 0.1 0.1
v 0.4 0.1 -0.1
v 0.4 0.2 0.5
v 0.4 0.2 0.4
v 0.4 0.2 0.1
v 0.4 0.2 -0.1
v 0.5 0 0.4
v 0.5 0 0.2
v 0.5 0 -0.2
v 0.5 0 -0.4
v 0.5 0.1 0.2
v 0.5 0.1 -0.2
v 0.5 0.2 0.4
v 0.5 0.2 0.3
v 0.5 0.2 -0.3
v 0.5 0.2 -0.4
v 0.5 0.3 0.3
v 0.5 0.3 0.2
v 0.5 0.3 -0.2
v 0.5 0.3 -0.3
v -0.4 0 0.5
v -0.4 0.2 0.5
v -0.3 0.2 0.5
v -0.3 0.3 0.5
v -0.2 0 0.5
v -0.2 0.1 0.5
v -0.2 0.3 0.5
v 0.2 0 0.5
v 0.2 0.1 0.5
v 0.2 0.3 0.5
v 0.3 0.2 0.5
v 0.3 0.3 0.5
v 0.4 0 0.5
v 0.4 0.2 0.5
v -0.5 0 0.4
v -0.5 0.2 0.4
v -0.4 0 0.4
v -0.4 0.2 0.4
v -0.2 0.1 0.4
v -0.2 0.2 0.4
v -0.1 0.1 0.4
v -0.1 0.2 0.4
v 0.1 0.1 0.4
v 0.1 0.2 0.4
v 0.2 0.1 0.4
v 0.2 0.2 0.4
v 0.4 0 0.4
v 0.4 0.2 0.4
v 0.5 0 0.4
v 0.5 0.2 0.4
v -0.5 0.2 0.3
v -0.5 0.3 0.3
v -0.3 0.1 0.3
v -0.3 0.2 0.3
v -0.3 0.3 0.3
v -0.2 0.1 0.3
v -0.2 0.2 0.3
v -0.1 0.1 0.3
v -0.1 0.2 0.3
v 0.1 0.1 0.3
v 0.1 0.2 0.3
v 0.2 0.1 0.3
v 0.2 0.2 0.3
v 0.3 0.1 0.3
v 0.3 0.2 0.3
v 0.3 0.3 0.3
v 0.5 0.2 0.3
v 0.5 0.3 0.3
v -0.4 0.1 0.1
v -0.4 0.2 0.1
v -0.3 0.1 0.1
v -0.3 0.2 0.1
v 0.3 0.1 0.1
v 0.3 0.2 0.1
v 0.4 0.1 0.1
v 0.4 0.2 0.1
v -0.3 0.1 -0.1
v -0.3 0.2 -0.1
v -0.2 0.1 -0.1
v -0.2 0.2 -0.1
v 0.2 0.1 -0.1
v 0.2 0.2 -0.1
v 0.3 0.1 -0.1
v 0.3 0.2 -0.1
v -0.5 0.1 -0.2
v -0.5 0.3 -0.2
v -0.4 0.1 -0.2
v -0.3 0.1 -0.2
v -0.3 0.2 -0.2
v -0.2 0.1 -0.2
v -0.2 0.2 -0.2
v 0.2 0.1 -0.2
v 0.2 0.2 -0.2
v 0.3 0.1 -0.2
v 0.3 0.2 -0.2
v 0.4 0.1 -0.2
v 0.5 0.1 -0.2
v 0.5 0.3 -0.2
v -0.3 0.1 -0.3
v -0.3 0.2 -0.3
v -0.2 0.1 -0.3
v -0.2 0.2 -0.3
v 0.2 0.1 -0.3
v 0.2 0.2 -0.3
v 0.3 0.1 -0.3
v 0.3 0.2 -0.3
v -0.3 0.1 0.4
v -0.3 0.2 0.4
v -0.2 0.1 0.4
v -0.2 0.2 0.4
v 0.2 0.1 0.4
v 0.2 0.2 0.4
v 0.3 0.1 0.4
v 0.3 0.2 0.4
v -0.2 0.1 0.3
v -0.2 0.2 0.3
v -0.1 0.1 0.3
v -0.1 0.2 0.3
v 0.1 0.1 0.3
v 0.1 0.2 0.3
v 0.2 0.1 0.3
v 0.2 0.2 0.3
v -0.5 0.1 0.2
v -0.5 0.3 0.2
v -0.4 0.1 0.2
v -0.3 0.1 0.2
v -0.3 0.2 0.2
v -0.2 0.2 0.2
v -0.2 0.3 0.2
v -0.1 0.1 0.2
v -0.1 0.2 0.2
v 0.1 0.1 0.2
v 0.1 0.2 0.2
v 0.2 0.2 0.2
v 0.2 0.3 0.2
v 0.3 0.1 0.2
v 0.3 0.2 0.2
v 0.4 0.1 0.2
v 0.5 0.1 0.2
v 0.5 0.3 0.2
v -0.3 0.1 0.1
v -0.3 0.2 0.1
v -0.2 0.1 0.1
v -0.2 0.2 0.1
v 0.2 0.1 0.1
v 0.2 0.2 0.1
v 0.3 0.1 0.1
v 0.3 0.2 0.1
v -0.4 0.1 -0.1
v -0.4 0.2 -0.1
v -0.3 0.1 -0.1
v -0.3 0.2 -0.1
v 0.3 0.1 -0.1
v 0.3 0.2 -0.1
v 0.4 0.1 -0.1
v 0.4 0.2 -0.1
v -0.3 0.1 -0.2
v -0.3 0.2 -0.2
v -0.2 0.1 -0.2
v -0.2 0.2 -0.2
v 0.2 0.1 -0.2
v 0.2 0.2 -0.2
v 0.3 0.1 -0.2
v 0.3 0.2 -0.2
v -0.5 0.2 -0.3
v -0.5 0.3 -0.3
v 0.5 0.2 -0.3
v 0.5 0.3 -0.3
v -0.5 0 -0.4
v -0.5 0.2 -0.4
v 0.5 0 -0.4
v 0.5 0.2 -0.4
v -0.4 0 0.5
v -0.2 0 0.5
v 0.2 0 0.5
v 0.4 0 0.5
v -0.5 0 0.4
v -0.4 0 0.4
v -0.2 0 0.4
v 0.2 0 0.4
v 0.4 0 0.4
v 0.5 0 0.4
v -0.5 0 0.2
v -0.4 0 0.2
v -0.2 0 0.2
v 0.2 0 0.2
v 0.4 0 0.2
v 0.5 0 0.2
v -0.5 0 -0.2
v -0.4 0 -0.2
v 0.4 0 -0.2
v 0.5 0 -0.2
v -0.5 0 -0.4
v 0.5 0 -0.4
v -0.3 0.2 0.4
v -0.2 0.2 0.4
v 0.2 0.2 0.4
v 0.3 0.2 0.4
v -0.3 0.2 0.3
v -0.2 0.2 0.3
v 0.2 0.2 0.3
v 0.3 0.2 0.3
v -0.3 0.2 -0.2
v -0.2 0.2 -0.2
v 0.2 0.2 -0.2
v 0.3 0.2 -0.2
v -0.3 0.2 -0.3
v -0.2 0.2 -0.3
v 0.2 0.2 -0.3
v 0.3 0.2 -0.3
v -0.2 0.1 0.5
v 0.2 0.1 0.5
v -0.3 0.1 0.4
v -0.2 0.1 0.4
v -0.1 0.1 0.4
v 0.1 0.1 0.4
v 0.2 0.1 0.4
v 0.3 0.1 0.4
v -0.3 0.1 0.3
v -0.2 0.1 0.3
v -0.1 0.1 0.3
v 0.1 0.1 0.3
v 0.2 0.1 0.3
v 0.3 0.1 0.3
v -0.5 0.1 0.2
v -0.4 0.1 0.2
v -0.3 0.1 0.2
v -0.2 0.1 0.2
v -0.1 0.1 0.2
v 0.1 0.1 0.2
v 0.2 0.1 0.2
v 0.3 0.1 0.2
v 0.4 0.1 0.2
v 0.5 0.1 0.2
v -0.4 0.1 0.1
v -0.3 0.1 0.1
v -0.2 0.1 0.1
v 0.2 0.1 0.1
v 0.3 0.1 0.1
v 0.4 0.1 0.1
v -0.4 0.1 -0.1
v -0.3 0.1 -0.1
v -0.2 0.1 -0.1
v 0.2 0.1 -0.1
v 0.3 0.1 -0.1
v 0.4 0.1 -0.1
v -0.5 0.1 -0.2
v -0.4 0.1 -0.2
v -0.3 0.1 -0.2
v -0.2 0.1 -0.2
v 0.2 0.1 -0.2
v 0.3 0.1 -0.2
v 0.4 0.1 -0.2
v 0.5 0.1 -0.2
v -0.3 0.1 -0.3
v -0.2 0.1 -0.3
v 0.2 0.1 -0.3
v 0.3 0.1 -0.3
v -0.4 0.2 0.5
v -0.3 0.2 0.5
v 0.3 0.2 0.5
v 0.4 0.2 0.5
v -0.5 0.2 0.4
v -0.4 0.2 0.4
v -0.2 0.2 0.4
v -0.1 0.2 0.4
v 0.1 0.2 0.4
v 0.2 0.2 0.4
v 0.4 0.2 0.4
v 0.5 0.2 0.4
v -0.5 0.2 0.3
v -0.3 0.2 0.3
v -0.2 0.2 0.3
v -0.1 0.2 0.3
v 0.1 0.2 0.3
v 0.2 0.2 0.3
v 0.3 0.2 0.3
v 0.5 0.2 0.3
v -0.3 0.2 0.2
v -0.2 0.2 0.2
v -0.1 0.2 0.2
v 0.1 0.2 0.2
v 0.2 0.2 0.2
v 0.3 0.2 0.2
v -0.4 0.2 0.1
v -0.3 0.2 0.1
v -0.2 0.2 0.1
v 0.2 0.2 0.1
v 0.3 0.2 0.1
v 0.4 0.2 0.1
v -0.4 0.2 -0.1
v -0.3 0.2 -0.1
v -0.2 0.2 -0.1
v 0.2 0.2 -0.1
v 0.3 0.2 -0.1
v 0.4 0.2 -0.1
v -0.3 0.2 -0.2
v -0.2 0.2 -0.2
v 0.2 0.2 -0.2
v 0.3 0.2 -0.2
v -0.5 0.2 -0.3
v 0.5 0.2 -0.3
v -0.5 0.2 -0.4
v 0.5 0.2 -0.4
v -0.3 0.3 0.5
v -0.2 0.3 0.5
v 0.2 0.3 0.5
v 0.3 0.3 0.5
v -0.5 0.3 0.3
v -0.3 0.3 0.3
v 0.3 0.3 0.3
v 0.5 0.3 0.3
v -0.5 0.3 0.2
v -0.2 0.3 0.2
v 0.2 0.3 0.2
v 0.5 0.3 0.2
v -0.5 0.3 -0.2
v 0.5 0.3 -0.2
v -0.5 0.3 -0.3
v 0.5 0.3 -0.3

# faces
f 5/4/1 2/4/1 1/4/1
f 5/2/1 3/2/1 2/2/1
f 6/4/1 4/4/1 3/4/1
f 6/2/1 3/2/1 5/2/1
f 7/4/1 5/4/1 1/4/1
f 8/4/1 5/4/1 7/4/1
f 9/4/1 4/4/1 6/4/1
f 10/4/1 4/4/1 9/4/1
f 11/4/1 5/4/1 8/4/1
f 12/4/1 5/4/1 11/4/1
f 13/4/1 9/4/1 6/4/1
f 14/4/1 9/4/1 13/4/1
f 19/4/1 16/4/1 15/4/1
f 20/4/1 16/4/1 19/4/1
f 21/1/1 18/1/1 17/1/1
f 22/1/1 18/1/1 21/1/1
f 29/1/1 24/1/1 23/1/1
f 30/1/1 24/1/1 29/1/1
f 31/1/1 26/1/1 25/1/1
f 32/1/1 26/1/1 31/1/1
f 33/4/1 28/4/1 27/4/1
f 34/4/1 28/4/1 33/4/1
f 39/1/1 36/1/1 35/1/1
f 40/1/1 36/1/1 39/1/1
f 41/4/1 38/4/1 37/4/1
f 42/4/1 38/4/1 41/4/1
f 45/1/1 44/1/1 43/1/1
f 46/1/1 44/1/1 45/1/1
f 49/1/1 48/1/1 47/1/1
f 50/1/1 48/1/1 49/1/1
f 58/4/1 52/4/1 51/4/1
f 59/4/1 54/4/1 53/4/1
f 60/1/1 55/1/1 54/1/1
f 60/4/1 54/4/1 59/4/1
f 61/1/1 55/1/1 60/1/1
f 62/1/1 57/1/1 56/1/1
f 63/1/1 57/1/1 62/1/1
f 64/4/1 58/4/1 51/4/1
f 64/4/1 59/4/1 58/4/1
f 64/4/1 60/4/1 59/4/1
f 65/4/1 60/4/1 64/4/1
f 72/4/1 67/4/1 66/4/1
f 73/4/1 67/4/1 72/4/1
f 74/1/1 69/1/1 68/1/1
f 75/1/1 69/1/1 74/1/1
f 76/4/1 71/4/1 70/4/1
f 77/4/1 71/4/1 76/4/1
f 78/4/2 79/4/2 84/4/2
f 84/4/2 79/4/2 85/4/2
f 80/1/2 81/1/2 86/1/2
f 86/1/2 81/1/2 87/1/2
f 82/4/2 83/4/2 88/4/2
f 88/4/2 83/4/2 89/4/2
f 90/4/2 91/4/2 97/4/2
f 92/4/2 93/4/2 98/4/2
f 93/1/2 94/1/2 99/1/2
f 98/4/2 93/4/2 99/4/2
f 99/1/2 94/1/2 100/1/2
f 95/1/2 96/1/2 101/1/2
f 101/1/2 96/1/2 102/1/2
f 90/4/2 97/4/2 103/4/2
f 97/4/2 98/4/2 103/4/2
f 98/4/2 99/4/2 103/4/2
f 103/4/2 99/4/2 104/4/2
f 105/1/2 106/1/2 107/1/2
f 107/1/2 106/1/2 108/1/2
f 109/1/2 110/1/2 111/1/2
f 111/1/2 110/1/2 112/1/2
f 113/1/2 114/1/2 117/1/2
f 117/1/2 114/1/2 118/1/2
f 115/4/2 116/4/2 119/4/2
f 119/4/2 116/4/2 120/4/2
f 121/1/2 122/1/2 127/1/2
f 127/1/2 122/1/2 128/1/2
f 123/1/2 124/1/2 129/1/2
f 129/1/2 124/1/2 130/1/2
f 125/4/2 126/4/2 131/4/2
f 131/4/2 126/4/2 132/4/2
f 133/4/2 134/4/2 137/4/2
f 137/4/2 134/4/2 138/4/2
f 135/1/2 136/1/2 139/1/2
f 139/1/2 136/1/2 140/1/2
f 141/4/2 142/4/2 145/4/2
f 142/2/2 143/2/2 145/2/2
f 143/4/2 144/4/2 146/4/2
f 145/2/2 143/2/2 146/2/2
f 141/4/2 145/4/2 147/4/2
f 147/4/2 145/4/2 148/4/2
f 146/4/2 144/4/2 149/4/2
f 149/4/2 144/4/2 150/4/2
f 148/4/2 145/4/2 151/4/2
f 151/4/2 145/4/2 152/4/2
f 146/4/2 149/4/2 153/4/2
f 153/4/2 149/4/2 154/4/2
f 157/4/3 156/4/3 155/4/3
f 159/4/3 157/4/3 155/4/3
f 159/4/3 158/4/3 157/4/3
f 160/4/3 158/4/3 159/4/3
f 161/4/3 158/4/3 160/4/3
f 162/2/3 160/2/3 159/2/3
f 163/2/3 160/2/3 162/2/3
f 165/4/3 163/4/3 162/4/3
f 165/4/3 164/4/3 163/4/3
f 166/4/3 164/4/3 165/4/3
f 167/4/3 165/4/3 162/4/3
f 168/4/3 165/4/3 167/4/3
f 171/4/3 170/4/3 169/4/3
f 172/4/3 170/4/3 171/4/3
f 175/1/3 174/1/3 173/1/3
f 176/1/3 174/1/3 175/1/3
f 179/1/3 178/1/3 177/1/3
f 180/1/3 178/1/3 179/1/3
f 183/4/3 182/4/3 181/4/3
f 184/4/3 182/4/3 183/4/3
f 188/4/3 186/4/3 185/4/3
f 189/4/3 186/4/3 188/4/3
f 190/4/3 188/4/3 187/4/3
f 191/4/3 188/4/3 190/4/3
f 194/1/3 193/1/3 192/1/3
f 195/1/3 193/1/3 194/1/3
f 198/4/3 197/4/3 196/4/3
f 199/4/3 197/4/3 198/4/3
f 201/4/3 200/4/3 199/4/3
f 202/4/3 200/4/3 201/4/3
f 205/1/3 204/1/3 203/1/3
f 206/1/3 204/1/3 205/1/3
f 209/1/3 208/1/3 207/1/3
f 210/1/3 208/1/3 209/1/3
f 213/1/3 212/1/3 211/1/3
f 214/1/3 212/1/3 213/1/3
f 217/1/3 216/1/3 215/1/3
f 218/1/3 216/1/3 217/1/3
f 221/4/3 220/4/3 219/4/3
f 222/4/3 220/4/3 221/4/3
f 223/4/3 220/4/3 222/4/3
f 225/4/3 220/4/3 223/4/3
f 226/4/3 225/4/3 224/4/3
f 227/4/3 220/4/3 225/4/3
f 227/4/3 225/4/3 226/4/3
f 229/4/3 220/4/3 227/4/3
f 230/4/3 229/4/3 228/4/3
f 231/4/3 229/4/3 230/4/3
f 232/4/3 220/4/3 229/4/3
f 232/4/3 229/4/3 231/4/3
f 235/4/3 234/4/3 233/4/3
f 236/4/3 234/4/3 235/4/3
f 239/4/3 238/4/3 237/4/3
f 240/4/3 238/4/3 239/4/3
f 241/4/4 242/4/4 243/4/4
f 243/4/4 242/4/4 244/4/4
f 245/4/4 246/4/4 247/4/4
f 247/4/4 246/4/4 248/4/4
f 249/1/4 250/1/4 251/1/4
f 251/1/4 250/1/4 252/1/4
f 253/1/4 254/1/4 255/1/4
f 255/1/4 254/1/4 256/1/4
f 257/4/4 258/4/4 259/4/4
f 259/4/4 258/4/4 260/4/4
f 260/4/4 258/4/4 261/4/4
f 261/4/4 258/4/4 262/4/4
f 262/4/4 258/4/4 263/4/4
f 264/1/4 265/1/4 266/1/4
f 266/1/4 265/1/4 267/1/4
f 268/4/4 269/4/4 271/4/4
f 270/4/4 271/4/4 272/4/4
f 272/4/4 271/4/4 273/4/4
f 271/4/4 269/4/4 274/4/4
f 273/4/4 271/4/4 274/4/4
f 275/1/4 276/1/4 277/1/4
f 277/1/4 276/1/4 278/1/4
f 279/1/4 280/1/4 281/1/4
f 281/1/4 280/1/4 282/1/4
f 283/1/4 284/1/4 285/1/4
f 285/1/4 284/1/4 286/1/4
f 287/1/4 288/1/4 289/1/4
f 289/1/4 288/1/4 290/1/4
f 291/1/4 292/1/4 293/1/4
f 293/1/4 292/1/4 294/1/4
f 295/1/4 296/1/4 297/1/4
f 297/1/4 296/1/4 298/1/4
f 299/4/4 300/4/4 301/4/4
f 301/4/4 300/4/4 302/4/4
f 303/4/4 304/4/4 305/4/4
f 305/4/4 304/4/4 306/4/4
f 312/4/5 308/4/5 307/4/5
f 313/2/5 309/2/5 308/2/5
f 313/4/5 308/4/5 312/4/5
f 314/4/5 310/4/5 309/4/5
f 314/2/5 309/2/5 313/2/5
f 315/4/5 310/4/5 314/4/5
f 317/4/5 313/4/5 312/4/5
f 317/4/5 312/4/5 311/4/5
f 318/4/5 313/4/5 317/4/5
f 319/3/5 314/3/5 313/3/5
f 319/4/5 313/4/5 318/4/5
f 320/4/5 316/4/5 315/4/5
f 320/3/5 314/3/5 319/3/5
f 320/4/5 315/4/5 314/4/5
f 321/4/5 316/4/5 320/4/5
f 322/4/5 316/4/5 321/4/5
f 323/2/5 318/2/5 317/2/5
f 324/3/5 319/3/5 318/3/5
f 324/2/5 318/2/5 323/2/5
f 324/3/5 320/3/5 319/3/5
f 324/3/5 321/3/5 320/3/5
f 325/2/5 322/2/5 321/2/5
f 325/3/5 321/3/5 324/3/5
f 326/2/5 322/2/5 325/2/5
f 327/4/5 324/4/5 323/4/5
f 327/4/5 325/4/5 324/4/5
f 327/4/5 326/4/5 325/4/5
f 328/4/5 326/4/5 327/4/5
f 333/4/5 330/4/5 329/4/5
f 334/4/5 330/4/5 333/4/5
f 335/4/5 332/4/5 331/4/5
f 336/4/5 332/4/5 335/4/5
f 341/4/5 338/4/5 337/4/5
f 342/4/5 338/4/5 341/4/5
f 343/4/5 340/4/5 339/4/5
f 344/4/5 340/4/5 343/4/5
f 345/2/6 346/2/6 348/2/6
f 348/2/6 346/2/6 349/2/6
f 349/2/6 346/2/6 350/2/6
f 350/2/6 346/2/6 351/2/6
f 347/4/6 348/4/6 353/4/6
f 353/4/6 348/4/6 354/4/6
f 349/3/6 350/3/6 355/3/6
f 355/3/6 350/3/6 356/3/6
f 351/4/6 352/4/6 357/4/6
f 357/4/6 352/4/6 358/4/6
f 354/3/6 355/3/6 362/3/6
f 362/3/6 355/3/6 363/3/6
f 356/3/6 357/3/6 364/3/6
f 364/3/6 357/3/6 365/3/6
f 360/3/6 361/3/6 369/3/6
f 359/2/6 360/2/6 369/2/6
f 369/3/6 361/3/6 370/3/6
f 364/3/6 365/3/6 371/3/6
f 362/3/6 363/3/6 371/3/6
f 363/3/6 364/3/6 371/3/6
f 371/3/6 365/3/6 372/3/6
f 366/3/6 367/3/6 373/3/6
f 367/2/6 368/2/6 374/2/6
f 373/3/6 367/3/6 374/3/6
f 359/2/6 369/2/6 375/2/6
f 372/3/6 373/3/6 376/3/6
f 371/3/6 372/3/6 376/3/6
f 370/3/6 371/3/6 376/3/6
f 376/3/6 373/3/6 377/3/6
f 377/3/6 373/3/6 378/3/6
f 378/3/6 373/3/6 379/3/6
f 374/2/6 368/2/6 380/2/6
f 359/2/6 375/2/6 381/2/6
f 375/3/6 376/3/6 382/3/6
f 381/2/6 375/2/6 382/2/6
f 382/3/6 376/3/6 383/3/6
f 377/3/6 378/3/6 384/3/6
f 384/3/6 378/3/6 385/3/6
f 379/3/6 380/3/6 386/3/6
f 380/2/6 368/2/6 387/2/6
f 386/3/6 380/3/6 387/3/6
f 387/2/6 368/2/6 388/2/6
f 383/4/6 384/4/6 389/4/6
f 389/4/6 384/4/6 390/4/6
f 385/4/6 386/4/6 391/4/6
f 391/4/6 386/4/6 392/4/6
f 393/4/6 394/4/6 398/4/6
f 395/4/6 396/4/6 403/4/6
f 397/4/6 398/4/6 405/4/6
f 398/4/6 394/4/6 406/4/6
f 405/4/6 398/4/6 406/4/6
f 399/1/6 400/1/6 407/1/6
f 407/1/6 400/1/6 408/1/6
f 401/1/6 402/1/6 409/1/6
f 409/1/6 402/1/6 410/1/6
f 403/4/6 404/4/6 411/4/6
f 395/4/6 403/4/6 411/4/6
f 411/4/6 404/4/6 412/4/6
f 408/1/6 409/1/6 415/1/6
f 415/1/6 409/1/6 416/1/6
f 413/1/6 414/1/6 420/1/6
f 420/1/6 414/1/6 421/1/6
f 417/1/6 418/1/6 422/1/6
f 422/1/6 418/1/6 423/1/6
f 419/1/6 420/1/6 425/1/6
f 425/1/6 420/1/6 426/1/6
f 423/1/6 424/1/6 429/1/6
f 429/1/6 424/1/6 430/1/6
f 426/1/6 427/1/6 431/1/6
f 431/1/6 427/1/6 432/1/6
f 428/1/6 429/1/6 433/1/6
f 433/1/6 429/1/6 434/1/6
f 435/4/6 436/4/6 437/4/6
f 437/4/6 436/4/6 438/4/6
f 439/4/6 440/4/6 444/4/6
f 441/4/6 442/4/6 445/4/6
f 443/4/6 444/4/6 447/4/6
f 444/4/6 440/4/6 448/4/6
f 447/4/6 444/4/6 448/4/6
f 445/4/6 446/4/6 449/4/6
f 441/4/6 445/4/6 449/4/6
f 449/4/6 446/4/6 450/4/6
f 451/4/6 452/4/6 453/4/6
f 453/4/6 452/4/6 454/4/6
