# MagicaVoxel @ Ephtracy

# group
o 

# material
mtllib TranspHelice.mtl
usemtl palette

# normals
vn -1 0 0
vn 1 0 0
vn 0 0 1
vn 0 0 -1
vn 0 -1 0
vn 0 1 0

# texcoords
vt 0.00195312 0.5
vt 0.0136719 0.5
vt 0.0175781 0.5
vt 0.0488281 0.5
vt 0.142578 0.5
vt 0.177734 0.5

# verts
v -0.4 1.7 0.7
v -0.4 1.7 0.6
v -0.4 1.8 0.7
v -0.4 1.8 0.6
v -0.2 0.8 0.8
v -0.2 0.8 0.5
v -0.2 0.9 0.9
v -0.2 0.9 0.8
v -0.2 0.9 0.5
v -0.2 0.9 0.4
v -0.2 1 1
v -0.2 1 0.9
v -0.2 1 0.8
v -0.2 1 0.5
v -0.2 1 0.4
v -0.2 1 0.3
v -0.2 1.1 1
v -0.2 1.1 0.9
v -0.2 1.1 0.4
v -0.2 1.1 0.3
v -0.2 1.2 0.9
v -0.2 1.2 0.8
v -0.2 1.2 0.5
v -0.2 1.2 0.4
v -0.2 1.3 1
v -0.2 1.3 0.9
v -0.2 1.3 0.8
v -0.2 1.3 0.5
v -0.2 1.3 0.4
v -0.2 1.3 0.3
v -0.2 1.4 0.9
v -0.2 1.4 0.8
v -0.2 1.4 0.5
v -0.2 1.4 0.4
v -0.2 1.5 0.8
v -0.2 1.5 0.5
v -0.1 0.8 0.9
v -0.1 0.8 0.8
v -0.1 0.8 0.5
v -0.1 0.8 0.4
v -0.1 0.9 1
v -0.1 0.9 0.9
v -0.1 0.9 0.8
v -0.1 0.9 0.5
v -0.1 0.9 0.4
v -0.1 0.9 0.3
v -0.1 1 1.2
v -0.1 1 1
v -0.1 1 0.9
v -0.1 1 0.4
v -0.1 1 0.3
v -0.1 1.1 1.2
v -0.1 1.1 1.1
v -0.1 1.1 1
v -0.1 1.2 1.2
v -0.1 1.2 1.1
v -0.1 1.2 1
v -0.1 1.3 1.1
v -0.1 1.3 1
v -0.1 1.3 0.9
v -0.1 1.3 0.4
v -0.1 1.3 0.3
v -0.1 1.4 1
v -0.1 1.4 0.9
v -0.1 1.4 0.8
v -0.1 1.4 0.5
v -0.1 1.4 0.4
v -0.1 1.4 0.3
v -0.1 1.5 0.9
v -0.1 1.5 0.8
v -0.1 1.5 0.5
v -0.1 1.5 0.4
v 0 1.5 0.7
v 0 1.5 0.6
v 0 1.7 1.1
v 0 1.7 1
v 0 1.7 0.7
v 0 1.7 0.6
v 0 1.7 0.3
v 0 1.7 0.2
v 0 1.8 1.1
v 0 1.8 1
v 0 1.8 0.7
v 0 1.8 0.6
v 0 1.8 0.3
v 0 1.8 0.2
v 0 1.9 0.7
v 0 1.9 0.6
v 0.1 1.4 0.7
v 0.1 1.4 0.6
v 0.1 1.5 0.7
v 0.1 1.5 0.6
v 0.2 0.9 0.9
v 0.2 0.9 0.4
v 0.2 1 0.8
v 0.2 1 0.5
v 0.2 1.2 0.9
v 0.2 1.2 0.8
v 0.2 1.2 0.5
v 0.2 1.2 0.4
v 0.2 1.3 0.8
v 0.2 1.3 0.5
v 0.2 1.4 0.9
v 0.2 1.4 0.4
v -0.1 0.9 0.9
v -0.1 0.9 0.4
v -0.1 1 0.8
v -0.1 1 0.5
v -0.1 1.2 0.9
v -0.1 1.2 0.8
v -0.1 1.2 0.5
v -0.1 1.2 0.4
v -0.1 1.3 0.8
v -0.1 1.3 0.5
v -0.1 1.4 0.9
v -0.1 1.4 0.4
v 0 1.4 0.7
v 0 1.4 0.6
v 0 1.5 0.7
v 0 1.5 0.6
v 0.1 1.5 0.7
v 0.1 1.5 0.6
v 0.1 1.7 1.1
v 0.1 1.7 1
v 0.1 1.7 0.7
v 0.1 1.7 0.6
v 0.1 1.7 0.3
v 0.1 1.7 0.2
v 0.1 1.8 1.1
v 0.1 1.8 1
v 0.1 1.8 0.7
v 0.1 1.8 0.6
v 0.1 1.8 0.3
v 0.1 1.8 0.2
v 0.1 1.9 0.7
v 0.1 1.9 0.6
v 0.2 0.8 0.9
v 0.2 0.8 0.8
v 0.2 0.8 0.5
v 0.2 0.8 0.4
v 0.2 0.9 1
v 0.2 0.9 0.9
v 0.2 0.9 0.8
v 0.2 0.9 0.5
v 0.2 0.9 0.4
v 0.2 0.9 0.3
v 0.2 1 1.2
v 0.2 1 1
v 0.2 1 0.9
v 0.2 1 0.4
v 0.2 1 0.3
v 0.2 1.1 1.2
v 0.2 1.1 1.1
v 0.2 1.1 1
v 0.2 1.2 1.2
v 0.2 1.2 1.1
v 0.2 1.2 1
v 0.2 1.3 1.1
v 0.2 1.3 1
v 0.2 1.3 0.9
v 0.2 1.3 0.4
v 0.2 1.3 0.3
v 0.2 1.4 1
v 0.2 1.4 0.9
v 0.2 1.4 0.8
v 0.2 1.4 0.5
v 0.2 1.4 0.4
v 0.2 1.4 0.3
v 0.2 1.5 0.9
v 0.2 1.5 0.8
v 0.2 1.5 0.5
v 0.2 1.5 0.4
v 0.3 0.8 0.8
v 0.3 0.8 0.5
v 0.3 0.9 0.9
v 0.3 0.9 0.8
v 0.3 0.9 0.5
v 0.3 0.9 0.4
v 0.3 1 1
v 0.3 1 0.9
v 0.3 1 0.8
v 0.3 1 0.5
v 0.3 1 0.4
v 0.3 1 0.3
v 0.3 1.1 1
v 0.3 1.1 0.9
v 0.3 1.1 0.4
v 0.3 1.1 0.3
v 0.3 1.2 0.9
v 0.3 1.2 0.8
v 0.3 1.2 0.5
v 0.3 1.2 0.4
v 0.3 1.3 1
v 0.3 1.3 0.9
v 0.3 1.3 0.8
v 0.3 1.3 0.5
v 0.3 1.3 0.4
v 0.3 1.3 0.3
v 0.3 1.4 0.9
v 0.3 1.4 0.8
v 0.3 1.4 0.5
v 0.3 1.4 0.4
v 0.3 1.5 0.8
v 0.3 1.5 0.5
v 0.5 1.7 0.7
v 0.5 1.7 0.6
v 0.5 1.8 0.7
v 0.5 1.8 0.6
v -0.1 1 1.2
v -0.1 1.1 1.2
v -0.1 1.2 1.2
v 0 1.1 1.2
v 0 1.2 1.2
v 0.1 1.1 1.2
v 0.1 1.2 1.2
v 0.2 1 1.2
v 0.2 1.1 1.2
v 0.2 1.2 1.2
v -0.1 1.2 1.1
v -0.1 1.3 1.1
v 0 1.2 1.1
v 0 1.3 1.1
v 0 1.7 1.1
v 0 1.8 1.1
v 0.1 1.2 1.1
v 0.1 1.3 1.1
v 0.1 1.7 1.1
v 0.1 1.8 1.1
v 0.2 1.2 1.1
v 0.2 1.3 1.1
v -0.2 1 1
v -0.2 1.1 1
v -0.2 1.3 1
v -0.1 0.9 1
v -0.1 1 1
v -0.1 1.1 1
v -0.1 1.2 1
v -0.1 1.3 1
v -0.1 1.4 1
v 0 1.3 1
v 0 1.4 1
v 0.1 1.3 1
v 0.1 1.4 1
v 0.2 0.9 1
v 0.2 1 1
v 0.2 1.1 1
v 0.2 1.2 1
v 0.2 1.3 1
v 0.2 1.4 1
v 0.3 1 1
v 0.3 1.1 1
v 0.3 1.3 1
v -0.2 0.9 0.9
v -0.2 1 0.9
v -0.2 1.3 0.9
v -0.2 1.4 0.9
v -0.1 0.8 0.9
v -0.1 0.9 0.9
v -0.1 1 0.9
v -0.1 1.3 0.9
v -0.1 1.4 0.9
v -0.1 1.5 0.9
v 0 1.4 0.9
v 0 1.5 0.9
v 0.1 1.4 0.9
v 0.1 1.5 0.9
v 0.2 0.8 0.9
v 0.2 0.9 0.9
v 0.2 1 0.9
v 0.2 1.3 0.9
v 0.2 1.4 0.9
v 0.2 1.5 0.9
v 0.3 0.9 0.9
v 0.3 1 0.9
v 0.3 1.3 0.9
v 0.3 1.4 0.9
v -0.2 0.8 0.8
v -0.2 0.9 0.8
v -0.2 1.4 0.8
v -0.2 1.5 0.8
v -0.1 0.8 0.8
v -0.1 0.9 0.8
v -0.1 1.4 0.8
v -0.1 1.5 0.8
v 0.2 0.8 0.8
v 0.2 0.9 0.8
v 0.2 1.4 0.8
v 0.2 1.5 0.8
v 0.3 0.8 0.8
v 0.3 0.9 0.8
v 0.3 1.4 0.8
v 0.3 1.5 0.8
v -0.4 1.7 0.7
v -0.4 1.8 0.7
v -0.3 1.7 0.7
v -0.3 1.8 0.7
v 0 1.5 0.7
v 0 1.7 0.7
v 0 1.8 0.7
v 0 1.9 0.7
v 0.1 1.5 0.7
v 0.1 1.7 0.7
v 0.1 1.8 0.7
v 0.1 1.9 0.7
v 0.4 1.7 0.7
v 0.4 1.8 0.7
v 0.5 1.7 0.7
v 0.5 1.8 0.7
v 0 1.4 0.6
v 0 1.5 0.6
v 0.1 1.4 0.6
v 0.1 1.5 0.6
v -0.1 0.9 0.4
v -0.1 1.2 0.4
v -0.1 1.4 0.4
v 0 1.2 0.4
v 0 1.4 0.4
v 0.1 1.2 0.4
v 0.1 1.4 0.4
v 0.2 0.9 0.4
v 0.2 1.2 0.4
v 0.2 1.4 0.4
v -0.1 0.9 0.9
v -0.1 1.2 0.9
v -0.1 1.4 0.9
v 0 1.3 0.9
v 0 1.4 0.9
v 0.1 1.3 0.9
v 0.1 1.4 0.9
v 0.2 0.9 0.9
v 0.2 1.2 0.9
v 0.2 1.4 0.9
v 0 1.4 0.7
v 0 1.5 0.7
v 0.1 1.4 0.7
v 0.1 1.5 0.7
v -0.4 1.7 0.6
v -0.4 1.8 0.6
v -0.3 1.7 0.6
v -0.3 1.8 0.6
v 0 1.5 0.6
v 0 1.7 0.6
v 0 1.8 0.6
v 0 1.9 0.6
v 0.1 1.5 0.6
v 0.1 1.7 0.6
v 0.1 1.8 0.6
v 0.1 1.9 0.6
v 0.4 1.7 0.6
v 0.4 1.8 0.6
v 0.5 1.7 0.6
v 0.5 1.8 0.6
v -0.2 0.8 0.5
v -0.2 0.9 0.5
v -0.2 1.4 0.5
v -0.2 1.5 0.5
v -0.1 0.8 0.5
v -0.1 0.9 0.5
v -0.1 1.4 0.5
v -0.1 1.5 0.5
v 0.2 0.8 0.5
v 0.2 0.9 0.5
v 0.2 1.4 0.5
v 0.2 1.5 0.5
v 0.3 0.8 0.5
v 0.3 0.9 0.5
v 0.3 1.4 0.5
v 0.3 1.5 0.5
v -0.2 0.9 0.4
v -0.2 1 0.4
v -0.2 1.3 0.4
v -0.2 1.4 0.4
v -0.1 0.8 0.4
v -0.1 0.9 0.4
v -0.1 1 0.4
v -0.1 1.3 0.4
v -0.1 1.4 0.4
v -0.1 1.5 0.4
v 0 1.4 0.4
v 0 1.5 0.4
v 0.1 1.4 0.4
v 0.1 1.5 0.4
v 0.2 0.8 0.4
v 0.2 0.9 0.4
v 0.2 1 0.4
v 0.2 1.3 0.4
v 0.2 1.4 0.4
v 0.2 1.5 0.4
v 0.3 0.9 0.4
v 0.3 1 0.4
v 0.3 1.3 0.4
v 0.3 1.4 0.4
v -0.2 1 0.3
v -0.2 1.1 0.3
v -0.2 1.3 0.3
v -0.1 0.9 0.3
v -0.1 1 0.3
v -0.1 1.1 0.3
v -0.1 1.2 0.3
v -0.1 1.3 0.3
v -0.1 1.4 0.3
v 0 1.2 0.3
v 0 1.4 0.3
v 0.1 1.2 0.3
v 0.1 1.4 0.3
v 0.2 0.9 0.3
v 0.2 1 0.3
v 0.2 1.1 0.3
v 0.2 1.2 0.3
v 0.2 1.3 0.3
v 0.2 1.4 0.3
v 0.3 1 0.3
v 0.3 1.1 0.3
v 0.3 1.3 0.3
v 0 1.7 0.2
v 0 1.8 0.2
v 0.1 1.7 0.2
v 0.1 1.8 0.2
v -0.1 0.8 0.9
v 0.2 0.8 0.9
v -0.2 0.8 0.8
v -0.1 0.8 0.8
v 0.2 0.8 0.8
v 0.3 0.8 0.8
v -0.2 0.8 0.5
v -0.1 0.8 0.5
v 0.2 0.8 0.5
v 0.3 0.8 0.5
v -0.1 0.8 0.4
v 0.2 0.8 0.4
v -0.1 0.9 1
v 0.2 0.9 1
v -0.2 0.9 0.9
v -0.1 0.9 0.9
v 0.2 0.9 0.9
v 0.3 0.9 0.9
v -0.2 0.9 0.8
v -0.1 0.9 0.8
v 0.2 0.9 0.8
v 0.3 0.9 0.8
v -0.2 0.9 0.5
v -0.1 0.9 0.5
v 0.2 0.9 0.5
v 0.3 0.9 0.5
v -0.2 0.9 0.4
v -0.1 0.9 0.4
v 0.2 0.9 0.4
v 0.3 0.9 0.4
v -0.1 0.9 0.3
v 0.2 0.9 0.3
v -0.1 1 1.2
v 0.2 1 1.2
v -0.2 1 1
v -0.1 1 1
v 0.2 1 1
v 0.3 1 1
v -0.2 1 0.9
v -0.1 1 0.9
v 0.2 1 0.9
v 0.3 1 0.9
v -0.2 1 0.4
v -0.1 1 0.4
v 0.2 1 0.4
v 0.3 1 0.4
v -0.2 1 0.3
v -0.1 1 0.3
v 0.2 1 0.3
v 0.3 1 0.3
v -0.1 1.4 0.9
v 0 1.4 0.9
v 0.1 1.4 0.9
v 0.2 1.4 0.9
v 0 1.4 0.7
v 0.1 1.4 0.7
v 0 1.4 0.6
v 0.1 1.4 0.6
v -0.1 1.4 0.4
v 0 1.4 0.4
v 0.1 1.4 0.4
v 0.2 1.4 0.4
v 0 1.5 0.7
v 0.1 1.5 0.7
v 0 1.5 0.6
v 0.1 1.5 0.6
v 0 1.7 1.1
v 0.1 1.7 1.1
v 0 1.7 1
v 0.1 1.7 1
v -0.4 1.7 0.7
v -0.3 1.7 0.7
v 0 1.7 0.7
v 0.1 1.7 0.7
v 0.4 1.7 0.7
v 0.5 1.7 0.7
v -0.4 1.7 0.6
v -0.3 1.7 0.6
v 0 1.7 0.6
v 0.1 1.7 0.6
v 0.4 1.7 0.6
v 0.5 1.7 0.6
v 0 1.7 0.3
v 0.1 1.7 0.3
v 0 1.7 0.2
v 0.1 1.7 0.2
v -0.1 0.9 0.9
v 0.2 0.9 0.9
v -0.1 0.9 0.4
v 0.2 0.9 0.4
v -0.1 1.2 1.2
v 0 1.2 1.2
v 0.1 1.2 1.2
v 0.2 1.2 1.2
v -0.1 1.2 1.1
v 0 1.2 1.1
v 0.1 1.2 1.1
v 0.2 1.2 1.1
v -0.1 1.3 1.1
v 0 1.3 1.1
v 0.1 1.3 1.1
v 0.2 1.3 1.1
v -0.2 1.3 1
v -0.1 1.3 1
v 0 1.3 1
v 0.1 1.3 1
v 0.2 1.3 1
v 0.3 1.3 1
v -0.2 1.3 0.9
v -0.1 1.3 0.9
v 0.2 1.3 0.9
v 0.3 1.3 0.9
v -0.2 1.3 0.4
v -0.1 1.3 0.4
v 0.2 1.3 0.4
v 0.3 1.3 0.4
v -0.2 1.3 0.3
v -0.1 1.3 0.3
v 0.2 1.3 0.3
v 0.3 1.3 0.3
v -0.1 1.4 1
v 0 1.4 1
v 0.1 1.4 1
v 0.2 1.4 1
v -0.2 1.4 0.9
v -0.1 1.4 0.9
v 0 1.4 0.9
v 0.1 1.4 0.9
v 0.2 1.4 0.9
v 0.3 1.4 0.9
v -0.2 1.4 0.8
v -0.1 1.4 0.8
v 0.2 1.4 0.8
v 0.3 1.4 0.8
v -0.2 1.4 0.5
v -0.1 1.4 0.5
v 0.2 1.4 0.5
v 0.3 1.4 0.5
v -0.2 1.4 0.4
v -0.1 1.4 0.4
v 0 1.4 0.4
v 0.1 1.4 0.4
v 0.2 1.4 0.4
v 0.3 1.4 0.4
v -0.1 1.4 0.3
v 0 1.4 0.3
v 0.1 1.4 0.3
v 0.2 1.4 0.3
v -0.1 1.5 0.9
v 0 1.5 0.9
v 0.1 1.5 0.9
v 0.2 1.5 0.9
v -0.2 1.5 0.8
v -0.1 1.5 0.8
v 0.2 1.5 0.8
v 0.3 1.5 0.8
v 0 1.5 0.7
v 0.1 1.5 0.7
v 0 1.5 0.6
v 0.1 1.5 0.6
v -0.2 1.5 0.5
v -0.1 1.5 0.5
v 0.2 1.5 0.5
v 0.3 1.5 0.5
v -0.1 1.5 0.4
v 0 1.5 0.4
v 0.1 1.5 0.4
v 0.2 1.5 0.4
v 0 1.8 1.1
v 0.1 1.8 1.1
v 0 1.8 1
v 0.1 1.8 1
v -0.4 1.8 0.7
v -0.3 1.8 0.7
v 0 1.8 0.7
v 0.1 1.8 0.7
v 0.4 1.8 0.7
v 0.5 1.8 0.7
v -0.4 1.8 0.6
v -0.3 1.8 0.6
v 0 1.8 0.6
v 0.1 1.8 0.6
v 0.4 1.8 0.6
v 0.5 1.8 0.6
v 0 1.8 0.3
v 0.1 1.8 0.3
v 0 1.8 0.2
v 0.1 1.8 0.2
v 0 1.9 0.7
v 0.1 1.9 0.7
v 0 1.9 0.6
v 0.1 1.9 0.6

# faces
f 3/6/1 2/6/1 1/6/1
f 4/6/1 2/6/1 3/6/1
f 8/3/1 6/3/1 5/3/1
f 9/3/1 6/3/1 8/3/1
f 12/3/1 8/3/1 7/3/1
f 12/3/1 10/3/1 9/3/1
f 12/3/1 9/3/1 8/3/1
f 13/3/1 10/3/1 12/3/1
f 14/3/1 10/3/1 13/3/1
f 15/3/1 10/3/1 14/3/1
f 17/3/1 12/3/1 11/3/1
f 17/3/1 13/3/1 12/3/1
f 18/3/1 13/3/1 17/3/1
f 19/3/1 16/3/1 15/3/1
f 19/3/1 15/3/1 14/3/1
f 20/3/1 16/3/1 19/3/1
f 21/3/1 13/3/1 18/3/1
f 21/6/1 18/6/1 17/6/1
f 22/5/1 14/5/1 13/5/1
f 22/3/1 13/3/1 21/3/1
f 23/3/1 19/3/1 14/3/1
f 23/5/1 14/5/1 22/5/1
f 24/6/1 20/6/1 19/6/1
f 24/3/1 19/3/1 23/3/1
f 25/6/1 21/6/1 17/6/1
f 25/6/1 22/6/1 21/6/1
f 26/6/1 22/6/1 25/6/1
f 27/5/1 23/5/1 22/5/1
f 27/6/1 22/6/1 26/6/1
f 28/6/1 24/6/1 23/6/1
f 28/5/1 23/5/1 27/5/1
f 29/6/1 20/6/1 24/6/1
f 29/6/1 24/6/1 28/6/1
f 30/6/1 20/6/1 29/6/1
f 31/6/1 28/6/1 27/6/1
f 31/6/1 29/6/1 28/6/1
f 31/6/1 27/6/1 26/6/1
f 32/6/1 29/6/1 31/6/1
f 33/6/1 29/6/1 32/6/1
f 34/6/1 29/6/1 33/6/1
f 35/6/1 33/6/1 32/6/1
f 36/6/1 33/6/1 35/6/1
f 42/3/1 38/3/1 37/3/1
f 43/3/1 38/3/1 42/3/1
f 44/3/1 40/3/1 39/3/1
f 45/3/1 40/3/1 44/3/1
f 48/3/1 42/3/1 41/3/1
f 49/3/1 42/3/1 48/3/1
f 50/3/1 46/3/1 45/3/1
f 51/3/1 46/3/1 50/3/1
f 52/2/1 48/2/1 47/2/1
f 53/2/1 48/2/1 52/2/1
f 54/2/1 48/2/1 53/2/1
f 55/3/1 53/3/1 52/3/1
f 56/1/1 54/1/1 53/1/1
f 56/3/1 53/3/1 55/3/1
f 57/1/1 54/1/1 56/1/1
f 58/3/1 57/3/1 56/3/1
f 59/3/1 57/3/1 58/3/1
f 63/6/1 60/6/1 59/6/1
f 64/6/1 60/6/1 63/6/1
f 67/6/1 62/6/1 61/6/1
f 68/6/1 62/6/1 67/6/1
f 69/6/1 65/6/1 64/6/1
f 70/6/1 65/6/1 69/6/1
f 71/6/1 67/6/1 66/6/1
f 72/6/1 67/6/1 71/6/1
f 77/1/1 74/1/1 73/1/1
f 78/1/1 74/1/1 77/1/1
f 81/6/1 76/6/1 75/6/1
f 82/3/1 77/3/1 76/3/1
f 82/6/1 76/6/1 81/6/1
f 83/3/1 77/3/1 82/3/1
f 84/3/1 79/3/1 78/3/1
f 85/6/1 80/6/1 79/6/1
f 85/3/1 79/3/1 84/3/1
f 86/6/1 80/6/1 85/6/1
f 87/1/1 84/1/1 83/1/1
f 88/1/1 84/1/1 87/1/1
f 91/6/1 90/6/1 89/6/1
f 92/6/1 90/6/1 91/6/1
f 95/3/1 94/3/1 93/3/1
f 96/3/1 94/3/1 95/3/1
f 97/3/1 95/3/1 93/3/1
f 98/5/1 96/5/1 95/5/1
f 98/3/1 95/3/1 97/3/1
f 99/3/1 94/3/1 96/3/1
f 99/5/1 96/5/1 98/5/1
f 100/3/1 94/3/1 99/3/1
f 101/6/1 98/6/1 97/6/1
f 101/5/1 99/5/1 98/5/1
f 102/6/1 100/6/1 99/6/1
f 102/5/1 99/5/1 101/5/1
f 103/6/1 101/6/1 97/6/1
f 103/6/1 102/6/1 101/6/1
f 104/6/1 100/6/1 102/6/1
f 104/6/1 102/6/1 103/6/1
f 105/3/2 106/3/2 107/3/2
f 107/3/2 106/3/2 108/3/2
f 105/3/2 107/3/2 109/3/2
f 107/5/2 108/5/2 110/5/2
f 109/3/2 107/3/2 110/3/2
f 108/3/2 106/3/2 111/3/2
f 110/5/2 108/5/2 111/5/2
f 111/3/2 106/3/2 112/3/2
f 109/6/2 110/6/2 113/6/2
f 110/5/2 111/5/2 113/5/2
f 111/6/2 112/6/2 114/6/2
f 113/5/2 111/5/2 114/5/2
f 109/6/2 113/6/2 115/6/2
f 113/6/2 114/6/2 115/6/2
f 114/6/2 112/6/2 116/6/2
f 115/6/2 114/6/2 116/6/2
f 117/6/2 118/6/2 119/6/2
f 119/6/2 118/6/2 120/6/2
f 121/1/2 122/1/2 125/1/2
f 125/1/2 122/1/2 126/1/2
f 123/6/2 124/6/2 129/6/2
f 124/3/2 125/3/2 130/3/2
f 129/6/2 124/6/2 130/6/2
f 130/3/2 125/3/2 131/3/2
f 126/3/2 127/3/2 132/3/2
f 127/6/2 128/6/2 133/6/2
f 132/3/2 127/3/2 133/3/2
f 133/6/2 128/6/2 134/6/2
f 131/1/2 132/1/2 135/1/2
f 135/1/2 132/1/2 136/1/2
f 137/3/2 138/3/2 142/3/2
f 142/3/2 138/3/2 143/3/2
f 139/3/2 140/3/2 144/3/2
f 144/3/2 140/3/2 145/3/2
f 141/3/2 142/3/2 148/3/2
f 148/3/2 142/3/2 149/3/2
f 145/3/2 146/3/2 150/3/2
f 150/3/2 146/3/2 151/3/2
f 147/2/2 148/2/2 152/2/2
f 152/2/2 148/2/2 153/2/2
f 153/2/2 148/2/2 154/2/2
f 152/3/2 153/3/2 155/3/2
f 153/1/2 154/1/2 156/1/2
f 155/3/2 153/3/2 156/3/2
f 156/1/2 154/1/2 157/1/2
f 156/3/2 157/3/2 158/3/2
f 158/3/2 157/3/2 159/3/2
f 159/6/2 160/6/2 163/6/2
f 163/6/2 160/6/2 164/6/2
f 161/6/2 162/6/2 167/6/2
f 167/6/2 162/6/2 168/6/2
f 164/6/2 165/6/2 169/6/2
f 169/6/2 165/6/2 170/6/2
f 166/6/2 167/6/2 171/6/2
f 171/6/2 167/6/2 172/6/2
f 173/3/2 174/3/2 176/3/2
f 176/3/2 174/3/2 177/3/2
f 175/3/2 176/3/2 180/3/2
f 177/3/2 178/3/2 180/3/2
f 176/3/2 177/3/2 180/3/2
f 180/3/2 178/3/2 181/3/2
f 181/3/2 178/3/2 182/3/2
f 182/3/2 178/3/2 183/3/2
f 179/3/2 180/3/2 185/3/2
f 180/3/2 181/3/2 185/3/2
f 185/3/2 181/3/2 186/3/2
f 183/3/2 184/3/2 187/3/2
f 182/3/2 183/3/2 187/3/2
f 187/3/2 184/3/2 188/3/2
f 186/3/2 181/3/2 189/3/2
f 185/6/2 186/6/2 189/6/2
f 181/5/2 182/5/2 190/5/2
f 189/3/2 181/3/2 190/3/2
f 182/3/2 187/3/2 191/3/2
f 190/5/2 182/5/2 191/5/2
f 187/6/2 188/6/2 192/6/2
f 191/3/2 187/3/2 192/3/2
f 185/6/2 189/6/2 193/6/2
f 189/6/2 190/6/2 193/6/2
f 193/6/2 190/6/2 194/6/2
f 190/5/2 191/5/2 195/5/2
f 194/6/2 190/6/2 195/6/2
f 191/6/2 192/6/2 196/6/2
f 195/5/2 191/5/2 196/5/2
f 192/6/2 188/6/2 197/6/2
f 196/6/2 192/6/2 197/6/2
f 197/6/2 188/6/2 198/6/2
f 195/6/2 196/6/2 199/6/2
f 196/6/2 197/6/2 199/6/2
f 194/6/2 195/6/2 199/6/2
f 199/6/2 197/6/2 200/6/2
f 200/6/2 197/6/2 201/6/2
f 201/6/2 197/6/2 202/6/2
f 200/6/2 201/6/2 203/6/2
f 203/6/2 201/6/2 204/6/2
f 205/6/2 206/6/2 207/6/2
f 207/6/2 206/6/2 208/6/2
f 212/2/3 210/2/3 209/2/3
f 212/3/3 211/3/3 210/3/3
f 213/3/3 211/3/3 212/3/3
f 214/2/3 212/2/3 209/2/3
f 214/2/3 213/2/3 212/2/3
f 215/2/3 213/2/3 214/2/3
f 216/2/3 214/2/3 209/2/3
f 217/3/3 215/3/3 214/3/3
f 217/2/3 214/2/3 216/2/3
f 218/3/3 215/3/3 217/3/3
f 221/3/3 220/3/3 219/3/3
f 222/3/3 220/3/3 221/3/3
f 225/2/3 222/2/3 221/2/3
f 226/2/3 222/2/3 225/2/3
f 227/6/3 224/6/3 223/6/3
f 228/6/3 224/6/3 227/6/3
f 229/3/3 226/3/3 225/3/3
f 230/3/3 226/3/3 229/3/3
f 235/3/3 232/3/3 231/3/3
f 236/6/3 233/6/3 232/6/3
f 236/3/3 232/3/3 235/3/3
f 237/6/3 233/6/3 236/6/3
f 238/6/3 233/6/3 237/6/3
f 240/6/3 239/6/3 238/6/3
f 241/6/3 239/6/3 240/6/3
f 242/3/3 241/3/3 240/3/3
f 243/3/3 241/3/3 242/3/3
f 244/3/3 235/3/3 234/3/3
f 245/3/3 235/3/3 244/3/3
f 248/6/3 243/6/3 242/6/3
f 249/6/3 243/6/3 248/6/3
f 250/3/3 246/3/3 245/3/3
f 251/6/3 247/6/3 246/6/3
f 251/3/3 246/3/3 250/3/3
f 251/6/3 248/6/3 247/6/3
f 252/6/3 248/6/3 251/6/3
f 258/3/3 254/3/3 253/3/3
f 259/3/3 254/3/3 258/3/3
f 260/6/3 256/6/3 255/6/3
f 261/6/3 256/6/3 260/6/3
f 263/6/3 262/6/3 261/6/3
f 264/6/3 262/6/3 263/6/3
f 265/3/3 264/3/3 263/3/3
f 266/3/3 264/3/3 265/3/3
f 267/3/3 258/3/3 257/3/3
f 268/3/3 258/3/3 267/3/3
f 271/6/3 266/6/3 265/6/3
f 272/6/3 266/6/3 271/6/3
f 273/3/3 269/3/3 268/3/3
f 274/3/3 269/3/3 273/3/3
f 275/6/3 271/6/3 270/6/3
f 276/6/3 271/6/3 275/6/3
f 281/3/3 278/3/3 277/3/3
f 282/3/3 278/3/3 281/3/3
f 283/6/3 280/6/3 279/6/3
f 284/6/3 280/6/3 283/6/3
f 289/3/3 286/3/3 285/3/3
f 290/3/3 286/3/3 289/3/3
f 291/6/3 288/6/3 287/6/3
f 292/6/3 288/6/3 291/6/3
f 295/6/3 294/6/3 293/6/3
f 296/6/3 294/6/3 295/6/3
f 298/3/3 296/3/3 295/3/3
f 299/3/3 296/3/3 298/3/3
f 301/1/3 298/1/3 297/1/3
f 302/1/3 298/1/3 301/1/3
f 303/1/3 300/1/3 299/1/3
f 304/1/3 300/1/3 303/1/3
f 305/3/3 303/3/3 302/3/3
f 306/3/3 303/3/3 305/3/3
f 307/6/3 306/6/3 305/6/3
f 308/6/3 306/6/3 307/6/3
f 311/3/3 310/3/3 309/3/3
f 312/3/3 310/3/3 311/3/3
f 316/3/3 314/3/3 313/3/3
f 316/6/3 315/6/3 314/6/3
f 317/6/3 315/6/3 316/6/3
f 318/3/3 316/3/3 313/3/3
f 318/3/3 317/3/3 316/3/3
f 319/3/3 317/3/3 318/3/3
f 320/3/3 318/3/3 313/3/3
f 321/6/3 319/6/3 318/6/3
f 321/3/3 318/3/3 320/3/3
f 322/6/3 319/6/3 321/6/3
f 324/6/4 325/6/4 326/6/4
f 326/6/4 325/6/4 327/6/4
f 324/6/4 326/6/4 328/6/4
f 326/3/4 327/3/4 328/3/4
f 328/3/4 327/3/4 329/3/4
f 323/3/4 324/3/4 330/3/4
f 324/6/4 328/6/4 331/6/4
f 330/3/4 324/3/4 331/3/4
f 328/6/4 329/6/4 331/6/4
f 331/6/4 329/6/4 332/6/4
f 333/3/4 334/3/4 335/3/4
f 335/3/4 334/3/4 336/3/4
f 337/6/4 338/6/4 339/6/4
f 339/6/4 338/6/4 340/6/4
f 339/3/4 340/3/4 342/3/4
f 342/3/4 340/3/4 343/3/4
f 341/1/4 342/1/4 345/1/4
f 345/1/4 342/1/4 346/1/4
f 343/1/4 344/1/4 347/1/4
f 347/1/4 344/1/4 348/1/4
f 346/3/4 347/3/4 349/3/4
f 349/3/4 347/3/4 350/3/4
f 349/6/4 350/6/4 351/6/4
f 351/6/4 350/6/4 352/6/4
f 353/3/4 354/3/4 357/3/4
f 357/3/4 354/3/4 358/3/4
f 355/6/4 356/6/4 359/6/4
f 359/6/4 356/6/4 360/6/4
f 361/3/4 362/3/4 365/3/4
f 365/3/4 362/3/4 366/3/4
f 363/6/4 364/6/4 367/6/4
f 367/6/4 364/6/4 368/6/4
f 369/3/4 370/3/4 374/3/4
f 374/3/4 370/3/4 375/3/4
f 371/6/4 372/6/4 376/6/4
f 376/6/4 372/6/4 377/6/4
f 377/6/4 378/6/4 379/6/4
f 379/6/4 378/6/4 380/6/4
f 379/3/4 380/3/4 381/3/4
f 381/3/4 380/3/4 382/3/4
f 373/3/4 374/3/4 383/3/4
f 383/3/4 374/3/4 384/3/4
f 381/6/4 382/6/4 387/6/4
f 387/6/4 382/6/4 388/6/4
f 384/3/4 385/3/4 389/3/4
f 389/3/4 385/3/4 390/3/4
f 386/6/4 387/6/4 391/6/4
f 391/6/4 387/6/4 392/6/4
f 393/3/4 394/3/4 397/3/4
f 394/6/4 395/6/4 398/6/4
f 397/3/4 394/3/4 398/3/4
f 398/6/4 395/6/4 399/6/4
f 399/6/4 395/6/4 400/6/4
f 396/3/4 397/3/4 402/3/4
f 400/6/4 401/6/4 402/6/4
f 399/6/4 400/6/4 402/6/4
f 398/3/4 399/3/4 402/3/4
f 397/3/4 398/3/4 402/3/4
f 402/6/4 401/6/4 403/6/4
f 396/3/4 402/3/4 404/3/4
f 402/3/4 403/3/4 404/3/4
f 404/3/4 403/3/4 405/3/4
f 396/3/4 404/3/4 406/3/4
f 406/3/4 404/3/4 407/3/4
f 407/3/4 404/3/4 408/3/4
f 404/6/4 405/6/4 409/6/4
f 408/3/4 404/3/4 409/3/4
f 409/6/4 405/6/4 410/6/4
f 410/6/4 405/6/4 411/6/4
f 407/3/4 408/3/4 412/3/4
f 409/6/4 410/6/4 413/6/4
f 412/3/4 408/3/4 413/3/4
f 408/6/4 409/6/4 413/6/4
f 413/6/4 410/6/4 414/6/4
f 415/6/4 416/6/4 417/6/4
f 417/6/4 416/6/4 418/6/4
f 422/3/5 420/3/5 419/3/5
f 423/3/5 420/3/5 422/3/5
f 425/3/5 422/3/5 421/3/5
f 425/3/5 424/3/5 423/3/5
f 425/3/5 423/3/5 422/3/5
f 426/3/5 424/3/5 425/3/5
f 427/3/5 424/3/5 426/3/5
f 428/3/5 424/3/5 427/3/5
f 429/3/5 427/3/5 426/3/5
f 430/3/5 427/3/5 429/3/5
f 434/3/5 432/3/5 431/3/5
f 435/3/5 432/3/5 434/3/5
f 437/3/5 434/3/5 433/3/5
f 438/3/5 434/3/5 437/3/5
f 439/3/5 436/3/5 435/3/5
f 440/3/5 436/3/5 439/3/5
f 445/3/5 442/3/5 441/3/5
f 446/3/5 442/3/5 445/3/5
f 447/3/5 444/3/5 443/3/5
f 448/3/5 444/3/5 447/3/5
f 449/3/5 447/3/5 446/3/5
f 450/3/5 447/3/5 449/3/5
f 454/2/5 452/2/5 451/2/5
f 455/2/5 452/2/5 454/2/5
f 457/3/5 454/3/5 453/3/5
f 458/3/5 454/3/5 457/3/5
f 459/3/5 456/3/5 455/3/5
f 460/3/5 456/3/5 459/3/5
f 465/3/5 462/3/5 461/3/5
f 466/3/5 462/3/5 465/3/5
f 467/3/5 464/3/5 463/3/5
f 468/3/5 464/3/5 467/3/5
f 473/6/5 470/6/5 469/6/5
f 473/3/5 471/3/5 470/3/5
f 474/6/5 472/6/5 471/6/5
f 474/3/5 471/3/5 473/3/5
f 475/6/5 473/6/5 469/6/5
f 476/6/5 472/6/5 474/6/5
f 477/6/5 475/6/5 469/6/5
f 478/3/5 476/3/5 475/3/5
f 478/6/5 475/6/5 477/6/5
f 479/6/5 472/6/5 476/6/5
f 479/3/5 476/3/5 478/3/5
f 480/6/5 472/6/5 479/6/5
f 483/1/5 482/1/5 481/1/5
f 484/1/5 482/1/5 483/1/5
f 487/6/5 486/6/5 485/6/5
f 488/6/5 486/6/5 487/6/5
f 491/3/5 488/3/5 487/3/5
f 492/3/5 488/3/5 491/3/5
f 495/6/5 490/6/5 489/6/5
f 496/3/5 491/3/5 490/3/5
f 496/6/5 490/6/5 495/6/5
f 497/3/5 491/3/5 496/3/5
f 498/3/5 493/3/5 492/3/5
f 499/6/5 494/6/5 493/6/5
f 499/3/5 493/3/5 498/3/5
f 500/6/5 494/6/5 499/6/5
f 501/3/5 498/3/5 497/3/5
f 502/3/5 498/3/5 501/3/5
f 503/6/5 502/6/5 501/6/5
f 504/6/5 502/6/5 503/6/5
f 505/3/6 506/3/6 507/3/6
f 507/3/6 506/3/6 508/3/6
f 509/3/6 510/3/6 513/3/6
f 510/2/6 511/2/6 514/2/6
f 513/3/6 510/3/6 514/3/6
f 511/3/6 512/3/6 515/3/6
f 514/2/6 511/2/6 515/2/6
f 515/3/6 512/3/6 516/3/6
f 517/3/6 518/3/6 522/3/6
f 518/2/6 519/2/6 523/2/6
f 522/3/6 518/3/6 523/3/6
f 519/3/6 520/3/6 524/3/6
f 523/2/6 519/2/6 524/2/6
f 524/3/6 520/3/6 525/3/6
f 521/6/6 522/6/6 527/6/6
f 527/6/6 522/6/6 528/6/6
f 525/6/6 526/6/6 529/6/6
f 529/6/6 526/6/6 530/6/6
f 531/6/6 532/6/6 535/6/6
f 535/6/6 532/6/6 536/6/6
f 533/6/6 534/6/6 537/6/6
f 537/6/6 534/6/6 538/6/6
f 539/6/6 540/6/6 544/6/6
f 540/3/6 541/3/6 545/3/6
f 544/6/6 540/6/6 545/6/6
f 541/6/6 542/6/6 546/6/6
f 545/3/6 541/3/6 546/3/6
f 546/6/6 542/6/6 547/6/6
f 543/6/6 544/6/6 549/6/6
f 549/6/6 544/6/6 550/6/6
f 547/6/6 548/6/6 551/6/6
f 551/6/6 548/6/6 552/6/6
f 553/6/6 554/6/6 557/6/6
f 557/6/6 554/6/6 558/6/6
f 555/6/6 556/6/6 561/6/6
f 561/6/6 556/6/6 562/6/6
f 558/6/6 559/6/6 563/6/6
f 559/3/6 560/3/6 564/3/6
f 563/6/6 559/6/6 564/6/6
f 560/6/6 561/6/6 565/6/6
f 564/3/6 560/3/6 565/3/6
f 565/6/6 561/6/6 566/6/6
f 567/6/6 568/6/6 572/6/6
f 569/6/6 570/6/6 573/6/6
f 571/6/6 572/6/6 575/6/6
f 568/3/6 569/3/6 575/3/6
f 572/6/6 568/6/6 575/6/6
f 573/6/6 574/6/6 576/6/6
f 575/3/6 569/3/6 576/3/6
f 569/6/6 573/6/6 576/6/6
f 571/6/6 575/6/6 577/6/6
f 576/6/6 574/6/6 578/6/6
f 571/6/6 577/6/6 579/6/6
f 579/6/6 577/6/6 580/6/6
f 578/6/6 574/6/6 581/6/6
f 581/6/6 574/6/6 582/6/6
f 580/6/6 577/6/6 583/6/6
f 577/3/6 578/3/6 584/3/6
f 583/6/6 577/6/6 584/6/6
f 578/6/6 581/6/6 585/6/6
f 584/3/6 578/3/6 585/3/6
f 585/6/6 581/6/6 586/6/6
f 587/6/6 588/6/6 589/6/6
f 589/6/6 588/6/6 590/6/6
f 589/3/6 590/3/6 593/3/6
f 593/3/6 590/3/6 594/3/6
f 591/6/6 592/6/6 597/6/6
f 592/3/6 593/3/6 598/3/6
f 597/6/6 592/6/6 598/6/6
f 598/3/6 593/3/6 599/3/6
f 594/3/6 595/3/6 600/3/6
f 595/6/6 596/6/6 601/6/6
f 600/3/6 595/3/6 601/3/6
f 601/6/6 596/6/6 602/6/6
f 599/3/6 600/3/6 603/3/6
f 603/3/6 600/3/6 604/3/6
f 603/6/6 604/6/6 605/6/6
f 605/6/6 604/6/6 606/6/6
f 607/1/6 608/1/6 609/1/6
f 609/1/6 608/1/6 610/1/6
