# MagicaVoxel @ Ephtracy

# group
o 

# material
mtllib ConveyorCross.mtl
usemtl palette

# normals
vn -1 0 0
vn 1 0 0
vn 0 0 1
vn 0 0 -1
vn 0 -1 0
vn 0 1 0

# texcoords
vt 0.00976563 0.5
vt 0.150391 0.5
vt 0.154297 0.5
vt 0.158203 0.5

# verts
v -0.8 0 0.6
v -0.8 0 0.3
v -0.8 0 -0.3
v -0.8 0 -0.6
v -0.8 0.1 0.3
v -0.8 0.1 -0.3
v -0.8 0.2 0.6
v -0.8 0.2 0.5
v -0.8 0.2 -0.5
v -0.8 0.2 -0.6
v -0.8 0.3 0.5
v -0.8 0.3 0.3
v -0.8 0.3 -0.3
v -0.8 0.3 -0.5
v -0.6 0 0.8
v -0.6 0 0.6
v -0.6 0 -0.6
v -0.6 0 -0.8
v -0.6 0.1 0.1
v -0.6 0.1 -0.1
v -0.6 0.2 0.8
v -0.6 0.2 0.6
v -0.6 0.2 0.1
v -0.6 0.2 -0.1
v -0.6 0.2 -0.6
v -0.6 0.2 -0.8
v -0.5 0.1 0.2
v -0.5 0.1 0.1
v -0.5 0.1 -0.1
v -0.5 0.1 -0.2
v -0.5 0.2 0.8
v -0.5 0.2 0.5
v -0.5 0.2 0.2
v -0.5 0.2 0.1
v -0.5 0.2 -0.1
v -0.5 0.2 -0.2
v -0.5 0.2 -0.5
v -0.5 0.2 -0.8
v -0.5 0.3 0.8
v -0.5 0.3 0.5
v -0.5 0.3 -0.5
v -0.5 0.3 -0.8
v -0.4 0.1 0.7
v -0.4 0.1 0.4
v -0.4 0.1 -0.4
v -0.4 0.1 -0.7
v -0.4 0.2 0.7
v -0.4 0.2 0.4
v -0.4 0.2 -0.4
v -0.4 0.2 -0.7
v -0.2 0.1 0.5
v -0.2 0.1 0.4
v -0.2 0.1 -0.3
v -0.2 0.1 -0.4
v -0.2 0.2 0.5
v -0.2 0.2 0.4
v -0.2 0.2 -0.3
v -0.2 0.2 -0.4
v -0.1 0.1 0.4
v -0.1 0.1 0.3
v -0.1 0.1 -0.4
v -0.1 0.1 -0.5
v -0.1 0.2 0.4
v -0.1 0.2 0.3
v -0.1 0.2 -0.4
v -0.1 0.2 -0.5
v 0.1 0.1 0.5
v 0.1 0.1 0.4
v 0.1 0.1 -0.3
v 0.1 0.1 -0.4
v 0.1 0.2 0.5
v 0.1 0.2 0.4
v 0.1 0.2 -0.3
v 0.1 0.2 -0.4
v 0.3 0.1 0.8
v 0.3 0.1 0.7
v 0.3 0.1 0.3
v 0.3 0.1 -0.3
v 0.3 0.1 -0.7
v 0.3 0.1 -0.8
v 0.3 0.3 0.8
v 0.3 0.3 0.3
v 0.3 0.3 -0.3
v 0.3 0.3 -0.8
v 0.4 0.1 0.2
v 0.4 0.1 0.1
v 0.4 0.1 -0.1
v 0.4 0.1 -0.2
v 0.4 0.2 0.2
v 0.4 0.2 0.1
v 0.4 0.2 -0.1
v 0.4 0.2 -0.2
v 0.5 0.1 0.7
v 0.5 0.1 0.5
v 0.5 0.1 0.1
v 0.5 0.1 -0.1
v 0.5 0.1 -0.5
v 0.5 0.1 -0.7
v 0.5 0.2 0.7
v 0.5 0.2 0.5
v 0.5 0.2 0.1
v 0.5 0.2 -0.1
v 0.5 0.2 -0.5
v 0.5 0.2 -0.7
v 0.7 0.1 0.5
v 0.7 0.1 0.4
v 0.7 0.1 -0.4
v 0.7 0.1 -0.5
v 0.7 0.2 0.5
v 0.7 0.2 0.4
v 0.7 0.2 -0.4
v 0.7 0.2 -0.5
v -0.7 0.1 0.5
v -0.7 0.1 0.4
v -0.7 0.1 -0.4
v -0.7 0.1 -0.5
v -0.7 0.2 0.5
v -0.7 0.2 0.4
v -0.7 0.2 -0.4
v -0.7 0.2 -0.5
v -0.5 0.1 0.7
v -0.5 0.1 0.5
v -0.5 0.1 0.1
v -0.5 0.1 -0.1
v -0.5 0.1 -0.5
v -0.5 0.1 -0.7
v -0.5 0.2 0.7
v -0.5 0.2 0.5
v -0.5 0.2 0.1
v -0.5 0.2 -0.1
v -0.5 0.2 -0.5
v -0.5 0.2 -0.7
v -0.4 0.1 0.2
v -0.4 0.1 0.1
v -0.4 0.1 -0.1
v -0.4 0.1 -0.2
v -0.4 0.2 0.2
v -0.4 0.2 0.1
v -0.4 0.2 -0.1
v -0.4 0.2 -0.2
v -0.3 0.1 0.8
v -0.3 0.1 0.7
v -0.3 0.1 0.3
v -0.3 0.1 -0.3
v -0.3 0.1 -0.7
v -0.3 0.1 -0.8
v -0.3 0.3 0.8
v -0.3 0.3 0.3
v -0.3 0.3 -0.3
v -0.3 0.3 -0.8
v -0.1 0.1 0.5
v -0.1 0.1 0.4
v -0.1 0.1 -0.3
v -0.1 0.1 -0.4
v -0.1 0.2 0.5
v -0.1 0.2 0.4
v -0.1 0.2 -0.3
v -0.1 0.2 -0.4
v 0.1 0.1 0.4
v 0.1 0.1 0.3
v 0.1 0.1 -0.4
v 0.1 0.1 -0.5
v 0.1 0.2 0.4
v 0.1 0.2 0.3
v 0.1 0.2 -0.4
v 0.1 0.2 -0.5
v 0.2 0.1 0.5
v 0.2 0.1 0.4
v 0.2 0.1 -0.3
v 0.2 0.1 -0.4
v 0.2 0.2 0.5
v 0.2 0.2 0.4
v 0.2 0.2 -0.3
v 0.2 0.2 -0.4
v 0.4 0.1 0.7
v 0.4 0.1 0.4
v 0.4 0.1 -0.4
v 0.4 0.1 -0.7
v 0.4 0.2 0.7
v 0.4 0.2 0.4
v 0.4 0.2 -0.4
v 0.4 0.2 -0.7
v 0.5 0.1 0.2
v 0.5 0.1 0.1
v 0.5 0.1 -0.1
v 0.5 0.1 -0.2
v 0.5 0.2 0.8
v 0.5 0.2 0.5
v 0.5 0.2 0.2
v 0.5 0.2 0.1
v 0.5 0.2 -0.1
v 0.5 0.2 -0.2
v 0.5 0.2 -0.5
v 0.5 0.2 -0.8
v 0.5 0.3 0.8
v 0.5 0.3 0.5
v 0.5 0.3 -0.5
v 0.5 0.3 -0.8
v 0.6 0 0.8
v 0.6 0 0.6
v 0.6 0 -0.6
v 0.6 0 -0.8
v 0.6 0.1 0.1
v 0.6 0.1 -0.1
v 0.6 0.2 0.8
v 0.6 0.2 0.6
v 0.6 0.2 0.1
v 0.6 0.2 -0.1
v 0.6 0.2 -0.6
v 0.6 0.2 -0.8
v 0.8 0 0.6
v 0.8 0 0.3
v 0.8 0 -0.3
v 0.8 0 -0.6
v 0.8 0.1 0.3
v 0.8 0.1 -0.3
v 0.8 0.2 0.6
v 0.8 0.2 0.5
v 0.8 0.2 -0.5
v 0.8 0.2 -0.6
v 0.8 0.3 0.5
v 0.8 0.3 0.3
v 0.8 0.3 -0.3
v 0.8 0.3 -0.5
v -0.6 0 0.8
v -0.6 0.2 0.8
v -0.5 0.2 0.8
v -0.5 0.3 0.8
v -0.3 0 0.8
v -0.3 0.1 0.8
v -0.3 0.3 0.8
v 0.3 0 0.8
v 0.3 0.1 0.8
v 0.3 0.3 0.8
v 0.5 0.2 0.8
v 0.5 0.3 0.8
v 0.6 0 0.8
v 0.6 0.2 0.8
v -0.8 0 0.6
v -0.8 0.2 0.6
v -0.6 0 0.6
v -0.6 0.2 0.6
v 0.6 0 0.6
v 0.6 0.2 0.6
v 0.8 0 0.6
v 0.8 0.2 0.6
v -0.8 0.2 0.5
v -0.8 0.3 0.5
v -0.5 0.2 0.5
v -0.5 0.3 0.5
v -0.2 0.1 0.5
v -0.2 0.2 0.5
v -0.1 0.1 0.5
v -0.1 0.2 0.5
v 0.1 0.1 0.5
v 0.1 0.2 0.5
v 0.2 0.1 0.5
v 0.2 0.2 0.5
v 0.5 0.2 0.5
v 0.5 0.3 0.5
v 0.8 0.2 0.5
v 0.8 0.3 0.5
v -0.7 0.1 0.4
v -0.7 0.2 0.4
v -0.4 0.1 0.4
v -0.4 0.2 0.4
v -0.1 0.1 0.4
v -0.1 0.2 0.4
v 0.1 0.1 0.4
v 0.1 0.2 0.4
v 0.4 0.1 0.4
v 0.4 0.2 0.4
v 0.7 0.1 0.4
v 0.7 0.2 0.4
v -0.5 0.1 0.2
v -0.5 0.2 0.2
v -0.4 0.1 0.2
v -0.4 0.2 0.2
v 0.4 0.1 0.2
v 0.4 0.2 0.2
v 0.5 0.1 0.2
v 0.5 0.2 0.2
v -0.6 0.1 0.1
v -0.6 0.2 0.1
v -0.5 0.1 0.1
v -0.5 0.2 0.1
v 0.5 0.1 0.1
v 0.5 0.2 0.1
v 0.6 0.1 0.1
v 0.6 0.2 0.1
v -0.5 0.1 -0.1
v -0.5 0.2 -0.1
v -0.4 0.1 -0.1
v -0.4 0.2 -0.1
v 0.4 0.1 -0.1
v 0.4 0.2 -0.1
v 0.5 0.1 -0.1
v 0.5 0.2 -0.1
v -0.8 0.1 -0.3
v -0.8 0.3 -0.3
v -0.7 0.1 -0.3
v -0.3 0.1 -0.3
v -0.3 0.3 -0.3
v -0.2 0.1 -0.3
v -0.2 0.2 -0.3
v -0.1 0.1 -0.3
v -0.1 0.2 -0.3
v 0.1 0.1 -0.3
v 0.1 0.2 -0.3
v 0.2 0.1 -0.3
v 0.2 0.2 -0.3
v 0.3 0.1 -0.3
v 0.3 0.3 -0.3
v 0.7 0.1 -0.3
v 0.8 0.1 -0.3
v 0.8 0.3 -0.3
v -0.1 0.1 -0.4
v -0.1 0.2 -0.4
v 0.1 0.1 -0.4
v 0.1 0.2 -0.4
v -0.7 0.1 -0.5
v -0.7 0.2 -0.5
v -0.5 0.1 -0.5
v -0.5 0.2 -0.5
v 0.5 0.1 -0.5
v 0.5 0.2 -0.5
v 0.7 0.1 -0.5
v 0.7 0.2 -0.5
v -0.5 0.1 -0.7
v -0.5 0.2 -0.7
v -0.4 0.1 -0.7
v -0.4 0.2 -0.7
v 0.4 0.1 -0.7
v 0.4 0.2 -0.7
v 0.5 0.1 -0.7
v 0.5 0.2 -0.7
v -0.5 0.1 0.7
v -0.5 0.2 0.7
v -0.4 0.1 0.7
v -0.4 0.2 0.7
v 0.4 0.1 0.7
v 0.4 0.2 0.7
v 0.5 0.1 0.7
v 0.5 0.2 0.7
v -0.7 0.1 0.5
v -0.7 0.2 0.5
v -0.5 0.1 0.5
v -0.5 0.2 0.5
v 0.5 0.1 0.5
v 0.5 0.2 0.5
v 0.7 0.1 0.5
v 0.7 0.2 0.5
v -0.2 0.1 0.4
v -0.2 0.2 0.4
v -0.1 0.1 0.4
v -0.1 0.2 0.4
v 0.1 0.1 0.4
v 0.1 0.2 0.4
v 0.2 0.1 0.4
v 0.2 0.2 0.4
v -0.8 0.1 0.3
v -0.8 0.3 0.3
v -0.7 0.1 0.3
v -0.3 0.1 0.3
v -0.3 0.3 0.3
v -0.1 0.1 0.3
v -0.1 0.2 0.3
v 0.1 0.1 0.3
v 0.1 0.2 0.3
v 0.3 0.1 0.3
v 0.3 0.3 0.3
v 0.7 0.1 0.3
v 0.8 0.1 0.3
v 0.8 0.3 0.3
v -0.5 0.1 0.1
v -0.5 0.2 0.1
v -0.4 0.1 0.1
v -0.4 0.2 0.1
v 0.4 0.1 0.1
v 0.4 0.2 0.1
v 0.5 0.1 0.1
v 0.5 0.2 0.1
v -0.6 0.1 -0.1
v -0.6 0.2 -0.1
v -0.5 0.1 -0.1
v -0.5 0.2 -0.1
v 0.5 0.1 -0.1
v 0.5 0.2 -0.1
v 0.6 0.1 -0.1
v 0.6 0.2 -0.1
v -0.5 0.1 -0.2
v -0.5 0.2 -0.2
v -0.4 0.1 -0.2
v -0.4 0.2 -0.2
v 0.4 0.1 -0.2
v 0.4 0.2 -0.2
v 0.5 0.1 -0.2
v 0.5 0.2 -0.2
v -0.7 0.1 -0.4
v -0.7 0.2 -0.4
v -0.4 0.1 -0.4
v -0.4 0.2 -0.4
v -0.2 0.1 -0.4
v -0.2 0.2 -0.4
v -0.1 0.1 -0.4
v -0.1 0.2 -0.4
v 0.1 0.1 -0.4
v 0.1 0.2 -0.4
v 0.2 0.1 -0.4
v 0.2 0.2 -0.4
v 0.4 0.1 -0.4
v 0.4 0.2 -0.4
v 0.7 0.1 -0.4
v 0.7 0.2 -0.4
v -0.8 0.2 -0.5
v -0.8 0.3 -0.5
v -0.5 0.2 -0.5
v -0.5 0.3 -0.5
v -0.1 0.1 -0.5
v -0.1 0.2 -0.5
v 0.1 0.1 -0.5
v 0.1 0.2 -0.5
v 0.5 0.2 -0.5
v 0.5 0.3 -0.5
v 0.8 0.2 -0.5
v 0.8 0.3 -0.5
v -0.8 0 -0.6
v -0.8 0.2 -0.6
v -0.6 0 -0.6
v -0.6 0.2 -0.6
v 0.6 0 -0.6
v 0.6 0.2 -0.6
v 0.8 0 -0.6
v 0.8 0.2 -0.6
v -0.6 0 -0.8
v -0.6 0.2 -0.8
v -0.5 0.2 -0.8
v -0.5 0.3 -0.8
v -0.3 0 -0.8
v -0.3 0.1 -0.8
v -0.3 0.3 -0.8
v 0.3 0 -0.8
v 0.3 0.1 -0.8
v 0.3 0.3 -0.8
v 0.5 0.2 -0.8
v 0.5 0.3 -0.8
v 0.6 0 -0.8
v 0.6 0.2 -0.8
v -0.6 0 0.8
v -0.3 0 0.8
v 0.3 0 0.8
v 0.6 0 0.8
v -0.3 0 0.7
v 0.3 0 0.7
v -0.8 0 0.6
v -0.6 0 0.6
v 0.6 0 0.6
v 0.8 0 0.6
v -0.8 0 0.3
v -0.7 0 0.3
v -0.3 0 0.3
v 0.3 0 0.3
v 0.7 0 0.3
v 0.8 0 0.3
v -0.8 0 -0.3
v -0.7 0 -0.3
v -0.3 0 -0.3
v 0.3 0 -0.3
v 0.7 0 -0.3
v 0.8 0 -0.3
v -0.8 0 -0.6
v -0.6 0 -0.6
v 0.6 0 -0.6
v 0.8 0 -0.6
v -0.3 0 -0.7
v 0.3 0 -0.7
v -0.6 0 -0.8
v -0.3 0 -0.8
v 0.3 0 -0.8
v 0.6 0 -0.8
v -0.5 0.2 0.7
v -0.4 0.2 0.7
v 0.4 0.2 0.7
v 0.5 0.2 0.7
v -0.7 0.2 0.5
v -0.5 0.2 0.5
v 0.5 0.2 0.5
v 0.7 0.2 0.5
v -0.7 0.2 0.4
v -0.4 0.2 0.4
v 0.4 0.2 0.4
v 0.7 0.2 0.4
v -0.7 0.2 -0.4
v -0.4 0.2 -0.4
v 0.4 0.2 -0.4
v 0.7 0.2 -0.4
v -0.7 0.2 -0.5
v -0.5 0.2 -0.5
v 0.5 0.2 -0.5
v 0.7 0.2 -0.5
v -0.5 0.2 -0.7
v -0.4 0.2 -0.7
v 0.4 0.2 -0.7
v 0.5 0.2 -0.7
v -0.3 0.1 0.8
v 0.3 0.1 0.8
v -0.5 0.1 0.7
v -0.4 0.1 0.7
v -0.3 0.1 0.7
v 0.3 0.1 0.7
v 0.4 0.1 0.7
v 0.5 0.1 0.7
v -0.7 0.1 0.5
v -0.5 0.1 0.5
v -0.2 0.1 0.5
v -0.1 0.1 0.5
v 0.1 0.1 0.5
v 0.2 0.1 0.5
v 0.5 0.1 0.5
v 0.7 0.1 0.5
v -0.7 0.1 0.4
v -0.4 0.1 0.4
v -0.2 0.1 0.4
v -0.1 0.1 0.4
v 0.1 0.1 0.4
v 0.2 0.1 0.4
v 0.4 0.1 0.4
v 0.7 0.1 0.4
v -0.8 0.1 0.3
v -0.7 0.1 0.3
v -0.3 0.1 0.3
v -0.1 0.1 0.3
v 0.1 0.1 0.3
v 0.3 0.1 0.3
v 0.7 0.1 0.3
v 0.8 0.1 0.3
v -0.5 0.1 0.2
v -0.4 0.1 0.2
v 0.4 0.1 0.2
v 0.5 0.1 0.2
v -0.6 0.1 0.1
v -0.5 0.1 0.1
v -0.4 0.1 0.1
v 0.4 0.1 0.1
v 0.5 0.1 0.1
v 0.6 0.1 0.1
v -0.6 0.1 -0.1
v -0.5 0.1 -0.1
v -0.4 0.1 -0.1
v 0.4 0.1 -0.1
v 0.5 0.1 -0.1
v 0.6 0.1 -0.1
v -0.5 0.1 -0.2
v -0.4 0.1 -0.2
v 0.4 0.1 -0.2
v 0.5 0.1 -0.2
v -0.8 0.1 -0.3
v -0.7 0.1 -0.3
v -0.3 0.1 -0.3
v -0.2 0.1 -0.3
v -0.1 0.1 -0.3
v 0.1 0.1 -0.3
v 0.2 0.1 -0.3
v 0.3 0.1 -0.3
v 0.7 0.1 -0.3
v 0.8 0.1 -0.3
v -0.7 0.1 -0.4
v -0.4 0.1 -0.4
v -0.2 0.1 -0.4
v -0.1 0.1 -0.4
v 0.1 0.1 -0.4
v 0.2 0.1 -0.4
v 0.4 0.1 -0.4
v 0.7 0.1 -0.4
v -0.7 0.1 -0.5
v -0.5 0.1 -0.5
v -0.1 0.1 -0.5
v 0.1 0.1 -0.5
v 0.5 0.1 -0.5
v 0.7 0.1 -0.5
v -0.5 0.1 -0.7
v -0.4 0.1 -0.7
v -0.3 0.1 -0.7
v 0.3 0.1 -0.7
v 0.4 0.1 -0.7
v 0.5 0.1 -0.7
v -0.3 0.1 -0.8
v 0.3 0.1 -0.8
v -0.6 0.2 0.8
v -0.5 0.2 0.8
v 0.5 0.2 0.8
v 0.6 0.2 0.8
v -0.8 0.2 0.6
v -0.6 0.2 0.6
v 0.6 0.2 0.6
v 0.8 0.2 0.6
v -0.8 0.2 0.5
v -0.5 0.2 0.5
v -0.2 0.2 0.5
v -0.1 0.2 0.5
v 0.1 0.2 0.5
v 0.2 0.2 0.5
v 0.5 0.2 0.5
v 0.8 0.2 0.5
v -0.2 0.2 0.4
v -0.1 0.2 0.4
v 0.1 0.2 0.4
v 0.2 0.2 0.4
v -0.1 0.2 0.3
v 0.1 0.2 0.3
v -0.5 0.2 0.2
v -0.4 0.2 0.2
v 0.4 0.2 0.2
v 0.5 0.2 0.2
v -0.6 0.2 0.1
v -0.5 0.2 0.1
v -0.4 0.2 0.1
v 0.4 0.2 0.1
v 0.5 0.2 0.1
v 0.6 0.2 0.1
v -0.6 0.2 -0.1
v -0.5 0.2 -0.1
v -0.4 0.2 -0.1
v 0.4 0.2 -0.1
v 0.5 0.2 -0.1
v 0.6 0.2 -0.1
v -0.5 0.2 -0.2
v -0.4 0.2 -0.2
v 0.4 0.2 -0.2
v 0.5 0.2 -0.2
v -0.2 0.2 -0.3
v -0.1 0.2 -0.3
v 0.1 0.2 -0.3
v 0.2 0.2 -0.3
v -0.2 0.2 -0.4
v -0.1 0.2 -0.4
v 0.1 0.2 -0.4
v 0.2 0.2 -0.4
v -0.8 0.2 -0.5
v -0.5 0.2 -0.5
v -0.1 0.2 -0.5
v 0.1 0.2 -0.5
v 0.5 0.2 -0.5
v 0.8 0.2 -0.5
v -0.8 0.2 -0.6
v -0.6 0.2 -0.6
v 0.6 0.2 -0.6
v 0.8 0.2 -0.6
v -0.6 0.2 -0.8
v -0.5 0.2 -0.8
v 0.5 0.2 -0.8
v 0.6 0.2 -0.8
v -0.5 0.3 0.8
v -0.3 0.3 0.8
v 0.3 0.3 0.8
v 0.5 0.3 0.8
v -0.8 0.3 0.5
v -0.5 0.3 0.5
v 0.5 0.3 0.5
v 0.8 0.3 0.5
v -0.8 0.3 0.3
v -0.3 0.3 0.3
v 0.3 0.3 0.3
v 0.8 0.3 0.3
v -0.8 0.3 -0.3
v -0.3 0.3 -0.3
v 0.3 0.3 -0.3
v 0.8 0.3 -0.3
v -0.8 0.3 -0.5
v -0.5 0.3 -0.5
v 0.5 0.3 -0.5
v 0.8 0.3 -0.5
v -0.5 0.3 -0.8
v -0.3 0.3 -0.8
v 0.3 0.3 -0.8
v 0.5 0.3 -0.8

# faces
f 5/4/1 2/4/1 1/4/1
f 5/2/1 3/2/1 2/2/1
f 6/4/1 4/4/1 3/4/1
f 6/2/1 3/2/1 5/2/1
f 7/4/1 5/4/1 1/4/1
f 8/4/1 5/4/1 7/4/1
f 9/4/1 4/4/1 6/4/1
f 10/4/1 4/4/1 9/4/1
f 11/4/1 5/4/1 8/4/1
f 12/4/1 5/4/1 11/4/1
f 13/4/1 9/4/1 6/4/1
f 14/4/1 9/4/1 13/4/1
f 21/4/1 16/4/1 15/4/1
f 22/4/1 16/4/1 21/4/1
f 23/1/1 20/1/1 19/1/1
f 24/1/1 20/1/1 23/1/1
f 25/4/1 18/4/1 17/4/1
f 26/4/1 18/4/1 25/4/1
f 33/1/1 28/1/1 27/1/1
f 34/1/1 28/1/1 33/1/1
f 35/1/1 30/1/1 29/1/1
f 36/1/1 30/1/1 35/1/1
f 39/4/1 32/4/1 31/4/1
f 40/4/1 32/4/1 39/4/1
f 41/4/1 38/4/1 37/4/1
f 42/4/1 38/4/1 41/4/1
f 47/4/1 44/4/1 43/4/1
f 48/4/1 44/4/1 47/4/1
f 49/4/1 46/4/1 45/4/1
f 50/4/1 46/4/1 49/4/1
f 55/1/1 52/1/1 51/1/1
f 56/1/1 52/1/1 55/1/1
f 57/1/1 54/1/1 53/1/1
f 58/1/1 54/1/1 57/1/1
f 63/1/1 60/1/1 59/1/1
f 64/1/1 60/1/1 63/1/1
f 65/1/1 62/1/1 61/1/1
f 66/1/1 62/1/1 65/1/1
f 71/1/1 68/1/1 67/1/1
f 72/1/1 68/1/1 71/1/1
f 73/1/1 70/1/1 69/1/1
f 74/1/1 70/1/1 73/1/1
f 81/4/1 76/4/1 75/4/1
f 81/4/1 77/4/1 76/4/1
f 82/4/1 77/4/1 81/4/1
f 83/4/1 80/4/1 79/4/1
f 83/4/1 79/4/1 78/4/1
f 84/4/1 80/4/1 83/4/1
f 89/1/1 86/1/1 85/1/1
f 90/1/1 86/1/1 89/1/1
f 91/1/1 88/1/1 87/1/1
f 92/1/1 88/1/1 91/1/1
f 99/4/1 94/4/1 93/4/1
f 100/4/1 94/4/1 99/4/1
f 101/1/1 96/1/1 95/1/1
f 102/1/1 96/1/1 101/1/1
f 103/4/1 98/4/1 97/4/1
f 104/4/1 98/4/1 103/4/1
f 109/4/1 106/4/1 105/4/1
f 110/4/1 106/4/1 109/4/1
f 111/4/1 108/4/1 107/4/1
f 112/4/1 108/4/1 111/4/1
f 113/4/2 114/4/2 117/4/2
f 117/4/2 114/4/2 118/4/2
f 115/4/2 116/4/2 119/4/2
f 119/4/2 116/4/2 120/4/2
f 121/4/2 122/4/2 127/4/2
f 127/4/2 122/4/2 128/4/2
f 123/1/2 124/1/2 129/1/2
f 129/1/2 124/1/2 130/1/2
f 125/4/2 126/4/2 131/4/2
f 131/4/2 126/4/2 132/4/2
f 133/1/2 134/1/2 137/1/2
f 137/1/2 134/1/2 138/1/2
f 135/1/2 136/1/2 139/1/2
f 139/1/2 136/1/2 140/1/2
f 141/4/2 142/4/2 147/4/2
f 142/4/2 143/4/2 147/4/2
f 147/4/2 143/4/2 148/4/2
f 145/4/2 146/4/2 149/4/2
f 144/4/2 145/4/2 149/4/2
f 149/4/2 146/4/2 150/4/2
f 151/1/2 152/1/2 155/1/2
f 155/1/2 152/1/2 156/1/2
f 153/1/2 154/1/2 157/1/2
f 157/1/2 154/1/2 158/1/2
f 159/1/2 160/1/2 163/1/2
f 163/1/2 160/1/2 164/1/2
f 161/1/2 162/1/2 165/1/2
f 165/1/2 162/1/2 166/1/2
f 167/1/2 168/1/2 171/1/2
f 171/1/2 168/1/2 172/1/2
f 169/1/2 170/1/2 173/1/2
f 173/1/2 170/1/2 174/1/2
f 175/4/2 176/4/2 179/4/2
f 179/4/2 176/4/2 180/4/2
f 177/4/2 178/4/2 181/4/2
f 181/4/2 178/4/2 182/4/2
f 183/1/2 184/1/2 189/1/2
f 189/1/2 184/1/2 190/1/2
f 185/1/2 186/1/2 191/1/2
f 191/1/2 186/1/2 192/1/2
f 187/4/2 188/4/2 195/4/2
f 195/4/2 188/4/2 196/4/2
f 193/4/2 194/4/2 197/4/2
f 197/4/2 194/4/2 198/4/2
f 199/4/2 200/4/2 205/4/2
f 205/4/2 200/4/2 206/4/2
f 203/1/2 204/1/2 207/1/2
f 207/1/2 204/1/2 208/1/2
f 201/4/2 202/4/2 209/4/2
f 209/4/2 202/4/2 210/4/2
f 211/4/2 212/4/2 215/4/2
f 212/2/2 213/2/2 215/2/2
f 213/4/2 214/4/2 216/4/2
f 215/2/2 213/2/2 216/2/2
f 211/4/2 215/4/2 217/4/2
f 217/4/2 215/4/2 218/4/2
f 216/4/2 214/4/2 219/4/2
f 219/4/2 214/4/2 220/4/2
f 218/4/2 215/4/2 221/4/2
f 221/4/2 215/4/2 222/4/2
f 216/4/2 219/4/2 223/4/2
f 223/4/2 219/4/2 224/4/2
f 227/4/3 226/4/3 225/4/3
f 229/4/3 227/4/3 225/4/3
f 229/4/3 228/4/3 227/4/3
f 230/4/3 228/4/3 229/4/3
f 231/4/3 228/4/3 230/4/3
f 232/2/3 230/2/3 229/2/3
f 233/2/3 230/2/3 232/2/3
f 235/4/3 233/4/3 232/4/3
f 235/4/3 234/4/3 233/4/3
f 236/4/3 234/4/3 235/4/3
f 237/4/3 235/4/3 232/4/3
f 238/4/3 235/4/3 237/4/3
f 241/4/3 240/4/3 239/4/3
f 242/4/3 240/4/3 241/4/3
f 245/4/3 244/4/3 243/4/3
f 246/4/3 244/4/3 245/4/3
f 249/4/3 248/4/3 247/4/3
f 250/4/3 248/4/3 249/4/3
f 253/1/3 252/1/3 251/1/3
f 254/1/3 252/1/3 253/1/3
f 257/1/3 256/1/3 255/1/3
f 258/1/3 256/1/3 257/1/3
f 261/4/3 260/4/3 259/4/3
f 262/4/3 260/4/3 261/4/3
f 265/4/3 264/4/3 263/4/3
f 266/4/3 264/4/3 265/4/3
f 269/1/3 268/1/3 267/1/3
f 270/1/3 268/1/3 269/1/3
f 273/4/3 272/4/3 271/4/3
f 274/4/3 272/4/3 273/4/3
f 277/1/3 276/1/3 275/1/3
f 278/1/3 276/1/3 277/1/3
f 281/1/3 280/1/3 279/1/3
f 282/1/3 280/1/3 281/1/3
f 285/1/3 284/1/3 283/1/3
f 286/1/3 284/1/3 285/1/3
f 289/1/3 288/1/3 287/1/3
f 290/1/3 288/1/3 289/1/3
f 293/1/3 292/1/3 291/1/3
f 294/1/3 292/1/3 293/1/3
f 297/1/3 296/1/3 295/1/3
f 298/1/3 296/1/3 297/1/3
f 301/4/3 300/4/3 299/4/3
f 302/4/3 300/4/3 301/4/3
f 303/4/3 300/4/3 302/4/3
f 306/1/3 305/1/3 304/1/3
f 307/1/3 305/1/3 306/1/3
f 310/1/3 309/1/3 308/1/3
f 311/1/3 309/1/3 310/1/3
f 314/4/3 313/4/3 312/4/3
f 315/4/3 313/4/3 314/4/3
f 316/4/3 313/4/3 315/4/3
f 319/1/3 318/1/3 317/1/3
f 320/1/3 318/1/3 319/1/3
f 323/4/3 322/4/3 321/4/3
f 324/4/3 322/4/3 323/4/3
f 327/4/3 326/4/3 325/4/3
f 328/4/3 326/4/3 327/4/3
f 331/4/3 330/4/3 329/4/3
f 332/4/3 330/4/3 331/4/3
f 335/4/3 334/4/3 333/4/3
f 336/4/3 334/4/3 335/4/3
f 337/4/4 338/4/4 339/4/4
f 339/4/4 338/4/4 340/4/4
f 341/4/4 342/4/4 343/4/4
f 343/4/4 342/4/4 344/4/4
f 345/4/4 346/4/4 347/4/4
f 347/4/4 346/4/4 348/4/4
f 349/4/4 350/4/4 351/4/4
f 351/4/4 350/4/4 352/4/4
f 353/1/4 354/1/4 355/1/4
f 355/1/4 354/1/4 356/1/4
f 357/1/4 358/1/4 359/1/4
f 359/1/4 358/1/4 360/1/4
f 361/4/4 362/4/4 363/4/4
f 363/4/4 362/4/4 364/4/4
f 364/4/4 362/4/4 365/4/4
f 366/1/4 367/1/4 368/1/4
f 368/1/4 367/1/4 369/1/4
f 370/4/4 371/4/4 372/4/4
f 372/4/4 371/4/4 373/4/4
f 373/4/4 371/4/4 374/4/4
f 375/1/4 376/1/4 377/1/4
f 377/1/4 376/1/4 378/1/4
f 379/1/4 380/1/4 381/1/4
f 381/1/4 380/1/4 382/1/4
f 383/1/4 384/1/4 385/1/4
f 385/1/4 384/1/4 386/1/4
f 387/1/4 388/1/4 389/1/4
f 389/1/4 388/1/4 390/1/4
f 391/1/4 392/1/4 393/1/4
f 393/1/4 392/1/4 394/1/4
f 395/1/4 396/1/4 397/1/4
f 397/1/4 396/1/4 398/1/4
f 399/4/4 400/4/4 401/4/4
f 401/4/4 400/4/4 402/4/4
f 403/1/4 404/1/4 405/1/4
f 405/1/4 404/1/4 406/1/4
f 407/1/4 408/1/4 409/1/4
f 409/1/4 408/1/4 410/1/4
f 411/4/4 412/4/4 413/4/4
f 413/4/4 412/4/4 414/4/4
f 415/4/4 416/4/4 417/4/4
f 417/4/4 416/4/4 418/4/4
f 419/1/4 420/1/4 421/1/4
f 421/1/4 420/1/4 422/1/4
f 423/4/4 424/4/4 425/4/4
f 425/4/4 424/4/4 426/4/4
f 427/4/4 428/4/4 429/4/4
f 429/4/4 428/4/4 430/4/4
f 431/4/4 432/4/4 433/4/4
f 433/4/4 432/4/4 434/4/4
f 435/4/4 436/4/4 437/4/4
f 435/4/4 437/4/4 439/4/4
f 437/4/4 438/4/4 439/4/4
f 439/4/4 438/4/4 440/4/4
f 440/4/4 438/4/4 441/4/4
f 439/2/4 440/2/4 442/2/4
f 442/2/4 440/2/4 443/2/4
f 442/4/4 443/4/4 445/4/4
f 443/4/4 444/4/4 445/4/4
f 445/4/4 444/4/4 446/4/4
f 442/4/4 445/4/4 447/4/4
f 447/4/4 445/4/4 448/4/4
f 453/4/5 450/4/5 449/4/5
f 453/2/5 451/2/5 450/2/5
f 454/4/5 452/4/5 451/4/5
f 454/2/5 451/2/5 453/2/5
f 456/4/5 453/4/5 449/4/5
f 457/4/5 452/4/5 454/4/5
f 459/4/5 456/4/5 455/4/5
f 460/4/5 456/4/5 459/4/5
f 461/3/5 454/3/5 453/3/5
f 461/4/5 456/4/5 460/4/5
f 461/4/5 453/4/5 456/4/5
f 462/4/5 458/4/5 457/4/5
f 462/3/5 454/3/5 461/3/5
f 462/4/5 457/4/5 454/4/5
f 463/4/5 458/4/5 462/4/5
f 464/4/5 458/4/5 463/4/5
f 465/2/5 460/2/5 459/2/5
f 466/3/5 461/3/5 460/3/5
f 466/2/5 460/2/5 465/2/5
f 466/3/5 462/3/5 461/3/5
f 466/3/5 463/3/5 462/3/5
f 467/3/5 463/3/5 466/3/5
f 468/3/5 463/3/5 467/3/5
f 469/2/5 464/2/5 463/2/5
f 469/3/5 463/3/5 468/3/5
f 470/2/5 464/2/5 469/2/5
f 471/4/5 466/4/5 465/4/5
f 471/4/5 467/4/5 466/4/5
f 472/4/5 467/4/5 471/4/5
f 473/4/5 470/4/5 469/4/5
f 473/4/5 469/4/5 468/4/5
f 474/4/5 470/4/5 473/4/5
f 475/3/5 468/3/5 467/3/5
f 475/4/5 467/4/5 472/4/5
f 476/4/5 473/4/5 468/4/5
f 476/3/5 468/3/5 475/3/5
f 477/4/5 475/4/5 472/4/5
f 478/2/5 476/2/5 475/2/5
f 478/4/5 475/4/5 477/4/5
f 479/4/5 473/4/5 476/4/5
f 479/2/5 476/2/5 478/2/5
f 480/4/5 473/4/5 479/4/5
f 486/4/5 482/4/5 481/4/5
f 487/4/5 484/4/5 483/4/5
f 489/4/5 486/4/5 485/4/5
f 490/4/5 482/4/5 486/4/5
f 490/4/5 486/4/5 489/4/5
f 491/4/5 488/4/5 487/4/5
f 491/4/5 487/4/5 483/4/5
f 492/4/5 488/4/5 491/4/5
f 497/4/5 494/4/5 493/4/5
f 498/4/5 494/4/5 497/4/5
f 499/4/5 496/4/5 495/4/5
f 500/4/5 496/4/5 499/4/5
f 501/4/5 494/4/5 498/4/5
f 502/4/5 494/4/5 501/4/5
f 503/4/5 499/4/5 495/4/5
f 504/4/5 499/4/5 503/4/5
f 505/2/6 506/2/6 509/2/6
f 509/2/6 506/2/6 510/2/6
f 507/4/6 508/4/6 514/4/6
f 509/3/6 510/3/6 515/3/6
f 515/3/6 510/3/6 516/3/6
f 516/3/6 510/3/6 517/3/6
f 517/3/6 510/3/6 518/3/6
f 511/4/6 512/4/6 519/4/6
f 513/4/6 514/4/6 521/4/6
f 514/4/6 508/4/6 522/4/6
f 521/4/6 514/4/6 522/4/6
f 509/3/6 515/3/6 523/3/6
f 516/3/6 517/3/6 524/3/6
f 524/3/6 517/3/6 525/3/6
f 518/3/6 510/3/6 526/3/6
f 519/4/6 520/4/6 527/4/6
f 511/4/6 519/4/6 527/4/6
f 527/4/6 520/4/6 528/4/6
f 509/3/6 523/3/6 531/3/6
f 523/3/6 524/3/6 531/3/6
f 531/3/6 524/3/6 532/3/6
f 525/3/6 526/3/6 533/3/6
f 526/3/6 510/3/6 534/3/6
f 533/3/6 526/3/6 534/3/6
f 534/3/6 535/3/6 537/3/6
f 531/3/6 532/3/6 537/3/6
f 533/3/6 534/3/6 537/3/6
f 532/3/6 533/3/6 537/3/6
f 530/3/6 531/3/6 537/3/6
f 537/3/6 535/3/6 538/3/6
f 538/3/6 535/3/6 539/3/6
f 539/3/6 535/3/6 540/3/6
f 530/3/6 537/3/6 541/3/6
f 541/3/6 537/3/6 542/3/6
f 538/3/6 539/3/6 543/3/6
f 543/3/6 539/3/6 544/3/6
f 540/3/6 535/3/6 545/3/6
f 545/3/6 535/3/6 546/3/6
f 530/3/6 541/3/6 547/3/6
f 543/3/6 544/3/6 548/3/6
f 544/3/6 545/3/6 548/3/6
f 542/3/6 543/3/6 548/3/6
f 548/3/6 545/3/6 549/3/6
f 549/3/6 545/3/6 550/3/6
f 550/3/6 545/3/6 551/3/6
f 546/3/6 535/3/6 552/3/6
f 547/3/6 548/3/6 553/3/6
f 549/3/6 550/3/6 554/3/6
f 554/3/6 550/3/6 555/3/6
f 551/3/6 552/3/6 556/3/6
f 529/2/6 530/2/6 557/2/6
f 555/3/6 556/3/6 558/3/6
f 557/2/6 530/2/6 558/2/6
f 530/3/6 547/3/6 558/3/6
f 554/3/6 555/3/6 558/3/6
f 547/3/6 553/3/6 558/3/6
f 553/3/6 554/3/6 558/3/6
f 558/3/6 556/3/6 559/3/6
f 559/3/6 556/3/6 560/3/6
f 560/3/6 556/3/6 561/3/6
f 561/3/6 556/3/6 562/3/6
f 562/3/6 556/3/6 563/3/6
f 563/3/6 556/3/6 564/3/6
f 535/2/6 536/2/6 565/2/6
f 564/3/6 556/3/6 565/3/6
f 556/3/6 552/3/6 565/3/6
f 552/3/6 535/3/6 565/3/6
f 565/2/6 536/2/6 566/2/6
f 559/3/6 560/3/6 569/3/6
f 561/3/6 562/3/6 570/3/6
f 570/3/6 562/3/6 571/3/6
f 563/3/6 564/3/6 572/3/6
f 567/4/6 568/4/6 575/4/6
f 575/4/6 568/4/6 576/4/6
f 569/3/6 570/3/6 577/3/6
f 571/3/6 572/3/6 578/3/6
f 573/4/6 574/4/6 579/4/6
f 579/4/6 574/4/6 580/4/6
f 576/4/6 568/4/6 581/4/6
f 581/4/6 568/4/6 582/4/6
f 577/3/6 578/3/6 583/3/6
f 559/3/6 569/3/6 583/3/6
f 569/3/6 577/3/6 583/3/6
f 578/3/6 572/3/6 584/3/6
f 583/3/6 578/3/6 584/3/6
f 572/3/6 564/3/6 584/3/6
f 573/4/6 579/4/6 585/4/6
f 585/4/6 579/4/6 586/4/6
f 583/2/6 584/2/6 587/2/6
f 587/2/6 584/2/6 588/2/6
f 589/4/6 590/4/6 594/4/6
f 591/4/6 592/4/6 595/4/6
f 593/4/6 594/4/6 597/4/6
f 594/4/6 590/4/6 598/4/6
f 597/4/6 594/4/6 598/4/6
f 595/4/6 596/4/6 603/4/6
f 591/4/6 595/4/6 603/4/6
f 603/4/6 596/4/6 604/4/6
f 599/1/6 600/1/6 605/1/6
f 605/1/6 600/1/6 606/1/6
f 601/1/6 602/1/6 607/1/6
f 607/1/6 602/1/6 608/1/6
f 606/1/6 607/1/6 609/1/6
f 609/1/6 607/1/6 610/1/6
f 611/1/6 612/1/6 616/1/6
f 616/1/6 612/1/6 617/1/6
f 613/1/6 614/1/6 618/1/6
f 618/1/6 614/1/6 619/1/6
f 615/1/6 616/1/6 621/1/6
f 621/1/6 616/1/6 622/1/6
f 619/1/6 620/1/6 625/1/6
f 625/1/6 620/1/6 626/1/6
f 622/1/6 623/1/6 627/1/6
f 627/1/6 623/1/6 628/1/6
f 624/1/6 625/1/6 629/1/6
f 629/1/6 625/1/6 630/1/6
f 631/1/6 632/1/6 635/1/6
f 635/1/6 632/1/6 636/1/6
f 633/1/6 634/1/6 637/1/6
f 637/1/6 634/1/6 638/1/6
f 636/1/6 637/1/6 641/1/6
f 641/1/6 637/1/6 642/1/6
f 639/4/6 640/4/6 645/4/6
f 645/4/6 640/4/6 646/4/6
f 643/4/6 644/4/6 647/4/6
f 647/4/6 644/4/6 648/4/6
f 646/4/6 640/4/6 649/4/6
f 649/4/6 640/4/6 650/4/6
f 643/4/6 647/4/6 651/4/6
f 651/4/6 647/4/6 652/4/6
f 653/4/6 654/4/6 658/4/6
f 655/4/6 656/4/6 659/4/6
f 657/4/6 658/4/6 661/4/6
f 658/4/6 654/4/6 662/4/6
f 661/4/6 658/4/6 662/4/6
f 659/4/6 660/4/6 663/4/6
f 655/4/6 659/4/6 663/4/6
f 663/4/6 660/4/6 664/4/6
f 665/4/6 666/4/6 669/4/6
f 669/4/6 666/4/6 670/4/6
f 667/4/6 668/4/6 671/4/6
f 671/4/6 668/4/6 672/4/6
f 670/4/6 666/4/6 673/4/6
f 673/4/6 666/4/6 674/4/6
f 667/4/6 671/4/6 675/4/6
f 675/4/6 671/4/6 676/4/6
