# MagicaVoxel @ Ephtracy

# group
o 

# material
mtllib WeaponSpear.mtl
usemtl palette

# normals
vn -1 0 0
vn 1 0 0
vn 0 0 1
vn 0 0 -1
vn 0 -1 0
vn 0 1 0

# texcoords
vt 0.103516 0.5
vt 0.107422 0.5
vt 0.142578 0.5
vt 0.150391 0.5
vt 0.158203 0.5
vt 0.166016 0.5
vt 0.173828 0.5

# verts
v -0.5 0.6 0.6
v -0.5 0.6 0.5
v -0.5 0.7 0.7
v -0.5 0.7 0.6
v -0.5 0.7 0.1
v -0.5 0.7 0
v -0.5 0.8 0.7
v -0.5 0.8 0.6
v -0.5 0.8 0.1
v -0.5 0.8 0
v -0.5 0.9 0.6
v -0.5 0.9 0.5
v -0.4 0.6 0.7
v -0.4 0.6 0.6
v -0.4 0.6 0.5
v -0.4 0.6 0.3
v -0.4 0.6 0.1
v -0.4 0.6 0
v -0.4 0.7 1.9
v -0.4 0.7 1.8
v -0.4 0.7 1.7
v -0.4 0.7 1.6
v -0.4 0.7 1.5
v -0.4 0.7 1.4
v -0.4 0.7 1.3
v -0.4 0.7 1.2
v -0.4 0.7 1.1
v -0.4 0.7 1
v -0.4 0.7 0.9
v -0.4 0.7 0.8
v -0.4 0.7 0.7
v -0.4 0.7 0.6
v -0.4 0.7 0.3
v -0.4 0.7 0.1
v -0.4 0.7 0
v -0.4 0.7 -0.1
v -0.4 0.8 1.9
v -0.4 0.8 1.8
v -0.4 0.8 1.7
v -0.4 0.8 1.6
v -0.4 0.8 1.5
v -0.4 0.8 1.4
v -0.4 0.8 1.3
v -0.4 0.8 1.2
v -0.4 0.8 1.1
v -0.4 0.8 1
v -0.4 0.8 0.9
v -0.4 0.8 0.8
v -0.4 0.8 0.7
v -0.4 0.8 0.6
v -0.4 0.8 0.5
v -0.4 0.8 0.3
v -0.4 0.8 0.1
v -0.4 0.8 0
v -0.4 0.8 -0.1
v -0.4 0.9 0.7
v -0.4 0.9 0.6
v -0.4 0.9 0.5
v -0.4 0.9 0.1
v -0.4 0.9 0
v -0.4 1 0.8
v -0.4 1 0.7
v -0.4 1.1 0.4
v -0.4 1.1 0.3
v -0.4 1.2 0.5
v -0.4 1.2 0.4
v -0.4 1.3 0.8
v -0.4 1.3 0.5
v -0.3 0.7 0.7
v -0.3 0.7 0.5
v -0.3 0.7 0.1
v -0.3 0.7 0
v -0.3 0.8 0.7
v -0.3 0.8 0.6
v -0.3 0.8 0.5
v -0.3 0.8 0.1
v -0.3 0.8 0
v -0.3 0.9 0.8
v -0.3 0.9 0.7
v -0.3 0.9 0.6
v -0.3 0.9 0.5
v -0.3 1 0.9
v -0.3 1 0.8
v -0.3 1 0.7
v -0.3 1.2 0.5
v -0.3 1.2 0.4
v -0.3 1.3 0.9
v -0.3 1.3 0.8
v -0.3 1.3 0.5
v -0.3 1.3 0.4
v -0.3 1.4 0.8
v -0.3 1.4 0.5
v 0.3 0.8 1.2
v 0.3 0.8 1.1
v 0.3 0.8 1
v 0.3 0.9 0.8
v 0.3 0.9 0.5
v 0.3 1 1.2
v 0.3 1 1.1
v 0.3 1 1
v 0.3 1 0.9
v 0.3 1 0.8
v 0.3 1 0.5
v 0.3 1 0.4
v 0.3 1.3 0.9
v 0.3 1.3 0.8
v 0.3 1.3 0.5
v 0.3 1.3 0.4
v 0.3 1.4 0.8
v 0.3 1.4 0.5
v 0.4 0.8 1
v 0.4 0.8 0.8
v 0.4 0.9 0.8
v 0.4 1 1
v 0.4 1 0.9
v 0.4 1 0.8
v -0.4 0.7 0.7
v -0.4 0.7 0.5
v -0.4 0.7 0.1
v -0.4 0.7 0
v -0.4 0.8 0.7
v -0.4 0.8 0.6
v -0.4 0.8 0.5
v -0.4 0.8 0.1
v -0.4 0.8 0
v -0.4 0.9 0.6
v -0.4 0.9 0.5
v -0.3 0.6 0.7
v -0.3 0.6 0.6
v -0.3 0.6 0.1
v -0.3 0.6 0
v -0.3 0.7 1.9
v -0.3 0.7 1.8
v -0.3 0.7 1.7
v -0.3 0.7 1.6
v -0.3 0.7 1.5
v -0.3 0.7 1.4
v -0.3 0.7 1.3
v -0.3 0.7 1.2
v -0.3 0.7 1.1
v -0.3 0.7 1
v -0.3 0.7 0.9
v -0.3 0.7 0.8
v -0.3 0.7 0.7
v -0.3 0.7 0.6
v -0.3 0.7 0.3
v -0.3 0.7 0.1
v -0.3 0.7 0
v -0.3 0.7 -0.1
v -0.3 0.8 1.9
v -0.3 0.8 1.8
v -0.3 0.8 1.7
v -0.3 0.8 1.6
v -0.3 0.8 1.5
v -0.3 0.8 1.4
v -0.3 0.8 1.3
v -0.3 0.8 1.2
v -0.3 0.8 1.1
v -0.3 0.8 1
v -0.3 0.8 0.9
v -0.3 0.8 0.8
v -0.3 0.8 0.7
v -0.3 0.8 0.6
v -0.3 0.8 0.5
v -0.3 0.8 0.3
v -0.3 0.8 0.1
v -0.3 0.8 0
v -0.3 0.8 -0.1
v -0.3 0.9 0.7
v -0.3 0.9 0.6
v -0.3 0.9 0.5
v -0.3 0.9 0.1
v -0.3 0.9 0
v -0.3 1 0.5
v -0.3 1 0.4
v -0.3 1.1 0.4
v -0.3 1.1 0.3
v -0.2 0.6 0.6
v -0.2 0.6 0.5
v -0.2 0.6 0.3
v -0.2 0.7 0.7
v -0.2 0.7 0.6
v -0.2 0.7 0.5
v -0.2 0.7 0.3
v -0.2 0.7 0.1
v -0.2 0.7 0
v -0.2 0.8 0.7
v -0.2 0.8 0.6
v -0.2 0.8 0.5
v -0.2 0.8 0.3
v -0.2 0.8 0.1
v -0.2 0.8 0
v -0.2 0.9 0.8
v -0.2 0.9 0.6
v -0.2 0.9 0.5
v -0.2 1 0.9
v -0.2 1 0.8
v -0.2 1 0.5
v -0.2 1 0.4
v -0.2 1.3 0.9
v -0.2 1.3 0.8
v -0.2 1.3 0.5
v -0.2 1.3 0.4
v -0.2 1.4 0.8
v -0.2 1.4 0.5
v 0.4 0.9 0.6
v 0.4 0.9 0.5
v 0.4 1 0.6
v 0.4 1 0.5
v 0.4 1 0.4
v 0.4 1.1 0.9
v 0.4 1.1 0.8
v 0.4 1.3 0.9
v 0.4 1.3 0.8
v 0.4 1.3 0.5
v 0.4 1.3 0.4
v 0.4 1.4 0.8
v 0.4 1.4 0.5
v 0.5 0.8 1.2
v 0.5 0.8 1
v 0.5 0.8 0.8
v 0.5 0.9 0.8
v 0.5 0.9 0.6
v 0.5 1 1.2
v 0.5 1 1
v 0.5 1 0.9
v 0.5 1 0.6
v 0.5 1 0.5
v 0.5 1.1 0.9
v 0.5 1.1 0.8
v 0.5 1.3 0.8
v 0.5 1.3 0.5
v -0.4 0.7 1.9
v -0.4 0.8 1.9
v -0.3 0.7 1.9
v -0.3 0.8 1.9
v 0.3 0.8 1.2
v 0.3 1 1.2
v 0.5 0.8 1.2
v 0.5 1 1.2
v -0.3 1 0.9
v -0.3 1.3 0.9
v -0.2 1 0.9
v -0.2 1.3 0.9
v 0.3 1 0.9
v 0.3 1.3 0.9
v 0.4 1 0.9
v 0.4 1.1 0.9
v 0.4 1.3 0.9
v 0.5 1 0.9
v 0.5 1.1 0.9
v -0.4 1 0.8
v -0.4 1.3 0.8
v -0.3 0.9 0.8
v -0.3 1 0.8
v -0.3 1.3 0.8
v -0.3 1.4 0.8
v -0.2 0.9 0.8
v -0.2 1 0.8
v -0.2 1.3 0.8
v -0.2 1.4 0.8
v 0.3 0.9 0.8
v 0.3 1 0.8
v 0.3 1.3 0.8
v 0.3 1.4 0.8
v 0.4 0.9 0.8
v 0.4 1 0.8
v 0.4 1.1 0.8
v 0.4 1.3 0.8
v 0.4 1.4 0.8
v 0.5 1.1 0.8
v 0.5 1.3 0.8
v -0.5 0.7 0.7
v -0.5 0.8 0.7
v -0.4 0.6 0.7
v -0.4 0.7 0.7
v -0.4 0.8 0.7
v -0.4 0.9 0.7
v -0.4 1 0.7
v -0.3 0.6 0.7
v -0.3 0.7 0.7
v -0.3 0.8 0.7
v -0.3 0.9 0.7
v -0.3 1 0.7
v -0.2 0.7 0.7
v -0.2 0.8 0.7
v -0.5 0.6 0.6
v -0.5 0.7 0.6
v -0.5 0.8 0.6
v -0.5 0.9 0.6
v -0.4 0.6 0.6
v -0.4 0.7 0.6
v -0.4 0.8 0.6
v -0.4 0.9 0.6
v -0.3 0.6 0.6
v -0.3 0.7 0.6
v -0.3 0.8 0.6
v -0.3 0.9 0.6
v -0.2 0.6 0.6
v -0.2 0.7 0.6
v -0.2 0.8 0.6
v -0.2 0.9 0.6
v -0.4 0.7 0.5
v -0.4 0.8 0.5
v -0.4 0.9 0.5
v -0.3 0.7 0.5
v -0.3 0.8 0.5
v -0.3 0.9 0.5
v -0.5 0.7 0.1
v -0.5 0.8 0.1
v -0.4 0.6 0.1
v -0.4 0.7 0.1
v -0.4 0.8 0.1
v -0.4 0.9 0.1
v -0.3 0.6 0.1
v -0.3 0.7 0.1
v -0.3 0.8 0.1
v -0.3 0.9 0.1
v -0.2 0.7 0.1
v -0.2 0.8 0.1
v -0.4 0.7 0
v -0.4 0.8 0
v -0.3 0.7 0
v -0.3 0.8 0
v 0.3 0.8 1
v 0.3 1 1
v 0.4 0.8 1
v 0.4 1 1
v 0.4 0.8 0.8
v 0.4 0.9 0.8
v 0.5 0.8 0.8
v 0.5 0.9 0.8
v -0.4 0.7 0.7
v -0.4 0.8 0.7
v -0.3 0.7 0.7
v -0.3 0.8 0.7
v -0.4 0.8 0.6
v -0.4 0.9 0.6
v -0.3 0.8 0.6
v -0.3 0.9 0.6
v 0.4 0.9 0.6
v 0.4 1 0.6
v 0.5 0.9 0.6
v 0.5 1 0.6
v -0.5 0.6 0.5
v -0.5 0.9 0.5
v -0.4 0.6 0.5
v -0.4 0.8 0.5
v -0.4 0.9 0.5
v -0.4 1.2 0.5
v -0.4 1.3 0.5
v -0.3 0.8 0.5
v -0.3 0.9 0.5
v -0.3 1 0.5
v -0.3 1.2 0.5
v -0.3 1.3 0.5
v -0.3 1.4 0.5
v -0.2 0.8 0.5
v -0.2 0.9 0.5
v -0.2 1 0.5
v -0.2 1.3 0.5
v -0.2 1.4 0.5
v 0.3 0.9 0.5
v 0.3 1 0.5
v 0.3 1.3 0.5
v 0.3 1.4 0.5
v 0.4 0.9 0.5
v 0.4 1 0.5
v 0.4 1.3 0.5
v 0.4 1.4 0.5
v 0.5 1 0.5
v 0.5 1.3 0.5
v -0.4 1.1 0.4
v -0.4 1.2 0.4
v -0.3 1 0.4
v -0.3 1.1 0.4
v -0.3 1.2 0.4
v -0.3 1.3 0.4
v -0.2 1 0.4
v -0.2 1.3 0.4
v 0.3 1 0.4
v 0.3 1.3 0.4
v 0.4 1 0.4
v 0.4 1.3 0.4
v -0.4 0.6 0.3
v -0.4 0.7 0.3
v -0.4 0.8 0.3
v -0.4 1.1 0.3
v -0.3 0.7 0.3
v -0.3 0.8 0.3
v -0.3 1.1 0.3
v -0.2 0.6 0.3
v -0.2 0.7 0.3
v -0.2 0.8 0.3
v -0.4 0.7 0.1
v -0.4 0.8 0.1
v -0.3 0.7 0.1
v -0.3 0.8 0.1
v -0.5 0.7 0
v -0.5 0.8 0
v -0.4 0.6 0
v -0.4 0.7 0
v -0.4 0.8 0
v -0.4 0.9 0
v -0.3 0.6 0
v -0.3 0.7 0
v -0.3 0.8 0
v -0.3 0.9 0
v -0.2 0.7 0
v -0.2 0.8 0
v -0.4 0.7 -0.1
v -0.4 0.8 -0.1
v -0.3 0.7 -0.1
v -0.3 0.8 -0.1
v -0.4 0.6 0.7
v -0.3 0.6 0.7
v -0.5 0.6 0.6
v -0.4 0.6 0.6
v -0.3 0.6 0.6
v -0.2 0.6 0.6
v -0.5 0.6 0.5
v -0.4 0.6 0.5
v -0.2 0.6 0.5
v -0.4 0.6 0.3
v -0.2 0.6 0.3
v -0.4 0.6 0.1
v -0.3 0.6 0.1
v -0.4 0.6 0
v -0.3 0.6 0
v -0.4 0.7 1.9
v -0.3 0.7 1.9
v -0.4 0.7 1.8
v -0.3 0.7 1.8
v -0.4 0.7 1.7
v -0.3 0.7 1.7
v -0.4 0.7 1.6
v -0.3 0.7 1.6
v -0.4 0.7 1.5
v -0.3 0.7 1.5
v -0.4 0.7 1.4
v -0.3 0.7 1.4
v -0.4 0.7 1.3
v -0.3 0.7 1.3
v -0.4 0.7 1.2
v -0.3 0.7 1.2
v -0.4 0.7 1.1
v -0.3 0.7 1.1
v -0.4 0.7 1
v -0.3 0.7 1
v -0.4 0.7 0.9
v -0.3 0.7 0.9
v -0.4 0.7 0.8
v -0.3 0.7 0.8
v -0.5 0.7 0.7
v -0.4 0.7 0.7
v -0.3 0.7 0.7
v -0.2 0.7 0.7
v -0.5 0.7 0.6
v -0.4 0.7 0.6
v -0.3 0.7 0.6
v -0.2 0.7 0.6
v -0.4 0.7 0.3
v -0.3 0.7 0.3
v -0.5 0.7 0.1
v -0.4 0.7 0.1
v -0.3 0.7 0.1
v -0.2 0.7 0.1
v -0.5 0.7 0
v -0.4 0.7 0
v -0.3 0.7 0
v -0.2 0.7 0
v -0.4 0.7 -0.1
v -0.3 0.7 -0.1
v 0.3 0.8 1.2
v 0.5 0.8 1.2
v 0.3 0.8 1.1
v 0.4 0.8 1.1
v 0.3 0.8 1
v 0.4 0.8 1
v 0.5 0.8 1
v 0.4 0.8 0.8
v 0.5 0.8 0.8
v -0.4 0.8 0.7
v -0.3 0.8 0.7
v -0.4 0.8 0.6
v -0.3 0.8 0.6
v -0.4 0.8 0.1
v -0.3 0.8 0.1
v -0.4 0.8 0
v -0.3 0.8 0
v -0.3 0.9 0.8
v -0.2 0.9 0.8
v 0.3 0.9 0.8
v 0.4 0.9 0.8
v 0.5 0.9 0.8
v -0.3 0.9 0.7
v -0.4 0.9 0.6
v -0.3 0.9 0.6
v -0.2 0.9 0.6
v 0.4 0.9 0.6
v 0.5 0.9 0.6
v -0.4 0.9 0.5
v -0.3 0.9 0.5
v 0.3 0.9 0.5
v 0.4 0.9 0.5
v -0.3 1 0.9
v -0.2 1 0.9
v 0.3 1 0.9
v 0.4 1 0.9
v -0.4 1 0.8
v -0.3 1 0.8
v -0.2 1 0.8
v 0.3 1 0.8
v 0.4 1 0.8
v -0.4 1 0.7
v -0.3 1 0.7
v 0.4 1 0.6
v 0.5 1 0.6
v -0.3 1 0.5
v -0.2 1 0.5
v 0.3 1 0.5
v 0.4 1 0.5
v 0.5 1 0.5
v -0.3 1 0.4
v -0.2 1 0.4
v 0.3 1 0.4
v 0.4 1 0.4
v -0.4 0.7 0.7
v -0.3 0.7 0.7
v -0.4 0.7 0.5
v -0.3 0.7 0.5
v -0.4 0.7 0.1
v -0.3 0.7 0.1
v -0.4 0.7 0
v -0.3 0.7 0
v -0.4 0.8 1.9
v -0.3 0.8 1.9
v -0.4 0.8 1.8
v -0.3 0.8 1.8
v -0.4 0.8 1.7
v -0.3 0.8 1.7
v -0.4 0.8 1.6
v -0.3 0.8 1.6
v -0.4 0.8 1.5
v -0.3 0.8 1.5
v -0.4 0.8 1.4
v -0.3 0.8 1.4
v -0.4 0.8 1.3
v -0.3 0.8 1.3
v -0.4 0.8 1.2
v -0.3 0.8 1.2
v -0.4 0.8 1.1
v -0.3 0.8 1.1
v -0.4 0.8 1
v -0.3 0.8 1
v -0.4 0.8 0.9
v -0.3 0.8 0.9
v -0.4 0.8 0.8
v -0.3 0.8 0.8
v -0.5 0.8 0.7
v -0.4 0.8 0.7
v -0.3 0.8 0.7
v -0.2 0.8 0.7
v -0.5 0.8 0.6
v -0.4 0.8 0.6
v -0.3 0.8 0.6
v -0.2 0.8 0.6
v -0.3 0.8 0.5
v -0.2 0.8 0.5
v -0.4 0.8 0.3
v -0.3 0.8 0.3
v -0.2 0.8 0.3
v -0.5 0.8 0.1
v -0.4 0.8 0.1
v -0.3 0.8 0.1
v -0.2 0.8 0.1
v -0.5 0.8 0
v -0.4 0.8 0
v -0.3 0.8 0
v -0.2 0.8 0
v -0.4 0.8 -0.1
v -0.3 0.8 -0.1
v -0.5 0.9 0.6
v -0.4 0.9 0.6
v -0.5 0.9 0.5
v -0.4 0.9 0.5
v -0.4 0.9 0.1
v -0.3 0.9 0.1
v -0.4 0.9 0
v -0.3 0.9 0
v 0.3 1 1.2
v 0.5 1 1.2
v 0.3 1 1.1
v 0.4 1 1.1
v 0.3 1 1
v 0.4 1 1
v 0.5 1 1
v 0.4 1 0.9
v 0.5 1 0.9
v 0.4 1.1 0.9
v 0.5 1.1 0.9
v 0.4 1.1 0.8
v 0.5 1.1 0.8
v -0.4 1.1 0.4
v -0.3 1.1 0.4
v -0.4 1.1 0.3
v -0.3 1.1 0.3
v -0.4 1.2 0.5
v -0.3 1.2 0.5
v -0.4 1.2 0.4
v -0.3 1.2 0.4
v -0.3 1.3 0.9
v -0.2 1.3 0.9
v 0.3 1.3 0.9
v 0.4 1.3 0.9
v -0.4 1.3 0.8
v -0.3 1.3 0.8
v -0.2 1.3 0.8
v 0.3 1.3 0.8
v 0.4 1.3 0.8
v 0.5 1.3 0.8
v -0.4 1.3 0.5
v -0.3 1.3 0.5
v -0.2 1.3 0.5
v 0.3 1.3 0.5
v 0.4 1.3 0.5
v 0.5 1.3 0.5
v -0.3 1.3 0.4
v -0.2 1.3 0.4
v 0.3 1.3 0.4
v 0.4 1.3 0.4
v -0.3 1.4 0.8
v -0.2 1.4 0.8
v 0.3 1.4 0.8
v 0.4 1.4 0.8
v -0.3 1.4 0.5
v -0.2 1.4 0.5
v 0.3 1.4 0.5
v 0.4 1.4 0.5

# faces
f 4/1/1 2/1/1 1/1/1
f 7/1/1 4/1/1 3/1/1
f 8/1/1 2/1/1 4/1/1
f 8/1/1 4/1/1 7/1/1
f 9/1/1 6/1/1 5/1/1
f 10/1/1 6/1/1 9/1/1
f 11/1/1 2/1/1 8/1/1
f 12/1/1 2/1/1 11/1/1
f 31/1/1 14/1/1 13/1/1
f 32/1/1 14/1/1 31/1/1
f 33/5/1 16/5/1 15/5/1
f 34/1/1 18/1/1 17/1/1
f 35/1/1 18/1/1 34/1/1
f 37/7/1 20/7/1 19/7/1
f 38/2/1 21/2/1 20/2/1
f 38/7/1 20/7/1 37/7/1
f 39/7/1 22/7/1 21/7/1
f 39/2/1 21/2/1 38/2/1
f 40/2/1 23/2/1 22/2/1
f 40/7/1 22/7/1 39/7/1
f 41/7/1 24/7/1 23/7/1
f 41/2/1 23/2/1 40/2/1
f 42/2/1 25/2/1 24/2/1
f 42/7/1 24/7/1 41/7/1
f 43/7/1 26/7/1 25/7/1
f 43/2/1 25/2/1 42/2/1
f 44/2/1 27/2/1 26/2/1
f 44/7/1 26/7/1 43/7/1
f 45/7/1 28/7/1 27/7/1
f 45/2/1 27/2/1 44/2/1
f 46/2/1 29/2/1 28/2/1
f 46/7/1 28/7/1 45/7/1
f 47/7/1 30/7/1 29/7/1
f 47/2/1 29/2/1 46/2/1
f 48/2/1 31/2/1 30/2/1
f 48/7/1 30/7/1 47/7/1
f 49/2/1 31/2/1 48/2/1
f 51/5/1 33/5/1 15/5/1
f 52/4/1 34/4/1 33/4/1
f 52/5/1 33/5/1 51/5/1
f 53/4/1 34/4/1 52/4/1
f 54/1/1 36/1/1 35/1/1
f 55/1/1 36/1/1 54/1/1
f 56/1/1 50/1/1 49/1/1
f 57/1/1 50/1/1 56/1/1
f 58/6/1 52/6/1 51/6/1
f 59/1/1 54/1/1 53/1/1
f 60/1/1 54/1/1 59/1/1
f 62/6/1 58/6/1 57/6/1
f 62/6/1 57/6/1 56/6/1
f 63/6/1 52/6/1 58/6/1
f 63/6/1 62/6/1 61/6/1
f 63/6/1 58/6/1 62/6/1
f 64/6/1 52/6/1 63/6/1
f 65/6/1 63/6/1 61/6/1
f 66/6/1 63/6/1 65/6/1
f 67/6/1 65/6/1 61/6/1
f 68/6/1 65/6/1 67/6/1
f 73/1/1 70/1/1 69/1/1
f 74/1/1 70/1/1 73/1/1
f 75/1/1 70/1/1 74/1/1
f 76/1/1 72/1/1 71/1/1
f 77/1/1 72/1/1 76/1/1
f 80/1/1 75/1/1 74/1/1
f 81/1/1 75/1/1 80/1/1
f 83/5/1 79/5/1 78/5/1
f 84/5/1 79/5/1 83/5/1
f 87/5/1 83/5/1 82/5/1
f 88/5/1 83/5/1 87/5/1
f 89/5/1 86/5/1 85/5/1
f 90/5/1 86/5/1 89/5/1
f 91/5/1 89/5/1 88/5/1
f 92/5/1 89/5/1 91/5/1
f 98/5/1 94/5/1 93/5/1
f 99/6/1 95/6/1 94/6/1
f 99/5/1 94/5/1 98/5/1
f 100/6/1 95/6/1 99/6/1
f 102/5/1 97/5/1 96/5/1
f 103/5/1 97/5/1 102/5/1
f 105/5/1 102/5/1 101/5/1
f 106/3/1 103/3/1 102/3/1
f 106/5/1 102/5/1 105/5/1
f 107/5/1 104/5/1 103/5/1
f 107/3/1 103/3/1 106/3/1
f 108/5/1 104/5/1 107/5/1
f 109/5/1 107/5/1 106/5/1
f 110/5/1 107/5/1 109/5/1
f 113/6/1 112/6/1 111/6/1
f 114/6/1 113/6/1 111/6/1
f 115/6/1 113/6/1 114/6/1
f 116/6/1 113/6/1 115/6/1
f 117/1/2 118/1/2 121/1/2
f 121/1/2 118/1/2 122/1/2
f 122/1/2 118/1/2 123/1/2
f 119/1/2 120/1/2 124/1/2
f 124/1/2 120/1/2 125/1/2
f 122/1/2 123/1/2 126/1/2
f 126/1/2 123/1/2 127/1/2
f 128/1/2 129/1/2 144/1/2
f 144/1/2 129/1/2 145/1/2
f 130/1/2 131/1/2 147/1/2
f 147/1/2 131/1/2 148/1/2
f 132/7/2 133/7/2 150/7/2
f 133/2/2 134/2/2 151/2/2
f 150/7/2 133/7/2 151/7/2
f 134/7/2 135/7/2 152/7/2
f 151/2/2 134/2/2 152/2/2
f 135/2/2 136/2/2 153/2/2
f 152/7/2 135/7/2 153/7/2
f 136/7/2 137/7/2 154/7/2
f 153/2/2 136/2/2 154/2/2
f 137/2/2 138/2/2 155/2/2
f 154/7/2 137/7/2 155/7/2
f 138/7/2 139/7/2 156/7/2
f 155/2/2 138/2/2 156/2/2
f 139/2/2 140/2/2 157/2/2
f 156/7/2 139/7/2 157/7/2
f 140/7/2 141/7/2 158/7/2
f 157/2/2 140/2/2 158/2/2
f 141/2/2 142/2/2 159/2/2
f 158/7/2 141/7/2 159/7/2
f 142/7/2 143/7/2 160/7/2
f 159/2/2 142/2/2 160/2/2
f 143/2/2 144/2/2 161/2/2
f 160/7/2 143/7/2 161/7/2
f 161/2/2 144/2/2 162/2/2
f 146/4/2 147/4/2 165/4/2
f 165/4/2 147/4/2 166/4/2
f 148/1/2 149/1/2 167/1/2
f 167/1/2 149/1/2 168/1/2
f 162/1/2 163/1/2 169/1/2
f 169/1/2 163/1/2 170/1/2
f 164/6/2 165/6/2 171/6/2
f 166/1/2 167/1/2 172/1/2
f 172/1/2 167/1/2 173/1/2
f 171/6/2 165/6/2 174/6/2
f 174/6/2 165/6/2 175/6/2
f 175/6/2 165/6/2 176/6/2
f 176/6/2 165/6/2 177/6/2
f 178/1/2 179/1/2 182/1/2
f 179/5/2 180/5/2 183/5/2
f 182/1/2 179/1/2 183/1/2
f 183/5/2 180/5/2 184/5/2
f 181/1/2 182/1/2 187/1/2
f 182/1/2 183/1/2 187/1/2
f 187/1/2 183/1/2 188/1/2
f 183/6/2 184/6/2 189/6/2
f 188/1/2 183/1/2 189/1/2
f 189/6/2 184/6/2 190/6/2
f 185/1/2 186/1/2 191/1/2
f 191/1/2 186/1/2 192/1/2
f 188/1/2 189/1/2 194/1/2
f 194/1/2 189/1/2 195/1/2
f 193/5/2 194/5/2 197/5/2
f 194/5/2 195/5/2 197/5/2
f 197/5/2 195/5/2 198/5/2
f 196/5/2 197/5/2 200/5/2
f 197/3/2 198/3/2 201/3/2
f 200/5/2 197/5/2 201/5/2
f 198/5/2 199/5/2 202/5/2
f 201/3/2 198/3/2 202/3/2
f 202/5/2 199/5/2 203/5/2
f 201/5/2 202/5/2 204/5/2
f 204/5/2 202/5/2 205/5/2
f 206/5/2 207/5/2 208/5/2
f 208/5/2 207/5/2 209/5/2
f 211/5/2 212/5/2 213/5/2
f 213/5/2 212/5/2 214/5/2
f 209/5/2 210/5/2 215/5/2
f 215/5/2 210/5/2 216/5/2
f 214/5/2 215/5/2 217/5/2
f 217/5/2 215/5/2 218/5/2
f 220/6/2 221/6/2 222/6/2
f 219/5/2 220/5/2 224/5/2
f 222/6/2 223/6/2 225/6/2
f 224/5/2 220/5/2 225/5/2
f 220/6/2 222/6/2 225/6/2
f 225/6/2 223/6/2 226/6/2
f 226/6/2 223/6/2 227/6/2
f 227/6/2 228/6/2 229/6/2
f 226/6/2 227/6/2 229/6/2
f 229/6/2 228/6/2 230/6/2
f 230/6/2 228/6/2 231/6/2
f 231/6/2 228/6/2 232/6/2
f 235/7/3 234/7/3 233/7/3
f 236/7/3 234/7/3 235/7/3
f 239/5/3 238/5/3 237/5/3
f 240/5/3 238/5/3 239/5/3
f 243/5/3 242/5/3 241/5/3
f 244/5/3 242/5/3 243/5/3
f 247/5/3 246/5/3 245/5/3
f 248/5/3 246/5/3 247/5/3
f 249/5/3 246/5/3 248/5/3
f 250/6/3 248/6/3 247/6/3
f 251/6/3 248/6/3 250/6/3
f 255/6/3 253/6/3 252/6/3
f 256/6/3 253/6/3 255/6/3
f 258/5/3 255/5/3 254/5/3
f 259/5/3 255/5/3 258/5/3
f 260/5/3 257/5/3 256/5/3
f 261/5/3 257/5/3 260/5/3
f 266/5/3 263/5/3 262/5/3
f 267/5/3 263/5/3 266/5/3
f 269/5/3 265/5/3 264/5/3
f 270/5/3 265/5/3 269/5/3
f 271/6/3 269/6/3 268/6/3
f 272/6/3 269/6/3 271/6/3
f 276/1/3 274/1/3 273/1/3
f 277/1/3 274/1/3 276/1/3
f 280/1/3 276/1/3 275/1/3
f 281/1/3 276/1/3 280/1/3
f 282/1/3 278/1/3 277/1/3
f 283/6/3 279/6/3 278/6/3
f 283/1/3 278/1/3 282/1/3
f 284/6/3 279/6/3 283/6/3
f 285/1/3 282/1/3 281/1/3
f 286/1/3 282/1/3 285/1/3
f 291/1/3 288/1/3 287/1/3
f 292/1/3 288/1/3 291/1/3
f 293/1/3 290/1/3 289/1/3
f 294/1/3 290/1/3 293/1/3
f 299/1/3 296/1/3 295/1/3
f 300/1/3 296/1/3 299/1/3
f 301/1/3 298/1/3 297/1/3
f 302/1/3 298/1/3 301/1/3
f 306/5/3 304/5/3 303/5/3
f 307/6/3 305/6/3 304/6/3
f 307/5/3 304/5/3 306/5/3
f 308/6/3 305/6/3 307/6/3
f 312/1/3 310/1/3 309/1/3
f 313/1/3 310/1/3 312/1/3
f 315/1/3 312/1/3 311/1/3
f 316/1/3 312/1/3 315/1/3
f 317/1/3 314/1/3 313/1/3
f 318/1/3 314/1/3 317/1/3
f 319/1/3 317/1/3 316/1/3
f 320/1/3 317/1/3 319/1/3
f 323/1/3 322/1/3 321/1/3
f 324/1/3 322/1/3 323/1/3
f 325/6/4 326/6/4 327/6/4
f 327/6/4 326/6/4 328/6/4
f 329/6/4 330/6/4 331/6/4
f 331/6/4 330/6/4 332/6/4
f 333/2/4 334/2/4 335/2/4
f 335/2/4 334/2/4 336/2/4
f 337/1/4 338/1/4 339/1/4
f 339/1/4 338/1/4 340/1/4
f 341/6/4 342/6/4 343/6/4
f 343/6/4 342/6/4 344/6/4
f 345/1/4 346/1/4 347/1/4
f 347/1/4 346/1/4 348/1/4
f 348/1/4 346/1/4 349/1/4
f 350/6/4 351/6/4 355/6/4
f 355/6/4 351/6/4 356/6/4
f 352/1/4 353/1/4 358/1/4
f 353/5/4 354/5/4 359/5/4
f 358/1/4 353/1/4 359/1/4
f 359/5/4 354/5/4 360/5/4
f 356/5/4 357/5/4 361/5/4
f 361/5/4 357/5/4 362/5/4
f 363/5/4 364/5/4 367/5/4
f 367/5/4 364/5/4 368/5/4
f 365/5/4 366/5/4 369/5/4
f 369/5/4 366/5/4 370/5/4
f 368/6/4 369/6/4 371/6/4
f 371/6/4 369/6/4 372/6/4
f 373/6/4 374/6/4 376/6/4
f 376/6/4 374/6/4 377/6/4
f 375/5/4 376/5/4 379/5/4
f 377/5/4 378/5/4 379/5/4
f 376/5/4 377/5/4 379/5/4
f 379/5/4 378/5/4 380/5/4
f 381/5/4 382/5/4 383/5/4
f 383/5/4 382/5/4 384/5/4
f 385/5/4 386/5/4 389/5/4
f 387/6/4 388/6/4 390/6/4
f 390/6/4 388/6/4 391/6/4
f 385/5/4 389/5/4 392/5/4
f 389/6/4 390/6/4 393/6/4
f 392/5/4 389/5/4 393/5/4
f 393/6/4 390/6/4 394/6/4
f 395/4/4 396/4/4 397/4/4
f 397/4/4 396/4/4 398/4/4
f 399/1/4 400/1/4 402/1/4
f 402/1/4 400/1/4 403/1/4
f 401/1/4 402/1/4 405/1/4
f 405/1/4 402/1/4 406/1/4
f 403/1/4 404/1/4 407/1/4
f 407/1/4 404/1/4 408/1/4
f 406/1/4 407/1/4 409/1/4
f 409/1/4 407/1/4 410/1/4
f 411/1/4 412/1/4 413/1/4
f 413/1/4 412/1/4 414/1/4
f 418/1/5 416/1/5 415/1/5
f 419/1/5 416/1/5 418/1/5
f 421/1/5 418/1/5 417/1/5
f 421/1/5 420/1/5 419/1/5
f 421/1/5 419/1/5 418/1/5
f 422/1/5 420/1/5 421/1/5
f 423/1/5 420/1/5 422/1/5
f 424/5/5 423/5/5 422/5/5
f 425/5/5 423/5/5 424/5/5
f 428/1/5 427/1/5 426/1/5
f 429/1/5 427/1/5 428/1/5
f 432/7/5 431/7/5 430/7/5
f 433/7/5 431/7/5 432/7/5
f 434/2/5 433/2/5 432/2/5
f 435/2/5 433/2/5 434/2/5
f 436/7/5 435/7/5 434/7/5
f 437/7/5 435/7/5 436/7/5
f 438/2/5 437/2/5 436/2/5
f 439/2/5 437/2/5 438/2/5
f 440/7/5 439/7/5 438/7/5
f 441/7/5 439/7/5 440/7/5
f 442/2/5 441/2/5 440/2/5
f 443/2/5 441/2/5 442/2/5
f 444/7/5 443/7/5 442/7/5
f 445/7/5 443/7/5 444/7/5
f 446/2/5 445/2/5 444/2/5
f 447/2/5 445/2/5 446/2/5
f 448/7/5 447/7/5 446/7/5
f 449/7/5 447/7/5 448/7/5
f 450/2/5 449/2/5 448/2/5
f 451/2/5 449/2/5 450/2/5
f 452/7/5 451/7/5 450/7/5
f 453/7/5 451/7/5 452/7/5
f 455/2/5 453/2/5 452/2/5
f 456/2/5 453/2/5 455/2/5
f 458/1/5 455/1/5 454/1/5
f 459/1/5 455/1/5 458/1/5
f 460/1/5 457/1/5 456/1/5
f 461/1/5 457/1/5 460/1/5
f 465/4/5 463/4/5 462/4/5
f 466/4/5 463/4/5 465/4/5
f 468/1/5 465/1/5 464/1/5
f 469/1/5 465/1/5 468/1/5
f 470/1/5 467/1/5 466/1/5
f 471/1/5 467/1/5 470/1/5
f 472/1/5 470/1/5 469/1/5
f 473/1/5 470/1/5 472/1/5
f 476/5/5 475/5/5 474/5/5
f 477/5/5 475/5/5 476/5/5
f 478/6/5 477/6/5 476/6/5
f 479/5/5 475/5/5 477/5/5
f 479/6/5 477/6/5 478/6/5
f 480/5/5 475/5/5 479/5/5
f 481/6/5 480/6/5 479/6/5
f 482/6/5 480/6/5 481/6/5
f 485/1/5 484/1/5 483/1/5
f 486/1/5 484/1/5 485/1/5
f 489/1/5 488/1/5 487/1/5
f 490/1/5 488/1/5 489/1/5
f 496/5/5 492/5/5 491/5/5
f 498/5/5 492/5/5 496/5/5
f 499/5/5 492/5/5 498/5/5
f 500/6/5 495/6/5 494/6/5
f 500/5/5 494/5/5 493/5/5
f 501/6/5 495/6/5 500/6/5
f 502/6/5 498/6/5 497/6/5
f 503/6/5 498/6/5 502/6/5
f 504/5/5 500/5/5 493/5/5
f 505/5/5 500/5/5 504/5/5
f 511/5/5 507/5/5 506/5/5
f 512/5/5 507/5/5 511/5/5
f 513/5/5 509/5/5 508/5/5
f 514/5/5 509/5/5 513/5/5
f 515/6/5 511/6/5 510/6/5
f 516/6/5 511/6/5 515/6/5
f 522/6/5 518/6/5 517/6/5
f 523/6/5 518/6/5 522/6/5
f 524/5/5 520/5/5 519/5/5
f 525/5/5 520/5/5 524/5/5
f 526/5/5 522/5/5 521/5/5
f 527/5/5 522/5/5 526/5/5
f 528/1/6 529/1/6 530/1/6
f 530/1/6 529/1/6 531/1/6
f 532/1/6 533/1/6 534/1/6
f 534/1/6 533/1/6 535/1/6
f 536/7/6 537/7/6 538/7/6
f 538/7/6 537/7/6 539/7/6
f 538/2/6 539/2/6 540/2/6
f 540/2/6 539/2/6 541/2/6
f 540/7/6 541/7/6 542/7/6
f 542/7/6 541/7/6 543/7/6
f 542/2/6 543/2/6 544/2/6
f 544/2/6 543/2/6 545/2/6
f 544/7/6 545/7/6 546/7/6
f 546/7/6 545/7/6 547/7/6
f 546/2/6 547/2/6 548/2/6
f 548/2/6 547/2/6 549/2/6
f 548/7/6 549/7/6 550/7/6
f 550/7/6 549/7/6 551/7/6
f 550/2/6 551/2/6 552/2/6
f 552/2/6 551/2/6 553/2/6
f 552/7/6 553/7/6 554/7/6
f 554/7/6 553/7/6 555/7/6
f 554/2/6 555/2/6 556/2/6
f 556/2/6 555/2/6 557/2/6
f 556/7/6 557/7/6 558/7/6
f 558/7/6 557/7/6 559/7/6
f 558/2/6 559/2/6 561/2/6
f 561/2/6 559/2/6 562/2/6
f 560/1/6 561/1/6 564/1/6
f 564/1/6 561/1/6 565/1/6
f 562/1/6 563/1/6 566/1/6
f 566/1/6 563/1/6 567/1/6
f 568/6/6 569/6/6 571/6/6
f 571/6/6 569/6/6 572/6/6
f 570/4/6 571/4/6 574/4/6
f 574/4/6 571/4/6 575/4/6
f 573/1/6 574/1/6 577/1/6
f 577/1/6 574/1/6 578/1/6
f 575/1/6 576/1/6 579/1/6
f 579/1/6 576/1/6 580/1/6
f 578/1/6 579/1/6 581/1/6
f 581/1/6 579/1/6 582/1/6
f 583/1/6 584/1/6 585/1/6
f 585/1/6 584/1/6 586/1/6
f 587/1/6 588/1/6 589/1/6
f 589/1/6 588/1/6 590/1/6
f 591/5/6 592/5/6 593/5/6
f 593/5/6 592/5/6 594/5/6
f 593/6/6 594/6/6 595/6/6
f 594/5/6 592/5/6 596/5/6
f 595/6/6 594/6/6 596/6/6
f 596/5/6 592/5/6 597/5/6
f 596/6/6 597/6/6 598/6/6
f 598/6/6 597/6/6 599/6/6
f 600/6/6 601/6/6 602/6/6
f 602/6/6 601/6/6 603/6/6
f 604/6/6 605/6/6 606/6/6
f 606/6/6 605/6/6 607/6/6
f 608/6/6 609/6/6 610/6/6
f 610/6/6 609/6/6 611/6/6
f 612/5/6 613/5/6 617/5/6
f 617/5/6 613/5/6 618/5/6
f 614/5/6 615/5/6 619/5/6
f 619/5/6 615/5/6 620/5/6
f 616/6/6 617/6/6 622/6/6
f 622/6/6 617/6/6 623/6/6
f 620/6/6 621/6/6 626/6/6
f 626/6/6 621/6/6 627/6/6
f 623/5/6 624/5/6 628/5/6
f 628/5/6 624/5/6 629/5/6
f 625/5/6 626/5/6 630/5/6
f 630/5/6 626/5/6 631/5/6
f 632/5/6 633/5/6 636/5/6
f 636/5/6 633/5/6 637/5/6
f 634/5/6 635/5/6 638/5/6
f 638/5/6 635/5/6 639/5/6
