# MagicaVoxel @ Ephtracy

# group
o 

# material
mtllib WeaponC4.mtl
usemtl palette

# normals
vn -1 0 0
vn 1 0 0
vn 0 0 1
vn 0 0 -1
vn 0 -1 0
vn 0 1 0

# texcoords
vt 0.0136719 0.5
vt 0.0292969 0.5
vt 0.0878906 0.5
vt 0.0917969 0.5
vt 0.107422 0.5
vt 0.142578 0.5
vt 0.158203 0.5
vt 0.162109 0.5
vt 0.166016 0.5

# verts
v -0.5 0.8 0.8
v -0.5 0.8 0.5
v -0.5 0.9 0.9
v -0.5 0.9 0.8
v -0.5 0.9 0.7
v -0.5 0.9 0.6
v -0.5 0.9 0.5
v -0.5 0.9 0.4
v -0.5 1 0.9
v -0.5 1 0.8
v -0.5 1 0.7
v -0.5 1 0.6
v -0.5 1 0.5
v -0.5 1 0.4
v -0.5 1.1 0.8
v -0.5 1.1 0.7
v -0.5 1.1 0.6
v -0.5 1.1 0.5
v -0.5 1.2 0.8
v -0.5 1.2 0.7
v -0.5 1.2 0.6
v -0.5 1.2 0.5
v -0.5 1.3 0.9
v -0.5 1.3 0.8
v -0.5 1.3 0.7
v -0.5 1.3 0.6
v -0.5 1.3 0.5
v -0.5 1.3 0.4
v -0.5 1.4 0.9
v -0.5 1.4 0.8
v -0.5 1.4 0.7
v -0.5 1.4 0.6
v -0.5 1.4 0.5
v -0.5 1.4 0.4
v -0.5 1.5 0.8
v -0.5 1.5 0.5
v -0.4 0.8 0.9
v -0.4 0.8 0.8
v -0.4 0.8 0.5
v -0.4 0.8 0.4
v -0.4 0.9 1
v -0.4 0.9 0.9
v -0.4 0.9 0.8
v -0.4 0.9 0.5
v -0.4 0.9 0.4
v -0.4 1 1
v -0.4 1 0.9
v -0.4 1 0.4
v -0.4 1 0.2
v -0.4 1.1 0.4
v -0.4 1.1 0.3
v -0.4 1.2 0.4
v -0.4 1.2 0.3
v -0.4 1.3 1
v -0.4 1.3 0.9
v -0.4 1.3 0.4
v -0.4 1.3 0.2
v -0.4 1.4 1
v -0.4 1.4 0.9
v -0.4 1.4 0.8
v -0.4 1.4 0.5
v -0.4 1.4 0.4
v -0.4 1.5 0.9
v -0.4 1.5 0.8
v -0.4 1.5 0.7
v -0.4 1.5 0.6
v -0.4 1.5 0.5
v -0.4 1.5 0.4
v -0.4 1.6 0.7
v -0.4 1.6 0.6
v -0.4 1.7 1
v -0.4 1.7 0.9
v -0.4 1.7 0.8
v -0.4 1.7 0.5
v -0.3 0.9 0.8
v -0.3 0.9 0.5
v -0.3 1 0.9
v -0.3 1 0.8
v -0.3 1 0.5
v -0.3 1 0.4
v -0.3 1.1 0.5
v -0.3 1.1 0.4
v -0.3 1.2 0.5
v -0.3 1.2 0.4
v -0.3 1.3 0.9
v -0.3 1.3 0.8
v -0.3 1.3 0.5
v -0.3 1.3 0.4
v -0.3 1.4 0.8
v -0.3 1.4 0.5
v 0.3 0.9 0.8
v 0.3 0.9 0.5
v 0.3 1 0.9
v 0.3 1 0.8
v 0.3 1 0.5
v 0.3 1 0.4
v 0.3 1.3 0.9
v 0.3 1.3 0.8
v 0.3 1.3 0.5
v 0.3 1.3 0.4
v 0.3 1.4 0.8
v 0.3 1.4 0.5
v -0.4 0.9 0.8
v -0.4 0.9 0.7
v -0.4 0.9 0.6
v -0.4 0.9 0.5
v -0.4 1 0.9
v -0.4 1 0.8
v -0.4 1 0.7
v -0.4 1 0.6
v -0.4 1 0.5
v -0.4 1 0.4
v -0.4 1.1 0.8
v -0.4 1.1 0.7
v -0.4 1.1 0.6
v -0.4 1.1 0.5
v -0.4 1.1 0.4
v -0.4 1.2 0.8
v -0.4 1.2 0.7
v -0.4 1.2 0.6
v -0.4 1.2 0.5
v -0.4 1.2 0.4
v -0.4 1.3 0.9
v -0.4 1.3 0.8
v -0.4 1.3 0.7
v -0.4 1.3 0.6
v -0.4 1.3 0.5
v -0.4 1.3 0.4
v -0.4 1.4 0.8
v -0.4 1.4 0.7
v -0.4 1.4 0.6
v -0.4 1.4 0.5
v -0.3 0.8 0.9
v -0.3 0.8 0.4
v -0.3 0.9 1
v -0.3 0.9 0.9
v -0.3 0.9 0.8
v -0.3 0.9 0.5
v -0.3 0.9 0.4
v -0.3 1 1
v -0.3 1 0.9
v -0.3 1 0.8
v -0.3 1 0.5
v -0.3 1 0.4
v -0.3 1 0.2
v -0.3 1.1 0.4
v -0.3 1.1 0.3
v -0.3 1.2 0.4
v -0.3 1.2 0.3
v -0.3 1.3 1
v -0.3 1.3 0.9
v -0.3 1.3 0.8
v -0.3 1.3 0.5
v -0.3 1.3 0.4
v -0.3 1.3 0.2
v -0.3 1.4 1
v -0.3 1.4 0.9
v -0.3 1.4 0.8
v -0.3 1.4 0.5
v -0.3 1.4 0.4
v -0.3 1.5 0.9
v -0.3 1.5 0.8
v -0.3 1.5 0.7
v -0.3 1.5 0.6
v -0.3 1.5 0.5
v -0.3 1.5 0.4
v -0.3 1.6 0.7
v -0.3 1.6 0.6
v -0.3 1.7 1
v -0.3 1.7 0.9
v -0.3 1.7 0.8
v -0.3 1.7 0.5
v -0.2 0.9 0.8
v -0.2 0.9 0.5
v -0.2 1 0.9
v -0.2 1 0.8
v -0.2 1 0.5
v -0.2 1 0.4
v -0.2 1.3 0.9
v -0.2 1.3 0.8
v -0.2 1.3 0.5
v -0.2 1.3 0.4
v -0.2 1.4 0.8
v -0.2 1.4 0.5
v 0.4 0.9 0.8
v 0.4 0.9 0.5
v 0.4 1 0.9
v 0.4 1 0.8
v 0.4 1 0.5
v 0.4 1 0.4
v 0.4 1.3 0.9
v 0.4 1.3 0.8
v 0.4 1.3 0.5
v 0.4 1.3 0.4
v 0.4 1.4 0.8
v 0.4 1.4 0.5
v 0.5 1 0.8
v 0.5 1 0.5
v 0.5 1.3 0.8
v 0.5 1.3 0.5
v -0.4 0.9 1
v -0.4 1 1
v -0.4 1.3 1
v -0.4 1.4 1
v -0.4 1.7 1
v -0.3 0.9 1
v -0.3 1 1
v -0.3 1.3 1
v -0.3 1.4 1
v -0.3 1.7 1
v -0.5 0.9 0.9
v -0.5 1 0.9
v -0.5 1.3 0.9
v -0.5 1.4 0.9
v -0.4 0.8 0.9
v -0.4 0.9 0.9
v -0.4 1 0.9
v -0.4 1.3 0.9
v -0.4 1.4 0.9
v -0.3 0.8 0.9
v -0.3 0.9 0.9
v -0.3 1 0.9
v -0.3 1.3 0.9
v -0.2 1 0.9
v -0.2 1.3 0.9
v 0.3 1 0.9
v 0.3 1.3 0.9
v 0.4 1 0.9
v 0.4 1.3 0.9
v -0.5 0.8 0.8
v -0.5 0.9 0.8
v -0.5 1.4 0.8
v -0.5 1.5 0.8
v -0.4 0.8 0.8
v -0.4 0.9 0.8
v -0.4 1.4 0.8
v -0.4 1.5 0.8
v -0.4 1.7 0.8
v -0.3 0.9 0.8
v -0.3 1 0.8
v -0.3 1.3 0.8
v -0.3 1.4 0.8
v -0.3 1.5 0.8
v -0.3 1.7 0.8
v -0.2 0.9 0.8
v -0.2 1 0.8
v -0.2 1.3 0.8
v -0.2 1.4 0.8
v 0.3 0.9 0.8
v 0.3 1 0.8
v 0.3 1.3 0.8
v 0.3 1.4 0.8
v 0.4 0.9 0.8
v 0.4 1 0.8
v 0.4 1.3 0.8
v 0.4 1.4 0.8
v 0.5 1 0.8
v 0.5 1.3 0.8
v -0.4 1.5 0.6
v -0.4 1.6 0.6
v -0.3 1.5 0.6
v -0.3 1.6 0.6
v -0.4 0.9 0.5
v -0.4 1 0.5
v -0.4 1.1 0.5
v -0.4 1.2 0.5
v -0.4 1.3 0.5
v -0.4 1.4 0.5
v -0.3 0.9 0.5
v -0.3 1 0.5
v -0.3 1.1 0.5
v -0.3 1.2 0.5
v -0.3 1.3 0.5
v -0.3 1.4 0.5
v -0.4 1 0.4
v -0.4 1.1 0.4
v -0.4 1.2 0.4
v -0.4 1.3 0.4
v -0.3 1 0.4
v -0.3 1.1 0.4
v -0.3 1.2 0.4
v -0.3 1.3 0.4
v -0.4 1.1 0.3
v -0.4 1.2 0.3
v -0.3 1.1 0.3
v -0.3 1.2 0.3
v -0.4 1 0.9
v -0.4 1.3 0.9
v -0.4 1.5 0.9
v -0.4 1.7 0.9
v -0.3 1 0.9
v -0.3 1.3 0.9
v -0.3 1.5 0.9
v -0.3 1.7 0.9
v -0.4 0.9 0.8
v -0.4 1 0.8
v -0.4 1.3 0.8
v -0.4 1.4 0.8
v -0.3 0.9 0.8
v -0.3 1 0.8
v -0.3 1.3 0.8
v -0.3 1.4 0.8
v -0.4 1.5 0.7
v -0.4 1.6 0.7
v -0.3 1.5 0.7
v -0.3 1.6 0.7
v -0.5 0.8 0.5
v -0.5 0.9 0.5
v -0.5 1.4 0.5
v -0.5 1.5 0.5
v -0.4 0.8 0.5
v -0.4 0.9 0.5
v -0.4 1.4 0.5
v -0.4 1.5 0.5
v -0.4 1.7 0.5
v -0.3 0.9 0.5
v -0.3 1 0.5
v -0.3 1.3 0.5
v -0.3 1.4 0.5
v -0.3 1.5 0.5
v -0.3 1.7 0.5
v -0.2 0.9 0.5
v -0.2 1 0.5
v -0.2 1.3 0.5
v -0.2 1.4 0.5
v 0.3 0.9 0.5
v 0.3 1 0.5
v 0.3 1.3 0.5
v 0.3 1.4 0.5
v 0.4 0.9 0.5
v 0.4 1 0.5
v 0.4 1.3 0.5
v 0.4 1.4 0.5
v 0.5 1 0.5
v 0.5 1.3 0.5
v -0.5 0.9 0.4
v -0.5 1 0.4
v -0.5 1.3 0.4
v -0.5 1.4 0.4
v -0.4 0.8 0.4
v -0.4 0.9 0.4
v -0.4 1 0.4
v -0.4 1.1 0.4
v -0.4 1.2 0.4
v -0.4 1.3 0.4
v -0.4 1.4 0.4
v -0.4 1.5 0.4
v -0.3 0.8 0.4
v -0.3 0.9 0.4
v -0.3 1 0.4
v -0.3 1.1 0.4
v -0.3 1.2 0.4
v -0.3 1.3 0.4
v -0.3 1.4 0.4
v -0.3 1.5 0.4
v -0.2 1 0.4
v -0.2 1.3 0.4
v 0.3 1 0.4
v 0.3 1.3 0.4
v 0.4 1 0.4
v 0.4 1.3 0.4
v -0.4 1 0.2
v -0.4 1.3 0.2
v -0.3 1 0.2
v -0.3 1.3 0.2
v -0.4 0.8 0.9
v -0.3 0.8 0.9
v -0.5 0.8 0.8
v -0.4 0.8 0.8
v -0.5 0.8 0.5
v -0.4 0.8 0.5
v -0.4 0.8 0.4
v -0.3 0.8 0.4
v -0.4 0.9 1
v -0.3 0.9 1
v -0.5 0.9 0.9
v -0.4 0.9 0.9
v -0.3 0.9 0.9
v -0.5 0.9 0.8
v -0.4 0.9 0.8
v -0.3 0.9 0.8
v -0.2 0.9 0.8
v 0.3 0.9 0.8
v 0.4 0.9 0.8
v -0.5 0.9 0.5
v -0.4 0.9 0.5
v -0.3 0.9 0.5
v -0.2 0.9 0.5
v 0.3 0.9 0.5
v 0.4 0.9 0.5
v -0.5 0.9 0.4
v -0.4 0.9 0.4
v -0.3 1 0.9
v -0.2 1 0.9
v 0.3 1 0.9
v 0.4 1 0.9
v -0.3 1 0.8
v -0.2 1 0.8
v 0.3 1 0.8
v 0.4 1 0.8
v 0.5 1 0.8
v -0.3 1 0.5
v -0.2 1 0.5
v 0.3 1 0.5
v 0.4 1 0.5
v 0.5 1 0.5
v -0.4 1 0.4
v -0.3 1 0.4
v -0.2 1 0.4
v 0.3 1 0.4
v 0.4 1 0.4
v -0.4 1 0.2
v -0.3 1 0.2
v -0.4 1.1 0.5
v -0.3 1.1 0.5
v -0.4 1.1 0.4
v -0.3 1.1 0.4
v -0.4 1.2 0.4
v -0.3 1.2 0.4
v -0.4 1.2 0.3
v -0.3 1.2 0.3
v -0.4 1.3 0.9
v -0.3 1.3 0.9
v -0.4 1.3 0.8
v -0.3 1.3 0.8
v -0.4 1.3 0.5
v -0.3 1.3 0.5
v -0.4 1.3 0.4
v -0.3 1.3 0.4
v -0.4 1.4 0.8
v -0.3 1.4 0.8
v -0.4 1.4 0.7
v -0.4 1.4 0.6
v -0.4 1.4 0.5
v -0.3 1.4 0.5
v -0.4 1.6 0.7
v -0.3 1.6 0.7
v -0.4 1.6 0.6
v -0.3 1.6 0.6
v -0.4 0.9 0.8
v -0.3 0.9 0.8
v -0.4 0.9 0.7
v -0.4 0.9 0.6
v -0.4 0.9 0.5
v -0.3 0.9 0.5
v -0.4 1 0.9
v -0.3 1 0.9
v -0.4 1 0.8
v -0.3 1 0.8
v -0.4 1 0.5
v -0.3 1 0.5
v -0.4 1 0.4
v -0.3 1 0.4
v -0.4 1.1 0.4
v -0.3 1.1 0.4
v -0.4 1.1 0.3
v -0.3 1.1 0.3
v -0.4 1.2 0.5
v -0.3 1.2 0.5
v -0.4 1.2 0.4
v -0.3 1.2 0.4
v -0.3 1.3 0.9
v -0.2 1.3 0.9
v 0.3 1.3 0.9
v 0.4 1.3 0.9
v -0.3 1.3 0.8
v -0.2 1.3 0.8
v 0.3 1.3 0.8
v 0.4 1.3 0.8
v 0.5 1.3 0.8
v -0.3 1.3 0.5
v -0.2 1.3 0.5
v 0.3 1.3 0.5
v 0.4 1.3 0.5
v 0.5 1.3 0.5
v -0.4 1.3 0.4
v -0.3 1.3 0.4
v -0.2 1.3 0.4
v 0.3 1.3 0.4
v 0.4 1.3 0.4
v -0.4 1.3 0.2
v -0.3 1.3 0.2
v -0.5 1.4 0.9
v -0.4 1.4 0.9
v -0.5 1.4 0.8
v -0.4 1.4 0.8
v -0.3 1.4 0.8
v -0.2 1.4 0.8
v 0.3 1.4 0.8
v 0.4 1.4 0.8
v -0.5 1.4 0.5
v -0.4 1.4 0.5
v -0.3 1.4 0.5
v -0.2 1.4 0.5
v 0.3 1.4 0.5
v 0.4 1.4 0.5
v -0.5 1.4 0.4
v -0.4 1.4 0.4
v -0.4 1.5 0.9
v -0.3 1.5 0.9
v -0.5 1.5 0.8
v -0.4 1.5 0.8
v -0.3 1.5 0.8
v -0.4 1.5 0.7
v -0.3 1.5 0.7
v -0.4 1.5 0.6
v -0.3 1.5 0.6
v -0.5 1.5 0.5
v -0.4 1.5 0.5
v -0.3 1.5 0.5
v -0.4 1.5 0.4
v -0.3 1.5 0.4
v -0.4 1.7 1
v -0.3 1.7 1
v -0.4 1.7 0.9
v -0.3 1.7 0.9
v -0.4 1.7 0.8
v -0.3 1.7 0.8
v -0.4 1.7 0.5
v -0.3 1.7 0.5

# faces
f 4/2/1 2/2/1 1/2/1
f 5/2/1 2/2/1 4/2/1
f 6/2/1 2/2/1 5/2/1
f 7/2/1 2/2/1 6/2/1
f 9/7/1 4/7/1 3/7/1
f 10/8/1 5/8/1 4/8/1
f 10/7/1 4/7/1 9/7/1
f 11/9/1 6/9/1 5/9/1
f 11/8/1 5/8/1 10/8/1
f 12/8/1 7/8/1 6/8/1
f 12/9/1 6/9/1 11/9/1
f 13/7/1 8/7/1 7/7/1
f 13/8/1 7/8/1 12/8/1
f 14/7/1 8/7/1 13/7/1
f 15/2/1 10/2/1 9/2/1
f 15/9/1 11/9/1 10/9/1
f 16/8/1 12/8/1 11/8/1
f 16/9/1 11/9/1 15/9/1
f 17/9/1 13/9/1 12/9/1
f 17/8/1 12/8/1 16/8/1
f 18/2/1 14/2/1 13/2/1
f 18/9/1 13/9/1 17/9/1
f 19/2/1 15/2/1 9/2/1
f 19/8/1 16/8/1 15/8/1
f 20/9/1 17/9/1 16/9/1
f 20/8/1 16/8/1 19/8/1
f 21/8/1 18/8/1 17/8/1
f 21/9/1 17/9/1 20/9/1
f 22/2/1 14/2/1 18/2/1
f 22/8/1 18/8/1 21/8/1
f 23/2/1 19/2/1 9/2/1
f 24/9/1 20/9/1 19/9/1
f 24/2/1 19/2/1 23/2/1
f 25/8/1 21/8/1 20/8/1
f 25/9/1 20/9/1 24/9/1
f 26/9/1 22/9/1 21/9/1
f 26/8/1 21/8/1 25/8/1
f 27/2/1 14/2/1 22/2/1
f 27/9/1 22/9/1 26/9/1
f 28/2/1 14/2/1 27/2/1
f 29/7/1 24/7/1 23/7/1
f 30/3/1 25/3/1 24/3/1
f 30/7/1 24/7/1 29/7/1
f 31/4/1 26/4/1 25/4/1
f 31/3/1 25/3/1 30/3/1
f 32/3/1 27/3/1 26/3/1
f 32/4/1 26/4/1 31/4/1
f 33/7/1 28/7/1 27/7/1
f 33/3/1 27/3/1 32/3/1
f 34/7/1 28/7/1 33/7/1
f 35/2/1 31/2/1 30/2/1
f 35/2/1 33/2/1 32/2/1
f 35/2/1 32/2/1 31/2/1
f 36/2/1 33/2/1 35/2/1
f 42/2/1 38/2/1 37/2/1
f 43/2/1 38/2/1 42/2/1
f 44/2/1 40/2/1 39/2/1
f 45/2/1 40/2/1 44/2/1
f 46/7/1 42/7/1 41/7/1
f 47/7/1 42/7/1 46/7/1
f 50/1/1 49/1/1 48/1/1
f 51/1/1 49/1/1 50/1/1
f 53/1/1 49/1/1 51/1/1
f 54/8/1 47/8/1 46/8/1
f 55/8/1 47/8/1 54/8/1
f 56/1/1 53/1/1 52/1/1
f 57/1/1 49/1/1 53/1/1
f 57/1/1 53/1/1 56/1/1
f 58/7/1 55/7/1 54/7/1
f 59/7/1 55/7/1 58/7/1
f 63/8/1 59/8/1 58/8/1
f 63/2/1 60/2/1 59/2/1
f 64/2/1 60/2/1 63/2/1
f 67/2/1 62/2/1 61/2/1
f 68/2/1 62/2/1 67/2/1
f 69/5/1 65/5/1 64/5/1
f 70/5/1 67/5/1 66/5/1
f 71/8/1 63/8/1 58/8/1
f 72/8/1 63/8/1 71/8/1
f 73/5/1 70/5/1 69/5/1
f 73/5/1 69/5/1 64/5/1
f 74/5/1 67/5/1 70/5/1
f 74/5/1 70/5/1 73/5/1
f 78/7/1 76/7/1 75/7/1
f 79/7/1 76/7/1 78/7/1
f 81/6/1 79/6/1 78/6/1
f 81/7/1 80/7/1 79/7/1
f 82/7/1 80/7/1 81/7/1
f 83/6/1 81/6/1 78/6/1
f 85/7/1 78/7/1 77/7/1
f 86/6/1 83/6/1 78/6/1
f 86/7/1 78/7/1 85/7/1
f 87/7/1 84/7/1 83/7/1
f 87/6/1 83/6/1 86/6/1
f 88/7/1 84/7/1 87/7/1
f 89/7/1 87/7/1 86/7/1
f 90/7/1 87/7/1 89/7/1
f 94/7/1 92/7/1 91/7/1
f 95/7/1 92/7/1 94/7/1
f 97/7/1 94/7/1 93/7/1
f 98/6/1 95/6/1 94/6/1
f 98/7/1 94/7/1 97/7/1
f 99/7/1 96/7/1 95/7/1
f 99/6/1 95/6/1 98/6/1
f 100/7/1 96/7/1 99/7/1
f 101/7/1 99/7/1 98/7/1
f 102/7/1 99/7/1 101/7/1
f 103/8/2 104/8/2 108/8/2
f 104/9/2 105/9/2 109/9/2
f 108/8/2 104/8/2 109/8/2
f 105/8/2 106/8/2 110/8/2
f 109/9/2 105/9/2 110/9/2
f 110/8/2 106/8/2 111/8/2
f 108/9/2 109/9/2 113/9/2
f 107/2/2 108/2/2 113/2/2
f 109/8/2 110/8/2 114/8/2
f 113/9/2 109/9/2 114/9/2
f 110/9/2 111/9/2 115/9/2
f 114/8/2 110/8/2 115/8/2
f 111/2/2 112/2/2 116/2/2
f 115/9/2 111/9/2 116/9/2
f 116/2/2 112/2/2 117/2/2
f 113/8/2 114/8/2 118/8/2
f 107/2/2 113/2/2 118/2/2
f 114/9/2 115/9/2 119/9/2
f 118/8/2 114/8/2 119/8/2
f 115/8/2 116/8/2 120/8/2
f 119/9/2 115/9/2 120/9/2
f 120/8/2 116/8/2 121/8/2
f 107/2/2 118/2/2 123/2/2
f 118/9/2 119/9/2 124/9/2
f 123/2/2 118/2/2 124/2/2
f 119/8/2 120/8/2 125/8/2
f 124/9/2 119/9/2 125/9/2
f 120/9/2 121/9/2 126/9/2
f 125/8/2 120/8/2 126/8/2
f 121/2/2 122/2/2 127/2/2
f 126/9/2 121/9/2 127/9/2
f 127/2/2 122/2/2 128/2/2
f 124/3/2 125/3/2 129/3/2
f 125/4/2 126/4/2 130/4/2
f 129/3/2 125/3/2 130/3/2
f 126/3/2 127/3/2 131/3/2
f 130/4/2 126/4/2 131/4/2
f 131/3/2 127/3/2 132/3/2
f 133/2/2 134/2/2 136/2/2
f 136/2/2 134/2/2 137/2/2
f 137/2/2 134/2/2 138/2/2
f 138/2/2 134/2/2 139/2/2
f 135/7/2 136/7/2 140/7/2
f 136/7/2 137/7/2 140/7/2
f 140/7/2 137/7/2 141/7/2
f 141/7/2 137/7/2 142/7/2
f 138/7/2 139/7/2 143/7/2
f 143/7/2 139/7/2 144/7/2
f 144/1/2 145/1/2 146/1/2
f 146/1/2 145/1/2 147/1/2
f 147/1/2 145/1/2 149/1/2
f 140/8/2 141/8/2 150/8/2
f 150/8/2 141/8/2 151/8/2
f 148/1/2 149/1/2 154/1/2
f 149/1/2 145/1/2 155/1/2
f 154/1/2 149/1/2 155/1/2
f 151/7/2 152/7/2 156/7/2
f 150/7/2 151/7/2 156/7/2
f 156/7/2 152/7/2 157/7/2
f 157/7/2 152/7/2 158/7/2
f 153/7/2 154/7/2 159/7/2
f 159/7/2 154/7/2 160/7/2
f 157/2/2 158/2/2 161/2/2
f 156/8/2 157/8/2 161/8/2
f 159/2/2 160/2/2 161/2/2
f 158/2/2 159/2/2 161/2/2
f 161/2/2 160/2/2 162/2/2
f 162/2/2 160/2/2 163/2/2
f 163/2/2 160/2/2 164/2/2
f 164/2/2 160/2/2 165/2/2
f 165/2/2 160/2/2 166/2/2
f 162/5/2 163/5/2 167/5/2
f 164/5/2 165/5/2 168/5/2
f 156/8/2 161/8/2 169/8/2
f 169/8/2 161/8/2 170/8/2
f 167/5/2 168/5/2 171/5/2
f 162/5/2 167/5/2 171/5/2
f 168/5/2 165/5/2 172/5/2
f 171/5/2 168/5/2 172/5/2
f 173/7/2 174/7/2 176/7/2
f 176/7/2 174/7/2 177/7/2
f 175/7/2 176/7/2 179/7/2
f 176/6/2 177/6/2 180/6/2
f 179/7/2 176/7/2 180/7/2
f 177/7/2 178/7/2 181/7/2
f 180/6/2 177/6/2 181/6/2
f 181/7/2 178/7/2 182/7/2
f 180/7/2 181/7/2 183/7/2
f 183/7/2 181/7/2 184/7/2
f 185/7/2 186/7/2 188/7/2
f 188/7/2 186/7/2 189/7/2
f 187/7/2 188/7/2 191/7/2
f 191/7/2 188/7/2 192/7/2
f 189/7/2 190/7/2 193/7/2
f 193/7/2 190/7/2 194/7/2
f 192/7/2 193/7/2 195/7/2
f 195/7/2 193/7/2 196/7/2
f 197/2/2 198/2/2 199/2/2
f 199/2/2 198/2/2 200/2/2
f 206/7/3 202/7/3 201/7/3
f 207/8/3 203/8/3 202/8/3
f 207/7/3 202/7/3 206/7/3
f 208/7/3 204/7/3 203/7/3
f 208/8/3 203/8/3 207/8/3
f 209/8/3 205/8/3 204/8/3
f 209/7/3 204/7/3 208/7/3
f 210/8/3 205/8/3 209/8/3
f 216/7/3 212/7/3 211/7/3
f 217/2/3 213/2/3 212/2/3
f 217/7/3 212/7/3 216/7/3
f 218/7/3 214/7/3 213/7/3
f 218/2/3 213/2/3 217/2/3
f 219/7/3 214/7/3 218/7/3
f 220/2/3 216/2/3 215/2/3
f 221/2/3 216/2/3 220/2/3
f 224/7/3 223/7/3 222/7/3
f 225/7/3 223/7/3 224/7/3
f 228/7/3 227/7/3 226/7/3
f 229/7/3 227/7/3 228/7/3
f 234/2/3 231/2/3 230/2/3
f 235/2/3 231/2/3 234/2/3
f 236/2/3 233/2/3 232/2/3
f 237/2/3 233/2/3 236/2/3
f 243/5/3 238/5/3 237/5/3
f 244/5/3 238/5/3 243/5/3
f 245/7/3 240/7/3 239/7/3
f 246/7/3 240/7/3 245/7/3
f 247/7/3 242/7/3 241/7/3
f 248/7/3 242/7/3 247/7/3
f 253/7/3 250/7/3 249/7/3
f 254/7/3 250/7/3 253/7/3
f 255/7/3 252/7/3 251/7/3
f 256/7/3 252/7/3 255/7/3
f 257/2/3 255/2/3 254/2/3
f 258/2/3 255/2/3 257/2/3
f 261/5/3 260/5/3 259/5/3
f 262/5/3 260/5/3 261/5/3
f 269/7/3 264/7/3 263/7/3
f 270/7/3 264/7/3 269/7/3
f 271/2/3 266/2/3 265/2/3
f 272/2/3 266/2/3 271/2/3
f 273/7/3 268/7/3 267/7/3
f 274/7/3 268/7/3 273/7/3
f 279/1/3 276/1/3 275/1/3
f 280/1/3 276/1/3 279/1/3
f 281/1/3 278/1/3 277/1/3
f 282/1/3 278/1/3 281/1/3
f 285/1/3 284/1/3 283/1/3
f 286/1/3 284/1/3 285/1/3
f 287/8/4 288/8/4 291/8/4
f 291/8/4 288/8/4 292/8/4
f 289/8/4 290/8/4 293/8/4
f 293/8/4 290/8/4 294/8/4
f 295/7/4 296/7/4 299/7/4
f 299/7/4 296/7/4 300/7/4
f 297/7/4 298/7/4 301/7/4
f 301/7/4 298/7/4 302/7/4
f 303/5/4 304/5/4 305/5/4
f 305/5/4 304/5/4 306/5/4
f 307/2/4 308/2/4 311/2/4
f 311/2/4 308/2/4 312/2/4
f 309/2/4 310/2/4 313/2/4
f 313/2/4 310/2/4 314/2/4
f 314/5/4 315/5/4 320/5/4
f 320/5/4 315/5/4 321/5/4
f 316/7/4 317/7/4 322/7/4
f 322/7/4 317/7/4 323/7/4
f 318/7/4 319/7/4 324/7/4
f 324/7/4 319/7/4 325/7/4
f 326/7/4 327/7/4 330/7/4
f 330/7/4 327/7/4 331/7/4
f 328/7/4 329/7/4 332/7/4
f 332/7/4 329/7/4 333/7/4
f 331/2/4 332/2/4 334/2/4
f 334/2/4 332/2/4 335/2/4
f 336/7/4 337/7/4 341/7/4
f 337/2/4 338/2/4 342/2/4
f 341/7/4 337/7/4 342/7/4
f 342/2/4 338/2/4 343/2/4
f 343/2/4 338/2/4 344/2/4
f 338/7/4 339/7/4 345/7/4
f 344/2/4 338/2/4 345/2/4
f 345/7/4 339/7/4 346/7/4
f 340/2/4 341/2/4 348/2/4
f 341/7/4 342/7/4 349/7/4
f 348/2/4 341/2/4 349/2/4
f 349/7/4 342/7/4 350/7/4
f 343/2/4 344/2/4 351/2/4
f 351/2/4 344/2/4 352/2/4
f 345/7/4 346/7/4 353/7/4
f 346/2/4 347/2/4 354/2/4
f 353/7/4 346/7/4 354/7/4
f 354/2/4 347/2/4 355/2/4
f 352/7/4 353/7/4 356/7/4
f 351/7/4 352/7/4 356/7/4
f 350/7/4 351/7/4 356/7/4
f 356/7/4 353/7/4 357/7/4
f 358/7/4 359/7/4 360/7/4
f 360/7/4 359/7/4 361/7/4
f 362/1/4 363/1/4 364/1/4
f 364/1/4 363/1/4 365/1/4
f 369/2/5 367/2/5 366/2/5
f 370/2/5 369/2/5 368/2/5
f 371/2/5 367/2/5 369/2/5
f 371/2/5 369/2/5 370/2/5
f 372/2/5 367/2/5 371/2/5
f 373/2/5 367/2/5 372/2/5
f 377/7/5 375/7/5 374/7/5
f 378/7/5 375/7/5 377/7/5
f 379/7/5 377/7/5 376/7/5
f 380/7/5 377/7/5 379/7/5
f 387/7/5 382/7/5 381/7/5
f 388/7/5 382/7/5 387/7/5
f 389/7/5 384/7/5 383/7/5
f 390/7/5 384/7/5 389/7/5
f 391/7/5 386/7/5 385/7/5
f 392/7/5 386/7/5 391/7/5
f 397/7/5 394/7/5 393/7/5
f 398/7/5 394/7/5 397/7/5
f 399/7/5 396/7/5 395/7/5
f 400/7/5 396/7/5 399/7/5
f 405/2/5 401/2/5 400/2/5
f 406/2/5 401/2/5 405/2/5
f 408/7/5 403/7/5 402/7/5
f 409/7/5 403/7/5 408/7/5
f 410/7/5 405/7/5 404/7/5
f 411/7/5 405/7/5 410/7/5
f 412/1/5 408/1/5 407/1/5
f 413/1/5 408/1/5 412/1/5
f 416/2/5 415/2/5 414/2/5
f 417/2/5 415/2/5 416/2/5
f 420/1/5 419/1/5 418/1/5
f 421/1/5 419/1/5 420/1/5
f 424/7/5 423/7/5 422/7/5
f 425/7/5 423/7/5 424/7/5
f 428/7/5 427/7/5 426/7/5
f 429/7/5 427/7/5 428/7/5
f 432/2/5 431/2/5 430/2/5
f 433/2/5 431/2/5 432/2/5
f 434/2/5 431/2/5 433/2/5
f 435/2/5 431/2/5 434/2/5
f 438/5/5 437/5/5 436/5/5
f 439/5/5 437/5/5 438/5/5
f 440/2/6 441/2/6 442/2/6
f 442/2/6 441/2/6 443/2/6
f 443/2/6 441/2/6 444/2/6
f 444/2/6 441/2/6 445/2/6
f 446/7/6 447/7/6 448/7/6
f 448/7/6 447/7/6 449/7/6
f 450/7/6 451/7/6 452/7/6
f 452/7/6 451/7/6 453/7/6
f 454/1/6 455/1/6 456/1/6
f 456/1/6 455/1/6 457/1/6
f 458/2/6 459/2/6 460/2/6
f 460/2/6 459/2/6 461/2/6
f 462/7/6 463/7/6 466/7/6
f 466/7/6 463/7/6 467/7/6
f 464/7/6 465/7/6 468/7/6
f 468/7/6 465/7/6 469/7/6
f 469/2/6 470/2/6 474/2/6
f 474/2/6 470/2/6 475/2/6
f 471/7/6 472/7/6 477/7/6
f 477/7/6 472/7/6 478/7/6
f 473/7/6 474/7/6 479/7/6
f 479/7/6 474/7/6 480/7/6
f 476/1/6 477/1/6 481/1/6
f 481/1/6 477/1/6 482/1/6
f 483/7/6 484/7/6 485/7/6
f 485/7/6 484/7/6 486/7/6
f 487/7/6 488/7/6 493/7/6
f 493/7/6 488/7/6 494/7/6
f 489/7/6 490/7/6 495/7/6
f 495/7/6 490/7/6 496/7/6
f 491/7/6 492/7/6 497/7/6
f 497/7/6 492/7/6 498/7/6
f 499/2/6 500/2/6 502/2/6
f 502/2/6 500/2/6 503/2/6
f 501/2/6 502/2/6 504/2/6
f 501/2/6 504/2/6 506/2/6
f 504/2/6 505/2/6 506/2/6
f 506/2/6 505/2/6 507/2/6
f 501/2/6 506/2/6 508/2/6
f 508/2/6 506/2/6 509/2/6
f 509/2/6 510/2/6 511/2/6
f 511/2/6 510/2/6 512/2/6
f 513/8/6 514/8/6 515/8/6
f 515/8/6 514/8/6 516/8/6
f 517/5/6 518/5/6 519/5/6
f 519/5/6 518/5/6 520/5/6
