# MagicaVoxel @ Ephtracy

# group
o 

# material
mtllib TransportTwinBoots.mtl
usemtl palette

# normals
vn -1 0 0
vn 1 0 0
vn 0 0 1
vn 0 0 -1
vn 0 -1 0
vn 0 1 0

# texcoords
vt 0.103516 0.5
vt 0.107422 0.5
vt 0.111328 0.5
vt 0.142578 0.5
vt 0.154297 0.5
vt 0.177734 0.5

# verts
v -0.2 0.8 0.9
v -0.2 0.8 0.4
v -0.2 0.9 0.9
v -0.2 0.9 0.8
v -0.2 0.9 0.5
v -0.2 0.9 0.4
v -0.2 1 0.9
v -0.2 1 0.8
v -0.2 1 0.5
v -0.2 1 0.4
v -0.2 1.3 0.9
v -0.2 1.3 0.8
v -0.2 1.3 0.5
v -0.2 1.3 0.4
v -0.2 1.4 0.8
v -0.2 1.4 0.5
v -0.1 0.3 1.1
v -0.1 0.3 0.5
v -0.1 0.4 1.1
v -0.1 0.4 1
v -0.1 0.4 0.5
v -0.1 0.5 1
v -0.1 0.5 0.8
v -0.1 0.5 0.7
v -0.1 0.5 0.6
v -0.1 0.6 0.7
v -0.1 0.6 0.6
v -0.1 0.7 0.7
v -0.1 0.7 0.6
v -0.1 0.8 0.8
v -0.1 0.8 0.7
v -0.1 0.8 0.6
v -0.1 0.8 0.5
v -0.1 0.9 0.9
v -0.1 0.9 0.8
v -0.1 0.9 0.5
v -0.1 0.9 0.4
v -0.1 1 1
v -0.1 1 0.9
v -0.1 1 0.8
v -0.1 1 0.5
v -0.1 1 0.4
v -0.1 1 0.3
v -0.1 1.3 1
v -0.1 1.3 0.9
v -0.1 1.3 0.8
v -0.1 1.3 0.5
v -0.1 1.3 0.4
v -0.1 1.3 0.3
v -0.1 1.4 0.9
v -0.1 1.4 0.8
v -0.1 1.4 0.7
v -0.1 1.4 0.6
v -0.1 1.4 0.5
v -0.1 1.4 0.4
v -0.1 1.5 0.8
v -0.1 1.5 0.7
v -0.1 1.5 0.6
v -0.1 1.5 0.5
v -0.1 1.6 0.8
v -0.1 1.6 0.7
v -0.1 1.6 0.6
v -0.1 1.6 0.5
v -0.1 1.7 0.8
v -0.1 1.7 0.7
v -0.1 1.7 0.6
v -0.1 1.7 0.5
v -0.1 1.8 0.8
v -0.1 1.8 0.7
v -0.1 1.8 0.6
v -0.1 1.8 0.5
v -0.1 1.9 0.7
v -0.1 1.9 0.6
v 0 0.4 1.1
v 0 0.4 1
v 0 0.5 1.1
v 0 0.5 1
v 0 0.5 0.8
v 0 0.6 1
v 0 0.6 0.8
v 0 1.4 0.8
v 0 1.4 0.7
v 0 1.4 0.6
v 0 1.4 0.5
v 0 1.5 1
v 0 1.5 0.8
v 0 1.5 0.7
v 0 1.5 0.6
v 0 1.5 0.5
v 0 1.6 1
v 0 1.6 0.8
v 0 1.6 0.7
v 0 1.6 0.6
v 0 1.6 0.5
v 0 1.7 0.8
v 0 1.7 0.7
v 0 1.7 0.6
v 0 1.7 0.5
v 0 1.8 0.8
v 0 1.8 0.7
v 0 1.8 0.6
v 0 1.8 0.5
v 0 1.9 0.8
v 0 1.9 0.7
v 0 1.9 0.6
v 0 1.9 0.5
v 0 2 0.6
v 0 2 0.5
v 0 2.1 0.7
v 0 2.1 0.6
v 0 2.1 0.5
v 0.1 0.4 1
v 0.1 0.4 0.6
v 0.1 0.5 1
v 0.1 0.5 0.7
v 0.1 0.5 0.6
v 0.1 0.6 0.7
v 0.1 0.6 0.6
v 0.1 0.7 0.7
v 0.1 0.7 0.6
v 0.1 0.8 0.7
v 0.1 0.8 0.6
v 0.1 1.7 0.7
v 0.1 1.7 0.6
v 0.1 1.8 0.7
v 0.1 1.8 0.6
v 0.2 0.8 0.7
v 0.2 0.8 0.6
v 0.2 0.8 0.5
v 0.2 0.9 0.8
v 0.2 0.9 0.7
v 0.2 0.9 0.5
v 0.2 1 0.8
v 0.2 1 0.5
v 0.2 1.3 0.8
v 0.2 1.3 0.5
v -0.1 0.8 0.7
v -0.1 0.8 0.6
v -0.1 0.8 0.5
v -0.1 0.9 0.8
v -0.1 0.9 0.7
v -0.1 0.9 0.5
v -0.1 1 0.8
v -0.1 1 0.5
v -0.1 1.3 0.8
v -0.1 1.3 0.5
v 0 0.4 1
v 0 0.4 0.6
v 0 0.5 1
v 0 0.5 0.7
v 0 0.5 0.6
v 0 0.6 0.7
v 0 0.6 0.6
v 0 0.7 0.7
v 0 0.7 0.6
v 0 0.8 0.7
v 0 0.8 0.6
v 0 1.7 0.7
v 0 1.7 0.6
v 0 1.8 0.7
v 0 1.8 0.6
v 0.1 0.4 1.1
v 0.1 0.4 1
v 0.1 0.5 1.1
v 0.1 0.5 1
v 0.1 0.5 0.8
v 0.1 0.6 1
v 0.1 0.6 0.8
v 0.1 1.4 0.8
v 0.1 1.4 0.7
v 0.1 1.4 0.6
v 0.1 1.4 0.5
v 0.1 1.5 1
v 0.1 1.5 0.8
v 0.1 1.5 0.7
v 0.1 1.5 0.6
v 0.1 1.5 0.5
v 0.1 1.6 1
v 0.1 1.6 0.8
v 0.1 1.6 0.7
v 0.1 1.6 0.6
v 0.1 1.6 0.5
v 0.1 1.7 0.8
v 0.1 1.7 0.7
v 0.1 1.7 0.6
v 0.1 1.7 0.5
v 0.1 1.8 0.8
v 0.1 1.8 0.7
v 0.1 1.8 0.6
v 0.1 1.8 0.5
v 0.1 1.9 0.8
v 0.1 1.9 0.7
v 0.1 1.9 0.6
v 0.1 1.9 0.5
v 0.1 2 0.6
v 0.1 2 0.5
v 0.1 2.1 0.7
v 0.1 2.1 0.6
v 0.1 2.1 0.5
v 0.2 0.3 1.1
v 0.2 0.3 0.5
v 0.2 0.4 1.1
v 0.2 0.4 1
v 0.2 0.4 0.5
v 0.2 0.5 1
v 0.2 0.5 0.8
v 0.2 0.5 0.7
v 0.2 0.5 0.6
v 0.2 0.6 0.7
v 0.2 0.6 0.6
v 0.2 0.7 0.7
v 0.2 0.7 0.6
v 0.2 0.8 0.8
v 0.2 0.8 0.7
v 0.2 0.8 0.6
v 0.2 0.8 0.5
v 0.2 0.9 0.9
v 0.2 0.9 0.8
v 0.2 0.9 0.5
v 0.2 0.9 0.4
v 0.2 1 1
v 0.2 1 0.9
v 0.2 1 0.8
v 0.2 1 0.5
v 0.2 1 0.4
v 0.2 1 0.3
v 0.2 1.3 1
v 0.2 1.3 0.9
v 0.2 1.3 0.8
v 0.2 1.3 0.5
v 0.2 1.3 0.4
v 0.2 1.3 0.3
v 0.2 1.4 0.9
v 0.2 1.4 0.8
v 0.2 1.4 0.7
v 0.2 1.4 0.6
v 0.2 1.4 0.5
v 0.2 1.4 0.4
v 0.2 1.5 0.8
v 0.2 1.5 0.7
v 0.2 1.5 0.6
v 0.2 1.5 0.5
v 0.2 1.6 0.8
v 0.2 1.6 0.7
v 0.2 1.6 0.6
v 0.2 1.6 0.5
v 0.2 1.7 0.8
v 0.2 1.7 0.7
v 0.2 1.7 0.6
v 0.2 1.7 0.5
v 0.2 1.8 0.8
v 0.2 1.8 0.7
v 0.2 1.8 0.6
v 0.2 1.8 0.5
v 0.2 1.9 0.7
v 0.2 1.9 0.6
v 0.3 0.8 0.9
v 0.3 0.8 0.4
v 0.3 0.9 0.9
v 0.3 0.9 0.8
v 0.3 0.9 0.5
v 0.3 0.9 0.4
v 0.3 1 0.9
v 0.3 1 0.8
v 0.3 1 0.5
v 0.3 1 0.4
v 0.3 1.3 0.9
v 0.3 1.3 0.8
v 0.3 1.3 0.5
v 0.3 1.3 0.4
v 0.3 1.4 0.8
v 0.3 1.4 0.5
v -0.1 0.3 1.1
v -0.1 0.4 1.1
v 0 0.4 1.1
v 0 0.5 1.1
v 0.1 0.4 1.1
v 0.1 0.5 1.1
v 0.2 0.3 1.1
v 0.2 0.4 1.1
v -0.1 0.4 1
v -0.1 0.5 1
v -0.1 1 1
v -0.1 1.3 1
v 0 0.4 1
v 0 0.5 1
v 0 0.6 1
v 0 1.1 1
v 0 1.2 1
v 0 1.5 1
v 0 1.6 1
v 0.1 0.4 1
v 0.1 0.5 1
v 0.1 0.6 1
v 0.1 1.1 1
v 0.1 1.2 1
v 0.1 1.5 1
v 0.1 1.6 1
v 0.2 0.4 1
v 0.2 0.5 1
v 0.2 1 1
v 0.2 1.3 1
v -0.2 0.8 0.9
v -0.2 0.9 0.9
v -0.2 1 0.9
v -0.2 1.3 0.9
v -0.1 0.9 0.9
v -0.1 1 0.9
v -0.1 1.3 0.9
v -0.1 1.4 0.9
v 0 1.3 0.9
v 0 1.4 0.9
v 0.1 1.3 0.9
v 0.1 1.4 0.9
v 0.2 0.9 0.9
v 0.2 1 0.9
v 0.2 1.3 0.9
v 0.2 1.4 0.9
v 0.3 0.8 0.9
v 0.3 0.9 0.9
v 0.3 1 0.9
v 0.3 1.3 0.9
v -0.2 0.9 0.8
v -0.2 1 0.8
v -0.2 1.3 0.8
v -0.2 1.4 0.8
v -0.1 0.5 0.8
v -0.1 0.8 0.8
v -0.1 0.9 0.8
v -0.1 1 0.8
v -0.1 1.3 0.8
v -0.1 1.4 0.8
v -0.1 1.5 0.8
v -0.1 1.6 0.8
v -0.1 1.7 0.8
v -0.1 1.8 0.8
v 0 0.5 0.8
v 0 0.6 0.8
v 0 1.4 0.8
v 0 1.5 0.8
v 0 1.6 0.8
v 0 1.7 0.8
v 0 1.8 0.8
v 0 1.9 0.8
v 0.1 0.5 0.8
v 0.1 0.6 0.8
v 0.1 1.4 0.8
v 0.1 1.5 0.8
v 0.1 1.6 0.8
v 0.1 1.7 0.8
v 0.1 1.8 0.8
v 0.1 1.9 0.8
v 0.2 0.5 0.8
v 0.2 0.8 0.8
v 0.2 0.9 0.8
v 0.2 1 0.8
v 0.2 1.3 0.8
v 0.2 1.4 0.8
v 0.2 1.5 0.8
v 0.2 1.6 0.8
v 0.2 1.7 0.8
v 0.2 1.8 0.8
v 0.3 0.9 0.8
v 0.3 1 0.8
v 0.3 1.3 0.8
v 0.3 1.4 0.8
v -0.1 1.4 0.7
v -0.1 1.5 0.7
v -0.1 1.6 0.7
v -0.1 1.7 0.7
v -0.1 1.8 0.7
v -0.1 1.9 0.7
v 0 1.4 0.7
v 0 1.5 0.7
v 0 1.6 0.7
v 0 1.7 0.7
v 0 1.8 0.7
v 0 1.9 0.7
v 0 2.1 0.7
v 0.1 1.4 0.7
v 0.1 1.5 0.7
v 0.1 1.6 0.7
v 0.1 1.7 0.7
v 0.1 1.8 0.7
v 0.1 1.9 0.7
v 0.1 2.1 0.7
v 0.2 1.4 0.7
v 0.2 1.5 0.7
v 0.2 1.6 0.7
v 0.2 1.7 0.7
v 0.2 1.8 0.7
v 0.2 1.9 0.7
v 0 0.4 0.6
v 0 0.5 0.6
v 0 0.6 0.6
v 0 0.7 0.6
v 0 0.8 0.6
v 0 1.7 0.6
v 0 1.8 0.6
v 0.1 0.4 0.6
v 0.1 0.5 0.6
v 0.1 0.6 0.6
v 0.1 0.7 0.6
v 0.1 0.8 0.6
v 0.1 1.7 0.6
v 0.1 1.8 0.6
v -0.1 0.8 0.5
v -0.1 0.9 0.5
v -0.1 1 0.5
v -0.1 1.3 0.5
v 0.2 0.8 0.5
v 0.2 0.9 0.5
v 0.2 1 0.5
v 0.2 1.3 0.5
v 0 0.4 1
v 0 0.5 1
v 0.1 0.4 1
v 0.1 0.5 1
v -0.1 0.9 0.8
v -0.1 1 0.8
v -0.1 1.3 0.8
v 0.2 0.9 0.8
v 0.2 1 0.8
v 0.2 1.3 0.8
v -0.1 0.8 0.7
v -0.1 0.9 0.7
v 0 0.5 0.7
v 0 0.6 0.7
v 0 0.7 0.7
v 0 0.8 0.7
v 0 1.7 0.7
v 0 1.8 0.7
v 0.1 0.5 0.7
v 0.1 0.6 0.7
v 0.1 0.7 0.7
v 0.1 0.8 0.7
v 0.1 1.7 0.7
v 0.1 1.8 0.7
v 0.2 0.8 0.7
v 0.2 0.9 0.7
v -0.1 1.4 0.6
v -0.1 1.5 0.6
v -0.1 1.6 0.6
v -0.1 1.7 0.6
v -0.1 1.8 0.6
v -0.1 1.9 0.6
v 0 1.4 0.6
v 0 1.5 0.6
v 0 1.6 0.6
v 0 1.7 0.6
v 0 1.8 0.6
v 0 1.9 0.6
v 0 2 0.6
v 0.1 1.4 0.6
v 0.1 1.5 0.6
v 0.1 1.6 0.6
v 0.1 1.7 0.6
v 0.1 1.8 0.6
v 0.1 1.9 0.6
v 0.1 2 0.6
v 0.2 1.4 0.6
v 0.2 1.5 0.6
v 0.2 1.6 0.6
v 0.2 1.7 0.6
v 0.2 1.8 0.6
v 0.2 1.9 0.6
v -0.2 0.9 0.5
v -0.2 1 0.5
v -0.2 1.3 0.5
v -0.2 1.4 0.5
v -0.1 0.3 0.5
v -0.1 0.4 0.5
v -0.1 0.8 0.5
v -0.1 0.9 0.5
v -0.1 1 0.5
v -0.1 1.3 0.5
v -0.1 1.4 0.5
v -0.1 1.5 0.5
v -0.1 1.6 0.5
v -0.1 1.7 0.5
v -0.1 1.8 0.5
v 0 1.4 0.5
v 0 1.5 0.5
v 0 1.6 0.5
v 0 1.7 0.5
v 0 1.8 0.5
v 0 1.9 0.5
v 0 2 0.5
v 0 2.1 0.5
v 0.1 1.4 0.5
v 0.1 1.5 0.5
v 0.1 1.6 0.5
v 0.1 1.7 0.5
v 0.1 1.8 0.5
v 0.1 1.9 0.5
v 0.1 2 0.5
v 0.1 2.1 0.5
v 0.2 0.3 0.5
v 0.2 0.4 0.5
v 0.2 0.8 0.5
v 0.2 0.9 0.5
v 0.2 1 0.5
v 0.2 1.3 0.5
v 0.2 1.4 0.5
v 0.2 1.5 0.5
v 0.2 1.6 0.5
v 0.2 1.7 0.5
v 0.2 1.8 0.5
v 0.3 0.9 0.5
v 0.3 1 0.5
v 0.3 1.3 0.5
v 0.3 1.4 0.5
v -0.2 0.8 0.4
v -0.2 0.9 0.4
v -0.2 1 0.4
v -0.2 1.3 0.4
v -0.1 0.9 0.4
v -0.1 1 0.4
v -0.1 1.3 0.4
v -0.1 1.4 0.4
v 0.2 0.9 0.4
v 0.2 1 0.4
v 0.2 1.3 0.4
v 0.2 1.4 0.4
v 0.3 0.8 0.4
v 0.3 0.9 0.4
v 0.3 1 0.4
v 0.3 1.3 0.4
v -0.1 1 0.3
v -0.1 1.3 0.3
v 0.2 1 0.3
v 0.2 1.3 0.3
v -0.1 0.3 1.1
v 0.2 0.3 1.1
v 0 0.3 1
v 0.1 0.3 1
v 0 0.3 0.6
v 0.1 0.3 0.6
v -0.1 0.3 0.5
v 0.2 0.3 0.5
v 0 0.5 1
v 0.1 0.5 1
v 0 0.5 0.7
v 0.1 0.5 0.7
v -0.2 0.8 0.9
v 0.3 0.8 0.9
v -0.1 0.8 0.8
v 0.2 0.8 0.8
v -0.1 0.8 0.7
v 0.2 0.8 0.7
v -0.1 0.8 0.6
v 0.2 0.8 0.6
v -0.1 0.8 0.5
v 0.2 0.8 0.5
v -0.2 0.8 0.4
v 0.3 0.8 0.4
v -0.1 1 1
v 0.2 1 1
v -0.2 1 0.9
v -0.1 1 0.9
v 0.2 1 0.9
v 0.3 1 0.9
v -0.2 1 0.8
v -0.1 1 0.8
v 0.2 1 0.8
v 0.3 1 0.8
v -0.2 1 0.5
v -0.1 1 0.5
v 0.2 1 0.5
v 0.3 1 0.5
v -0.2 1 0.4
v -0.1 1 0.4
v 0.2 1 0.4
v 0.3 1 0.4
v -0.1 1 0.3
v 0.2 1 0.3
v -0.1 1.3 0.8
v 0.2 1.3 0.8
v -0.1 1.3 0.5
v 0.2 1.3 0.5
v 0 1.5 1
v 0.1 1.5 1
v -0.1 1.5 0.8
v 0 1.5 0.8
v 0.1 1.5 0.8
v 0.2 1.5 0.8
v -0.1 1.5 0.7
v 0 1.5 0.7
v 0.1 1.5 0.7
v 0.2 1.5 0.7
v -0.1 1.5 0.6
v 0 1.5 0.6
v 0.1 1.5 0.6
v 0.2 1.5 0.6
v -0.1 1.5 0.5
v 0 1.5 0.5
v 0.1 1.5 0.5
v 0.2 1.5 0.5
v -0.1 1.7 0.8
v 0 1.7 0.8
v 0.1 1.7 0.8
v 0.2 1.7 0.8
v -0.1 1.7 0.7
v 0 1.7 0.7
v 0.1 1.7 0.7
v 0.2 1.7 0.7
v -0.1 1.7 0.6
v 0 1.7 0.6
v 0.1 1.7 0.6
v 0.2 1.7 0.6
v -0.1 1.7 0.5
v 0 1.7 0.5
v 0.1 1.7 0.5
v 0.2 1.7 0.5
v 0 1.8 0.7
v 0.1 1.8 0.7
v 0 1.8 0.6
v 0.1 1.8 0.6
v 0 2 0.6
v 0.1 2 0.6
v 0 2 0.5
v 0.1 2 0.5
v -0.1 0.4 1.1
v 0 0.4 1.1
v 0.1 0.4 1.1
v 0.2 0.4 1.1
v -0.1 0.4 1
v 0 0.4 1
v 0.1 0.4 1
v 0.2 0.4 1
v 0 0.4 0.6
v 0.1 0.4 0.6
v 0 0.5 1.1
v 0.1 0.5 1.1
v -0.1 0.5 1
v 0 0.5 1
v 0.1 0.5 1
v 0.2 0.5 1
v -0.1 0.5 0.8
v 0 0.5 0.8
v 0.1 0.5 0.8
v 0.2 0.5 0.8
v 0 0.6 1
v 0.1 0.6 1
v 0 0.6 0.8
v 0.1 0.6 0.8
v -0.1 0.8 0.7
v 0 0.8 0.7
v 0.1 0.8 0.7
v 0.2 0.8 0.7
v -0.1 0.8 0.6
v 0 0.8 0.6
v 0.1 0.8 0.6
v 0.2 0.8 0.6
v -0.1 0.8 0.5
v 0.2 0.8 0.5
v -0.2 0.9 0.9
v -0.1 0.9 0.9
v 0.2 0.9 0.9
v 0.3 0.9 0.9
v -0.2 0.9 0.8
v -0.1 0.9 0.8
v 0.2 0.9 0.8
v 0.3 0.9 0.8
v -0.1 0.9 0.7
v 0.2 0.9 0.7
v -0.2 0.9 0.5
v -0.1 0.9 0.5
v 0.2 0.9 0.5
v 0.3 0.9 0.5
v -0.2 0.9 0.4
v -0.1 0.9 0.4
v 0.2 0.9 0.4
v 0.3 0.9 0.4
v -0.1 1.3 1
v 0.2 1.3 1
v -0.2 1.3 0.9
v -0.1 1.3 0.9
v 0 1.3 0.9
v 0.1 1.3 0.9
v 0.2 1.3 0.9
v 0.3 1.3 0.9
v -0.2 1.3 0.8
v -0.1 1.3 0.8
v 0.2 1.3 0.8
v 0.3 1.3 0.8
v -0.2 1.3 0.5
v -0.1 1.3 0.5
v 0.2 1.3 0.5
v 0.3 1.3 0.5
v -0.2 1.3 0.4
v -0.1 1.3 0.4
v 0.2 1.3 0.4
v 0.3 1.3 0.4
v -0.1 1.3 0.3
v 0.2 1.3 0.3
v -0.1 1.4 0.9
v 0 1.4 0.9
v 0.1 1.4 0.9
v 0.2 1.4 0.9
v -0.2 1.4 0.8
v -0.1 1.4 0.8
v 0 1.4 0.8
v 0.1 1.4 0.8
v 0.2 1.4 0.8
v 0.3 1.4 0.8
v -0.1 1.4 0.7
v 0 1.4 0.7
v 0.1 1.4 0.7
v 0.2 1.4 0.7
v -0.1 1.4 0.6
v 0 1.4 0.6
v 0.1 1.4 0.6
v 0.2 1.4 0.6
v -0.2 1.4 0.5
v -0.1 1.4 0.5
v 0 1.4 0.5
v 0.1 1.4 0.5
v 0.2 1.4 0.5
v 0.3 1.4 0.5
v -0.1 1.4 0.4
v 0.2 1.4 0.4
v 0 1.6 1
v 0.1 1.6 1
v -0.1 1.6 0.8
v 0 1.6 0.8
v 0.1 1.6 0.8
v 0.2 1.6 0.8
v -0.1 1.6 0.7
v 0 1.6 0.7
v 0.1 1.6 0.7
v 0.2 1.6 0.7
v -0.1 1.6 0.6
v 0 1.6 0.6
v 0.1 1.6 0.6
v 0.2 1.6 0.6
v -0.1 1.6 0.5
v 0 1.6 0.5
v 0.1 1.6 0.5
v 0.2 1.6 0.5
v 0 1.7 0.7
v 0.1 1.7 0.7
v 0 1.7 0.6
v 0.1 1.7 0.6
v -0.1 1.8 0.8
v 0 1.8 0.8
v 0.1 1.8 0.8
v 0.2 1.8 0.8
v -0.1 1.8 0.7
v 0 1.8 0.7
v 0.1 1.8 0.7
v 0.2 1.8 0.7
v -0.1 1.8 0.6
v 0 1.8 0.6
v 0.1 1.8 0.6
v 0.2 1.8 0.6
v -0.1 1.8 0.5
v 0 1.8 0.5
v 0.1 1.8 0.5
v 0.2 1.8 0.5
v 0 1.9 0.8
v 0.1 1.9 0.8
v -0.1 1.9 0.7
v 0 1.9 0.7
v 0.1 1.9 0.7
v 0.2 1.9 0.7
v -0.1 1.9 0.6
v 0 1.9 0.6
v 0.1 1.9 0.6
v 0.2 1.9 0.6
v 0 1.9 0.5
v 0.1 1.9 0.5
v 0 2.1 0.7
v 0.1 2.1 0.7
v 0 2.1 0.6
v 0.1 2.1 0.6
v 0 2.1 0.5
v 0.1 2.1 0.5

# faces
f 3/1/1 2/1/1 1/1/1
f 4/1/1 2/1/1 3/1/1
f 5/1/1 2/1/1 4/1/1
f 6/1/1 2/1/1 5/1/1
f 8/6/1 5/6/1 4/6/1
f 9/6/1 5/6/1 8/6/1
f 11/6/1 8/6/1 7/6/1
f 12/4/1 9/4/1 8/4/1
f 12/6/1 8/6/1 11/6/1
f 13/6/1 10/6/1 9/6/1
f 13/4/1 9/4/1 12/4/1
f 14/6/1 10/6/1 13/6/1
f 15/6/1 13/6/1 12/6/1
f 16/6/1 13/6/1 15/6/1
f 19/1/1 18/1/1 17/1/1
f 20/1/1 18/1/1 19/1/1
f 21/1/1 18/1/1 20/1/1
f 22/2/1 21/2/1 20/2/1
f 23/2/1 21/2/1 22/2/1
f 24/2/1 21/2/1 23/2/1
f 25/2/1 21/2/1 24/2/1
f 26/2/1 24/2/1 23/2/1
f 26/6/1 25/6/1 24/6/1
f 27/2/1 21/2/1 25/2/1
f 27/6/1 25/6/1 26/6/1
f 28/2/1 26/2/1 23/2/1
f 28/2/1 27/2/1 26/2/1
f 29/2/1 21/2/1 27/2/1
f 29/2/1 27/2/1 28/2/1
f 30/2/1 28/2/1 23/2/1
f 31/6/1 29/6/1 28/6/1
f 31/2/1 28/2/1 30/2/1
f 32/2/1 21/2/1 29/2/1
f 32/6/1 29/6/1 31/6/1
f 33/2/1 21/2/1 32/2/1
f 39/6/1 35/6/1 34/6/1
f 40/6/1 35/6/1 39/6/1
f 41/6/1 37/6/1 36/6/1
f 42/6/1 37/6/1 41/6/1
f 44/6/1 39/6/1 38/6/1
f 45/6/1 39/6/1 44/6/1
f 48/6/1 43/6/1 42/6/1
f 49/6/1 43/6/1 48/6/1
f 50/6/1 46/6/1 45/6/1
f 51/6/1 46/6/1 50/6/1
f 54/6/1 48/6/1 47/6/1
f 55/6/1 48/6/1 54/6/1
f 57/6/1 53/6/1 52/6/1
f 58/6/1 53/6/1 57/6/1
f 60/6/1 57/6/1 56/6/1
f 61/5/1 58/5/1 57/5/1
f 61/6/1 57/6/1 60/6/1
f 62/6/1 59/6/1 58/6/1
f 62/5/1 58/5/1 61/5/1
f 63/6/1 59/6/1 62/6/1
f 65/6/1 62/6/1 61/6/1
f 66/6/1 62/6/1 65/6/1
f 68/1/1 65/1/1 64/1/1
f 68/1/1 67/1/1 66/1/1
f 68/1/1 66/1/1 65/1/1
f 69/1/1 67/1/1 68/1/1
f 70/1/1 67/1/1 69/1/1
f 71/1/1 67/1/1 70/1/1
f 72/2/1 70/2/1 69/2/1
f 73/2/1 70/2/1 72/2/1
f 76/2/1 75/2/1 74/2/1
f 77/2/1 75/2/1 76/2/1
f 79/2/1 78/2/1 77/2/1
f 80/2/1 78/2/1 79/2/1
f 86/6/1 82/6/1 81/6/1
f 87/6/1 82/6/1 86/6/1
f 88/6/1 84/6/1 83/6/1
f 89/6/1 84/6/1 88/6/1
f 90/3/1 86/3/1 85/3/1
f 91/3/1 86/3/1 90/3/1
f 95/6/1 92/6/1 91/6/1
f 96/6/1 92/6/1 95/6/1
f 97/6/1 94/6/1 93/6/1
f 98/6/1 94/6/1 97/6/1
f 103/2/1 100/2/1 99/2/1
f 104/2/1 100/2/1 103/2/1
f 105/2/1 102/2/1 101/2/1
f 106/2/1 102/2/1 105/2/1
f 107/2/1 105/2/1 104/2/1
f 109/2/1 107/2/1 104/2/1
f 110/6/1 108/6/1 107/6/1
f 110/2/1 107/2/1 109/2/1
f 111/6/1 108/6/1 110/6/1
f 114/2/1 113/2/1 112/2/1
f 115/2/1 113/2/1 114/2/1
f 116/2/1 113/2/1 115/2/1
f 117/6/1 116/6/1 115/6/1
f 118/6/1 116/6/1 117/6/1
f 119/2/1 118/2/1 117/2/1
f 120/2/1 118/2/1 119/2/1
f 121/6/1 120/6/1 119/6/1
f 122/6/1 120/6/1 121/6/1
f 125/1/1 124/1/1 123/1/1
f 126/1/1 124/1/1 125/1/1
f 131/1/1 128/1/1 127/1/1
f 131/1/1 129/1/1 128/1/1
f 132/1/1 129/1/1 131/1/1
f 133/6/1 131/6/1 130/6/1
f 133/6/1 132/6/1 131/6/1
f 134/6/1 132/6/1 133/6/1
f 135/4/1 134/4/1 133/4/1
f 136/4/1 134/4/1 135/4/1
f 137/1/2 138/1/2 141/1/2
f 138/1/2 139/1/2 141/1/2
f 141/1/2 139/1/2 142/1/2
f 140/6/2 141/6/2 143/6/2
f 141/6/2 142/6/2 143/6/2
f 143/6/2 142/6/2 144/6/2
f 143/4/2 144/4/2 145/4/2
f 145/4/2 144/4/2 146/4/2
f 147/2/2 148/2/2 149/2/2
f 149/2/2 148/2/2 150/2/2
f 150/2/2 148/2/2 151/2/2
f 150/6/2 151/6/2 152/6/2
f 152/6/2 151/6/2 153/6/2
f 152/2/2 153/2/2 154/2/2
f 154/2/2 153/2/2 155/2/2
f 154/6/2 155/6/2 156/6/2
f 156/6/2 155/6/2 157/6/2
f 158/1/2 159/1/2 160/1/2
f 160/1/2 159/1/2 161/1/2
f 162/2/2 163/2/2 164/2/2
f 164/2/2 163/2/2 165/2/2
f 165/2/2 166/2/2 167/2/2
f 167/2/2 166/2/2 168/2/2
f 169/6/2 170/6/2 174/6/2
f 174/6/2 170/6/2 175/6/2
f 171/6/2 172/6/2 176/6/2
f 176/6/2 172/6/2 177/6/2
f 173/3/2 174/3/2 178/3/2
f 178/3/2 174/3/2 179/3/2
f 179/6/2 180/6/2 183/6/2
f 183/6/2 180/6/2 184/6/2
f 181/6/2 182/6/2 185/6/2
f 185/6/2 182/6/2 186/6/2
f 187/2/2 188/2/2 191/2/2
f 191/2/2 188/2/2 192/2/2
f 189/2/2 190/2/2 193/2/2
f 193/2/2 190/2/2 194/2/2
f 192/2/2 193/2/2 195/2/2
f 192/2/2 195/2/2 197/2/2
f 195/6/2 196/6/2 198/6/2
f 197/2/2 195/2/2 198/2/2
f 198/6/2 196/6/2 199/6/2
f 200/1/2 201/1/2 202/1/2
f 202/1/2 201/1/2 203/1/2
f 203/1/2 201/1/2 204/1/2
f 203/2/2 204/2/2 205/2/2
f 205/2/2 204/2/2 206/2/2
f 206/2/2 204/2/2 207/2/2
f 207/2/2 204/2/2 208/2/2
f 206/2/2 207/2/2 209/2/2
f 207/6/2 208/6/2 209/6/2
f 208/2/2 204/2/2 210/2/2
f 209/6/2 208/6/2 210/6/2
f 206/2/2 209/2/2 211/2/2
f 209/2/2 210/2/2 211/2/2
f 210/2/2 204/2/2 212/2/2
f 211/2/2 210/2/2 212/2/2
f 206/2/2 211/2/2 213/2/2
f 211/6/2 212/6/2 214/6/2
f 213/2/2 211/2/2 214/2/2
f 212/2/2 204/2/2 215/2/2
f 214/6/2 212/6/2 215/6/2
f 215/2/2 204/2/2 216/2/2
f 217/6/2 218/6/2 222/6/2
f 222/6/2 218/6/2 223/6/2
f 219/6/2 220/6/2 224/6/2
f 224/6/2 220/6/2 225/6/2
f 221/6/2 222/6/2 227/6/2
f 227/6/2 222/6/2 228/6/2
f 225/6/2 226/6/2 231/6/2
f 231/6/2 226/6/2 232/6/2
f 228/6/2 229/6/2 233/6/2
f 233/6/2 229/6/2 234/6/2
f 230/6/2 231/6/2 237/6/2
f 237/6/2 231/6/2 238/6/2
f 235/6/2 236/6/2 240/6/2
f 240/6/2 236/6/2 241/6/2
f 239/6/2 240/6/2 243/6/2
f 240/5/2 241/5/2 244/5/2
f 243/6/2 240/6/2 244/6/2
f 241/6/2 242/6/2 245/6/2
f 244/5/2 241/5/2 245/5/2
f 245/6/2 242/6/2 246/6/2
f 244/6/2 245/6/2 248/6/2
f 248/6/2 245/6/2 249/6/2
f 247/1/2 248/1/2 251/1/2
f 249/1/2 250/1/2 251/1/2
f 248/1/2 249/1/2 251/1/2
f 251/1/2 250/1/2 252/1/2
f 252/1/2 250/1/2 253/1/2
f 253/1/2 250/1/2 254/1/2
f 252/2/2 253/2/2 255/2/2
f 255/2/2 253/2/2 256/2/2
f 257/1/2 258/1/2 259/1/2
f 259/1/2 258/1/2 260/1/2
f 260/1/2 258/1/2 261/1/2
f 261/1/2 258/1/2 262/1/2
f 260/6/2 261/6/2 264/6/2
f 264/6/2 261/6/2 265/6/2
f 263/6/2 264/6/2 267/6/2
f 264/4/2 265/4/2 268/4/2
f 267/6/2 264/6/2 268/6/2
f 265/6/2 266/6/2 269/6/2
f 268/4/2 265/4/2 269/4/2
f 269/6/2 266/6/2 270/6/2
f 268/6/2 269/6/2 271/6/2
f 271/6/2 269/6/2 272/6/2
f 275/1/3 274/1/3 273/1/3
f 277/1/3 275/1/3 273/1/3
f 277/2/3 276/2/3 275/2/3
f 278/2/3 276/2/3 277/2/3
f 279/1/3 277/1/3 273/1/3
f 280/1/3 277/1/3 279/1/3
f 285/2/3 282/2/3 281/2/3
f 286/2/3 282/2/3 285/2/3
f 288/6/3 284/6/3 283/6/3
f 289/6/3 284/6/3 288/6/3
f 293/2/3 287/2/3 286/2/3
f 294/2/3 287/2/3 293/2/3
f 295/6/3 288/6/3 283/6/3
f 295/5/3 289/5/3 288/5/3
f 296/6/3 284/6/3 289/6/3
f 296/5/3 289/5/3 295/5/3
f 297/3/3 291/3/3 290/3/3
f 298/3/3 291/3/3 297/3/3
f 299/2/3 293/2/3 292/2/3
f 300/2/3 293/2/3 299/2/3
f 301/6/3 295/6/3 283/6/3
f 301/6/3 296/6/3 295/6/3
f 302/6/3 284/6/3 296/6/3
f 302/6/3 296/6/3 301/6/3
f 307/1/3 304/1/3 303/1/3
f 308/6/3 306/6/3 305/6/3
f 309/6/3 306/6/3 308/6/3
f 311/6/3 310/6/3 309/6/3
f 312/6/3 310/6/3 311/6/3
f 313/5/3 312/5/3 311/5/3
f 314/5/3 312/5/3 313/5/3
f 315/1/3 307/1/3 303/1/3
f 315/6/3 308/6/3 307/6/3
f 316/6/3 308/6/3 315/6/3
f 317/6/3 314/6/3 313/6/3
f 318/6/3 314/6/3 317/6/3
f 319/1/3 315/1/3 303/1/3
f 320/1/3 315/1/3 319/1/3
f 321/6/3 317/6/3 316/6/3
f 322/6/3 317/6/3 321/6/3
f 329/6/3 324/6/3 323/6/3
f 330/6/3 324/6/3 329/6/3
f 331/6/3 326/6/3 325/6/3
f 332/6/3 326/6/3 331/6/3
f 337/2/3 328/2/3 327/2/3
f 338/2/3 328/2/3 337/2/3
f 340/6/3 334/6/3 333/6/3
f 341/6/3 334/6/3 340/6/3
f 342/1/3 336/1/3 335/1/3
f 343/1/3 336/1/3 342/1/3
f 346/2/3 328/2/3 338/2/3
f 347/6/3 340/6/3 339/6/3
f 348/6/3 340/6/3 347/6/3
f 349/6/3 342/6/3 341/6/3
f 350/1/3 343/1/3 342/1/3
f 350/6/3 342/6/3 349/6/3
f 351/2/3 344/2/3 343/2/3
f 351/1/3 343/1/3 350/1/3
f 352/2/3 344/2/3 351/2/3
f 353/2/3 346/2/3 345/2/3
f 354/2/3 328/2/3 346/2/3
f 354/2/3 346/2/3 353/2/3
f 359/6/3 349/6/3 348/6/3
f 360/6/3 349/6/3 359/6/3
f 361/1/3 351/1/3 350/1/3
f 362/1/3 351/1/3 361/1/3
f 363/6/3 356/6/3 355/6/3
f 364/6/3 356/6/3 363/6/3
f 365/6/3 358/6/3 357/6/3
f 366/6/3 358/6/3 365/6/3
f 373/6/3 368/6/3 367/6/3
f 374/6/3 368/6/3 373/6/3
f 375/6/3 370/6/3 369/6/3
f 376/6/3 370/6/3 375/6/3
f 377/2/3 372/2/3 371/2/3
f 378/2/3 372/2/3 377/2/3
f 385/2/3 379/2/3 378/2/3
f 386/2/3 379/2/3 385/2/3
f 387/6/3 381/6/3 380/6/3
f 388/6/3 381/6/3 387/6/3
f 389/6/3 383/6/3 382/6/3
f 390/6/3 383/6/3 389/6/3
f 391/2/3 385/2/3 384/2/3
f 392/2/3 385/2/3 391/2/3
f 400/2/3 394/2/3 393/2/3
f 400/2/3 395/2/3 394/2/3
f 400/2/3 397/2/3 396/2/3
f 400/2/3 396/2/3 395/2/3
f 401/2/3 397/2/3 400/2/3
f 402/2/3 397/2/3 401/2/3
f 403/2/3 397/2/3 402/2/3
f 404/2/3 397/2/3 403/2/3
f 405/1/3 399/1/3 398/1/3
f 406/1/3 399/1/3 405/1/3
f 411/1/3 408/1/3 407/1/3
f 412/6/3 410/6/3 409/6/3
f 412/1/3 408/1/3 411/1/3
f 412/6/3 409/6/3 408/6/3
f 413/6/3 410/6/3 412/6/3
f 414/6/3 410/6/3 413/6/3
f 415/2/4 416/2/4 417/2/4
f 417/2/4 416/2/4 418/2/4
f 419/6/4 420/6/4 422/6/4
f 420/6/4 421/6/4 422/6/4
f 422/6/4 421/6/4 423/6/4
f 423/6/4 421/6/4 424/6/4
f 425/2/4 426/2/4 430/2/4
f 428/2/4 429/2/4 433/2/4
f 427/2/4 428/2/4 433/2/4
f 429/2/4 430/2/4 433/2/4
f 433/2/4 430/2/4 434/2/4
f 434/2/4 430/2/4 435/2/4
f 430/2/4 426/2/4 436/2/4
f 435/2/4 430/2/4 436/2/4
f 431/1/4 432/1/4 437/1/4
f 437/1/4 432/1/4 438/1/4
f 436/2/4 426/2/4 439/2/4
f 439/2/4 426/2/4 440/2/4
f 441/6/4 442/6/4 447/6/4
f 447/6/4 442/6/4 448/6/4
f 443/6/4 444/6/4 449/6/4
f 449/6/4 444/6/4 450/6/4
f 445/2/4 446/2/4 451/2/4
f 451/2/4 446/2/4 452/2/4
f 452/2/4 453/2/4 459/2/4
f 459/2/4 453/2/4 460/2/4
f 454/6/4 455/6/4 461/6/4
f 461/6/4 455/6/4 462/6/4
f 456/6/4 457/6/4 463/6/4
f 463/6/4 457/6/4 464/6/4
f 458/2/4 459/2/4 465/2/4
f 465/2/4 459/2/4 466/2/4
f 467/6/4 468/6/4 474/6/4
f 474/6/4 468/6/4 475/6/4
f 469/6/4 470/6/4 476/6/4
f 476/6/4 470/6/4 477/6/4
f 478/6/4 479/6/4 483/6/4
f 483/6/4 479/6/4 484/6/4
f 480/1/4 481/1/4 485/1/4
f 485/1/4 481/1/4 486/1/4
f 483/6/4 484/6/4 490/6/4
f 482/6/4 483/6/4 490/6/4
f 484/6/4 485/6/4 490/6/4
f 490/6/4 485/6/4 491/6/4
f 491/6/4 485/6/4 492/6/4
f 485/1/4 486/1/4 493/1/4
f 492/6/4 485/6/4 493/6/4
f 486/2/4 487/2/4 494/2/4
f 493/1/4 486/1/4 494/1/4
f 494/2/4 487/2/4 495/2/4
f 488/6/4 489/6/4 496/6/4
f 496/6/4 489/6/4 497/6/4
f 471/1/4 472/1/4 498/1/4
f 472/2/4 473/2/4 499/2/4
f 498/1/4 472/1/4 499/1/4
f 499/2/4 473/2/4 500/2/4
f 491/6/4 492/6/4 505/6/4
f 505/6/4 492/6/4 506/6/4
f 493/1/4 494/1/4 507/1/4
f 507/1/4 494/1/4 508/1/4
f 501/6/4 502/6/4 509/6/4
f 509/6/4 502/6/4 510/6/4
f 503/6/4 504/6/4 511/6/4
f 511/6/4 504/6/4 512/6/4
f 513/1/4 514/1/4 517/1/4
f 515/6/4 516/6/4 518/6/4
f 518/6/4 516/6/4 519/6/4
f 513/1/4 517/1/4 521/1/4
f 517/6/4 518/6/4 521/6/4
f 521/6/4 518/6/4 522/6/4
f 519/6/4 520/6/4 523/6/4
f 523/6/4 520/6/4 524/6/4
f 513/1/4 521/1/4 525/1/4
f 525/1/4 521/1/4 526/1/4
f 522/6/4 523/6/4 527/6/4
f 527/6/4 523/6/4 528/6/4
f 529/6/4 530/6/4 531/6/4
f 531/6/4 530/6/4 532/6/4
f 535/1/5 534/1/5 533/1/5
f 536/1/5 534/1/5 535/1/5
f 537/1/5 535/1/5 533/1/5
f 537/6/5 536/6/5 535/6/5
f 538/1/5 534/1/5 536/1/5
f 538/6/5 536/6/5 537/6/5
f 539/1/5 537/1/5 533/1/5
f 539/1/5 538/1/5 537/1/5
f 540/1/5 534/1/5 538/1/5
f 540/1/5 538/1/5 539/1/5
f 543/2/5 542/2/5 541/2/5
f 544/2/5 542/2/5 543/2/5
f 547/1/5 546/1/5 545/1/5
f 548/1/5 546/1/5 547/1/5
f 549/1/5 547/1/5 545/1/5
f 550/1/5 546/1/5 548/1/5
f 551/1/5 549/1/5 545/1/5
f 552/1/5 546/1/5 550/1/5
f 553/1/5 551/1/5 545/1/5
f 554/1/5 546/1/5 552/1/5
f 555/1/5 553/1/5 545/1/5
f 555/1/5 554/1/5 553/1/5
f 556/1/5 546/1/5 554/1/5
f 556/1/5 554/1/5 555/1/5
f 560/6/5 558/6/5 557/6/5
f 561/6/5 558/6/5 560/6/5
f 563/6/5 560/6/5 559/6/5
f 564/6/5 560/6/5 563/6/5
f 565/6/5 562/6/5 561/6/5
f 566/6/5 562/6/5 565/6/5
f 571/6/5 568/6/5 567/6/5
f 572/6/5 568/6/5 571/6/5
f 573/6/5 570/6/5 569/6/5
f 574/6/5 570/6/5 573/6/5
f 575/6/5 573/6/5 572/6/5
f 576/6/5 573/6/5 575/6/5
f 579/6/5 578/6/5 577/6/5
f 580/6/5 578/6/5 579/6/5
f 584/3/5 582/3/5 581/3/5
f 585/3/5 582/3/5 584/3/5
f 587/6/5 584/6/5 583/6/5
f 588/6/5 584/6/5 587/6/5
f 589/6/5 586/6/5 585/6/5
f 590/6/5 586/6/5 589/6/5
f 595/6/5 592/6/5 591/6/5
f 596/6/5 592/6/5 595/6/5
f 597/6/5 594/6/5 593/6/5
f 598/6/5 594/6/5 597/6/5
f 603/1/5 600/1/5 599/1/5
f 604/1/5 600/1/5 603/1/5
f 605/1/5 602/1/5 601/1/5
f 606/1/5 602/1/5 605/1/5
f 611/1/5 608/1/5 607/1/5
f 612/1/5 608/1/5 611/1/5
f 613/1/5 610/1/5 609/1/5
f 614/1/5 610/1/5 613/1/5
f 617/2/5 616/2/5 615/2/5
f 618/2/5 616/2/5 617/2/5
f 621/6/5 620/6/5 619/6/5
f 622/6/5 620/6/5 621/6/5
f 623/1/6 624/1/6 627/1/6
f 627/1/6 624/1/6 628/1/6
f 625/1/6 626/1/6 629/1/6
f 629/1/6 626/1/6 630/1/6
f 628/6/6 629/6/6 631/6/6
f 631/6/6 629/6/6 632/6/6
f 633/2/6 634/2/6 636/2/6
f 636/2/6 634/2/6 637/2/6
f 635/2/6 636/2/6 639/2/6
f 639/2/6 636/2/6 640/2/6
f 637/2/6 638/2/6 641/2/6
f 641/2/6 638/2/6 642/2/6
f 643/2/6 644/2/6 645/2/6
f 645/2/6 644/2/6 646/2/6
f 647/6/6 648/6/6 651/6/6
f 651/6/6 648/6/6 652/6/6
f 649/6/6 650/6/6 653/6/6
f 653/6/6 650/6/6 654/6/6
f 651/2/6 652/2/6 655/2/6
f 652/2/6 653/2/6 655/2/6
f 653/2/6 654/2/6 655/2/6
f 655/2/6 654/2/6 656/2/6
f 657/1/6 658/1/6 661/1/6
f 661/1/6 658/1/6 662/1/6
f 659/1/6 660/1/6 663/1/6
f 663/1/6 660/1/6 664/1/6
f 662/2/6 663/2/6 665/2/6
f 665/2/6 663/2/6 666/2/6
f 667/1/6 668/1/6 671/1/6
f 671/1/6 668/1/6 672/1/6
f 669/1/6 670/1/6 673/1/6
f 673/1/6 670/1/6 674/1/6
f 675/6/6 676/6/6 678/6/6
f 678/6/6 676/6/6 679/6/6
f 679/6/6 676/6/6 680/6/6
f 680/6/6 676/6/6 681/6/6
f 677/6/6 678/6/6 683/6/6
f 683/6/6 678/6/6 684/6/6
f 681/6/6 682/6/6 685/6/6
f 685/6/6 682/6/6 686/6/6
f 687/6/6 688/6/6 691/6/6
f 691/6/6 688/6/6 692/6/6
f 689/6/6 690/6/6 693/6/6
f 693/6/6 690/6/6 694/6/6
f 692/6/6 693/6/6 695/6/6
f 695/6/6 693/6/6 696/6/6
f 697/6/6 698/6/6 702/6/6
f 698/5/6 699/5/6 703/5/6
f 702/6/6 698/6/6 703/6/6
f 699/6/6 700/6/6 704/6/6
f 703/5/6 699/5/6 704/5/6
f 704/6/6 700/6/6 705/6/6
f 702/6/6 703/6/6 707/6/6
f 701/6/6 702/6/6 707/6/6
f 707/6/6 703/6/6 708/6/6
f 705/6/6 706/6/6 709/6/6
f 704/6/6 705/6/6 709/6/6
f 709/6/6 706/6/6 710/6/6
f 701/6/6 707/6/6 711/6/6
f 710/6/6 706/6/6 714/6/6
f 711/6/6 712/6/6 715/6/6
f 701/6/6 711/6/6 715/6/6
f 715/6/6 712/6/6 716/6/6
f 716/6/6 712/6/6 717/6/6
f 713/6/6 714/6/6 718/6/6
f 714/6/6 706/6/6 719/6/6
f 718/6/6 714/6/6 719/6/6
f 719/6/6 706/6/6 720/6/6
f 716/6/6 717/6/6 721/6/6
f 717/6/6 718/6/6 721/6/6
f 718/6/6 719/6/6 721/6/6
f 721/6/6 719/6/6 722/6/6
f 723/3/6 724/3/6 726/3/6
f 726/3/6 724/3/6 727/3/6
f 725/6/6 726/6/6 729/6/6
f 729/6/6 726/6/6 730/6/6
f 727/6/6 728/6/6 731/6/6
f 731/6/6 728/6/6 732/6/6
f 733/6/6 734/6/6 737/6/6
f 737/6/6 734/6/6 738/6/6
f 735/6/6 736/6/6 739/6/6
f 739/6/6 736/6/6 740/6/6
f 741/6/6 742/6/6 743/6/6
f 743/6/6 742/6/6 744/6/6
f 745/1/6 746/1/6 749/1/6
f 749/1/6 746/1/6 750/1/6
f 747/1/6 748/1/6 751/1/6
f 751/1/6 748/1/6 752/1/6
f 753/1/6 754/1/6 757/1/6
f 757/1/6 754/1/6 758/1/6
f 755/1/6 756/1/6 759/1/6
f 759/1/6 756/1/6 760/1/6
f 761/2/6 762/2/6 764/2/6
f 764/2/6 762/2/6 765/2/6
f 763/2/6 764/2/6 767/2/6
f 767/2/6 764/2/6 768/2/6
f 765/2/6 766/2/6 769/2/6
f 769/2/6 766/2/6 770/2/6
f 768/2/6 769/2/6 771/2/6
f 771/2/6 769/2/6 772/2/6
f 773/2/6 774/2/6 775/2/6
f 775/2/6 774/2/6 776/2/6
f 775/6/6 776/6/6 777/6/6
f 777/6/6 776/6/6 778/6/6
