# MagicaVoxel @ Ephtracy

# group
o 

# material
mtllib ConveyorStraight.mtl
usemtl palette

# normals
vn -1 0 0
vn 1 0 0
vn 0 0 1
vn 0 0 -1
vn 0 -1 0
vn 0 1 0

# texcoords
vt 0.00976563 0.5
vt 0.150391 0.5
vt 0.154297 0.5
vt 0.158203 0.5

# verts
v -0.6 0 0.8
v -0.6 0 -0.8
v -0.6 0.2 0.8
v -0.6 0.2 -0.8
v -0.5 0.2 0.8
v -0.5 0.2 -0.8
v -0.5 0.3 0.8
v -0.5 0.3 -0.8
v -0.4 0.1 0.7
v -0.4 0.1 -0.7
v -0.4 0.2 0.7
v -0.4 0.2 -0.7
v -0.2 0.1 0.5
v -0.2 0.1 0.4
v -0.2 0.1 0.1
v -0.2 0.1 0
v -0.2 0.1 -0.3
v -0.2 0.1 -0.4
v -0.2 0.2 0.5
v -0.2 0.2 0.4
v -0.2 0.2 0.1
v -0.2 0.2 0
v -0.2 0.2 -0.3
v -0.2 0.2 -0.4
v -0.1 0.1 0.4
v -0.1 0.1 0.3
v -0.1 0.1 0
v -0.1 0.1 -0.1
v -0.1 0.1 -0.4
v -0.1 0.1 -0.5
v -0.1 0.2 0.4
v -0.1 0.2 0.3
v -0.1 0.2 0
v -0.1 0.2 -0.1
v -0.1 0.2 -0.4
v -0.1 0.2 -0.5
v 0.1 0.1 0.5
v 0.1 0.1 0.4
v 0.1 0.1 0.1
v 0.1 0.1 0
v 0.1 0.1 -0.3
v 0.1 0.1 -0.4
v 0.1 0.2 0.5
v 0.1 0.2 0.4
v 0.1 0.2 0.1
v 0.1 0.2 0
v 0.1 0.2 -0.3
v 0.1 0.2 -0.4
v 0.3 0.1 0.8
v 0.3 0.1 0.7
v 0.3 0.1 -0.7
v 0.3 0.1 -0.8
v 0.3 0.3 0.8
v 0.3 0.3 -0.8
v 0.5 0.1 0.7
v 0.5 0.1 -0.7
v 0.5 0.2 0.7
v 0.5 0.2 -0.7
v -0.5 0.1 0.7
v -0.5 0.1 -0.7
v -0.5 0.2 0.7
v -0.5 0.2 -0.7
v -0.3 0.1 0.8
v -0.3 0.1 0.7
v -0.3 0.1 -0.7
v -0.3 0.1 -0.8
v -0.3 0.3 0.8
v -0.3 0.3 -0.8
v -0.1 0.1 0.5
v -0.1 0.1 0.4
v -0.1 0.1 0.1
v -0.1 0.1 0
v -0.1 0.1 -0.3
v -0.1 0.1 -0.4
v -0.1 0.2 0.5
v -0.1 0.2 0.4
v -0.1 0.2 0.1
v -0.1 0.2 0
v -0.1 0.2 -0.3
v -0.1 0.2 -0.4
v 0.1 0.1 0.4
v 0.1 0.1 0.3
v 0.1 0.1 0
v 0.1 0.1 -0.1
v 0.1 0.1 -0.4
v 0.1 0.1 -0.5
v 0.1 0.2 0.4
v 0.1 0.2 0.3
v 0.1 0.2 0
v 0.1 0.2 -0.1
v 0.1 0.2 -0.4
v 0.1 0.2 -0.5
v 0.2 0.1 0.5
v 0.2 0.1 0.4
v 0.2 0.1 0.1
v 0.2 0.1 0
v 0.2 0.1 -0.3
v 0.2 0.1 -0.4
v 0.2 0.2 0.5
v 0.2 0.2 0.4
v 0.2 0.2 0.1
v 0.2 0.2 0
v 0.2 0.2 -0.3
v 0.2 0.2 -0.4
v 0.4 0.1 0.7
v 0.4 0.1 -0.7
v 0.4 0.2 0.7
v 0.4 0.2 -0.7
v 0.5 0.2 0.8
v 0.5 0.2 -0.8
v 0.5 0.3 0.8
v 0.5 0.3 -0.8
v 0.6 0 0.8
v 0.6 0 -0.8
v 0.6 0.2 0.8
v 0.6 0.2 -0.8
v -0.6 0 0.8
v -0.6 0.2 0.8
v -0.5 0.2 0.8
v -0.5 0.3 0.8
v -0.3 0 0.8
v -0.3 0.1 0.8
v -0.3 0.3 0.8
v 0.3 0 0.8
v 0.3 0.1 0.8
v 0.3 0.3 0.8
v 0.5 0.2 0.8
v 0.5 0.3 0.8
v 0.6 0 0.8
v 0.6 0.2 0.8
v -0.2 0.1 0.5
v -0.2 0.2 0.5
v -0.1 0.1 0.5
v -0.1 0.2 0.5
v 0.1 0.1 0.5
v 0.1 0.2 0.5
v 0.2 0.1 0.5
v 0.2 0.2 0.5
v -0.1 0.1 0.4
v -0.1 0.2 0.4
v 0.1 0.1 0.4
v 0.1 0.2 0.4
v -0.2 0.1 0.1
v -0.2 0.2 0.1
v -0.1 0.1 0.1
v -0.1 0.2 0.1
v 0.1 0.1 0.1
v 0.1 0.2 0.1
v 0.2 0.1 0.1
v 0.2 0.2 0.1
v -0.1 0.1 0
v -0.1 0.2 0
v 0.1 0.1 0
v 0.1 0.2 0
v -0.2 0.1 -0.3
v -0.2 0.2 -0.3
v -0.1 0.1 -0.3
v -0.1 0.2 -0.3
v 0.1 0.1 -0.3
v 0.1 0.2 -0.3
v 0.2 0.1 -0.3
v 0.2 0.2 -0.3
v -0.1 0.1 -0.4
v -0.1 0.2 -0.4
v 0.1 0.1 -0.4
v 0.1 0.2 -0.4
v -0.5 0.1 -0.7
v -0.5 0.2 -0.7
v -0.4 0.1 -0.7
v -0.4 0.2 -0.7
v 0.4 0.1 -0.7
v 0.4 0.2 -0.7
v 0.5 0.1 -0.7
v 0.5 0.2 -0.7
v -0.5 0.1 0.7
v -0.5 0.2 0.7
v -0.4 0.1 0.7
v -0.4 0.2 0.7
v 0.4 0.1 0.7
v 0.4 0.2 0.7
v 0.5 0.1 0.7
v 0.5 0.2 0.7
v -0.2 0.1 0.4
v -0.2 0.2 0.4
v -0.1 0.1 0.4
v -0.1 0.2 0.4
v 0.1 0.1 0.4
v 0.1 0.2 0.4
v 0.2 0.1 0.4
v 0.2 0.2 0.4
v -0.1 0.1 0.3
v -0.1 0.2 0.3
v 0.1 0.1 0.3
v 0.1 0.2 0.3
v -0.2 0.1 0
v -0.2 0.2 0
v -0.1 0.1 0
v -0.1 0.2 0
v 0.1 0.1 0
v 0.1 0.2 0
v 0.2 0.1 0
v 0.2 0.2 0
v -0.1 0.1 -0.1
v -0.1 0.2 -0.1
v 0.1 0.1 -0.1
v 0.1 0.2 -0.1
v -0.2 0.1 -0.4
v -0.2 0.2 -0.4
v -0.1 0.1 -0.4
v -0.1 0.2 -0.4
v 0.1 0.1 -0.4
v 0.1 0.2 -0.4
v 0.2 0.1 -0.4
v 0.2 0.2 -0.4
v -0.1 0.1 -0.5
v -0.1 0.2 -0.5
v 0.1 0.1 -0.5
v 0.1 0.2 -0.5
v -0.6 0 -0.8
v -0.6 0.2 -0.8
v -0.5 0.2 -0.8
v -0.5 0.3 -0.8
v -0.3 0 -0.8
v -0.3 0.1 -0.8
v -0.3 0.3 -0.8
v 0.3 0 -0.8
v 0.3 0.1 -0.8
v 0.3 0.3 -0.8
v 0.5 0.2 -0.8
v 0.5 0.3 -0.8
v 0.6 0 -0.8
v 0.6 0.2 -0.8
v -0.6 0 0.8
v -0.3 0 0.8
v 0.3 0 0.8
v 0.6 0 0.8
v -0.3 0 0.7
v 0.3 0 0.7
v -0.3 0 -0.7
v 0.3 0 -0.7
v -0.6 0 -0.8
v -0.3 0 -0.8
v 0.3 0 -0.8
v 0.6 0 -0.8
v -0.5 0.2 0.7
v -0.4 0.2 0.7
v 0.4 0.2 0.7
v 0.5 0.2 0.7
v -0.5 0.2 -0.7
v -0.4 0.2 -0.7
v 0.4 0.2 -0.7
v 0.5 0.2 -0.7
v -0.3 0.1 0.8
v 0.3 0.1 0.8
v -0.5 0.1 0.7
v -0.4 0.1 0.7
v -0.3 0.1 0.7
v 0.3 0.1 0.7
v 0.4 0.1 0.7
v 0.5 0.1 0.7
v -0.2 0.1 0.5
v -0.1 0.1 0.5
v 0.1 0.1 0.5
v 0.2 0.1 0.5
v -0.2 0.1 0.4
v -0.1 0.1 0.4
v 0.1 0.1 0.4
v 0.2 0.1 0.4
v -0.1 0.1 0.3
v 0.1 0.1 0.3
v -0.2 0.1 0.1
v -0.1 0.1 0.1
v 0.1 0.1 0.1
v 0.2 0.1 0.1
v -0.2 0.1 0
v -0.1 0.1 0
v 0.1 0.1 0
v 0.2 0.1 0
v -0.1 0.1 -0.1
v 0.1 0.1 -0.1
v -0.2 0.1 -0.3
v -0.1 0.1 -0.3
v 0.1 0.1 -0.3
v 0.2 0.1 -0.3
v -0.2 0.1 -0.4
v -0.1 0.1 -0.4
v 0.1 0.1 -0.4
v 0.2 0.1 -0.4
v -0.1 0.1 -0.5
v 0.1 0.1 -0.5
v -0.5 0.1 -0.7
v -0.4 0.1 -0.7
v -0.3 0.1 -0.7
v 0.3 0.1 -0.7
v 0.4 0.1 -0.7
v 0.5 0.1 -0.7
v -0.3 0.1 -0.8
v 0.3 0.1 -0.8
v -0.6 0.2 0.8
v -0.5 0.2 0.8
v 0.5 0.2 0.8
v 0.6 0.2 0.8
v -0.2 0.2 0.5
v -0.1 0.2 0.5
v 0.1 0.2 0.5
v 0.2 0.2 0.5
v -0.2 0.2 0.4
v -0.1 0.2 0.4
v 0.1 0.2 0.4
v 0.2 0.2 0.4
v -0.1 0.2 0.3
v 0.1 0.2 0.3
v -0.2 0.2 0.1
v -0.1 0.2 0.1
v 0.1 0.2 0.1
v 0.2 0.2 0.1
v -0.2 0.2 0
v -0.1 0.2 0
v 0.1 0.2 0
v 0.2 0.2 0
v -0.1 0.2 -0.1
v 0.1 0.2 -0.1
v -0.2 0.2 -0.3
v -0.1 0.2 -0.3
v 0.1 0.2 -0.3
v 0.2 0.2 -0.3
v -0.2 0.2 -0.4
v -0.1 0.2 -0.4
v 0.1 0.2 -0.4
v 0.2 0.2 -0.4
v -0.1 0.2 -0.5
v 0.1 0.2 -0.5
v -0.6 0.2 -0.8
v -0.5 0.2 -0.8
v 0.5 0.2 -0.8
v 0.6 0.2 -0.8
v -0.5 0.3 0.8
v -0.3 0.3 0.8
v 0.3 0.3 0.8
v 0.5 0.3 0.8
v -0.5 0.3 -0.8
v -0.3 0.3 -0.8
v 0.3 0.3 -0.8
v 0.5 0.3 -0.8

# faces
f 3/4/1 2/4/1 1/4/1
f 4/4/1 2/4/1 3/4/1
f 7/4/1 6/4/1 5/4/1
f 8/4/1 6/4/1 7/4/1
f 11/4/1 10/4/1 9/4/1
f 12/4/1 10/4/1 11/4/1
f 19/1/1 14/1/1 13/1/1
f 20/1/1 14/1/1 19/1/1
f 21/1/1 16/1/1 15/1/1
f 22/1/1 16/1/1 21/1/1
f 23/1/1 18/1/1 17/1/1
f 24/1/1 18/1/1 23/1/1
f 31/1/1 26/1/1 25/1/1
f 32/1/1 26/1/1 31/1/1
f 33/1/1 28/1/1 27/1/1
f 34/1/1 28/1/1 33/1/1
f 35/1/1 30/1/1 29/1/1
f 36/1/1 30/1/1 35/1/1
f 43/1/1 38/1/1 37/1/1
f 44/1/1 38/1/1 43/1/1
f 45/1/1 40/1/1 39/1/1
f 46/1/1 40/1/1 45/1/1
f 47/1/1 42/1/1 41/1/1
f 48/1/1 42/1/1 47/1/1
f 53/4/1 50/4/1 49/4/1
f 53/4/1 52/4/1 51/4/1
f 53/4/1 51/4/1 50/4/1
f 54/4/1 52/4/1 53/4/1
f 57/4/1 56/4/1 55/4/1
f 58/4/1 56/4/1 57/4/1
f 59/4/2 60/4/2 61/4/2
f 61/4/2 60/4/2 62/4/2
f 63/4/2 64/4/2 67/4/2
f 65/4/2 66/4/2 67/4/2
f 64/4/2 65/4/2 67/4/2
f 67/4/2 66/4/2 68/4/2
f 69/1/2 70/1/2 75/1/2
f 75/1/2 70/1/2 76/1/2
f 71/1/2 72/1/2 77/1/2
f 77/1/2 72/1/2 78/1/2
f 73/1/2 74/1/2 79/1/2
f 79/1/2 74/1/2 80/1/2
f 81/1/2 82/1/2 87/1/2
f 87/1/2 82/1/2 88/1/2
f 83/1/2 84/1/2 89/1/2
f 89/1/2 84/1/2 90/1/2
f 85/1/2 86/1/2 91/1/2
f 91/1/2 86/1/2 92/1/2
f 93/1/2 94/1/2 99/1/2
f 99/1/2 94/1/2 100/1/2
f 95/1/2 96/1/2 101/1/2
f 101/1/2 96/1/2 102/1/2
f 97/1/2 98/1/2 103/1/2
f 103/1/2 98/1/2 104/1/2
f 105/4/2 106/4/2 107/4/2
f 107/4/2 106/4/2 108/4/2
f 109/4/2 110/4/2 111/4/2
f 111/4/2 110/4/2 112/4/2
f 113/4/2 114/4/2 115/4/2
f 115/4/2 114/4/2 116/4/2
f 119/4/3 118/4/3 117/4/3
f 121/4/3 119/4/3 117/4/3
f 121/4/3 120/4/3 119/4/3
f 122/4/3 120/4/3 121/4/3
f 123/4/3 120/4/3 122/4/3
f 124/2/3 122/2/3 121/2/3
f 125/2/3 122/2/3 124/2/3
f 127/4/3 125/4/3 124/4/3
f 127/4/3 126/4/3 125/4/3
f 128/4/3 126/4/3 127/4/3
f 129/4/3 127/4/3 124/4/3
f 130/4/3 127/4/3 129/4/3
f 133/1/3 132/1/3 131/1/3
f 134/1/3 132/1/3 133/1/3
f 137/1/3 136/1/3 135/1/3
f 138/1/3 136/1/3 137/1/3
f 141/1/3 140/1/3 139/1/3
f 142/1/3 140/1/3 141/1/3
f 145/1/3 144/1/3 143/1/3
f 146/1/3 144/1/3 145/1/3
f 149/1/3 148/1/3 147/1/3
f 150/1/3 148/1/3 149/1/3
f 153/1/3 152/1/3 151/1/3
f 154/1/3 152/1/3 153/1/3
f 157/1/3 156/1/3 155/1/3
f 158/1/3 156/1/3 157/1/3
f 161/1/3 160/1/3 159/1/3
f 162/1/3 160/1/3 161/1/3
f 165/1/3 164/1/3 163/1/3
f 166/1/3 164/1/3 165/1/3
f 169/4/3 168/4/3 167/4/3
f 170/4/3 168/4/3 169/4/3
f 173/4/3 172/4/3 171/4/3
f 174/4/3 172/4/3 173/4/3
f 175/4/4 176/4/4 177/4/4
f 177/4/4 176/4/4 178/4/4
f 179/4/4 180/4/4 181/4/4
f 181/4/4 180/4/4 182/4/4
f 183/1/4 184/1/4 185/1/4
f 185/1/4 184/1/4 186/1/4
f 187/1/4 188/1/4 189/1/4
f 189/1/4 188/1/4 190/1/4
f 191/1/4 192/1/4 193/1/4
f 193/1/4 192/1/4 194/1/4
f 195/1/4 196/1/4 197/1/4
f 197/1/4 196/1/4 198/1/4
f 199/1/4 200/1/4 201/1/4
f 201/1/4 200/1/4 202/1/4
f 203/1/4 204/1/4 205/1/4
f 205/1/4 204/1/4 206/1/4
f 207/1/4 208/1/4 209/1/4
f 209/1/4 208/1/4 210/1/4
f 211/1/4 212/1/4 213/1/4
f 213/1/4 212/1/4 214/1/4
f 215/1/4 216/1/4 217/1/4
f 217/1/4 216/1/4 218/1/4
f 219/4/4 220/4/4 221/4/4
f 219/4/4 221/4/4 223/4/4
f 221/4/4 222/4/4 223/4/4
f 223/4/4 222/4/4 224/4/4
f 224/4/4 222/4/4 225/4/4
f 223/2/4 224/2/4 226/2/4
f 226/2/4 224/2/4 227/2/4
f 226/4/4 227/4/4 229/4/4
f 227/4/4 228/4/4 229/4/4
f 229/4/4 228/4/4 230/4/4
f 226/4/4 229/4/4 231/4/4
f 231/4/4 229/4/4 232/4/4
f 237/4/5 234/4/5 233/4/5
f 237/2/5 235/2/5 234/2/5
f 238/4/5 236/4/5 235/4/5
f 238/2/5 235/2/5 237/2/5
f 239/4/5 237/4/5 233/4/5
f 239/3/5 238/3/5 237/3/5
f 240/4/5 236/4/5 238/4/5
f 240/3/5 238/3/5 239/3/5
f 241/4/5 239/4/5 233/4/5
f 242/2/5 240/2/5 239/2/5
f 242/4/5 239/4/5 241/4/5
f 243/4/5 236/4/5 240/4/5
f 243/2/5 240/2/5 242/2/5
f 244/4/5 236/4/5 243/4/5
f 249/4/5 246/4/5 245/4/5
f 250/4/5 246/4/5 249/4/5
f 251/4/5 248/4/5 247/4/5
f 252/4/5 248/4/5 251/4/5
f 253/2/6 254/2/6 257/2/6
f 257/2/6 254/2/6 258/2/6
f 257/3/6 258/3/6 261/3/6
f 261/3/6 258/3/6 262/3/6
f 262/3/6 258/3/6 263/3/6
f 263/3/6 258/3/6 264/3/6
f 257/3/6 261/3/6 265/3/6
f 262/3/6 263/3/6 266/3/6
f 266/3/6 263/3/6 267/3/6
f 264/3/6 258/3/6 268/3/6
f 265/3/6 266/3/6 269/3/6
f 267/3/6 268/3/6 270/3/6
f 265/3/6 269/3/6 271/3/6
f 269/3/6 270/3/6 271/3/6
f 257/3/6 265/3/6 271/3/6
f 271/3/6 270/3/6 272/3/6
f 270/3/6 268/3/6 273/3/6
f 272/3/6 270/3/6 273/3/6
f 268/3/6 258/3/6 274/3/6
f 273/3/6 268/3/6 274/3/6
f 257/3/6 271/3/6 275/3/6
f 272/3/6 273/3/6 276/3/6
f 276/3/6 273/3/6 277/3/6
f 274/3/6 258/3/6 278/3/6
f 275/3/6 276/3/6 279/3/6
f 277/3/6 278/3/6 280/3/6
f 275/3/6 279/3/6 281/3/6
f 279/3/6 280/3/6 281/3/6
f 257/3/6 275/3/6 281/3/6
f 281/3/6 280/3/6 282/3/6
f 280/3/6 278/3/6 283/3/6
f 282/3/6 280/3/6 283/3/6
f 278/3/6 258/3/6 284/3/6
f 283/3/6 278/3/6 284/3/6
f 257/3/6 281/3/6 285/3/6
f 282/3/6 283/3/6 286/3/6
f 286/3/6 283/3/6 287/3/6
f 284/3/6 258/3/6 288/3/6
f 285/3/6 286/3/6 289/3/6
f 287/3/6 288/3/6 290/3/6
f 255/4/6 256/4/6 291/4/6
f 291/4/6 256/4/6 292/4/6
f 289/3/6 290/3/6 293/3/6
f 285/3/6 289/3/6 293/3/6
f 257/3/6 285/3/6 293/3/6
f 290/3/6 288/3/6 294/3/6
f 293/3/6 290/3/6 294/3/6
f 288/3/6 258/3/6 294/3/6
f 259/4/6 260/4/6 295/4/6
f 295/4/6 260/4/6 296/4/6
f 293/2/6 294/2/6 297/2/6
f 297/2/6 294/2/6 298/2/6
f 303/1/6 304/1/6 307/1/6
f 307/1/6 304/1/6 308/1/6
f 305/1/6 306/1/6 309/1/6
f 309/1/6 306/1/6 310/1/6
f 308/1/6 309/1/6 311/1/6
f 311/1/6 309/1/6 312/1/6
f 313/1/6 314/1/6 317/1/6
f 317/1/6 314/1/6 318/1/6
f 315/1/6 316/1/6 319/1/6
f 319/1/6 316/1/6 320/1/6
f 318/1/6 319/1/6 321/1/6
f 321/1/6 319/1/6 322/1/6
f 323/1/6 324/1/6 327/1/6
f 327/1/6 324/1/6 328/1/6
f 325/1/6 326/1/6 329/1/6
f 329/1/6 326/1/6 330/1/6
f 328/1/6 329/1/6 331/1/6
f 331/1/6 329/1/6 332/1/6
f 299/4/6 300/4/6 333/4/6
f 333/4/6 300/4/6 334/4/6
f 301/4/6 302/4/6 335/4/6
f 335/4/6 302/4/6 336/4/6
f 337/4/6 338/4/6 341/4/6
f 341/4/6 338/4/6 342/4/6
f 339/4/6 340/4/6 343/4/6
f 343/4/6 340/4/6 344/4/6
