# MagicaVoxel @ Ephtracy

# group
o 

# material
mtllib BackgroundTile.mtl
usemtl palette

# normals
vn -1 0 0
vn 1 0 0
vn 0 0 1
vn 0 0 -1
vn 0 -1 0
vn 0 1 0

# texcoords
vt 0.142578 0.5
vt 0.150391 0.5
vt 0.162109 0.5
vt 0.166016 0.5

# verts
v -0.5 0 0.5
v -0.5 0 0.3
v -0.5 0 -0.3
v -0.5 0 -0.5
v -0.5 0.1 0.4
v -0.5 0.1 0.3
v -0.5 0.1 -0.3
v -0.5 0.1 -0.4
v -0.5 0.2 0.5
v -0.5 0.2 0.4
v -0.5 0.2 0.3
v -0.5 0.2 0.2
v -0.5 0.2 -0.2
v -0.5 0.2 -0.3
v -0.5 0.2 -0.4
v -0.5 0.2 -0.5
v -0.5 0.3 0.3
v -0.5 0.3 0.2
v -0.5 0.3 -0.2
v -0.5 0.3 -0.3
v -0.5 0.7 0.3
v -0.5 0.7 0.2
v -0.5 0.7 -0.2
v -0.5 0.7 -0.3
v -0.5 0.8 0.5
v -0.5 0.8 0.4
v -0.5 0.8 0.3
v -0.5 0.8 0.2
v -0.5 0.8 -0.2
v -0.5 0.8 -0.3
v -0.5 0.8 -0.4
v -0.5 0.8 -0.5
v -0.5 0.9 0.4
v -0.5 0.9 0.3
v -0.5 0.9 -0.3
v -0.5 0.9 -0.4
v -0.5 1 0.5
v -0.5 1 0.3
v -0.5 1 -0.3
v -0.5 1 -0.5
v 0.4 0.1 0.4
v 0.4 0.1 0.3
v 0.4 0.1 -0.3
v 0.4 0.1 -0.4
v 0.4 0.2 0.4
v 0.4 0.2 0.3
v 0.4 0.2 0.2
v 0.4 0.2 -0.2
v 0.4 0.2 -0.3
v 0.4 0.2 -0.4
v 0.4 0.3 0.3
v 0.4 0.3 0.2
v 0.4 0.3 -0.2
v 0.4 0.3 -0.3
v 0.4 0.7 0.3
v 0.4 0.7 0.2
v 0.4 0.7 -0.2
v 0.4 0.7 -0.3
v 0.4 0.8 0.4
v 0.4 0.8 0.3
v 0.4 0.8 0.2
v 0.4 0.8 -0.2
v 0.4 0.8 -0.3
v 0.4 0.8 -0.4
v 0.4 0.9 0.4
v 0.4 0.9 0.3
v 0.4 0.9 -0.3
v 0.4 0.9 -0.4
v -0.4 0.1 0.4
v -0.4 0.1 0.3
v -0.4 0.1 -0.3
v -0.4 0.1 -0.4
v -0.4 0.2 0.4
v -0.4 0.2 0.3
v -0.4 0.2 0.2
v -0.4 0.2 -0.2
v -0.4 0.2 -0.3
v -0.4 0.2 -0.4
v -0.4 0.3 0.3
v -0.4 0.3 0.2
v -0.4 0.3 -0.2
v -0.4 0.3 -0.3
v -0.4 0.7 0.3
v -0.4 0.7 0.2
v -0.4 0.7 -0.2
v -0.4 0.7 -0.3
v -0.4 0.8 0.4
v -0.4 0.8 0.3
v -0.4 0.8 0.2
v -0.4 0.8 -0.2
v -0.4 0.8 -0.3
v -0.4 0.8 -0.4
v -0.4 0.9 0.4
v -0.4 0.9 0.3
v -0.4 0.9 -0.3
v -0.4 0.9 -0.4
v 0.5 0 0.5
v 0.5 0 0.3
v 0.5 0 -0.3
v 0.5 0 -0.5
v 0.5 0.1 0.4
v 0.5 0.1 0.3
v 0.5 0.1 -0.3
v 0.5 0.1 -0.4
v 0.5 0.2 0.5
v 0.5 0.2 0.4
v 0.5 0.2 0.3
v 0.5 0.2 0.2
v 0.5 0.2 -0.2
v 0.5 0.2 -0.3
v 0.5 0.2 -0.4
v 0.5 0.2 -0.5
v 0.5 0.3 0.3
v 0.5 0.3 0.2
v 0.5 0.3 -0.2
v 0.5 0.3 -0.3
v 0.5 0.7 0.3
v 0.5 0.7 0.2
v 0.5 0.7 -0.2
v 0.5 0.7 -0.3
v 0.5 0.8 0.5
v 0.5 0.8 0.4
v 0.5 0.8 0.3
v 0.5 0.8 0.2
v 0.5 0.8 -0.2
v 0.5 0.8 -0.3
v 0.5 0.8 -0.4
v 0.5 0.8 -0.5
v 0.5 0.9 0.4
v 0.5 0.9 0.3
v 0.5 0.9 -0.3
v 0.5 0.9 -0.4
v 0.5 1 0.5
v 0.5 1 0.3
v 0.5 1 -0.3
v 0.5 1 -0.5
v -0.5 0 0.5
v -0.5 0.2 0.5
v -0.5 0.8 0.5
v -0.5 1 0.5
v -0.4 0.1 0.5
v -0.4 0.2 0.5
v -0.4 0.8 0.5
v -0.4 0.9 0.5
v -0.3 0 0.5
v -0.3 0.1 0.5
v -0.3 0.2 0.5
v -0.3 0.3 0.5
v -0.3 0.7 0.5
v -0.3 0.8 0.5
v -0.3 0.9 0.5
v -0.3 1 0.5
v -0.2 0.2 0.5
v -0.2 0.3 0.5
v -0.2 0.7 0.5
v -0.2 0.8 0.5
v 0.2 0.2 0.5
v 0.2 0.3 0.5
v 0.2 0.7 0.5
v 0.2 0.8 0.5
v 0.3 0 0.5
v 0.3 0.1 0.5
v 0.3 0.2 0.5
v 0.3 0.3 0.5
v 0.3 0.7 0.5
v 0.3 0.8 0.5
v 0.3 0.9 0.5
v 0.3 1 0.5
v 0.4 0.1 0.5
v 0.4 0.2 0.5
v 0.4 0.8 0.5
v 0.4 0.9 0.5
v 0.5 0 0.5
v 0.5 0.2 0.5
v 0.5 0.8 0.5
v 0.5 1 0.5
v -0.4 0.1 -0.4
v -0.4 0.2 -0.4
v -0.4 0.8 -0.4
v -0.4 0.9 -0.4
v -0.3 0.1 -0.4
v -0.3 0.2 -0.4
v -0.3 0.3 -0.4
v -0.3 0.7 -0.4
v -0.3 0.8 -0.4
v -0.3 0.9 -0.4
v -0.2 0.2 -0.4
v -0.2 0.3 -0.4
v -0.2 0.7 -0.4
v -0.2 0.8 -0.4
v 0.2 0.2 -0.4
v 0.2 0.3 -0.4
v 0.2 0.7 -0.4
v 0.2 0.8 -0.4
v 0.3 0.1 -0.4
v 0.3 0.2 -0.4
v 0.3 0.3 -0.4
v 0.3 0.7 -0.4
v 0.3 0.8 -0.4
v 0.3 0.9 -0.4
v 0.4 0.1 -0.4
v 0.4 0.2 -0.4
v 0.4 0.8 -0.4
v 0.4 0.9 -0.4
v -0.4 0.1 0.4
v -0.4 0.2 0.4
v -0.4 0.8 0.4
v -0.4 0.9 0.4
v -0.3 0.1 0.4
v -0.3 0.2 0.4
v -0.3 0.3 0.4
v -0.3 0.7 0.4
v -0.3 0.8 0.4
v -0.3 0.9 0.4
v -0.2 0.2 0.4
v -0.2 0.3 0.4
v -0.2 0.7 0.4
v -0.2 0.8 0.4
v 0.2 0.2 0.4
v 0.2 0.3 0.4
v 0.2 0.7 0.4
v 0.2 0.8 0.4
v 0.3 0.1 0.4
v 0.3 0.2 0.4
v 0.3 0.3 0.4
v 0.3 0.7 0.4
v 0.3 0.8 0.4
v 0.3 0.9 0.4
v 0.4 0.1 0.4
v 0.4 0.2 0.4
v 0.4 0.8 0.4
v 0.4 0.9 0.4
v -0.5 0 -0.5
v -0.5 0.2 -0.5
v -0.5 0.8 -0.5
v -0.5 1 -0.5
v -0.4 0.1 -0.5
v -0.4 0.2 -0.5
v -0.4 0.8 -0.5
v -0.4 0.9 -0.5
v -0.3 0 -0.5
v -0.3 0.1 -0.5
v -0.3 0.2 -0.5
v -0.3 0.3 -0.5
v -0.3 0.7 -0.5
v -0.3 0.8 -0.5
v -0.3 0.9 -0.5
v -0.3 1 -0.5
v -0.2 0.2 -0.5
v -0.2 0.3 -0.5
v -0.2 0.7 -0.5
v -0.2 0.8 -0.5
v 0.2 0.2 -0.5
v 0.2 0.3 -0.5
v 0.2 0.7 -0.5
v 0.2 0.8 -0.5
v 0.3 0 -0.5
v 0.3 0.1 -0.5
v 0.3 0.2 -0.5
v 0.3 0.3 -0.5
v 0.3 0.7 -0.5
v 0.3 0.8 -0.5
v 0.3 0.9 -0.5
v 0.3 1 -0.5
v 0.4 0.1 -0.5
v 0.4 0.2 -0.5
v 0.4 0.8 -0.5
v 0.4 0.9 -0.5
v 0.5 0 -0.5
v 0.5 0.2 -0.5
v 0.5 0.8 -0.5
v 0.5 1 -0.5
v -0.5 0 0.5
v -0.3 0 0.5
v 0.3 0 0.5
v 0.5 0 0.5
v -0.4 0 0.4
v -0.3 0 0.4
v 0.3 0 0.4
v 0.4 0 0.4
v -0.5 0 0.3
v -0.4 0 0.3
v -0.3 0 0.3
v -0.2 0 0.3
v 0.2 0 0.3
v 0.3 0 0.3
v 0.4 0 0.3
v 0.5 0 0.3
v -0.3 0 0.2
v -0.2 0 0.2
v 0.2 0 0.2
v 0.3 0 0.2
v -0.3 0 -0.2
v -0.2 0 -0.2
v 0.2 0 -0.2
v 0.3 0 -0.2
v -0.5 0 -0.3
v -0.4 0 -0.3
v -0.3 0 -0.3
v -0.2 0 -0.3
v 0.2 0 -0.3
v 0.3 0 -0.3
v 0.4 0 -0.3
v 0.5 0 -0.3
v -0.4 0 -0.4
v -0.3 0 -0.4
v 0.3 0 -0.4
v 0.4 0 -0.4
v -0.5 0 -0.5
v -0.3 0 -0.5
v 0.3 0 -0.5
v 0.5 0 -0.5
v -0.4 0.9 0.4
v -0.3 0.9 0.4
v 0.3 0.9 0.4
v 0.4 0.9 0.4
v -0.4 0.9 0.3
v -0.3 0.9 0.3
v -0.2 0.9 0.3
v 0.2 0.9 0.3
v 0.3 0.9 0.3
v 0.4 0.9 0.3
v -0.3 0.9 0.2
v -0.2 0.9 0.2
v 0.2 0.9 0.2
v 0.3 0.9 0.2
v -0.3 0.9 -0.2
v -0.2 0.9 -0.2
v 0.2 0.9 -0.2
v 0.3 0.9 -0.2
v -0.4 0.9 -0.3
v -0.3 0.9 -0.3
v -0.2 0.9 -0.3
v 0.2 0.9 -0.3
v 0.3 0.9 -0.3
v 0.4 0.9 -0.3
v -0.4 0.9 -0.4
v -0.3 0.9 -0.4
v 0.3 0.9 -0.4
v 0.4 0.9 -0.4
v -0.4 0.1 0.4
v -0.3 0.1 0.4
v 0.3 0.1 0.4
v 0.4 0.1 0.4
v -0.4 0.1 0.3
v -0.3 0.1 0.3
v -0.2 0.1 0.3
v 0.2 0.1 0.3
v 0.3 0.1 0.3
v 0.4 0.1 0.3
v -0.3 0.1 0.2
v -0.2 0.1 0.2
v 0.2 0.1 0.2
v 0.3 0.1 0.2
v -0.3 0.1 -0.2
v -0.2 0.1 -0.2
v 0.2 0.1 -0.2
v 0.3 0.1 -0.2
v -0.4 0.1 -0.3
v -0.3 0.1 -0.3
v -0.2 0.1 -0.3
v 0.2 0.1 -0.3
v 0.3 0.1 -0.3
v 0.4 0.1 -0.3
v -0.4 0.1 -0.4
v -0.3 0.1 -0.4
v 0.3 0.1 -0.4
v 0.4 0.1 -0.4
v -0.5 1 0.5
v -0.3 1 0.5
v 0.3 1 0.5
v 0.5 1 0.5
v -0.4 1 0.4
v -0.3 1 0.4
v 0.3 1 0.4
v 0.4 1 0.4
v -0.5 1 0.3
v -0.4 1 0.3
v -0.3 1 0.3
v -0.2 1 0.3
v 0.2 1 0.3
v 0.3 1 0.3
v 0.4 1 0.3
v 0.5 1 0.3
v -0.3 1 0.2
v -0.2 1 0.2
v 0.2 1 0.2
v 0.3 1 0.2
v -0.3 1 -0.2
v -0.2 1 -0.2
v 0.2 1 -0.2
v 0.3 1 -0.2
v -0.5 1 -0.3
v -0.4 1 -0.3
v -0.3 1 -0.3
v -0.2 1 -0.3
v 0.2 1 -0.3
v 0.3 1 -0.3
v 0.4 1 -0.3
v 0.5 1 -0.3
v -0.4 1 -0.4
v -0.3 1 -0.4
v 0.3 1 -0.4
v 0.4 1 -0.4
v -0.5 1 -0.5
v -0.3 1 -0.5
v 0.3 1 -0.5
v 0.5 1 -0.5

# faces
f 5/1/1 2/1/1 1/1/1
f 6/2/1 3/2/1 2/2/1
f 6/1/1 2/1/1 5/1/1
f 7/1/1 4/1/1 3/1/1
f 7/2/1 3/2/1 6/2/1
f 8/1/1 4/1/1 7/1/1
f 9/1/1 5/1/1 1/1/1
f 10/2/1 6/2/1 5/2/1
f 10/1/1 5/1/1 9/1/1
f 11/3/1 7/3/1 6/3/1
f 11/2/1 6/2/1 10/2/1
f 12/3/1 7/3/1 11/3/1
f 13/3/1 7/3/1 12/3/1
f 14/2/1 8/2/1 7/2/1
f 14/3/1 7/3/1 13/3/1
f 15/1/1 4/1/1 8/1/1
f 15/2/1 8/2/1 14/2/1
f 16/1/1 4/1/1 15/1/1
f 17/3/1 11/3/1 10/3/1
f 17/3/1 12/3/1 11/3/1
f 18/4/1 13/4/1 12/4/1
f 18/3/1 12/3/1 17/3/1
f 19/3/1 14/3/1 13/3/1
f 19/4/1 13/4/1 18/4/1
f 19/3/1 15/3/1 14/3/1
f 20/3/1 15/3/1 19/3/1
f 21/4/1 18/4/1 17/4/1
f 21/3/1 17/3/1 10/3/1
f 21/4/1 20/4/1 19/4/1
f 21/4/1 19/4/1 18/4/1
f 22/4/1 20/4/1 21/4/1
f 23/4/1 20/4/1 22/4/1
f 24/3/1 15/3/1 20/3/1
f 24/4/1 20/4/1 23/4/1
f 25/2/1 10/2/1 9/2/1
f 26/3/1 21/3/1 10/3/1
f 26/2/1 10/2/1 25/2/1
f 26/3/1 22/3/1 21/3/1
f 27/3/1 22/3/1 26/3/1
f 28/4/1 23/4/1 22/4/1
f 28/3/1 22/3/1 27/3/1
f 29/3/1 24/3/1 23/3/1
f 29/4/1 23/4/1 28/4/1
f 30/3/1 15/3/1 24/3/1
f 30/3/1 24/3/1 29/3/1
f 31/2/1 16/2/1 15/2/1
f 31/3/1 15/3/1 30/3/1
f 32/2/1 16/2/1 31/2/1
f 33/2/1 27/2/1 26/2/1
f 33/1/1 26/1/1 25/1/1
f 34/3/1 29/3/1 28/3/1
f 34/2/1 27/2/1 33/2/1
f 34/3/1 30/3/1 29/3/1
f 34/3/1 28/3/1 27/3/1
f 35/2/1 31/2/1 30/2/1
f 35/3/1 30/3/1 34/3/1
f 36/1/1 32/1/1 31/1/1
f 36/2/1 31/2/1 35/2/1
f 37/1/1 33/1/1 25/1/1
f 37/1/1 34/1/1 33/1/1
f 38/2/1 35/2/1 34/2/1
f 38/1/1 34/1/1 37/1/1
f 39/1/1 36/1/1 35/1/1
f 39/2/1 35/2/1 38/2/1
f 40/1/1 32/1/1 36/1/1
f 40/1/1 36/1/1 39/1/1
f 45/2/1 42/2/1 41/2/1
f 46/3/1 43/3/1 42/3/1
f 46/2/1 42/2/1 45/2/1
f 47/3/1 43/3/1 46/3/1
f 48/3/1 43/3/1 47/3/1
f 49/2/1 44/2/1 43/2/1
f 49/3/1 43/3/1 48/3/1
f 50/2/1 44/2/1 49/2/1
f 51/3/1 46/3/1 45/3/1
f 51/3/1 47/3/1 46/3/1
f 52/4/1 48/4/1 47/4/1
f 52/3/1 47/3/1 51/3/1
f 53/3/1 50/3/1 49/3/1
f 53/4/1 48/4/1 52/4/1
f 53/3/1 49/3/1 48/3/1
f 54/3/1 50/3/1 53/3/1
f 55/3/1 51/3/1 45/3/1
f 55/4/1 52/4/1 51/4/1
f 55/4/1 54/4/1 53/4/1
f 55/4/1 53/4/1 52/4/1
f 56/4/1 54/4/1 55/4/1
f 57/4/1 54/4/1 56/4/1
f 58/3/1 50/3/1 54/3/1
f 58/4/1 54/4/1 57/4/1
f 59/3/1 55/3/1 45/3/1
f 59/3/1 56/3/1 55/3/1
f 60/3/1 56/3/1 59/3/1
f 61/4/1 57/4/1 56/4/1
f 61/3/1 56/3/1 60/3/1
f 62/3/1 58/3/1 57/3/1
f 62/4/1 57/4/1 61/4/1
f 63/3/1 50/3/1 58/3/1
f 63/3/1 58/3/1 62/3/1
f 64/3/1 50/3/1 63/3/1
f 65/2/1 60/2/1 59/2/1
f 66/3/1 62/3/1 61/3/1
f 66/2/1 60/2/1 65/2/1
f 66/3/1 61/3/1 60/3/1
f 66/3/1 63/3/1 62/3/1
f 67/2/1 64/2/1 63/2/1
f 67/3/1 63/3/1 66/3/1
f 68/2/1 64/2/1 67/2/1
f 69/2/2 70/2/2 73/2/2
f 70/3/2 71/3/2 74/3/2
f 73/2/2 70/2/2 74/2/2
f 74/3/2 71/3/2 75/3/2
f 75/3/2 71/3/2 76/3/2
f 71/2/2 72/2/2 77/2/2
f 76/3/2 71/3/2 77/3/2
f 77/2/2 72/2/2 78/2/2
f 73/3/2 74/3/2 79/3/2
f 74/3/2 75/3/2 79/3/2
f 75/4/2 76/4/2 80/4/2
f 79/3/2 75/3/2 80/3/2
f 77/3/2 78/3/2 81/3/2
f 80/4/2 76/4/2 81/4/2
f 76/3/2 77/3/2 81/3/2
f 81/3/2 78/3/2 82/3/2
f 73/3/2 79/3/2 83/3/2
f 79/4/2 80/4/2 83/4/2
f 81/4/2 82/4/2 83/4/2
f 80/4/2 81/4/2 83/4/2
f 83/4/2 82/4/2 84/4/2
f 84/4/2 82/4/2 85/4/2
f 82/3/2 78/3/2 86/3/2
f 85/4/2 82/4/2 86/4/2
f 73/3/2 83/3/2 87/3/2
f 83/3/2 84/3/2 87/3/2
f 87/3/2 84/3/2 88/3/2
f 84/4/2 85/4/2 89/4/2
f 88/3/2 84/3/2 89/3/2
f 85/3/2 86/3/2 90/3/2
f 89/4/2 85/4/2 90/4/2
f 86/3/2 78/3/2 91/3/2
f 90/3/2 86/3/2 91/3/2
f 91/3/2 78/3/2 92/3/2
f 87/2/2 88/2/2 93/2/2
f 89/3/2 90/3/2 94/3/2
f 93/2/2 88/2/2 94/2/2
f 88/3/2 89/3/2 94/3/2
f 90/3/2 91/3/2 94/3/2
f 91/2/2 92/2/2 95/2/2
f 94/3/2 91/3/2 95/3/2
f 95/2/2 92/2/2 96/2/2
f 97/1/2 98/1/2 101/1/2
f 98/2/2 99/2/2 102/2/2
f 101/1/2 98/1/2 102/1/2
f 99/1/2 100/1/2 103/1/2
f 102/2/2 99/2/2 103/2/2
f 103/1/2 100/1/2 104/1/2
f 97/1/2 101/1/2 105/1/2
f 101/2/2 102/2/2 106/2/2
f 105/1/2 101/1/2 106/1/2
f 102/3/2 103/3/2 107/3/2
f 106/2/2 102/2/2 107/2/2
f 107/3/2 103/3/2 108/3/2
f 108/3/2 103/3/2 109/3/2
f 103/2/2 104/2/2 110/2/2
f 109/3/2 103/3/2 110/3/2
f 104/1/2 100/1/2 111/1/2
f 110/2/2 104/2/2 111/2/2
f 111/1/2 100/1/2 112/1/2
f 106/3/2 107/3/2 113/3/2
f 107/3/2 108/3/2 113/3/2
f 108/4/2 109/4/2 114/4/2
f 113/3/2 108/3/2 114/3/2
f 109/3/2 110/3/2 115/3/2
f 114/4/2 109/4/2 115/4/2
f 110/3/2 111/3/2 115/3/2
f 115/3/2 111/3/2 116/3/2
f 113/4/2 114/4/2 117/4/2
f 106/3/2 113/3/2 117/3/2
f 115/4/2 116/4/2 117/4/2
f 114/4/2 115/4/2 117/4/2
f 117/4/2 116/4/2 118/4/2
f 118/4/2 116/4/2 119/4/2
f 116/3/2 111/3/2 120/3/2
f 119/4/2 116/4/2 120/4/2
f 105/2/2 106/2/2 121/2/2
f 106/3/2 117/3/2 122/3/2
f 121/2/2 106/2/2 122/2/2
f 117/3/2 118/3/2 122/3/2
f 122/3/2 118/3/2 123/3/2
f 118/4/2 119/4/2 124/4/2
f 123/3/2 118/3/2 124/3/2
f 119/3/2 120/3/2 125/3/2
f 124/4/2 119/4/2 125/4/2
f 120/3/2 111/3/2 126/3/2
f 125/3/2 120/3/2 126/3/2
f 111/2/2 112/2/2 127/2/2
f 126/3/2 111/3/2 127/3/2
f 127/2/2 112/2/2 128/2/2
f 122/2/2 123/2/2 129/2/2
f 121/1/2 122/1/2 129/1/2
f 124/3/2 125/3/2 130/3/2
f 129/2/2 123/2/2 130/2/2
f 125/3/2 126/3/2 130/3/2
f 123/3/2 124/3/2 130/3/2
f 126/2/2 127/2/2 131/2/2
f 130/3/2 126/3/2 131/3/2
f 127/1/2 128/1/2 132/1/2
f 131/2/2 127/2/2 132/2/2
f 121/1/2 129/1/2 133/1/2
f 129/1/2 130/1/2 133/1/2
f 130/2/2 131/2/2 134/2/2
f 133/1/2 130/1/2 134/1/2
f 131/1/2 132/1/2 135/1/2
f 134/2/2 131/2/2 135/2/2
f 132/1/2 128/1/2 136/1/2
f 135/1/2 132/1/2 136/1/2
f 141/1/3 138/1/3 137/1/3
f 142/2/3 139/2/3 138/2/3
f 142/1/3 138/1/3 141/1/3
f 143/1/3 140/1/3 139/1/3
f 143/2/3 139/2/3 142/2/3
f 144/1/3 140/1/3 143/1/3
f 145/1/3 141/1/3 137/1/3
f 146/2/3 142/2/3 141/2/3
f 146/1/3 141/1/3 145/1/3
f 147/3/3 143/3/3 142/3/3
f 147/2/3 142/2/3 146/2/3
f 148/3/3 143/3/3 147/3/3
f 149/3/3 143/3/3 148/3/3
f 150/2/3 144/2/3 143/2/3
f 150/3/3 143/3/3 149/3/3
f 151/1/3 140/1/3 144/1/3
f 151/2/3 144/2/3 150/2/3
f 152/1/3 140/1/3 151/1/3
f 153/3/3 147/3/3 146/3/3
f 153/3/3 148/3/3 147/3/3
f 154/4/3 149/4/3 148/4/3
f 154/3/3 148/3/3 153/3/3
f 155/3/3 150/3/3 149/3/3
f 155/4/3 149/4/3 154/4/3
f 155/3/3 151/3/3 150/3/3
f 156/3/3 151/3/3 155/3/3
f 157/4/3 154/4/3 153/4/3
f 157/3/3 153/3/3 146/3/3
f 157/4/3 156/4/3 155/4/3
f 157/4/3 155/4/3 154/4/3
f 158/4/3 156/4/3 157/4/3
f 159/4/3 156/4/3 158/4/3
f 160/3/3 151/3/3 156/3/3
f 160/4/3 156/4/3 159/4/3
f 161/2/3 146/2/3 145/2/3
f 162/3/3 157/3/3 146/3/3
f 162/2/3 146/2/3 161/2/3
f 162/3/3 158/3/3 157/3/3
f 163/3/3 158/3/3 162/3/3
f 164/4/3 159/4/3 158/4/3
f 164/3/3 158/3/3 163/3/3
f 165/3/3 160/3/3 159/3/3
f 165/4/3 159/4/3 164/4/3
f 166/3/3 151/3/3 160/3/3
f 166/3/3 160/3/3 165/3/3
f 167/2/3 152/2/3 151/2/3
f 167/3/3 151/3/3 166/3/3
f 168/2/3 152/2/3 167/2/3
f 169/2/3 163/2/3 162/2/3
f 169/1/3 162/1/3 161/1/3
f 170/3/3 165/3/3 164/3/3
f 170/2/3 163/2/3 169/2/3
f 170/3/3 166/3/3 165/3/3
f 170/3/3 164/3/3 163/3/3
f 171/2/3 167/2/3 166/2/3
f 171/3/3 166/3/3 170/3/3
f 172/1/3 168/1/3 167/1/3
f 172/2/3 167/2/3 171/2/3
f 173/1/3 169/1/3 161/1/3
f 173/1/3 170/1/3 169/1/3
f 174/2/3 171/2/3 170/2/3
f 174/1/3 170/1/3 173/1/3
f 175/1/3 172/1/3 171/1/3
f 175/2/3 171/2/3 174/2/3
f 176/1/3 168/1/3 172/1/3
f 176/1/3 172/1/3 175/1/3
f 181/2/3 178/2/3 177/2/3
f 182/3/3 179/3/3 178/3/3
f 182/2/3 178/2/3 181/2/3
f 183/3/3 179/3/3 182/3/3
f 184/3/3 179/3/3 183/3/3
f 185/2/3 180/2/3 179/2/3
f 185/3/3 179/3/3 184/3/3
f 186/2/3 180/2/3 185/2/3
f 187/3/3 182/3/3 181/3/3
f 187/3/3 183/3/3 182/3/3
f 188/4/3 184/4/3 183/4/3
f 188/3/3 183/3/3 187/3/3
f 189/3/3 186/3/3 185/3/3
f 189/4/3 184/4/3 188/4/3
f 189/3/3 185/3/3 184/3/3
f 190/3/3 186/3/3 189/3/3
f 191/3/3 187/3/3 181/3/3
f 191/4/3 188/4/3 187/4/3
f 191/4/3 190/4/3 189/4/3
f 191/4/3 189/4/3 188/4/3
f 192/4/3 190/4/3 191/4/3
f 193/4/3 190/4/3 192/4/3
f 194/3/3 186/3/3 190/3/3
f 194/4/3 190/4/3 193/4/3
f 195/3/3 191/3/3 181/3/3
f 195/3/3 192/3/3 191/3/3
f 196/3/3 192/3/3 195/3/3
f 197/4/3 193/4/3 192/4/3
f 197/3/3 192/3/3 196/3/3
f 198/3/3 194/3/3 193/3/3
f 198/4/3 193/4/3 197/4/3
f 199/3/3 186/3/3 194/3/3
f 199/3/3 194/3/3 198/3/3
f 200/3/3 186/3/3 199/3/3
f 201/2/3 196/2/3 195/2/3
f 202/3/3 198/3/3 197/3/3
f 202/2/3 196/2/3 201/2/3
f 202/3/3 197/3/3 196/3/3
f 202/3/3 199/3/3 198/3/3
f 203/2/3 200/2/3 199/2/3
f 203/3/3 199/3/3 202/3/3
f 204/2/3 200/2/3 203/2/3
f 205/2/4 206/2/4 209/2/4
f 206/3/4 207/3/4 210/3/4
f 209/2/4 206/2/4 210/2/4
f 210/3/4 207/3/4 211/3/4
f 211/3/4 207/3/4 212/3/4
f 207/2/4 208/2/4 213/2/4
f 212/3/4 207/3/4 213/3/4
f 213/2/4 208/2/4 214/2/4
f 209/3/4 210/3/4 215/3/4
f 210/3/4 211/3/4 215/3/4
f 211/4/4 212/4/4 216/4/4
f 215/3/4 211/3/4 216/3/4
f 213/3/4 214/3/4 217/3/4
f 216/4/4 212/4/4 217/4/4
f 212/3/4 213/3/4 217/3/4
f 217/3/4 214/3/4 218/3/4
f 209/3/4 215/3/4 219/3/4
f 215/4/4 216/4/4 219/4/4
f 217/4/4 218/4/4 219/4/4
f 216/4/4 217/4/4 219/4/4
f 219/4/4 218/4/4 220/4/4
f 220/4/4 218/4/4 221/4/4
f 218/3/4 214/3/4 222/3/4
f 221/4/4 218/4/4 222/4/4
f 209/3/4 219/3/4 223/3/4
f 219/3/4 220/3/4 223/3/4
f 223/3/4 220/3/4 224/3/4
f 220/4/4 221/4/4 225/4/4
f 224/3/4 220/3/4 225/3/4
f 221/3/4 222/3/4 226/3/4
f 225/4/4 221/4/4 226/4/4
f 222/3/4 214/3/4 227/3/4
f 226/3/4 222/3/4 227/3/4
f 227/3/4 214/3/4 228/3/4
f 223/2/4 224/2/4 229/2/4
f 225/3/4 226/3/4 230/3/4
f 229/2/4 224/2/4 230/2/4
f 224/3/4 225/3/4 230/3/4
f 226/3/4 227/3/4 230/3/4
f 227/2/4 228/2/4 231/2/4
f 230/3/4 227/3/4 231/3/4
f 231/2/4 228/2/4 232/2/4
f 233/1/4 234/1/4 237/1/4
f 234/2/4 235/2/4 238/2/4
f 237/1/4 234/1/4 238/1/4
f 235/1/4 236/1/4 239/1/4
f 238/2/4 235/2/4 239/2/4
f 239/1/4 236/1/4 240/1/4
f 233/1/4 237/1/4 241/1/4
f 237/2/4 238/2/4 242/2/4
f 241/1/4 237/1/4 242/1/4
f 238/3/4 239/3/4 243/3/4
f 242/2/4 238/2/4 243/2/4
f 243/3/4 239/3/4 244/3/4
f 244/3/4 239/3/4 245/3/4
f 239/2/4 240/2/4 246/2/4
f 245/3/4 239/3/4 246/3/4
f 240/1/4 236/1/4 247/1/4
f 246/2/4 240/2/4 247/2/4
f 247/1/4 236/1/4 248/1/4
f 242/3/4 243/3/4 249/3/4
f 243/3/4 244/3/4 249/3/4
f 244/4/4 245/4/4 250/4/4
f 249/3/4 244/3/4 250/3/4
f 245/3/4 246/3/4 251/3/4
f 250/4/4 245/4/4 251/4/4
f 246/3/4 247/3/4 251/3/4
f 251/3/4 247/3/4 252/3/4
f 249/4/4 250/4/4 253/4/4
f 242/3/4 249/3/4 253/3/4
f 251/4/4 252/4/4 253/4/4
f 250/4/4 251/4/4 253/4/4
f 253/4/4 252/4/4 254/4/4
f 254/4/4 252/4/4 255/4/4
f 252/3/4 247/3/4 256/3/4
f 255/4/4 252/4/4 256/4/4
f 241/2/4 242/2/4 257/2/4
f 242/3/4 253/3/4 258/3/4
f 257/2/4 242/2/4 258/2/4
f 253/3/4 254/3/4 258/3/4
f 258/3/4 254/3/4 259/3/4
f 254/4/4 255/4/4 260/4/4
f 259/3/4 254/3/4 260/3/4
f 255/3/4 256/3/4 261/3/4
f 260/4/4 255/4/4 261/4/4
f 256/3/4 247/3/4 262/3/4
f 261/3/4 256/3/4 262/3/4
f 247/2/4 248/2/4 263/2/4
f 262/3/4 247/3/4 263/3/4
f 263/2/4 248/2/4 264/2/4
f 258/2/4 259/2/4 265/2/4
f 257/1/4 258/1/4 265/1/4
f 260/3/4 261/3/4 266/3/4
f 265/2/4 259/2/4 266/2/4
f 261/3/4 262/3/4 266/3/4
f 259/3/4 260/3/4 266/3/4
f 262/2/4 263/2/4 267/2/4
f 266/3/4 262/3/4 267/3/4
f 263/1/4 264/1/4 268/1/4
f 267/2/4 263/2/4 268/2/4
f 257/1/4 265/1/4 269/1/4
f 265/1/4 266/1/4 269/1/4
f 266/2/4 267/2/4 270/2/4
f 269/1/4 266/1/4 270/1/4
f 267/1/4 268/1/4 271/1/4
f 270/2/4 267/2/4 271/2/4
f 268/1/4 264/1/4 272/1/4
f 271/1/4 268/1/4 272/1/4
f 277/1/5 274/1/5 273/1/5
f 278/2/5 275/2/5 274/2/5
f 278/1/5 274/1/5 277/1/5
f 279/1/5 276/1/5 275/1/5
f 279/2/5 275/2/5 278/2/5
f 280/1/5 276/1/5 279/1/5
f 281/1/5 277/1/5 273/1/5
f 282/2/5 278/2/5 277/2/5
f 282/1/5 277/1/5 281/1/5
f 283/3/5 279/3/5 278/3/5
f 283/2/5 278/2/5 282/2/5
f 284/3/5 279/3/5 283/3/5
f 285/3/5 279/3/5 284/3/5
f 286/2/5 280/2/5 279/2/5
f 286/3/5 279/3/5 285/3/5
f 287/1/5 276/1/5 280/1/5
f 287/2/5 280/2/5 286/2/5
f 288/1/5 276/1/5 287/1/5
f 289/3/5 283/3/5 282/3/5
f 289/3/5 284/3/5 283/3/5
f 290/4/5 285/4/5 284/4/5
f 290/3/5 284/3/5 289/3/5
f 291/3/5 286/3/5 285/3/5
f 291/4/5 285/4/5 290/4/5
f 291/3/5 287/3/5 286/3/5
f 292/3/5 287/3/5 291/3/5
f 293/4/5 290/4/5 289/4/5
f 293/3/5 289/3/5 282/3/5
f 293/4/5 292/4/5 291/4/5
f 293/4/5 291/4/5 290/4/5
f 294/4/5 292/4/5 293/4/5
f 295/4/5 292/4/5 294/4/5
f 296/3/5 287/3/5 292/3/5
f 296/4/5 292/4/5 295/4/5
f 297/2/5 282/2/5 281/2/5
f 298/3/5 293/3/5 282/3/5
f 298/2/5 282/2/5 297/2/5
f 298/3/5 294/3/5 293/3/5
f 299/3/5 294/3/5 298/3/5
f 300/4/5 295/4/5 294/4/5
f 300/3/5 294/3/5 299/3/5
f 301/3/5 296/3/5 295/3/5
f 301/4/5 295/4/5 300/4/5
f 302/3/5 287/3/5 296/3/5
f 302/3/5 296/3/5 301/3/5
f 303/2/5 288/2/5 287/2/5
f 303/3/5 287/3/5 302/3/5
f 304/2/5 288/2/5 303/2/5
f 305/2/5 299/2/5 298/2/5
f 305/1/5 298/1/5 297/1/5
f 306/3/5 301/3/5 300/3/5
f 306/2/5 299/2/5 305/2/5
f 306/3/5 302/3/5 301/3/5
f 306/3/5 300/3/5 299/3/5
f 307/2/5 303/2/5 302/2/5
f 307/3/5 302/3/5 306/3/5
f 308/1/5 304/1/5 303/1/5
f 308/2/5 303/2/5 307/2/5
f 309/1/5 305/1/5 297/1/5
f 309/1/5 306/1/5 305/1/5
f 310/2/5 307/2/5 306/2/5
f 310/1/5 306/1/5 309/1/5
f 311/1/5 308/1/5 307/1/5
f 311/2/5 307/2/5 310/2/5
f 312/1/5 304/1/5 308/1/5
f 312/1/5 308/1/5 311/1/5
f 317/2/5 314/2/5 313/2/5
f 318/3/5 315/3/5 314/3/5
f 318/2/5 314/2/5 317/2/5
f 319/3/5 315/3/5 318/3/5
f 320/3/5 315/3/5 319/3/5
f 321/2/5 316/2/5 315/2/5
f 321/3/5 315/3/5 320/3/5
f 322/2/5 316/2/5 321/2/5
f 323/3/5 318/3/5 317/3/5
f 323/3/5 319/3/5 318/3/5
f 324/4/5 320/4/5 319/4/5
f 324/3/5 319/3/5 323/3/5
f 325/3/5 322/3/5 321/3/5
f 325/4/5 320/4/5 324/4/5
f 325/3/5 321/3/5 320/3/5
f 326/3/5 322/3/5 325/3/5
f 327/3/5 323/3/5 317/3/5
f 327/4/5 324/4/5 323/4/5
f 327/4/5 326/4/5 325/4/5
f 327/4/5 325/4/5 324/4/5
f 328/4/5 326/4/5 327/4/5
f 329/4/5 326/4/5 328/4/5
f 330/3/5 322/3/5 326/3/5
f 330/4/5 326/4/5 329/4/5
f 331/3/5 327/3/5 317/3/5
f 331/3/5 328/3/5 327/3/5
f 332/3/5 328/3/5 331/3/5
f 333/4/5 329/4/5 328/4/5
f 333/3/5 328/3/5 332/3/5
f 334/3/5 330/3/5 329/3/5
f 334/4/5 329/4/5 333/4/5
f 335/3/5 322/3/5 330/3/5
f 335/3/5 330/3/5 334/3/5
f 336/3/5 322/3/5 335/3/5
f 337/2/5 332/2/5 331/2/5
f 338/3/5 334/3/5 333/3/5
f 338/2/5 332/2/5 337/2/5
f 338/3/5 333/3/5 332/3/5
f 338/3/5 335/3/5 334/3/5
f 339/2/5 336/2/5 335/2/5
f 339/3/5 335/3/5 338/3/5
f 340/2/5 336/2/5 339/2/5
f 341/2/6 342/2/6 345/2/6
f 342/3/6 343/3/6 346/3/6
f 345/2/6 342/2/6 346/2/6
f 346/3/6 343/3/6 347/3/6
f 347/3/6 343/3/6 348/3/6
f 343/2/6 344/2/6 349/2/6
f 348/3/6 343/3/6 349/3/6
f 349/2/6 344/2/6 350/2/6
f 345/3/6 346/3/6 351/3/6
f 346/3/6 347/3/6 351/3/6
f 347/4/6 348/4/6 352/4/6
f 351/3/6 347/3/6 352/3/6
f 349/3/6 350/3/6 353/3/6
f 352/4/6 348/4/6 353/4/6
f 348/3/6 349/3/6 353/3/6
f 353/3/6 350/3/6 354/3/6
f 345/3/6 351/3/6 355/3/6
f 351/4/6 352/4/6 355/4/6
f 353/4/6 354/4/6 355/4/6
f 352/4/6 353/4/6 355/4/6
f 355/4/6 354/4/6 356/4/6
f 356/4/6 354/4/6 357/4/6
f 354/3/6 350/3/6 358/3/6
f 357/4/6 354/4/6 358/4/6
f 345/3/6 355/3/6 359/3/6
f 355/3/6 356/3/6 359/3/6
f 359/3/6 356/3/6 360/3/6
f 356/4/6 357/4/6 361/4/6
f 360/3/6 356/3/6 361/3/6
f 357/3/6 358/3/6 362/3/6
f 361/4/6 357/4/6 362/4/6
f 358/3/6 350/3/6 363/3/6
f 362/3/6 358/3/6 363/3/6
f 363/3/6 350/3/6 364/3/6
f 359/2/6 360/2/6 365/2/6
f 361/3/6 362/3/6 366/3/6
f 365/2/6 360/2/6 366/2/6
f 360/3/6 361/3/6 366/3/6
f 362/3/6 363/3/6 366/3/6
f 363/2/6 364/2/6 367/2/6
f 366/3/6 363/3/6 367/3/6
f 367/2/6 364/2/6 368/2/6
f 369/1/6 370/1/6 373/1/6
f 370/2/6 371/2/6 374/2/6
f 373/1/6 370/1/6 374/1/6
f 371/1/6 372/1/6 375/1/6
f 374/2/6 371/2/6 375/2/6
f 375/1/6 372/1/6 376/1/6
f 369/1/6 373/1/6 377/1/6
f 373/2/6 374/2/6 378/2/6
f 377/1/6 373/1/6 378/1/6
f 374/3/6 375/3/6 379/3/6
f 378/2/6 374/2/6 379/2/6
f 379/3/6 375/3/6 380/3/6
f 380/3/6 375/3/6 381/3/6
f 375/2/6 376/2/6 382/2/6
f 381/3/6 375/3/6 382/3/6
f 376/1/6 372/1/6 383/1/6
f 382/2/6 376/2/6 383/2/6
f 383/1/6 372/1/6 384/1/6
f 378/3/6 379/3/6 385/3/6
f 379/3/6 380/3/6 385/3/6
f 380/4/6 381/4/6 386/4/6
f 385/3/6 380/3/6 386/3/6
f 381/3/6 382/3/6 387/3/6
f 386/4/6 381/4/6 387/4/6
f 382/3/6 383/3/6 387/3/6
f 387/3/6 383/3/6 388/3/6
f 385/4/6 386/4/6 389/4/6
f 378/3/6 385/3/6 389/3/6
f 387/4/6 388/4/6 389/4/6
f 386/4/6 387/4/6 389/4/6
f 389/4/6 388/4/6 390/4/6
f 390/4/6 388/4/6 391/4/6
f 388/3/6 383/3/6 392/3/6
f 391/4/6 388/4/6 392/4/6
f 377/2/6 378/2/6 393/2/6
f 378/3/6 389/3/6 394/3/6
f 393/2/6 378/2/6 394/2/6
f 389/3/6 390/3/6 394/3/6
f 394/3/6 390/3/6 395/3/6
f 390/4/6 391/4/6 396/4/6
f 395/3/6 390/3/6 396/3/6
f 391/3/6 392/3/6 397/3/6
f 396/4/6 391/4/6 397/4/6
f 392/3/6 383/3/6 398/3/6
f 397/3/6 392/3/6 398/3/6
f 383/2/6 384/2/6 399/2/6
f 398/3/6 383/3/6 399/3/6
f 399/2/6 384/2/6 400/2/6
f 394/2/6 395/2/6 401/2/6
f 393/1/6 394/1/6 401/1/6
f 396/3/6 397/3/6 402/3/6
f 401/2/6 395/2/6 402/2/6
f 397/3/6 398/3/6 402/3/6
f 395/3/6 396/3/6 402/3/6
f 398/2/6 399/2/6 403/2/6
f 402/3/6 398/3/6 403/3/6
f 399/1/6 400/1/6 404/1/6
f 403/2/6 399/2/6 404/2/6
f 393/1/6 401/1/6 405/1/6
f 401/1/6 402/1/6 405/1/6
f 402/2/6 403/2/6 406/2/6
f 405/1/6 402/1/6 406/1/6
f 403/1/6 404/1/6 407/1/6
f 406/2/6 403/2/6 407/2/6
f 404/1/6 400/1/6 408/1/6
f 407/1/6 404/1/6 408/1/6
