# MagicaVoxel @ Ephtracy

# group
o 

# material
mtllib ConveyorLeft.mtl
usemtl palette

# normals
vn -1 0 0
vn 1 0 0
vn 0 0 1
vn 0 0 -1
vn 0 -1 0
vn 0 1 0

# texcoords
vt 0.00976563 0.5
vt 0.150391 0.5
vt 0.154297 0.5
vt 0.158203 0.5

# verts
v -0.5 0 0.4
v -0.5 0 0.2
v -0.5 0 -0.2
v -0.5 0 -0.4
v -0.5 0.1 0.2
v -0.5 0.1 -0.2
v -0.5 0.2 0.4
v -0.5 0.2 0.3
v -0.5 0.2 -0.3
v -0.5 0.2 -0.4
v -0.5 0.3 0.3
v -0.5 0.3 0.2
v -0.5 0.3 -0.2
v -0.5 0.3 -0.3
v -0.4 0 0.5
v -0.4 0 0.4
v -0.4 0.1 0.1
v -0.4 0.1 -0.1
v -0.4 0.2 0.5
v -0.4 0.2 0.4
v -0.4 0.2 0.1
v -0.4 0.2 -0.1
v -0.3 0.1 0.2
v -0.3 0.1 0.1
v -0.3 0.1 -0.1
v -0.3 0.1 -0.2
v -0.3 0.2 0.5
v -0.3 0.2 0.3
v -0.3 0.2 0.2
v -0.3 0.2 0.1
v -0.3 0.2 -0.1
v -0.3 0.2 -0.2
v -0.3 0.3 0.5
v -0.3 0.3 0.3
v -0.2 0.1 0.4
v -0.2 0.1 0.3
v -0.2 0.1 -0.2
v -0.2 0.1 -0.3
v -0.2 0.2 0.4
v -0.2 0.2 0.3
v -0.2 0.2 -0.2
v -0.2 0.2 -0.3
v -0.1 0.1 0.3
v -0.1 0.1 0.2
v -0.1 0.2 0.3
v -0.1 0.2 0.2
v 0.1 0.1 0.4
v 0.1 0.1 0.3
v 0.1 0.2 0.4
v 0.1 0.2 0.3
v 0.2 0.1 0.5
v 0.2 0.1 0.4
v 0.2 0.1 0.3
v 0.2 0.1 -0.2
v 0.2 0.2 0.4
v 0.2 0.2 0.3
v 0.2 0.3 0.5
v 0.2 0.3 -0.2
v 0.3 0.1 0.4
v 0.3 0.1 0.3
v 0.3 0.1 -0.2
v 0.3 0.1 -0.3
v 0.3 0.2 0.4
v 0.3 0.2 0.3
v 0.3 0.2 -0.2
v 0.3 0.2 -0.3
v -0.3 0.1 0.4
v -0.3 0.1 0.3
v -0.3 0.1 0.1
v -0.3 0.1 -0.1
v -0.3 0.1 -0.2
v -0.3 0.1 -0.3
v -0.3 0.2 0.4
v -0.3 0.2 0.3
v -0.3 0.2 0.1
v -0.3 0.2 -0.1
v -0.3 0.2 -0.2
v -0.3 0.2 -0.3
v -0.2 0.1 0.5
v -0.2 0.1 0.4
v -0.2 0.1 0.3
v -0.2 0.1 0.2
v -0.2 0.1 0.1
v -0.2 0.1 -0.1
v -0.2 0.1 -0.2
v -0.2 0.2 0.4
v -0.2 0.2 0.3
v -0.2 0.2 0.2
v -0.2 0.2 0.1
v -0.2 0.2 -0.1
v -0.2 0.2 -0.2
v -0.2 0.3 0.5
v -0.2 0.3 0.2
v -0.1 0.1 0.4
v -0.1 0.1 0.3
v -0.1 0.2 0.4
v -0.1 0.2 0.3
v 0.1 0.1 0.3
v 0.1 0.1 0.2
v 0.1 0.2 0.3
v 0.1 0.2 0.2
v 0.2 0.1 0.4
v 0.2 0.1 0.3
v 0.2 0.1 -0.2
v 0.2 0.1 -0.3
v 0.2 0.2 0.4
v 0.2 0.2 0.3
v 0.2 0.2 -0.2
v 0.2 0.2 -0.3
v 0.3 0.1 -0.3
v 0.3 0.1 -0.4
v 0.3 0.2 0.5
v 0.3 0.2 -0.3
v 0.3 0.2 -0.4
v 0.3 0.3 0.5
v 0.3 0.3 -0.3
v 0.4 0 0.5
v 0.4 0 -0.4
v 0.4 0.1 -0.3
v 0.4 0.1 -0.4
v 0.4 0.2 0.5
v 0.4 0.2 -0.3
v -0.4 0 0.5
v -0.4 0.2 0.5
v -0.3 0.2 0.5
v -0.3 0.3 0.5
v -0.2 0 0.5
v -0.2 0.1 0.5
v -0.2 0.3 0.5
v 0.2 0 0.5
v 0.2 0.1 0.5
v 0.2 0.3 0.5
v 0.3 0.2 0.5
v 0.3 0.3 0.5
v 0.4 0 0.5
v 0.4 0.2 0.5
v -0.5 0 0.4
v -0.5 0.2 0.4
v -0.4 0 0.4
v -0.4 0.2 0.4
v -0.2 0.1 0.4
v -0.2 0.2 0.4
v -0.1 0.1 0.4
v -0.1 0.2 0.4
v 0.1 0.1 0.4
v 0.1 0.2 0.4
v 0.2 0.1 0.4
v 0.2 0.2 0.4
v -0.5 0.2 0.3
v -0.5 0.3 0.3
v -0.3 0.1 0.3
v -0.3 0.2 0.3
v -0.3 0.3 0.3
v -0.2 0.1 0.3
v -0.2 0.2 0.3
v -0.1 0.1 0.3
v -0.1 0.2 0.3
v 0.1 0.1 0.3
v 0.1 0.2 0.3
v 0.2 0.1 0.3
v 0.2 0.2 0.3
v 0.3 0.1 0.3
v 0.3 0.2 0.3
v -0.4 0.1 0.1
v -0.4 0.2 0.1
v -0.3 0.1 0.1
v -0.3 0.2 0.1
v -0.3 0.1 -0.1
v -0.3 0.2 -0.1
v -0.2 0.1 -0.1
v -0.2 0.2 -0.1
v -0.5 0.1 -0.2
v -0.5 0.3 -0.2
v -0.4 0.1 -0.2
v -0.3 0.1 -0.2
v -0.3 0.2 -0.2
v -0.2 0.1 -0.2
v -0.2 0.2 -0.2
v 0.2 0.1 -0.2
v 0.2 0.3 -0.2
v -0.3 0.1 -0.3
v -0.3 0.2 -0.3
v -0.2 0.1 -0.3
v -0.2 0.2 -0.3
v 0.2 0.1 -0.3
v 0.2 0.2 -0.3
v 0.3 0.1 -0.3
v 0.3 0.2 -0.3
v -0.3 0.1 0.4
v -0.3 0.2 0.4
v -0.2 0.1 0.4
v -0.2 0.2 0.4
v 0.2 0.1 0.4
v 0.2 0.2 0.4
v 0.3 0.1 0.4
v 0.3 0.2 0.4
v -0.2 0.1 0.3
v -0.2 0.2 0.3
v -0.1 0.1 0.3
v -0.1 0.2 0.3
v 0.1 0.1 0.3
v 0.1 0.2 0.3
v 0.2 0.1 0.3
v 0.2 0.2 0.3
v -0.5 0.1 0.2
v -0.5 0.3 0.2
v -0.4 0.1 0.2
v -0.3 0.1 0.2
v -0.3 0.2 0.2
v -0.2 0.2 0.2
v -0.2 0.3 0.2
v -0.1 0.1 0.2
v -0.1 0.2 0.2
v 0.1 0.1 0.2
v 0.1 0.2 0.2
v -0.3 0.1 0.1
v -0.3 0.2 0.1
v -0.2 0.1 0.1
v -0.2 0.2 0.1
v -0.4 0.1 -0.1
v -0.4 0.2 -0.1
v -0.3 0.1 -0.1
v -0.3 0.2 -0.1
v -0.3 0.1 -0.2
v -0.3 0.2 -0.2
v -0.2 0.1 -0.2
v -0.2 0.2 -0.2
v 0.2 0.1 -0.2
v 0.2 0.2 -0.2
v 0.3 0.1 -0.2
v 0.3 0.2 -0.2
v -0.5 0.2 -0.3
v -0.5 0.3 -0.3
v 0.3 0.1 -0.3
v 0.3 0.2 -0.3
v 0.3 0.3 -0.3
v 0.4 0.1 -0.3
v 0.4 0.2 -0.3
v -0.5 0 -0.4
v -0.5 0.2 -0.4
v 0.3 0.1 -0.4
v 0.3 0.2 -0.4
v 0.4 0 -0.4
v 0.4 0.1 -0.4
v -0.4 0 0.5
v -0.2 0 0.5
v 0.2 0 0.5
v 0.4 0 0.5
v -0.5 0 0.4
v -0.4 0 0.4
v -0.2 0 0.4
v 0.2 0 0.4
v -0.5 0 0.2
v -0.4 0 0.2
v -0.2 0 0.2
v -0.5 0 -0.2
v -0.4 0 -0.2
v 0.2 0 -0.2
v -0.5 0 -0.4
v 0.4 0 -0.4
v -0.3 0.2 0.4
v -0.2 0.2 0.4
v 0.2 0.2 0.4
v 0.3 0.2 0.4
v -0.3 0.2 0.3
v -0.2 0.2 0.3
v 0.2 0.2 0.3
v 0.3 0.2 0.3
v -0.3 0.2 -0.2
v -0.2 0.2 -0.2
v 0.2 0.2 -0.2
v 0.3 0.2 -0.2
v -0.3 0.2 -0.3
v -0.2 0.2 -0.3
v 0.2 0.2 -0.3
v 0.3 0.2 -0.3
v -0.2 0.1 0.5
v 0.2 0.1 0.5
v -0.3 0.1 0.4
v -0.2 0.1 0.4
v -0.1 0.1 0.4
v 0.1 0.1 0.4
v 0.2 0.1 0.4
v 0.3 0.1 0.4
v -0.3 0.1 0.3
v -0.2 0.1 0.3
v -0.1 0.1 0.3
v 0.1 0.1 0.3
v 0.2 0.1 0.3
v 0.3 0.1 0.3
v -0.5 0.1 0.2
v -0.4 0.1 0.2
v -0.3 0.1 0.2
v -0.2 0.1 0.2
v -0.1 0.1 0.2
v 0.1 0.1 0.2
v -0.4 0.1 0.1
v -0.3 0.1 0.1
v -0.2 0.1 0.1
v -0.4 0.1 -0.1
v -0.3 0.1 -0.1
v -0.2 0.1 -0.1
v -0.5 0.1 -0.2
v -0.4 0.1 -0.2
v -0.3 0.1 -0.2
v -0.2 0.1 -0.2
v 0.2 0.1 -0.2
v 0.3 0.1 -0.2
v -0.3 0.1 -0.3
v -0.2 0.1 -0.3
v 0.2 0.1 -0.3
v 0.3 0.1 -0.3
v 0.4 0.1 -0.3
v 0.3 0.1 -0.4
v 0.4 0.1 -0.4
v -0.4 0.2 0.5
v -0.3 0.2 0.5
v 0.3 0.2 0.5
v 0.4 0.2 0.5
v -0.5 0.2 0.4
v -0.4 0.2 0.4
v -0.2 0.2 0.4
v -0.1 0.2 0.4
v 0.1 0.2 0.4
v 0.2 0.2 0.4
v -0.5 0.2 0.3
v -0.3 0.2 0.3
v -0.2 0.2 0.3
v -0.1 0.2 0.3
v 0.1 0.2 0.3
v 0.2 0.2 0.3
v -0.3 0.2 0.2
v -0.2 0.2 0.2
v -0.1 0.2 0.2
v 0.1 0.2 0.2
v -0.4 0.2 0.1
v -0.3 0.2 0.1
v -0.2 0.2 0.1
v -0.4 0.2 -0.1
v -0.3 0.2 -0.1
v -0.2 0.2 -0.1
v -0.3 0.2 -0.2
v -0.2 0.2 -0.2
v -0.5 0.2 -0.3
v 0.3 0.2 -0.3
v 0.4 0.2 -0.3
v -0.5 0.2 -0.4
v 0.3 0.2 -0.4
v -0.3 0.3 0.5
v -0.2 0.3 0.5
v 0.2 0.3 0.5
v 0.3 0.3 0.5
v -0.5 0.3 0.3
v -0.3 0.3 0.3
v -0.5 0.3 0.2
v -0.2 0.3 0.2
v -0.5 0.3 -0.2
v 0.2 0.3 -0.2
v -0.5 0.3 -0.3
v 0.3 0.3 -0.3

# faces
f 5/4/1 2/4/1 1/4/1
f 5/2/1 3/2/1 2/2/1
f 6/4/1 4/4/1 3/4/1
f 6/2/1 3/2/1 5/2/1
f 7/4/1 5/4/1 1/4/1
f 8/4/1 5/4/1 7/4/1
f 9/4/1 4/4/1 6/4/1
f 10/4/1 4/4/1 9/4/1
f 11/4/1 5/4/1 8/4/1
f 12/4/1 5/4/1 11/4/1
f 13/4/1 9/4/1 6/4/1
f 14/4/1 9/4/1 13/4/1
f 19/4/1 16/4/1 15/4/1
f 20/4/1 16/4/1 19/4/1
f 21/1/1 18/1/1 17/1/1
f 22/1/1 18/1/1 21/1/1
f 29/1/1 24/1/1 23/1/1
f 30/1/1 24/1/1 29/1/1
f 31/1/1 26/1/1 25/1/1
f 32/1/1 26/1/1 31/1/1
f 33/4/1 28/4/1 27/4/1
f 34/4/1 28/4/1 33/4/1
f 39/1/1 36/1/1 35/1/1
f 40/1/1 36/1/1 39/1/1
f 41/4/1 38/4/1 37/4/1
f 42/4/1 38/4/1 41/4/1
f 45/1/1 44/1/1 43/1/1
f 46/1/1 44/1/1 45/1/1
f 49/1/1 48/1/1 47/1/1
f 50/1/1 48/1/1 49/1/1
f 55/4/1 52/4/1 51/4/1
f 56/4/1 54/4/1 53/4/1
f 57/4/1 55/4/1 51/4/1
f 57/4/1 56/4/1 55/4/1
f 58/4/1 54/4/1 56/4/1
f 58/4/1 56/4/1 57/4/1
f 63/4/1 60/4/1 59/4/1
f 64/4/1 60/4/1 63/4/1
f 65/4/1 62/4/1 61/4/1
f 66/4/1 62/4/1 65/4/1
f 67/4/2 68/4/2 73/4/2
f 73/4/2 68/4/2 74/4/2
f 69/1/2 70/1/2 75/1/2
f 75/1/2 70/1/2 76/1/2
f 71/4/2 72/4/2 77/4/2
f 77/4/2 72/4/2 78/4/2
f 79/4/2 80/4/2 86/4/2
f 81/4/2 82/4/2 87/4/2
f 82/1/2 83/1/2 88/1/2
f 87/4/2 82/4/2 88/4/2
f 88/1/2 83/1/2 89/1/2
f 84/1/2 85/1/2 90/1/2
f 90/1/2 85/1/2 91/1/2
f 79/4/2 86/4/2 92/4/2
f 86/4/2 87/4/2 92/4/2
f 87/4/2 88/4/2 92/4/2
f 92/4/2 88/4/2 93/4/2
f 94/1/2 95/1/2 96/1/2
f 96/1/2 95/1/2 97/1/2
f 98/1/2 99/1/2 100/1/2
f 100/1/2 99/1/2 101/1/2
f 102/1/2 103/1/2 106/1/2
f 106/1/2 103/1/2 107/1/2
f 104/4/2 105/4/2 108/4/2
f 108/4/2 105/4/2 109/4/2
f 110/4/2 111/4/2 113/4/2
f 113/4/2 111/4/2 114/4/2
f 112/4/2 113/4/2 115/4/2
f 115/4/2 113/4/2 116/4/2
f 117/4/2 118/4/2 119/4/2
f 119/4/2 118/4/2 120/4/2
f 117/4/2 119/4/2 121/4/2
f 121/4/2 119/4/2 122/4/2
f 125/4/3 124/4/3 123/4/3
f 127/4/3 125/4/3 123/4/3
f 127/4/3 126/4/3 125/4/3
f 128/4/3 126/4/3 127/4/3
f 129/4/3 126/4/3 128/4/3
f 130/2/3 128/2/3 127/2/3
f 131/2/3 128/2/3 130/2/3
f 133/4/3 131/4/3 130/4/3
f 133/4/3 132/4/3 131/4/3
f 134/4/3 132/4/3 133/4/3
f 135/4/3 133/4/3 130/4/3
f 136/4/3 133/4/3 135/4/3
f 139/4/3 138/4/3 137/4/3
f 140/4/3 138/4/3 139/4/3
f 143/1/3 142/1/3 141/1/3
f 144/1/3 142/1/3 143/1/3
f 147/1/3 146/1/3 145/1/3
f 148/1/3 146/1/3 147/1/3
f 152/4/3 150/4/3 149/4/3
f 153/4/3 150/4/3 152/4/3
f 154/4/3 152/4/3 151/4/3
f 155/4/3 152/4/3 154/4/3
f 158/1/3 157/1/3 156/1/3
f 159/1/3 157/1/3 158/1/3
f 162/4/3 161/4/3 160/4/3
f 163/4/3 161/4/3 162/4/3
f 166/1/3 165/1/3 164/1/3
f 167/1/3 165/1/3 166/1/3
f 170/1/3 169/1/3 168/1/3
f 171/1/3 169/1/3 170/1/3
f 174/4/3 173/4/3 172/4/3
f 175/4/3 173/4/3 174/4/3
f 176/4/3 173/4/3 175/4/3
f 178/4/3 173/4/3 176/4/3
f 179/4/3 178/4/3 177/4/3
f 180/4/3 173/4/3 178/4/3
f 180/4/3 178/4/3 179/4/3
f 183/4/3 182/4/3 181/4/3
f 184/4/3 182/4/3 183/4/3
f 187/4/3 186/4/3 185/4/3
f 188/4/3 186/4/3 187/4/3
f 189/4/4 190/4/4 191/4/4
f 191/4/4 190/4/4 192/4/4
f 193/4/4 194/4/4 195/4/4
f 195/4/4 194/4/4 196/4/4
f 197/1/4 198/1/4 199/1/4
f 199/1/4 198/1/4 200/1/4
f 201/1/4 202/1/4 203/1/4
f 203/1/4 202/1/4 204/1/4
f 205/4/4 206/4/4 207/4/4
f 207/4/4 206/4/4 208/4/4
f 208/4/4 206/4/4 209/4/4
f 209/4/4 206/4/4 210/4/4
f 210/4/4 206/4/4 211/4/4
f 212/1/4 213/1/4 214/1/4
f 214/1/4 213/1/4 215/1/4
f 216/1/4 217/1/4 218/1/4
f 218/1/4 217/1/4 219/1/4
f 220/1/4 221/1/4 222/1/4
f 222/1/4 221/1/4 223/1/4
f 224/1/4 225/1/4 226/1/4
f 226/1/4 225/1/4 227/1/4
f 228/4/4 229/4/4 230/4/4
f 230/4/4 229/4/4 231/4/4
f 232/4/4 233/4/4 235/4/4
f 235/4/4 233/4/4 236/4/4
f 234/4/4 235/4/4 237/4/4
f 237/4/4 235/4/4 238/4/4
f 239/4/4 240/4/4 241/4/4
f 241/4/4 240/4/4 242/4/4
f 239/4/4 241/4/4 243/4/4
f 243/4/4 241/4/4 244/4/4
f 250/4/5 246/4/5 245/4/5
f 251/2/5 247/2/5 246/2/5
f 251/4/5 246/4/5 250/4/5
f 252/4/5 248/4/5 247/4/5
f 252/2/5 247/2/5 251/2/5
f 253/4/5 251/4/5 250/4/5
f 253/4/5 250/4/5 249/4/5
f 254/4/5 251/4/5 253/4/5
f 255/3/5 252/3/5 251/3/5
f 255/4/5 251/4/5 254/4/5
f 256/2/5 254/2/5 253/2/5
f 257/3/5 255/3/5 254/3/5
f 257/2/5 254/2/5 256/2/5
f 258/4/5 248/4/5 252/4/5
f 258/3/5 255/3/5 257/3/5
f 258/3/5 252/3/5 255/3/5
f 259/4/5 257/4/5 256/4/5
f 259/4/5 258/4/5 257/4/5
f 260/4/5 248/4/5 258/4/5
f 260/4/5 258/4/5 259/4/5
f 265/4/5 262/4/5 261/4/5
f 266/4/5 262/4/5 265/4/5
f 267/4/5 264/4/5 263/4/5
f 268/4/5 264/4/5 267/4/5
f 273/4/5 270/4/5 269/4/5
f 274/4/5 270/4/5 273/4/5
f 275/4/5 272/4/5 271/4/5
f 276/4/5 272/4/5 275/4/5
f 277/2/6 278/2/6 280/2/6
f 280/2/6 278/2/6 281/2/6
f 281/2/6 278/2/6 282/2/6
f 282/2/6 278/2/6 283/2/6
f 279/4/6 280/4/6 285/4/6
f 285/4/6 280/4/6 286/4/6
f 281/3/6 282/3/6 287/3/6
f 287/3/6 282/3/6 288/3/6
f 283/4/6 284/4/6 289/4/6
f 289/4/6 284/4/6 290/4/6
f 286/3/6 287/3/6 294/3/6
f 294/3/6 287/3/6 295/3/6
f 288/3/6 289/3/6 296/3/6
f 292/3/6 293/3/6 297/3/6
f 291/2/6 292/2/6 297/2/6
f 297/3/6 293/3/6 298/3/6
f 294/3/6 295/3/6 299/3/6
f 295/3/6 296/3/6 299/3/6
f 291/2/6 297/2/6 300/2/6
f 298/3/6 299/3/6 301/3/6
f 299/3/6 296/3/6 302/3/6
f 301/3/6 299/3/6 302/3/6
f 291/2/6 300/2/6 303/2/6
f 300/3/6 301/3/6 304/3/6
f 303/2/6 300/2/6 304/2/6
f 304/3/6 301/3/6 305/3/6
f 302/3/6 296/3/6 306/3/6
f 296/3/6 289/3/6 307/3/6
f 306/3/6 296/3/6 307/3/6
f 305/4/6 306/4/6 309/4/6
f 309/4/6 306/4/6 310/4/6
f 307/4/6 308/4/6 311/4/6
f 311/4/6 308/4/6 312/4/6
f 312/4/6 313/4/6 314/4/6
f 314/4/6 313/4/6 315/4/6
f 316/4/6 317/4/6 321/4/6
f 320/4/6 321/4/6 326/4/6
f 321/4/6 317/4/6 327/4/6
f 326/4/6 321/4/6 327/4/6
f 322/1/6 323/1/6 328/1/6
f 328/1/6 323/1/6 329/1/6
f 324/1/6 325/1/6 330/1/6
f 330/1/6 325/1/6 331/1/6
f 329/1/6 330/1/6 334/1/6
f 334/1/6 330/1/6 335/1/6
f 332/1/6 333/1/6 337/1/6
f 337/1/6 333/1/6 338/1/6
f 336/1/6 337/1/6 339/1/6
f 339/1/6 337/1/6 340/1/6
f 340/1/6 341/1/6 342/1/6
f 342/1/6 341/1/6 343/1/6
f 318/4/6 319/4/6 345/4/6
f 345/4/6 319/4/6 346/4/6
f 344/4/6 345/4/6 347/4/6
f 347/4/6 345/4/6 348/4/6
f 349/4/6 350/4/6 354/4/6
f 353/4/6 354/4/6 355/4/6
f 354/4/6 350/4/6 356/4/6
f 355/4/6 354/4/6 356/4/6
f 351/4/6 352/4/6 358/4/6
f 357/4/6 358/4/6 359/4/6
f 358/4/6 352/4/6 360/4/6
f 359/4/6 358/4/6 360/4/6
