# MagicaVoxel @ Ephtracy

# group
o 

# material
mtllib ConveyorLeft.mtl
usemtl palette

# normals
vn -1 0 0
vn 1 0 0
vn 0 0 1
vn 0 0 -1
vn 0 -1 0
vn 0 1 0

# texcoords
vt 0.00976563 0.5
vt 0.150391 0.5
vt 0.154297 0.5
vt 0.158203 0.5

# verts
v -0.8 0 0.6
v -0.8 0 0.3
v -0.8 0 -0.3
v -0.8 0 -0.6
v -0.8 0.1 0.3
v -0.8 0.1 -0.3
v -0.8 0.2 0.6
v -0.8 0.2 0.5
v -0.8 0.2 -0.5
v -0.8 0.2 -0.6
v -0.8 0.3 0.5
v -0.8 0.3 0.3
v -0.8 0.3 -0.3
v -0.8 0.3 -0.5
v -0.6 0 0.8
v -0.6 0 0.6
v -0.6 0.1 0.1
v -0.6 0.1 -0.1
v -0.6 0.2 0.8
v -0.6 0.2 0.6
v -0.6 0.2 0.1
v -0.6 0.2 -0.1
v -0.5 0.1 0.2
v -0.5 0.1 0.1
v -0.5 0.1 -0.1
v -0.5 0.1 -0.2
v -0.5 0.2 0.8
v -0.5 0.2 0.5
v -0.5 0.2 0.2
v -0.5 0.2 0.1
v -0.5 0.2 -0.1
v -0.5 0.2 -0.2
v -0.5 0.3 0.8
v -0.5 0.3 0.5
v -0.4 0.1 0.7
v -0.4 0.1 0.4
v -0.4 0.2 0.7
v -0.4 0.2 0.4
v -0.2 0.1 0.5
v -0.2 0.1 0.4
v -0.2 0.1 0.2
v -0.2 0.1 0
v -0.2 0.2 0.5
v -0.2 0.2 0.4
v -0.2 0.2 0.2
v -0.2 0.2 0
v -0.1 0.1 0.4
v -0.1 0.1 0.3
v -0.1 0.1 0
v -0.1 0.1 -0.1
v -0.1 0.2 0.4
v -0.1 0.2 0.3
v -0.1 0.2 0
v -0.1 0.2 -0.1
v 0.1 0.1 0.5
v 0.1 0.1 0.4
v 0.1 0.2 0.5
v 0.1 0.2 0.4
v 0.3 0.1 0.8
v 0.3 0.1 0.7
v 0.3 0.1 -0.3
v 0.3 0.3 0.8
v 0.3 0.3 -0.3
v 0.4 0.1 -0.4
v 0.4 0.1 -0.5
v 0.4 0.2 -0.4
v 0.4 0.2 -0.5
v 0.5 0.1 0.7
v 0.5 0.1 -0.4
v 0.5 0.2 0.7
v 0.5 0.2 -0.4
v -0.7 0.1 0.5
v -0.7 0.1 0.4
v -0.7 0.1 -0.4
v -0.7 0.1 -0.5
v -0.7 0.2 0.5
v -0.7 0.2 0.4
v -0.7 0.2 -0.4
v -0.7 0.2 -0.5
v -0.5 0.1 0.7
v -0.5 0.1 0.5
v -0.5 0.1 0.1
v -0.5 0.1 -0.1
v -0.5 0.2 0.7
v -0.5 0.2 0.5
v -0.5 0.2 0.1
v -0.5 0.2 -0.1
v -0.4 0.1 0.2
v -0.4 0.1 0.1
v -0.4 0.1 -0.1
v -0.4 0.1 -0.2
v -0.4 0.2 0.2
v -0.4 0.2 0.1
v -0.4 0.2 -0.1
v -0.4 0.2 -0.2
v -0.3 0.1 0.8
v -0.3 0.1 0.7
v -0.3 0.1 0.3
v -0.3 0.3 0.8
v -0.3 0.3 0.3
v -0.1 0.1 0.5
v -0.1 0.1 0.4
v -0.1 0.1 0.2
v -0.1 0.1 0
v -0.1 0.2 0.5
v -0.1 0.2 0.4
v -0.1 0.2 0.2
v -0.1 0.2 0
v 0.1 0.1 0.4
v 0.1 0.1 0.3
v 0.1 0.1 0
v 0.1 0.1 -0.1
v 0.1 0.2 0.4
v 0.1 0.2 0.3
v 0.1 0.2 0
v 0.1 0.2 -0.1
v 0.2 0.1 0.5
v 0.2 0.1 0.4
v 0.2 0.2 0.5
v 0.2 0.2 0.4
v 0.3 0.1 -0.3
v 0.3 0.1 -0.4
v 0.3 0.2 -0.3
v 0.3 0.2 -0.4
v 0.4 0.1 0.7
v 0.4 0.1 -0.3
v 0.4 0.2 0.7
v 0.4 0.2 -0.3
v 0.4 0.2 -0.4
v 0.4 0.2 -0.5
v 0.4 0.3 -0.4
v 0.4 0.3 -0.5
v 0.5 0 -0.5
v 0.5 0 -0.6
v 0.5 0.2 0.8
v 0.5 0.2 -0.4
v 0.5 0.2 -0.5
v 0.5 0.2 -0.6
v 0.5 0.3 0.8
v 0.5 0.3 -0.4
v 0.6 0 0.8
v 0.6 0 -0.5
v 0.6 0.2 0.8
v 0.6 0.2 -0.5
v -0.6 0 0.8
v -0.6 0.2 0.8
v -0.5 0.2 0.8
v -0.5 0.3 0.8
v -0.3 0 0.8
v -0.3 0.1 0.8
v -0.3 0.3 0.8
v 0.3 0 0.8
v 0.3 0.1 0.8
v 0.3 0.3 0.8
v 0.5 0.2 0.8
v 0.5 0.3 0.8
v 0.6 0 0.8
v 0.6 0.2 0.8
v -0.8 0 0.6
v -0.8 0.2 0.6
v -0.6 0 0.6
v -0.6 0.2 0.6
v -0.8 0.2 0.5
v -0.8 0.3 0.5
v -0.5 0.2 0.5
v -0.5 0.3 0.5
v -0.2 0.1 0.5
v -0.2 0.2 0.5
v -0.1 0.1 0.5
v -0.1 0.2 0.5
v 0.1 0.1 0.5
v 0.1 0.2 0.5
v 0.2 0.1 0.5
v 0.2 0.2 0.5
v -0.7 0.1 0.4
v -0.7 0.2 0.4
v -0.4 0.1 0.4
v -0.4 0.2 0.4
v -0.1 0.1 0.4
v -0.1 0.2 0.4
v 0.1 0.1 0.4
v 0.1 0.2 0.4
v -0.5 0.1 0.2
v -0.5 0.2 0.2
v -0.4 0.1 0.2
v -0.4 0.2 0.2
v -0.2 0.1 0.2
v -0.2 0.2 0.2
v -0.1 0.1 0.2
v -0.1 0.2 0.2
v -0.6 0.1 0.1
v -0.6 0.2 0.1
v -0.5 0.1 0.1
v -0.5 0.2 0.1
v -0.1 0.1 0
v -0.1 0.2 0
v 0.1 0.1 0
v 0.1 0.2 0
v -0.5 0.1 -0.1
v -0.5 0.2 -0.1
v -0.4 0.1 -0.1
v -0.4 0.2 -0.1
v -0.8 0.1 -0.3
v -0.8 0.3 -0.3
v -0.7 0.1 -0.3
v 0.3 0.1 -0.3
v 0.3 0.3 -0.3
v 0.4 0.1 -0.4
v 0.4 0.2 -0.4
v 0.5 0.1 -0.4
v 0.5 0.2 -0.4
v -0.7 0.1 -0.5
v -0.7 0.2 -0.5
v 0.4 0.1 -0.5
v 0.4 0.2 -0.5
v -0.5 0.1 0.7
v -0.5 0.2 0.7
v -0.4 0.1 0.7
v -0.4 0.2 0.7
v 0.4 0.1 0.7
v 0.4 0.2 0.7
v 0.5 0.1 0.7
v 0.5 0.2 0.7
v -0.7 0.1 0.5
v -0.7 0.2 0.5
v -0.5 0.1 0.5
v -0.5 0.2 0.5
v -0.2 0.1 0.4
v -0.2 0.2 0.4
v -0.1 0.1 0.4
v -0.1 0.2 0.4
v 0.1 0.1 0.4
v 0.1 0.2 0.4
v 0.2 0.1 0.4
v 0.2 0.2 0.4
v -0.8 0.1 0.3
v -0.8 0.3 0.3
v -0.7 0.1 0.3
v -0.3 0.1 0.3
v -0.3 0.3 0.3
v -0.1 0.1 0.3
v -0.1 0.2 0.3
v 0.1 0.1 0.3
v 0.1 0.2 0.3
v -0.5 0.1 0.1
v -0.5 0.2 0.1
v -0.4 0.1 0.1
v -0.4 0.2 0.1
v -0.2 0.1 0
v -0.2 0.2 0
v -0.1 0.1 0
v -0.1 0.2 0
v -0.6 0.1 -0.1
v -0.6 0.2 -0.1
v -0.5 0.1 -0.1
v -0.5 0.2 -0.1
v -0.1 0.1 -0.1
v -0.1 0.2 -0.1
v 0.1 0.1 -0.1
v 0.1 0.2 -0.1
v -0.5 0.1 -0.2
v -0.5 0.2 -0.2
v -0.4 0.1 -0.2
v -0.4 0.2 -0.2
v 0.3 0.1 -0.3
v 0.3 0.2 -0.3
v 0.4 0.1 -0.3
v 0.4 0.2 -0.3
v -0.7 0.1 -0.4
v -0.7 0.2 -0.4
v 0.3 0.1 -0.4
v 0.3 0.2 -0.4
v 0.4 0.2 -0.4
v 0.4 0.3 -0.4
v 0.5 0.2 -0.4
v 0.5 0.3 -0.4
v -0.8 0.2 -0.5
v -0.8 0.3 -0.5
v 0.4 0.2 -0.5
v 0.4 0.3 -0.5
v 0.5 0 -0.5
v 0.5 0.2 -0.5
v 0.6 0 -0.5
v 0.6 0.2 -0.5
v -0.8 0 -0.6
v -0.8 0.2 -0.6
v 0.5 0 -0.6
v 0.5 0.2 -0.6
v -0.6 0 0.8
v -0.3 0 0.8
v 0.3 0 0.8
v 0.6 0 0.8
v -0.3 0 0.7
v 0.3 0 0.7
v -0.8 0 0.6
v -0.6 0 0.6
v -0.8 0 0.3
v -0.7 0 0.3
v -0.3 0 0.3
v -0.8 0 -0.3
v -0.7 0 -0.3
v 0.3 0 -0.3
v 0.5 0 -0.5
v 0.6 0 -0.5
v -0.8 0 -0.6
v 0.5 0 -0.6
v -0.5 0.2 0.7
v -0.4 0.2 0.7
v 0.4 0.2 0.7
v 0.5 0.2 0.7
v -0.7 0.2 0.5
v -0.5 0.2 0.5
v -0.7 0.2 0.4
v -0.4 0.2 0.4
v 0.3 0.2 -0.3
v 0.4 0.2 -0.3
v -0.7 0.2 -0.4
v 0.3 0.2 -0.4
v 0.4 0.2 -0.4
v 0.5 0.2 -0.4
v -0.7 0.2 -0.5
v 0.4 0.2 -0.5
v -0.3 0.1 0.8
v 0.3 0.1 0.8
v -0.5 0.1 0.7
v -0.4 0.1 0.7
v -0.3 0.1 0.7
v 0.3 0.1 0.7
v 0.4 0.1 0.7
v 0.5 0.1 0.7
v -0.7 0.1 0.5
v -0.5 0.1 0.5
v -0.2 0.1 0.5
v -0.1 0.1 0.5
v 0.1 0.1 0.5
v 0.2 0.1 0.5
v -0.7 0.1 0.4
v -0.4 0.1 0.4
v -0.2 0.1 0.4
v -0.1 0.1 0.4
v 0.1 0.1 0.4
v 0.2 0.1 0.4
v -0.8 0.1 0.3
v -0.7 0.1 0.3
v -0.3 0.1 0.3
v -0.1 0.1 0.3
v 0.1 0.1 0.3
v -0.5 0.1 0.2
v -0.4 0.1 0.2
v -0.2 0.1 0.2
v -0.1 0.1 0.2
v -0.6 0.1 0.1
v -0.5 0.1 0.1
v -0.4 0.1 0.1
v -0.2 0.1 0
v -0.1 0.1 0
v 0.1 0.1 0
v -0.6 0.1 -0.1
v -0.5 0.1 -0.1
v -0.4 0.1 -0.1
v -0.1 0.1 -0.1
v 0.1 0.1 -0.1
v -0.5 0.1 -0.2
v -0.4 0.1 -0.2
v -0.8 0.1 -0.3
v -0.7 0.1 -0.3
v 0.3 0.1 -0.3
v 0.4 0.1 -0.3
v -0.7 0.1 -0.4
v 0.3 0.1 -0.4
v 0.4 0.1 -0.4
v 0.5 0.1 -0.4
v -0.7 0.1 -0.5
v 0.4 0.1 -0.5
v -0.6 0.2 0.8
v -0.5 0.2 0.8
v 0.5 0.2 0.8
v 0.6 0.2 0.8
v -0.8 0.2 0.6
v -0.6 0.2 0.6
v -0.8 0.2 0.5
v -0.5 0.2 0.5
v -0.2 0.2 0.5
v -0.1 0.2 0.5
v 0.1 0.2 0.5
v 0.2 0.2 0.5
v -0.2 0.2 0.4
v -0.1 0.2 0.4
v 0.1 0.2 0.4
v 0.2 0.2 0.4
v -0.1 0.2 0.3
v 0.1 0.2 0.3
v -0.5 0.2 0.2
v -0.4 0.2 0.2
v -0.2 0.2 0.2
v -0.1 0.2 0.2
v -0.6 0.2 0.1
v -0.5 0.2 0.1
v -0.4 0.2 0.1
v -0.2 0.2 0
v -0.1 0.2 0
v 0.1 0.2 0
v -0.6 0.2 -0.1
v -0.5 0.2 -0.1
v -0.4 0.2 -0.1
v -0.1 0.2 -0.1
v 0.1 0.2 -0.1
v -0.5 0.2 -0.2
v -0.4 0.2 -0.2
v 0.4 0.2 -0.4
v 0.5 0.2 -0.4
v -0.8 0.2 -0.5
v 0.4 0.2 -0.5
v 0.5 0.2 -0.5
v 0.6 0.2 -0.5
v -0.8 0.2 -0.6
v 0.5 0.2 -0.6
v -0.5 0.3 0.8
v -0.3 0.3 0.8
v 0.3 0.3 0.8
v 0.5 0.3 0.8
v -0.8 0.3 0.5
v -0.5 0.3 0.5
v -0.8 0.3 0.3
v -0.3 0.3 0.3
v -0.8 0.3 -0.3
v 0.3 0.3 -0.3
v 0.4 0.3 -0.4
v 0.5 0.3 -0.4
v -0.8 0.3 -0.5
v 0.4 0.3 -0.5

# faces
f 5/4/1 2/4/1 1/4/1
f 5/2/1 3/2/1 2/2/1
f 6/4/1 4/4/1 3/4/1
f 6/2/1 3/2/1 5/2/1
f 7/4/1 5/4/1 1/4/1
f 8/4/1 5/4/1 7/4/1
f 9/4/1 4/4/1 6/4/1
f 10/4/1 4/4/1 9/4/1
f 11/4/1 5/4/1 8/4/1
f 12/4/1 5/4/1 11/4/1
f 13/4/1 9/4/1 6/4/1
f 14/4/1 9/4/1 13/4/1
f 19/4/1 16/4/1 15/4/1
f 20/4/1 16/4/1 19/4/1
f 21/1/1 18/1/1 17/1/1
f 22/1/1 18/1/1 21/1/1
f 29/1/1 24/1/1 23/1/1
f 30/1/1 24/1/1 29/1/1
f 31/1/1 26/1/1 25/1/1
f 32/1/1 26/1/1 31/1/1
f 33/4/1 28/4/1 27/4/1
f 34/4/1 28/4/1 33/4/1
f 37/4/1 36/4/1 35/4/1
f 38/4/1 36/4/1 37/4/1
f 43/1/1 40/1/1 39/1/1
f 44/1/1 40/1/1 43/1/1
f 45/1/1 42/1/1 41/1/1
f 46/1/1 42/1/1 45/1/1
f 51/1/1 48/1/1 47/1/1
f 52/1/1 48/1/1 51/1/1
f 53/1/1 50/1/1 49/1/1
f 54/1/1 50/1/1 53/1/1
f 57/1/1 56/1/1 55/1/1
f 58/1/1 56/1/1 57/1/1
f 62/4/1 60/4/1 59/4/1
f 62/4/1 61/4/1 60/4/1
f 63/4/1 61/4/1 62/4/1
f 66/4/1 65/4/1 64/4/1
f 67/4/1 65/4/1 66/4/1
f 70/4/1 69/4/1 68/4/1
f 71/4/1 69/4/1 70/4/1
f 72/4/2 73/4/2 76/4/2
f 76/4/2 73/4/2 77/4/2
f 74/4/2 75/4/2 78/4/2
f 78/4/2 75/4/2 79/4/2
f 80/4/2 81/4/2 84/4/2
f 84/4/2 81/4/2 85/4/2
f 82/1/2 83/1/2 86/1/2
f 86/1/2 83/1/2 87/1/2
f 88/1/2 89/1/2 92/1/2
f 92/1/2 89/1/2 93/1/2
f 90/1/2 91/1/2 94/1/2
f 94/1/2 91/1/2 95/1/2
f 96/4/2 97/4/2 99/4/2
f 97/4/2 98/4/2 99/4/2
f 99/4/2 98/4/2 100/4/2
f 101/1/2 102/1/2 105/1/2
f 105/1/2 102/1/2 106/1/2
f 103/1/2 104/1/2 107/1/2
f 107/1/2 104/1/2 108/1/2
f 109/1/2 110/1/2 113/1/2
f 113/1/2 110/1/2 114/1/2
f 111/1/2 112/1/2 115/1/2
f 115/1/2 112/1/2 116/1/2
f 117/1/2 118/1/2 119/1/2
f 119/1/2 118/1/2 120/1/2
f 121/4/2 122/4/2 123/4/2
f 123/4/2 122/4/2 124/4/2
f 125/4/2 126/4/2 127/4/2
f 127/4/2 126/4/2 128/4/2
f 129/4/2 130/4/2 131/4/2
f 131/4/2 130/4/2 132/4/2
f 133/4/2 134/4/2 137/4/2
f 137/4/2 134/4/2 138/4/2
f 135/4/2 136/4/2 139/4/2
f 139/4/2 136/4/2 140/4/2
f 141/4/2 142/4/2 143/4/2
f 143/4/2 142/4/2 144/4/2
f 147/4/3 146/4/3 145/4/3
f 149/4/3 147/4/3 145/4/3
f 149/4/3 148/4/3 147/4/3
f 150/4/3 148/4/3 149/4/3
f 151/4/3 148/4/3 150/4/3
f 152/2/3 150/2/3 149/2/3
f 153/2/3 150/2/3 152/2/3
f 155/4/3 153/4/3 152/4/3
f 155/4/3 154/4/3 153/4/3
f 156/4/3 154/4/3 155/4/3
f 157/4/3 155/4/3 152/4/3
f 158/4/3 155/4/3 157/4/3
f 161/4/3 160/4/3 159/4/3
f 162/4/3 160/4/3 161/4/3
f 165/4/3 164/4/3 163/4/3
f 166/4/3 164/4/3 165/4/3
f 169/1/3 168/1/3 167/1/3
f 170/1/3 168/1/3 169/1/3
f 173/1/3 172/1/3 171/1/3
f 174/1/3 172/1/3 173/1/3
f 177/4/3 176/4/3 175/4/3
f 178/4/3 176/4/3 177/4/3
f 181/1/3 180/1/3 179/1/3
f 182/1/3 180/1/3 181/1/3
f 185/1/3 184/1/3 183/1/3
f 186/1/3 184/1/3 185/1/3
f 189/1/3 188/1/3 187/1/3
f 190/1/3 188/1/3 189/1/3
f 193/1/3 192/1/3 191/1/3
f 194/1/3 192/1/3 193/1/3
f 197/1/3 196/1/3 195/1/3
f 198/1/3 196/1/3 197/1/3
f 201/1/3 200/1/3 199/1/3
f 202/1/3 200/1/3 201/1/3
f 205/4/3 204/4/3 203/4/3
f 206/4/3 204/4/3 205/4/3
f 207/4/3 204/4/3 206/4/3
f 210/4/3 209/4/3 208/4/3
f 211/4/3 209/4/3 210/4/3
f 214/4/3 213/4/3 212/4/3
f 215/4/3 213/4/3 214/4/3
f 216/4/4 217/4/4 218/4/4
f 218/4/4 217/4/4 219/4/4
f 220/4/4 221/4/4 222/4/4
f 222/4/4 221/4/4 223/4/4
f 224/4/4 225/4/4 226/4/4
f 226/4/4 225/4/4 227/4/4
f 228/1/4 229/1/4 230/1/4
f 230/1/4 229/1/4 231/1/4
f 232/1/4 233/1/4 234/1/4
f 234/1/4 233/1/4 235/1/4
f 236/4/4 237/4/4 238/4/4
f 238/4/4 237/4/4 239/4/4
f 239/4/4 237/4/4 240/4/4
f 241/1/4 242/1/4 243/1/4
f 243/1/4 242/1/4 244/1/4
f 245/1/4 246/1/4 247/1/4
f 247/1/4 246/1/4 248/1/4
f 249/1/4 250/1/4 251/1/4
f 251/1/4 250/1/4 252/1/4
f 253/1/4 254/1/4 255/1/4
f 255/1/4 254/1/4 256/1/4
f 257/1/4 258/1/4 259/1/4
f 259/1/4 258/1/4 260/1/4
f 261/1/4 262/1/4 263/1/4
f 263/1/4 262/1/4 264/1/4
f 265/4/4 266/4/4 267/4/4
f 267/4/4 266/4/4 268/4/4
f 269/4/4 270/4/4 271/4/4
f 271/4/4 270/4/4 272/4/4
f 273/4/4 274/4/4 275/4/4
f 275/4/4 274/4/4 276/4/4
f 277/4/4 278/4/4 279/4/4
f 279/4/4 278/4/4 280/4/4
f 281/4/4 282/4/4 283/4/4
f 283/4/4 282/4/4 284/4/4
f 285/4/4 286/4/4 287/4/4
f 287/4/4 286/4/4 288/4/4
f 293/4/5 290/4/5 289/4/5
f 293/2/5 291/2/5 290/2/5
f 294/4/5 292/4/5 291/4/5
f 294/2/5 291/2/5 293/2/5
f 296/4/5 293/4/5 289/4/5
f 297/4/5 296/4/5 295/4/5
f 298/4/5 296/4/5 297/4/5
f 299/3/5 294/3/5 293/3/5
f 299/4/5 296/4/5 298/4/5
f 299/4/5 293/4/5 296/4/5
f 300/2/5 298/2/5 297/2/5
f 301/3/5 299/3/5 298/3/5
f 301/2/5 298/2/5 300/2/5
f 302/4/5 292/4/5 294/4/5
f 302/3/5 299/3/5 301/3/5
f 302/3/5 294/3/5 299/3/5
f 303/4/5 301/4/5 300/4/5
f 303/4/5 292/4/5 302/4/5
f 303/4/5 302/4/5 301/4/5
f 304/4/5 292/4/5 303/4/5
f 305/4/5 303/4/5 300/4/5
f 306/4/5 303/4/5 305/4/5
f 312/4/5 308/4/5 307/4/5
f 313/4/5 312/4/5 311/4/5
f 314/4/5 308/4/5 312/4/5
f 314/4/5 312/4/5 313/4/5
f 316/4/5 310/4/5 309/4/5
f 318/4/5 316/4/5 315/4/5
f 319/4/5 310/4/5 316/4/5
f 319/4/5 316/4/5 318/4/5
f 320/4/5 310/4/5 319/4/5
f 321/4/5 318/4/5 317/4/5
f 321/4/5 319/4/5 318/4/5
f 322/4/5 319/4/5 321/4/5
f 323/2/6 324/2/6 327/2/6
f 327/2/6 324/2/6 328/2/6
f 325/4/6 326/4/6 332/4/6
f 327/3/6 328/3/6 333/3/6
f 333/3/6 328/3/6 334/3/6
f 334/3/6 328/3/6 335/3/6
f 335/3/6 328/3/6 336/3/6
f 331/4/6 332/4/6 337/4/6
f 332/4/6 326/4/6 338/4/6
f 337/4/6 332/4/6 338/4/6
f 327/3/6 333/3/6 339/3/6
f 334/3/6 335/3/6 340/3/6
f 340/3/6 335/3/6 341/3/6
f 336/3/6 328/3/6 342/3/6
f 327/3/6 339/3/6 345/3/6
f 339/3/6 340/3/6 345/3/6
f 345/3/6 340/3/6 346/3/6
f 341/3/6 342/3/6 347/3/6
f 345/3/6 346/3/6 348/3/6
f 346/3/6 347/3/6 348/3/6
f 344/3/6 345/3/6 348/3/6
f 348/3/6 347/3/6 349/3/6
f 349/3/6 347/3/6 350/3/6
f 350/3/6 347/3/6 351/3/6
f 344/3/6 348/3/6 352/3/6
f 352/3/6 348/3/6 353/3/6
f 349/3/6 350/3/6 354/3/6
f 353/3/6 354/3/6 355/3/6
f 354/3/6 350/3/6 355/3/6
f 351/3/6 347/3/6 356/3/6
f 347/3/6 342/3/6 357/3/6
f 356/3/6 347/3/6 357/3/6
f 344/3/6 352/3/6 358/3/6
f 355/3/6 356/3/6 359/3/6
f 353/3/6 355/3/6 359/3/6
f 359/3/6 356/3/6 360/3/6
f 360/3/6 356/3/6 361/3/6
f 357/3/6 342/3/6 362/3/6
f 358/3/6 359/3/6 363/3/6
f 360/3/6 361/3/6 364/3/6
f 361/3/6 362/3/6 364/3/6
f 343/2/6 344/2/6 365/2/6
f 344/3/6 358/3/6 366/3/6
f 365/2/6 344/2/6 366/2/6
f 363/3/6 364/3/6 366/3/6
f 358/3/6 363/3/6 366/3/6
f 342/3/6 328/3/6 367/3/6
f 366/3/6 364/3/6 367/3/6
f 364/3/6 362/3/6 367/3/6
f 362/3/6 342/3/6 367/3/6
f 329/4/6 330/4/6 368/4/6
f 367/4/6 368/4/6 370/4/6
f 368/4/6 330/4/6 371/4/6
f 370/4/6 368/4/6 371/4/6
f 371/4/6 330/4/6 372/4/6
f 369/4/6 370/4/6 373/4/6
f 370/4/6 371/4/6 373/4/6
f 373/4/6 371/4/6 374/4/6
f 375/4/6 376/4/6 380/4/6
f 379/4/6 380/4/6 381/4/6
f 380/4/6 376/4/6 382/4/6
f 381/4/6 380/4/6 382/4/6
f 383/1/6 384/1/6 387/1/6
f 387/1/6 384/1/6 388/1/6
f 385/1/6 386/1/6 389/1/6
f 389/1/6 386/1/6 390/1/6
f 388/1/6 389/1/6 391/1/6
f 391/1/6 389/1/6 392/1/6
f 393/1/6 394/1/6 398/1/6
f 398/1/6 394/1/6 399/1/6
f 395/1/6 396/1/6 400/1/6
f 400/1/6 396/1/6 401/1/6
f 397/1/6 398/1/6 403/1/6
f 403/1/6 398/1/6 404/1/6
f 401/1/6 402/1/6 406/1/6
f 406/1/6 402/1/6 407/1/6
f 404/1/6 405/1/6 408/1/6
f 408/1/6 405/1/6 409/1/6
f 377/4/6 378/4/6 411/4/6
f 410/4/6 411/4/6 413/4/6
f 411/4/6 378/4/6 414/4/6
f 413/4/6 411/4/6 414/4/6
f 414/4/6 378/4/6 415/4/6
f 412/4/6 413/4/6 416/4/6
f 413/4/6 414/4/6 416/4/6
f 416/4/6 414/4/6 417/4/6
f 418/4/6 419/4/6 423/4/6
f 422/4/6 423/4/6 424/4/6
f 423/4/6 419/4/6 425/4/6
f 424/4/6 423/4/6 425/4/6
f 420/4/6 421/4/6 427/4/6
f 427/4/6 421/4/6 428/4/6
f 426/4/6 427/4/6 428/4/6
f 428/4/6 421/4/6 429/4/6
f 426/4/6 428/4/6 430/4/6
f 430/4/6 428/4/6 431/4/6
