# MagicaVoxel @ Ephtracy

# group
o 

# material
mtllib ArmeRayon.mtl
usemtl palette

# normals
vn -1 0 0
vn 1 0 0
vn 0 0 1
vn 0 0 -1
vn 0 -1 0
vn 0 1 0

# texcoords
vt 0.0136719 0.5
vt 0.0175781 0.5
vt 0.0214844 0.5
vt 0.142578 0.5
vt 0.158203 0.5
vt 0.162109 0.5

# verts
v -0.8 0.8 1.5
v -0.8 0.8 0.4
v -0.8 0.9 1.5
v -0.8 0.9 0.4
v -0.7 0.7 1.2
v -0.7 0.7 1
v -0.7 0.7 0.8
v -0.7 0.7 0.5
v -0.7 0.7 0.4
v -0.7 0.8 1.2
v -0.7 0.8 1
v -0.7 0.8 0.8
v -0.7 0.8 0.5
v -0.7 0.8 0.4
v -0.7 0.8 0.3
v -0.7 0.9 1.2
v -0.7 0.9 1
v -0.7 0.9 0.8
v -0.7 0.9 0.5
v -0.7 0.9 0.4
v -0.7 0.9 0.3
v -0.7 1 1.2
v -0.7 1 1
v -0.7 1 0.8
v -0.7 1 0.5
v -0.7 1 0.4
v -0.7 1.1 0.8
v -0.7 1.1 0.5
v -0.6 0.6 1.7
v -0.6 0.6 0.4
v -0.6 0.7 1.7
v -0.6 0.7 1.2
v -0.6 0.7 1
v -0.6 0.7 0.8
v -0.6 0.7 0.5
v -0.6 0.7 0.4
v -0.6 0.7 0.3
v -0.6 0.8 0.4
v -0.6 0.8 0.3
v -0.6 0.8 0.2
v -0.6 0.9 0.4
v -0.6 0.9 0.3
v -0.6 0.9 0.2
v -0.6 1 1.7
v -0.6 1 1.2
v -0.6 1 1
v -0.6 1 0.8
v -0.6 1 0.5
v -0.6 1 0.4
v -0.6 1 0.3
v -0.6 1.1 1.7
v -0.6 1.1 0.8
v -0.6 1.1 0.5
v -0.6 1.1 0.4
v -0.6 1.2 0.8
v -0.6 1.2 0.5
v -0.4 0.8 1.5
v -0.4 0.8 1.2
v -0.4 0.9 1.5
v -0.4 0.9 1.2
v -0.4 1.2 0.8
v -0.4 1.2 0.5
v -0.4 1.3 0.8
v -0.4 1.3 0.5
v -0.3 0.9 0.8
v -0.3 0.9 0.5
v -0.3 1 0.9
v -0.3 1 0.8
v -0.3 1 0.5
v -0.3 1 0.4
v -0.3 1.3 0.9
v -0.3 1.3 0.8
v -0.3 1.3 0.5
v -0.3 1.3 0.4
v -0.3 1.4 0.8
v -0.3 1.4 0.5
v 0.3 0.9 0.8
v 0.3 0.9 0.5
v 0.3 1 0.9
v 0.3 1 0.8
v 0.3 1 0.5
v 0.3 1 0.4
v 0.3 1.3 0.9
v 0.3 1.3 0.8
v 0.3 1.3 0.5
v 0.3 1.3 0.4
v 0.3 1.4 0.8
v 0.3 1.4 0.5
v -0.7 0.8 1.5
v -0.7 0.8 1.2
v -0.7 0.9 1.5
v -0.7 0.9 1.2
v -0.5 0.6 1.7
v -0.5 0.6 0.4
v -0.5 0.7 1.7
v -0.5 0.7 1.2
v -0.5 0.7 1
v -0.5 0.7 0.8
v -0.5 0.7 0.5
v -0.5 0.7 0.4
v -0.5 0.7 0.3
v -0.5 0.8 0.4
v -0.5 0.8 0.3
v -0.5 0.8 0.2
v -0.5 0.9 0.4
v -0.5 0.9 0.3
v -0.5 0.9 0.2
v -0.5 1 1.7
v -0.5 1 1.2
v -0.5 1 1
v -0.5 1 0.8
v -0.5 1 0.5
v -0.5 1 0.4
v -0.5 1 0.3
v -0.5 1.1 1.7
v -0.5 1.1 0.8
v -0.5 1.1 0.5
v -0.5 1.1 0.4
v -0.4 0.7 1.2
v -0.4 0.7 1
v -0.4 0.7 0.8
v -0.4 0.7 0.5
v -0.4 0.7 0.4
v -0.4 0.8 1.2
v -0.4 0.8 1
v -0.4 0.8 0.8
v -0.4 0.8 0.5
v -0.4 0.8 0.4
v -0.4 0.8 0.3
v -0.4 0.9 1.2
v -0.4 0.9 1
v -0.4 0.9 0.8
v -0.4 0.9 0.5
v -0.4 0.9 0.4
v -0.4 0.9 0.3
v -0.4 1 1.2
v -0.4 1 1
v -0.4 1 0.8
v -0.4 1 0.5
v -0.4 1 0.4
v -0.3 0.8 1.5
v -0.3 0.8 0.4
v -0.3 0.9 1.5
v -0.3 0.9 0.8
v -0.3 0.9 0.5
v -0.3 0.9 0.4
v -0.2 0.9 0.8
v -0.2 0.9 0.5
v -0.2 1 0.9
v -0.2 1 0.8
v -0.2 1 0.5
v -0.2 1 0.4
v -0.2 1.3 0.9
v -0.2 1.3 0.8
v -0.2 1.3 0.5
v -0.2 1.3 0.4
v -0.2 1.4 0.8
v -0.2 1.4 0.5
v 0.4 0.9 0.8
v 0.4 0.9 0.5
v 0.4 1 0.9
v 0.4 1 0.8
v 0.4 1 0.5
v 0.4 1 0.4
v 0.4 1.3 0.9
v 0.4 1.3 0.8
v 0.4 1.3 0.5
v 0.4 1.3 0.4
v 0.4 1.4 0.8
v 0.4 1.4 0.5
v 0.5 1 0.8
v 0.5 1 0.5
v 0.5 1.3 0.8
v 0.5 1.3 0.5
v -0.6 0.6 1.7
v -0.6 0.7 1.7
v -0.6 1 1.7
v -0.6 1.1 1.7
v -0.5 0.6 1.7
v -0.5 0.7 1.7
v -0.5 1 1.7
v -0.5 1.1 1.7
v -0.8 0.8 1.5
v -0.8 0.9 1.5
v -0.7 0.8 1.5
v -0.7 0.9 1.5
v -0.4 0.8 1.5
v -0.4 0.9 1.5
v -0.3 0.8 1.5
v -0.3 0.9 1.5
v -0.7 0.7 1.2
v -0.7 0.8 1.2
v -0.7 0.9 1.2
v -0.7 1 1.2
v -0.6 0.7 1.2
v -0.6 1 1.2
v -0.5 0.7 1.2
v -0.5 1 1.2
v -0.4 0.7 1.2
v -0.4 0.8 1.2
v -0.4 0.9 1.2
v -0.4 1 1.2
v -0.3 1 0.9
v -0.3 1.3 0.9
v -0.2 1 0.9
v -0.2 1.3 0.9
v 0.3 1 0.9
v 0.3 1.3 0.9
v 0.4 1 0.9
v 0.4 1.3 0.9
v -0.7 1 0.8
v -0.7 1.1 0.8
v -0.6 1 0.8
v -0.6 1.1 0.8
v -0.6 1.2 0.8
v -0.5 1 0.8
v -0.5 1.1 0.8
v -0.4 1 0.8
v -0.4 1.2 0.8
v -0.4 1.3 0.8
v -0.3 0.9 0.8
v -0.3 1 0.8
v -0.3 1.3 0.8
v -0.3 1.4 0.8
v -0.2 0.9 0.8
v -0.2 1 0.8
v -0.2 1.3 0.8
v -0.2 1.4 0.8
v 0.3 0.9 0.8
v 0.3 1 0.8
v 0.3 1.3 0.8
v 0.3 1.4 0.8
v 0.4 0.9 0.8
v 0.4 1 0.8
v 0.4 1.3 0.8
v 0.4 1.4 0.8
v 0.5 1 0.8
v 0.5 1.3 0.8
v -0.7 1 0.5
v -0.7 1.1 0.5
v -0.6 1 0.5
v -0.6 1.1 0.5
v -0.6 1.2 0.5
v -0.5 1 0.5
v -0.5 1.1 0.5
v -0.4 1 0.5
v -0.4 1.2 0.5
v -0.4 1.3 0.5
v -0.3 0.9 0.5
v -0.3 1 0.5
v -0.3 1.3 0.5
v -0.3 1.4 0.5
v -0.2 0.9 0.5
v -0.2 1 0.5
v -0.2 1.3 0.5
v -0.2 1.4 0.5
v 0.3 0.9 0.5
v 0.3 1 0.5
v 0.3 1.3 0.5
v 0.3 1.4 0.5
v 0.4 0.9 0.5
v 0.4 1 0.5
v 0.4 1.3 0.5
v 0.4 1.4 0.5
v 0.5 1 0.5
v 0.5 1.3 0.5
v -0.8 0.8 0.4
v -0.8 0.9 0.4
v -0.7 0.7 0.4
v -0.7 0.8 0.4
v -0.7 0.9 0.4
v -0.7 1 0.4
v -0.6 0.6 0.4
v -0.6 0.7 0.4
v -0.6 0.8 0.4
v -0.6 0.9 0.4
v -0.6 1 0.4
v -0.6 1.1 0.4
v -0.5 0.6 0.4
v -0.5 0.7 0.4
v -0.5 0.8 0.4
v -0.5 0.9 0.4
v -0.5 1 0.4
v -0.5 1.1 0.4
v -0.4 0.7 0.4
v -0.4 0.8 0.4
v -0.4 0.9 0.4
v -0.4 1 0.4
v -0.3 0.8 0.4
v -0.3 0.9 0.4
v -0.3 1 0.4
v -0.3 1.3 0.4
v -0.2 1 0.4
v -0.2 1.3 0.4
v 0.3 1 0.4
v 0.3 1.3 0.4
v 0.4 1 0.4
v 0.4 1.3 0.4
v -0.7 0.8 0.3
v -0.7 0.9 0.3
v -0.6 0.7 0.3
v -0.6 0.8 0.3
v -0.6 0.9 0.3
v -0.6 1 0.3
v -0.5 0.7 0.3
v -0.5 0.8 0.3
v -0.5 0.9 0.3
v -0.5 1 0.3
v -0.4 0.8 0.3
v -0.4 0.9 0.3
v -0.6 0.8 0.2
v -0.6 0.9 0.2
v -0.5 0.8 0.2
v -0.5 0.9 0.2
v -0.6 0.6 1.7
v -0.5 0.6 1.7
v -0.6 0.6 0.4
v -0.5 0.6 0.4
v -0.7 0.7 1.2
v -0.6 0.7 1.2
v -0.5 0.7 1.2
v -0.4 0.7 1.2
v -0.7 0.7 1
v -0.6 0.7 1
v -0.5 0.7 1
v -0.4 0.7 1
v -0.7 0.7 0.8
v -0.6 0.7 0.8
v -0.5 0.7 0.8
v -0.4 0.7 0.8
v -0.7 0.7 0.5
v -0.6 0.7 0.5
v -0.5 0.7 0.5
v -0.4 0.7 0.5
v -0.7 0.7 0.4
v -0.6 0.7 0.4
v -0.5 0.7 0.4
v -0.4 0.7 0.4
v -0.6 0.7 0.3
v -0.5 0.7 0.3
v -0.8 0.8 1.5
v -0.7 0.8 1.5
v -0.4 0.8 1.5
v -0.3 0.8 1.5
v -0.7 0.8 1.2
v -0.4 0.8 1.2
v -0.7 0.8 1
v -0.4 0.8 1
v -0.7 0.8 0.8
v -0.4 0.8 0.8
v -0.7 0.8 0.5
v -0.4 0.8 0.5
v -0.8 0.8 0.4
v -0.7 0.8 0.4
v -0.6 0.8 0.4
v -0.5 0.8 0.4
v -0.4 0.8 0.4
v -0.3 0.8 0.4
v -0.7 0.8 0.3
v -0.6 0.8 0.3
v -0.5 0.8 0.3
v -0.4 0.8 0.3
v -0.6 0.8 0.2
v -0.5 0.8 0.2
v -0.3 0.9 0.8
v -0.2 0.9 0.8
v 0.3 0.9 0.8
v 0.4 0.9 0.8
v -0.3 0.9 0.5
v -0.2 0.9 0.5
v 0.3 0.9 0.5
v 0.4 0.9 0.5
v -0.6 1 1.7
v -0.5 1 1.7
v -0.6 1 1.2
v -0.5 1 1.2
v -0.3 1 0.9
v -0.2 1 0.9
v 0.3 1 0.9
v 0.4 1 0.9
v -0.4 1 0.8
v -0.3 1 0.8
v -0.2 1 0.8
v 0.3 1 0.8
v 0.4 1 0.8
v 0.5 1 0.8
v -0.4 1 0.5
v -0.3 1 0.5
v -0.2 1 0.5
v 0.3 1 0.5
v 0.4 1 0.5
v 0.5 1 0.5
v -0.3 1 0.4
v -0.2 1 0.4
v 0.3 1 0.4
v 0.4 1 0.4
v -0.6 0.7 1.7
v -0.5 0.7 1.7
v -0.6 0.7 1.2
v -0.5 0.7 1.2
v -0.8 0.9 1.5
v -0.7 0.9 1.5
v -0.4 0.9 1.5
v -0.3 0.9 1.5
v -0.7 0.9 1.2
v -0.4 0.9 1.2
v -0.7 0.9 1
v -0.4 0.9 1
v -0.7 0.9 0.8
v -0.4 0.9 0.8
v -0.3 0.9 0.8
v -0.7 0.9 0.5
v -0.4 0.9 0.5
v -0.3 0.9 0.5
v -0.8 0.9 0.4
v -0.7 0.9 0.4
v -0.6 0.9 0.4
v -0.5 0.9 0.4
v -0.4 0.9 0.4
v -0.3 0.9 0.4
v -0.7 0.9 0.3
v -0.6 0.9 0.3
v -0.5 0.9 0.3
v -0.4 0.9 0.3
v -0.6 0.9 0.2
v -0.5 0.9 0.2
v -0.7 1 1.2
v -0.6 1 1.2
v -0.5 1 1.2
v -0.4 1 1.2
v -0.7 1 1
v -0.6 1 1
v -0.5 1 1
v -0.4 1 1
v -0.7 1 0.8
v -0.6 1 0.8
v -0.5 1 0.8
v -0.4 1 0.8
v -0.7 1 0.5
v -0.6 1 0.5
v -0.5 1 0.5
v -0.4 1 0.5
v -0.7 1 0.4
v -0.6 1 0.4
v -0.5 1 0.4
v -0.4 1 0.4
v -0.6 1 0.3
v -0.5 1 0.3
v -0.6 1.1 1.7
v -0.5 1.1 1.7
v -0.7 1.1 0.8
v -0.6 1.1 0.8
v -0.5 1.1 0.8
v -0.7 1.1 0.5
v -0.6 1.1 0.5
v -0.5 1.1 0.5
v -0.6 1.1 0.4
v -0.5 1.1 0.4
v -0.6 1.2 0.8
v -0.4 1.2 0.8
v -0.6 1.2 0.5
v -0.4 1.2 0.5
v -0.3 1.3 0.9
v -0.2 1.3 0.9
v 0.3 1.3 0.9
v 0.4 1.3 0.9
v -0.4 1.3 0.8
v -0.3 1.3 0.8
v -0.2 1.3 0.8
v 0.3 1.3 0.8
v 0.4 1.3 0.8
v 0.5 1.3 0.8
v -0.4 1.3 0.5
v -0.3 1.3 0.5
v -0.2 1.3 0.5
v 0.3 1.3 0.5
v 0.4 1.3 0.5
v 0.5 1.3 0.5
v -0.3 1.3 0.4
v -0.2 1.3 0.4
v 0.3 1.3 0.4
v 0.4 1.3 0.4
v -0.3 1.4 0.8
v -0.2 1.4 0.8
v 0.3 1.4 0.8
v 0.4 1.4 0.8
v -0.3 1.4 0.5
v -0.2 1.4 0.5
v 0.3 1.4 0.5
v 0.4 1.4 0.5

# faces
f 3/5/1 2/5/1 1/5/1
f 4/5/1 2/5/1 3/5/1
f 10/3/1 6/3/1 5/3/1
f 11/2/1 7/2/1 6/2/1
f 11/3/1 6/3/1 10/3/1
f 12/1/1 8/1/1 7/1/1
f 12/2/1 7/2/1 11/2/1
f 13/5/1 9/5/1 8/5/1
f 13/1/1 8/1/1 12/1/1
f 14/5/1 9/5/1 13/5/1
f 20/5/1 15/5/1 14/5/1
f 21/5/1 15/5/1 20/5/1
f 22/3/1 17/3/1 16/3/1
f 23/2/1 18/2/1 17/2/1
f 23/3/1 17/3/1 22/3/1
f 24/1/1 19/1/1 18/1/1
f 24/2/1 18/2/1 23/2/1
f 25/5/1 20/5/1 19/5/1
f 25/1/1 19/1/1 24/1/1
f 26/5/1 20/5/1 25/5/1
f 27/6/1 25/6/1 24/6/1
f 28/6/1 25/6/1 27/6/1
f 31/5/1 30/5/1 29/5/1
f 32/5/1 30/5/1 31/5/1
f 33/5/1 30/5/1 32/5/1
f 34/5/1 30/5/1 33/5/1
f 35/5/1 30/5/1 34/5/1
f 36/5/1 30/5/1 35/5/1
f 38/5/1 37/5/1 36/5/1
f 39/5/1 37/5/1 38/5/1
f 42/5/1 40/5/1 39/5/1
f 43/5/1 40/5/1 42/5/1
f 49/5/1 42/5/1 41/5/1
f 50/5/1 42/5/1 49/5/1
f 51/5/1 47/5/1 46/5/1
f 51/5/1 45/5/1 44/5/1
f 51/5/1 46/5/1 45/5/1
f 52/5/1 47/5/1 51/5/1
f 53/5/1 49/5/1 48/5/1
f 54/5/1 49/5/1 53/5/1
f 55/6/1 53/6/1 52/6/1
f 56/6/1 53/6/1 55/6/1
f 59/5/1 58/5/1 57/5/1
f 60/5/1 58/5/1 59/5/1
f 63/6/1 62/6/1 61/6/1
f 64/6/1 62/6/1 63/6/1
f 68/5/1 66/5/1 65/5/1
f 69/5/1 66/5/1 68/5/1
f 71/5/1 68/5/1 67/5/1
f 72/5/1 68/5/1 71/5/1
f 73/5/1 70/5/1 69/5/1
f 74/5/1 70/5/1 73/5/1
f 75/5/1 73/5/1 72/5/1
f 76/5/1 73/5/1 75/5/1
f 80/5/1 78/5/1 77/5/1
f 81/5/1 78/5/1 80/5/1
f 83/5/1 80/5/1 79/5/1
f 84/4/1 81/4/1 80/4/1
f 84/5/1 80/5/1 83/5/1
f 85/5/1 82/5/1 81/5/1
f 85/4/1 81/4/1 84/4/1
f 86/5/1 82/5/1 85/5/1
f 87/5/1 85/5/1 84/5/1
f 88/5/1 85/5/1 87/5/1
f 89/5/2 90/5/2 91/5/2
f 91/5/2 90/5/2 92/5/2
f 93/5/2 94/5/2 95/5/2
f 95/5/2 94/5/2 96/5/2
f 96/5/2 94/5/2 97/5/2
f 97/5/2 94/5/2 98/5/2
f 98/5/2 94/5/2 99/5/2
f 99/5/2 94/5/2 100/5/2
f 100/5/2 101/5/2 102/5/2
f 102/5/2 101/5/2 103/5/2
f 103/5/2 104/5/2 106/5/2
f 106/5/2 104/5/2 107/5/2
f 105/5/2 106/5/2 113/5/2
f 113/5/2 106/5/2 114/5/2
f 110/5/2 111/5/2 115/5/2
f 108/5/2 109/5/2 115/5/2
f 109/5/2 110/5/2 115/5/2
f 115/5/2 111/5/2 116/5/2
f 112/5/2 113/5/2 117/5/2
f 117/5/2 113/5/2 118/5/2
f 119/3/2 120/3/2 124/3/2
f 120/2/2 121/2/2 125/2/2
f 124/3/2 120/3/2 125/3/2
f 121/1/2 122/1/2 126/1/2
f 125/2/2 121/2/2 126/2/2
f 122/5/2 123/5/2 127/5/2
f 126/1/2 122/1/2 127/1/2
f 127/5/2 123/5/2 128/5/2
f 128/5/2 129/5/2 134/5/2
f 134/5/2 129/5/2 135/5/2
f 130/3/2 131/3/2 136/3/2
f 131/2/2 132/2/2 137/2/2
f 136/3/2 131/3/2 137/3/2
f 132/1/2 133/1/2 138/1/2
f 137/2/2 132/2/2 138/2/2
f 133/5/2 134/5/2 139/5/2
f 138/1/2 133/1/2 139/1/2
f 139/5/2 134/5/2 140/5/2
f 141/5/2 142/5/2 143/5/2
f 143/5/2 142/5/2 144/5/2
f 144/5/2 142/5/2 145/5/2
f 145/5/2 142/5/2 146/5/2
f 147/5/2 148/5/2 150/5/2
f 150/5/2 148/5/2 151/5/2
f 149/5/2 150/5/2 153/5/2
f 150/4/2 151/4/2 154/4/2
f 153/5/2 150/5/2 154/5/2
f 151/5/2 152/5/2 155/5/2
f 154/4/2 151/4/2 155/4/2
f 155/5/2 152/5/2 156/5/2
f 154/5/2 155/5/2 157/5/2
f 157/5/2 155/5/2 158/5/2
f 159/5/2 160/5/2 162/5/2
f 162/5/2 160/5/2 163/5/2
f 161/5/2 162/5/2 165/5/2
f 165/5/2 162/5/2 166/5/2
f 163/5/2 164/5/2 167/5/2
f 167/5/2 164/5/2 168/5/2
f 166/5/2 167/5/2 169/5/2
f 169/5/2 167/5/2 170/5/2
f 171/6/2 172/6/2 173/6/2
f 173/6/2 172/6/2 174/6/2
f 179/5/3 176/5/3 175/5/3
f 180/5/3 176/5/3 179/5/3
f 181/5/3 178/5/3 177/5/3
f 182/5/3 178/5/3 181/5/3
f 185/5/3 184/5/3 183/5/3
f 186/5/3 184/5/3 185/5/3
f 189/5/3 188/5/3 187/5/3
f 190/5/3 188/5/3 189/5/3
f 195/3/3 192/3/3 191/3/3
f 195/3/3 194/3/3 193/3/3
f 195/3/3 193/3/3 192/3/3
f 196/3/3 194/3/3 195/3/3
f 197/3/3 196/3/3 195/3/3
f 198/3/3 196/3/3 197/3/3
f 199/3/3 198/3/3 197/3/3
f 200/3/3 198/3/3 199/3/3
f 201/3/3 198/3/3 200/3/3
f 202/3/3 198/3/3 201/3/3
f 205/5/3 204/5/3 203/5/3
f 206/5/3 204/5/3 205/5/3
f 209/5/3 208/5/3 207/5/3
f 210/5/3 208/5/3 209/5/3
f 213/6/3 212/6/3 211/6/3
f 214/6/3 212/6/3 213/6/3
f 217/6/3 215/6/3 214/6/3
f 218/6/3 217/6/3 216/6/3
f 219/6/3 215/6/3 217/6/3
f 219/6/3 217/6/3 218/6/3
f 222/6/3 219/6/3 218/6/3
f 222/6/3 220/6/3 219/6/3
f 223/6/3 220/6/3 222/6/3
f 225/5/3 222/5/3 221/5/3
f 226/5/3 222/5/3 225/5/3
f 227/5/3 224/5/3 223/5/3
f 228/5/3 224/5/3 227/5/3
f 233/5/3 230/5/3 229/5/3
f 234/5/3 230/5/3 233/5/3
f 235/5/3 232/5/3 231/5/3
f 236/5/3 232/5/3 235/5/3
f 237/6/3 235/6/3 234/6/3
f 238/6/3 235/6/3 237/6/3
f 239/6/4 240/6/4 241/6/4
f 241/6/4 240/6/4 242/6/4
f 242/6/4 243/6/4 245/6/4
f 244/6/4 245/6/4 246/6/4
f 245/6/4 243/6/4 247/6/4
f 246/6/4 245/6/4 247/6/4
f 246/6/4 247/6/4 250/6/4
f 247/6/4 248/6/4 250/6/4
f 250/6/4 248/6/4 251/6/4
f 249/5/4 250/5/4 253/5/4
f 253/5/4 250/5/4 254/5/4
f 251/5/4 252/5/4 255/5/4
f 255/5/4 252/5/4 256/5/4
f 257/5/4 258/5/4 261/5/4
f 261/5/4 258/5/4 262/5/4
f 259/5/4 260/5/4 263/5/4
f 263/5/4 260/5/4 264/5/4
f 262/6/4 263/6/4 265/6/4
f 265/6/4 263/6/4 266/6/4
f 267/5/4 268/5/4 270/5/4
f 270/5/4 268/5/4 271/5/4
f 269/5/4 270/5/4 274/5/4
f 274/5/4 270/5/4 275/5/4
f 271/5/4 272/5/4 276/5/4
f 276/5/4 272/5/4 277/5/4
f 273/5/4 274/5/4 279/5/4
f 279/5/4 274/5/4 280/5/4
f 277/5/4 278/5/4 283/5/4
f 283/5/4 278/5/4 284/5/4
f 280/5/4 281/5/4 285/5/4
f 285/5/4 281/5/4 286/5/4
f 282/5/4 283/5/4 287/5/4
f 287/5/4 283/5/4 288/5/4
f 286/5/4 287/5/4 289/5/4
f 289/5/4 287/5/4 290/5/4
f 291/5/4 292/5/4 293/5/4
f 293/5/4 292/5/4 294/5/4
f 295/5/4 296/5/4 297/5/4
f 297/5/4 296/5/4 298/5/4
f 299/5/4 300/5/4 302/5/4
f 302/5/4 300/5/4 303/5/4
f 301/5/4 302/5/4 305/5/4
f 305/5/4 302/5/4 306/5/4
f 303/5/4 304/5/4 307/5/4
f 307/5/4 304/5/4 308/5/4
f 306/5/4 307/5/4 309/5/4
f 309/5/4 307/5/4 310/5/4
f 311/5/4 312/5/4 313/5/4
f 313/5/4 312/5/4 314/5/4
f 317/5/5 316/5/5 315/5/5
f 318/5/5 316/5/5 317/5/5
f 323/3/5 320/3/5 319/3/5
f 324/3/5 320/3/5 323/3/5
f 325/3/5 322/3/5 321/3/5
f 326/3/5 322/3/5 325/3/5
f 327/2/5 324/2/5 323/2/5
f 328/2/5 324/2/5 327/2/5
f 329/2/5 326/2/5 325/2/5
f 330/2/5 326/2/5 329/2/5
f 331/1/5 328/1/5 327/1/5
f 332/1/5 328/1/5 331/1/5
f 333/1/5 330/1/5 329/1/5
f 334/1/5 330/1/5 333/1/5
f 335/5/5 332/5/5 331/5/5
f 336/5/5 332/5/5 335/5/5
f 337/5/5 334/5/5 333/5/5
f 338/5/5 334/5/5 337/5/5
f 339/5/5 337/5/5 336/5/5
f 340/5/5 337/5/5 339/5/5
f 345/5/5 342/5/5 341/5/5
f 346/5/5 344/5/5 343/5/5
f 347/5/5 345/5/5 341/5/5
f 348/5/5 344/5/5 346/5/5
f 349/5/5 347/5/5 341/5/5
f 350/5/5 344/5/5 348/5/5
f 351/5/5 349/5/5 341/5/5
f 352/5/5 344/5/5 350/5/5
f 353/5/5 351/5/5 341/5/5
f 354/5/5 351/5/5 353/5/5
f 357/5/5 344/5/5 352/5/5
f 358/5/5 344/5/5 357/5/5
f 359/5/5 355/5/5 354/5/5
f 360/5/5 355/5/5 359/5/5
f 361/5/5 357/5/5 356/5/5
f 362/5/5 357/5/5 361/5/5
f 363/5/5 361/5/5 360/5/5
f 364/5/5 361/5/5 363/5/5
f 369/5/5 366/5/5 365/5/5
f 370/5/5 366/5/5 369/5/5
f 371/5/5 368/5/5 367/5/5
f 372/5/5 368/5/5 371/5/5
f 375/5/5 374/5/5 373/5/5
f 376/5/5 374/5/5 375/5/5
f 382/5/5 378/5/5 377/5/5
f 383/5/5 378/5/5 382/5/5
f 384/5/5 380/5/5 379/5/5
f 385/5/5 380/5/5 384/5/5
f 387/6/5 382/6/5 381/6/5
f 388/6/5 382/6/5 387/6/5
f 391/6/5 386/6/5 385/6/5
f 392/6/5 386/6/5 391/6/5
f 393/5/5 389/5/5 388/5/5
f 394/5/5 389/5/5 393/5/5
f 395/5/5 391/5/5 390/5/5
f 396/5/5 391/5/5 395/5/5
f 397/5/6 398/5/6 399/5/6
f 399/5/6 398/5/6 400/5/6
f 401/5/6 402/5/6 405/5/6
f 403/5/6 404/5/6 406/5/6
f 401/5/6 405/5/6 407/5/6
f 406/5/6 404/5/6 408/5/6
f 401/5/6 407/5/6 409/5/6
f 408/5/6 404/5/6 410/5/6
f 410/5/6 404/5/6 411/5/6
f 401/5/6 409/5/6 412/5/6
f 410/5/6 411/5/6 413/5/6
f 413/5/6 411/5/6 414/5/6
f 401/5/6 412/5/6 415/5/6
f 415/5/6 412/5/6 416/5/6
f 413/5/6 414/5/6 419/5/6
f 419/5/6 414/5/6 420/5/6
f 416/5/6 417/5/6 421/5/6
f 421/5/6 417/5/6 422/5/6
f 418/5/6 419/5/6 423/5/6
f 423/5/6 419/5/6 424/5/6
f 422/5/6 423/5/6 425/5/6
f 425/5/6 423/5/6 426/5/6
f 427/3/6 428/3/6 431/3/6
f 431/3/6 428/3/6 432/3/6
f 429/3/6 430/3/6 433/3/6
f 433/3/6 430/3/6 434/3/6
f 431/2/6 432/2/6 435/2/6
f 435/2/6 432/2/6 436/2/6
f 433/2/6 434/2/6 437/2/6
f 437/2/6 434/2/6 438/2/6
f 439/5/6 440/5/6 443/5/6
f 443/5/6 440/5/6 444/5/6
f 441/5/6 442/5/6 445/5/6
f 445/5/6 442/5/6 446/5/6
f 444/5/6 445/5/6 447/5/6
f 447/5/6 445/5/6 448/5/6
f 449/5/6 450/5/6 452/5/6
f 452/5/6 450/5/6 453/5/6
f 451/6/6 452/6/6 454/6/6
f 454/6/6 452/6/6 455/6/6
f 455/5/6 456/5/6 457/5/6
f 457/5/6 456/5/6 458/5/6
f 459/6/6 460/6/6 461/6/6
f 461/6/6 460/6/6 462/6/6
f 463/5/6 464/5/6 468/5/6
f 468/5/6 464/5/6 469/5/6
f 465/5/6 466/5/6 470/5/6
f 470/5/6 466/5/6 471/5/6
f 467/6/6 468/6/6 473/6/6
f 473/6/6 468/6/6 474/6/6
f 471/6/6 472/6/6 477/6/6
f 477/6/6 472/6/6 478/6/6
f 474/5/6 475/5/6 479/5/6
f 479/5/6 475/5/6 480/5/6
f 476/5/6 477/5/6 481/5/6
f 481/5/6 477/5/6 482/5/6
f 483/5/6 484/5/6 487/5/6
f 487/5/6 484/5/6 488/5/6
f 485/5/6 486/5/6 489/5/6
f 489/5/6 486/5/6 490/5/6
