# MagicaVoxel @ Ephtracy

# group
o 

# material
mtllib ConveyorStraightLeft.mtl
usemtl palette

# normals
vn -1 0 0
vn 1 0 0
vn 0 0 1
vn 0 0 -1
vn 0 -1 0
vn 0 1 0

# texcoords
vt 0.00976563 0.5
vt 0.150391 0.5
vt 0.154297 0.5
vt 0.158203 0.5

# verts
v -0.5 0 0.4
v -0.5 0 0.2
v -0.5 0 -0.2
v -0.5 0 -0.4
v -0.5 0.1 0.2
v -0.5 0.1 -0.2
v -0.5 0.2 0.4
v -0.5 0.2 0.3
v -0.5 0.2 -0.3
v -0.5 0.2 -0.4
v -0.5 0.3 0.3
v -0.5 0.3 0.2
v -0.5 0.3 -0.2
v -0.5 0.3 -0.3
v -0.4 0 0.5
v -0.4 0 0.4
v -0.4 0 -0.4
v -0.4 0 -0.5
v -0.4 0.1 0.1
v -0.4 0.1 -0.1
v -0.4 0.2 0.5
v -0.4 0.2 0.4
v -0.4 0.2 0.1
v -0.4 0.2 -0.1
v -0.4 0.2 -0.4
v -0.4 0.2 -0.5
v -0.3 0.1 0.2
v -0.3 0.1 0.1
v -0.3 0.1 -0.1
v -0.3 0.1 -0.2
v -0.3 0.2 0.5
v -0.3 0.2 0.3
v -0.3 0.2 0.2
v -0.3 0.2 0.1
v -0.3 0.2 -0.1
v -0.3 0.2 -0.2
v -0.3 0.2 -0.3
v -0.3 0.2 -0.5
v -0.3 0.3 0.5
v -0.3 0.3 0.3
v -0.3 0.3 -0.3
v -0.3 0.3 -0.5
v -0.2 0.1 0.4
v -0.2 0.1 0.3
v -0.2 0.1 -0.2
v -0.2 0.1 -0.3
v -0.2 0.2 0.4
v -0.2 0.2 0.3
v -0.2 0.2 -0.2
v -0.2 0.2 -0.3
v -0.1 0.1 0.3
v -0.1 0.1 0.2
v -0.1 0.1 -0.3
v -0.1 0.1 -0.4
v -0.1 0.2 0.3
v -0.1 0.2 0.2
v -0.1 0.2 -0.3
v -0.1 0.2 -0.4
v 0.1 0.1 0.4
v 0.1 0.1 0.3
v 0.1 0.1 -0.2
v 0.1 0.1 -0.3
v 0.1 0.2 0.4
v 0.1 0.2 0.3
v 0.1 0.2 -0.2
v 0.1 0.2 -0.3
v 0.2 0.1 0.5
v 0.2 0.1 0.4
v 0.2 0.1 0.3
v 0.2 0.1 -0.2
v 0.2 0.1 -0.3
v 0.2 0.1 -0.4
v 0.2 0.1 -0.5
v 0.2 0.2 0.4
v 0.2 0.2 0.3
v 0.2 0.2 -0.2
v 0.2 0.2 -0.3
v 0.2 0.3 0.5
v 0.2 0.3 -0.5
v 0.3 0.1 0.4
v 0.3 0.1 0.3
v 0.3 0.1 -0.2
v 0.3 0.1 -0.3
v 0.3 0.2 0.4
v 0.3 0.2 0.3
v 0.3 0.2 -0.2
v 0.3 0.2 -0.3
v -0.3 0.1 0.4
v -0.3 0.1 0.3
v -0.3 0.1 0.1
v -0.3 0.1 -0.1
v -0.3 0.1 -0.2
v -0.3 0.1 -0.3
v -0.3 0.2 0.4
v -0.3 0.2 0.3
v -0.3 0.2 0.1
v -0.3 0.2 -0.1
v -0.3 0.2 -0.2
v -0.3 0.2 -0.3
v -0.2 0.1 0.5
v -0.2 0.1 0.4
v -0.2 0.1 0.3
v -0.2 0.1 0.2
v -0.2 0.1 0.1
v -0.2 0.1 -0.1
v -0.2 0.1 -0.2
v -0.2 0.1 -0.3
v -0.2 0.1 -0.4
v -0.2 0.1 -0.5
v -0.2 0.2 0.4
v -0.2 0.2 0.3
v -0.2 0.2 0.2
v -0.2 0.2 0.1
v -0.2 0.2 -0.1
v -0.2 0.2 -0.2
v -0.2 0.2 -0.3
v -0.2 0.3 0.5
v -0.2 0.3 0.2
v -0.2 0.3 -0.2
v -0.2 0.3 -0.5
v -0.1 0.1 0.4
v -0.1 0.1 0.3
v -0.1 0.1 -0.2
v -0.1 0.1 -0.3
v -0.1 0.2 0.4
v -0.1 0.2 0.3
v -0.1 0.2 -0.2
v -0.1 0.2 -0.3
v 0.1 0.1 0.3
v 0.1 0.1 0.2
v 0.1 0.1 -0.3
v 0.1 0.1 -0.4
v 0.1 0.2 0.3
v 0.1 0.2 0.2
v 0.1 0.2 -0.3
v 0.1 0.2 -0.4
v 0.2 0.1 0.4
v 0.2 0.1 0.3
v 0.2 0.1 -0.2
v 0.2 0.1 -0.3
v 0.2 0.2 0.4
v 0.2 0.2 0.3
v 0.2 0.2 -0.2
v 0.2 0.2 -0.3
v 0.3 0.2 0.5
v 0.3 0.2 -0.5
v 0.3 0.3 0.5
v 0.3 0.3 -0.5
v 0.4 0 0.5
v 0.4 0 -0.5
v 0.4 0.2 0.5
v 0.4 0.2 -0.5
v -0.4 0 0.5
v -0.4 0.2 0.5
v -0.3 0.2 0.5
v -0.3 0.3 0.5
v -0.2 0 0.5
v -0.2 0.1 0.5
v -0.2 0.3 0.5
v 0.2 0 0.5
v 0.2 0.1 0.5
v 0.2 0.3 0.5
v 0.3 0.2 0.5
v 0.3 0.3 0.5
v 0.4 0 0.5
v 0.4 0.2 0.5
v -0.5 0 0.4
v -0.5 0.2 0.4
v -0.4 0 0.4
v -0.4 0.2 0.4
v -0.2 0.1 0.4
v -0.2 0.2 0.4
v -0.1 0.1 0.4
v -0.1 0.2 0.4
v 0.1 0.1 0.4
v 0.1 0.2 0.4
v 0.2 0.1 0.4
v 0.2 0.2 0.4
v -0.5 0.2 0.3
v -0.5 0.3 0.3
v -0.3 0.1 0.3
v -0.3 0.2 0.3
v -0.3 0.3 0.3
v -0.2 0.1 0.3
v -0.2 0.2 0.3
v -0.1 0.1 0.3
v -0.1 0.2 0.3
v 0.1 0.1 0.3
v 0.1 0.2 0.3
v 0.2 0.1 0.3
v 0.2 0.2 0.3
v 0.3 0.1 0.3
v 0.3 0.2 0.3
v -0.4 0.1 0.1
v -0.4 0.2 0.1
v -0.3 0.1 0.1
v -0.3 0.2 0.1
v -0.3 0.1 -0.1
v -0.3 0.2 -0.1
v -0.2 0.1 -0.1
v -0.2 0.2 -0.1
v -0.5 0.1 -0.2
v -0.5 0.3 -0.2
v -0.4 0.1 -0.2
v -0.3 0.1 -0.2
v -0.3 0.2 -0.2
v -0.2 0.1 -0.2
v -0.2 0.2 -0.2
v -0.2 0.3 -0.2
v -0.1 0.1 -0.2
v -0.1 0.2 -0.2
v 0.1 0.1 -0.2
v 0.1 0.2 -0.2
v 0.2 0.1 -0.2
v 0.2 0.2 -0.2
v -0.3 0.1 -0.3
v -0.3 0.2 -0.3
v -0.2 0.1 -0.3
v -0.2 0.2 -0.3
v -0.1 0.1 -0.3
v -0.1 0.2 -0.3
v 0.1 0.1 -0.3
v 0.1 0.2 -0.3
v 0.2 0.1 -0.3
v 0.2 0.2 -0.3
v 0.3 0.1 -0.3
v 0.3 0.2 -0.3
v -0.3 0.1 0.4
v -0.3 0.2 0.4
v -0.2 0.1 0.4
v -0.2 0.2 0.4
v 0.2 0.1 0.4
v 0.2 0.2 0.4
v 0.3 0.1 0.4
v 0.3 0.2 0.4
v -0.2 0.1 0.3
v -0.2 0.2 0.3
v -0.1 0.1 0.3
v -0.1 0.2 0.3
v 0.1 0.1 0.3
v 0.1 0.2 0.3
v 0.2 0.1 0.3
v 0.2 0.2 0.3
v -0.5 0.1 0.2
v -0.5 0.3 0.2
v -0.4 0.1 0.2
v -0.3 0.1 0.2
v -0.3 0.2 0.2
v -0.2 0.2 0.2
v -0.2 0.3 0.2
v -0.1 0.1 0.2
v -0.1 0.2 0.2
v 0.1 0.1 0.2
v 0.1 0.2 0.2
v -0.3 0.1 0.1
v -0.3 0.2 0.1
v -0.2 0.1 0.1
v -0.2 0.2 0.1
v -0.4 0.1 -0.1
v -0.4 0.2 -0.1
v -0.3 0.1 -0.1
v -0.3 0.2 -0.1
v -0.3 0.1 -0.2
v -0.3 0.2 -0.2
v -0.2 0.1 -0.2
v -0.2 0.2 -0.2
v 0.2 0.1 -0.2
v 0.2 0.2 -0.2
v 0.3 0.1 -0.2
v 0.3 0.2 -0.2
v -0.5 0.2 -0.3
v -0.5 0.3 -0.3
v -0.3 0.2 -0.3
v -0.3 0.3 -0.3
v -0.2 0.1 -0.3
v -0.2 0.2 -0.3
v -0.1 0.1 -0.3
v -0.1 0.2 -0.3
v 0.1 0.1 -0.3
v 0.1 0.2 -0.3
v 0.2 0.1 -0.3
v 0.2 0.2 -0.3
v -0.5 0 -0.4
v -0.5 0.2 -0.4
v -0.4 0 -0.4
v -0.4 0.2 -0.4
v -0.1 0.1 -0.4
v -0.1 0.2 -0.4
v 0.1 0.1 -0.4
v 0.1 0.2 -0.4
v -0.4 0 -0.5
v -0.4 0.2 -0.5
v -0.3 0.2 -0.5
v -0.3 0.3 -0.5
v -0.2 0 -0.5
v -0.2 0.1 -0.5
v -0.2 0.3 -0.5
v 0.2 0 -0.5
v 0.2 0.1 -0.5
v 0.2 0.3 -0.5
v 0.3 0.2 -0.5
v 0.3 0.3 -0.5
v 0.4 0 -0.5
v 0.4 0.2 -0.5
v -0.4 0 0.5
v -0.2 0 0.5
v 0.2 0 0.5
v 0.4 0 0.5
v -0.5 0 0.4
v -0.4 0 0.4
v -0.2 0 0.4
v 0.2 0 0.4
v -0.5 0 0.2
v -0.4 0 0.2
v -0.2 0 0.2
v -0.5 0 -0.2
v -0.4 0 -0.2
v -0.2 0 -0.2
v -0.5 0 -0.4
v -0.4 0 -0.4
v -0.2 0 -0.4
v 0.2 0 -0.4
v -0.4 0 -0.5
v -0.2 0 -0.5
v 0.2 0 -0.5
v 0.4 0 -0.5
v -0.3 0.2 0.4
v -0.2 0.2 0.4
v 0.2 0.2 0.4
v 0.3 0.2 0.4
v -0.3 0.2 0.3
v -0.2 0.2 0.3
v 0.2 0.2 0.3
v 0.3 0.2 0.3
v -0.3 0.2 -0.2
v -0.2 0.2 -0.2
v 0.2 0.2 -0.2
v 0.3 0.2 -0.2
v -0.3 0.2 -0.3
v -0.2 0.2 -0.3
v 0.2 0.2 -0.3
v 0.3 0.2 -0.3
v -0.2 0.1 0.5
v 0.2 0.1 0.5
v -0.3 0.1 0.4
v -0.2 0.1 0.4
v -0.1 0.1 0.4
v 0.1 0.1 0.4
v 0.2 0.1 0.4
v 0.3 0.1 0.4
v -0.3 0.1 0.3
v -0.2 0.1 0.3
v -0.1 0.1 0.3
v 0.1 0.1 0.3
v 0.2 0.1 0.3
v 0.3 0.1 0.3
v -0.5 0.1 0.2
v -0.4 0.1 0.2
v -0.3 0.1 0.2
v -0.2 0.1 0.2
v -0.1 0.1 0.2
v 0.1 0.1 0.2
v -0.4 0.1 0.1
v -0.3 0.1 0.1
v -0.2 0.1 0.1
v -0.4 0.1 -0.1
v -0.3 0.1 -0.1
v -0.2 0.1 -0.1
v -0.5 0.1 -0.2
v -0.4 0.1 -0.2
v -0.3 0.1 -0.2
v -0.2 0.1 -0.2
v -0.1 0.1 -0.2
v 0.1 0.1 -0.2
v 0.2 0.1 -0.2
v 0.3 0.1 -0.2
v -0.3 0.1 -0.3
v -0.2 0.1 -0.3
v -0.1 0.1 -0.3
v 0.1 0.1 -0.3
v 0.2 0.1 -0.3
v 0.3 0.1 -0.3
v -0.2 0.1 -0.4
v -0.1 0.1 -0.4
v 0.1 0.1 -0.4
v 0.2 0.1 -0.4
v -0.2 0.1 -0.5
v 0.2 0.1 -0.5
v -0.4 0.2 0.5
v -0.3 0.2 0.5
v 0.3 0.2 0.5
v 0.4 0.2 0.5
v -0.5 0.2 0.4
v -0.4 0.2 0.4
v -0.2 0.2 0.4
v -0.1 0.2 0.4
v 0.1 0.2 0.4
v 0.2 0.2 0.4
v -0.5 0.2 0.3
v -0.3 0.2 0.3
v -0.2 0.2 0.3
v -0.1 0.2 0.3
v 0.1 0.2 0.3
v 0.2 0.2 0.3
v -0.3 0.2 0.2
v -0.2 0.2 0.2
v -0.1 0.2 0.2
v 0.1 0.2 0.2
v -0.4 0.2 0.1
v -0.3 0.2 0.1
v -0.2 0.2 0.1
v -0.4 0.2 -0.1
v -0.3 0.2 -0.1
v -0.2 0.2 -0.1
v -0.3 0.2 -0.2
v -0.2 0.2 -0.2
v -0.1 0.2 -0.2
v 0.1 0.2 -0.2
v 0.2 0.2 -0.2
v -0.5 0.2 -0.3
v -0.3 0.2 -0.3
v -0.2 0.2 -0.3
v -0.1 0.2 -0.3
v 0.1 0.2 -0.3
v 0.2 0.2 -0.3
v -0.5 0.2 -0.4
v -0.4 0.2 -0.4
v -0.1 0.2 -0.4
v 0.1 0.2 -0.4
v -0.4 0.2 -0.5
v -0.3 0.2 -0.5
v 0.3 0.2 -0.5
v 0.4 0.2 -0.5
v -0.3 0.3 0.5
v -0.2 0.3 0.5
v 0.2 0.3 0.5
v 0.3 0.3 0.5
v -0.5 0.3 0.3
v -0.3 0.3 0.3
v -0.5 0.3 0.2
v -0.2 0.3 0.2
v -0.5 0.3 -0.2
v -0.2 0.3 -0.2
v -0.5 0.3 -0.3
v -0.3 0.3 -0.3
v -0.3 0.3 -0.5
v -0.2 0.3 -0.5
v 0.2 0.3 -0.5
v 0.3 0.3 -0.5

# faces
f 5/4/1 2/4/1 1/4/1
f 5/2/1 3/2/1 2/2/1
f 6/4/1 4/4/1 3/4/1
f 6/2/1 3/2/1 5/2/1
f 7/4/1 5/4/1 1/4/1
f 8/4/1 5/4/1 7/4/1
f 9/4/1 4/4/1 6/4/1
f 10/4/1 4/4/1 9/4/1
f 11/4/1 5/4/1 8/4/1
f 12/4/1 5/4/1 11/4/1
f 13/4/1 9/4/1 6/4/1
f 14/4/1 9/4/1 13/4/1
f 21/4/1 16/4/1 15/4/1
f 22/4/1 16/4/1 21/4/1
f 23/1/1 20/1/1 19/1/1
f 24/1/1 20/1/1 23/1/1
f 25/4/1 18/4/1 17/4/1
f 26/4/1 18/4/1 25/4/1
f 33/1/1 28/1/1 27/1/1
f 34/1/1 28/1/1 33/1/1
f 35/1/1 30/1/1 29/1/1
f 36/1/1 30/1/1 35/1/1
f 39/4/1 32/4/1 31/4/1
f 40/4/1 32/4/1 39/4/1
f 41/4/1 38/4/1 37/4/1
f 42/4/1 38/4/1 41/4/1
f 47/1/1 44/1/1 43/1/1
f 48/1/1 44/1/1 47/1/1
f 49/1/1 46/1/1 45/1/1
f 50/1/1 46/1/1 49/1/1
f 55/1/1 52/1/1 51/1/1
f 56/1/1 52/1/1 55/1/1
f 57/1/1 54/1/1 53/1/1
f 58/1/1 54/1/1 57/1/1
f 63/1/1 60/1/1 59/1/1
f 64/1/1 60/1/1 63/1/1
f 65/1/1 62/1/1 61/1/1
f 66/1/1 62/1/1 65/1/1
f 74/4/1 68/4/1 67/4/1
f 75/4/1 70/4/1 69/4/1
f 76/4/1 70/4/1 75/4/1
f 77/4/1 73/4/1 72/4/1
f 77/4/1 72/4/1 71/4/1
f 78/4/1 76/4/1 75/4/1
f 78/4/1 77/4/1 76/4/1
f 78/4/1 74/4/1 67/4/1
f 78/4/1 75/4/1 74/4/1
f 79/4/1 73/4/1 77/4/1
f 79/4/1 77/4/1 78/4/1
f 84/4/1 81/4/1 80/4/1
f 85/4/1 81/4/1 84/4/1
f 86/4/1 83/4/1 82/4/1
f 87/4/1 83/4/1 86/4/1
f 88/4/2 89/4/2 94/4/2
f 94/4/2 89/4/2 95/4/2
f 90/1/2 91/1/2 96/1/2
f 96/1/2 91/1/2 97/1/2
f 92/4/2 93/4/2 98/4/2
f 98/4/2 93/4/2 99/4/2
f 100/4/2 101/4/2 110/4/2
f 102/4/2 103/4/2 111/4/2
f 103/1/2 104/1/2 112/1/2
f 111/4/2 103/4/2 112/4/2
f 112/1/2 104/1/2 113/1/2
f 105/1/2 106/1/2 114/1/2
f 114/1/2 106/1/2 115/1/2
f 108/4/2 109/4/2 116/4/2
f 107/4/2 108/4/2 116/4/2
f 100/4/2 110/4/2 117/4/2
f 110/4/2 111/4/2 117/4/2
f 111/4/2 112/4/2 117/4/2
f 117/4/2 112/4/2 118/4/2
f 115/4/2 116/4/2 119/4/2
f 116/4/2 109/4/2 120/4/2
f 119/4/2 116/4/2 120/4/2
f 121/1/2 122/1/2 125/1/2
f 125/1/2 122/1/2 126/1/2
f 123/1/2 124/1/2 127/1/2
f 127/1/2 124/1/2 128/1/2
f 129/1/2 130/1/2 133/1/2
f 133/1/2 130/1/2 134/1/2
f 131/1/2 132/1/2 135/1/2
f 135/1/2 132/1/2 136/1/2
f 137/1/2 138/1/2 141/1/2
f 141/1/2 138/1/2 142/1/2
f 139/1/2 140/1/2 143/1/2
f 143/1/2 140/1/2 144/1/2
f 145/4/2 146/4/2 147/4/2
f 147/4/2 146/4/2 148/4/2
f 149/4/2 150/4/2 151/4/2
f 151/4/2 150/4/2 152/4/2
f 155/4/3 154/4/3 153/4/3
f 157/4/3 155/4/3 153/4/3
f 157/4/3 156/4/3 155/4/3
f 158/4/3 156/4/3 157/4/3
f 159/4/3 156/4/3 158/4/3
f 160/2/3 158/2/3 157/2/3
f 161/2/3 158/2/3 160/2/3
f 163/4/3 161/4/3 160/4/3
f 163/4/3 162/4/3 161/4/3
f 164/4/3 162/4/3 163/4/3
f 165/4/3 163/4/3 160/4/3
f 166/4/3 163/4/3 165/4/3
f 169/4/3 168/4/3 167/4/3
f 170/4/3 168/4/3 169/4/3
f 173/1/3 172/1/3 171/1/3
f 174/1/3 172/1/3 173/1/3
f 177/1/3 176/1/3 175/1/3
f 178/1/3 176/1/3 177/1/3
f 182/4/3 180/4/3 179/4/3
f 183/4/3 180/4/3 182/4/3
f 184/4/3 182/4/3 181/4/3
f 185/4/3 182/4/3 184/4/3
f 188/1/3 187/1/3 186/1/3
f 189/1/3 187/1/3 188/1/3
f 192/4/3 191/4/3 190/4/3
f 193/4/3 191/4/3 192/4/3
f 196/1/3 195/1/3 194/1/3
f 197/1/3 195/1/3 196/1/3
f 200/1/3 199/1/3 198/1/3
f 201/1/3 199/1/3 200/1/3
f 204/4/3 203/4/3 202/4/3
f 205/4/3 203/4/3 204/4/3
f 206/4/3 203/4/3 205/4/3
f 208/4/3 203/4/3 206/4/3
f 209/4/3 203/4/3 208/4/3
f 210/1/3 208/1/3 207/1/3
f 211/1/3 208/1/3 210/1/3
f 214/1/3 213/1/3 212/1/3
f 215/1/3 213/1/3 214/1/3
f 218/4/3 217/4/3 216/4/3
f 219/4/3 217/4/3 218/4/3
f 222/1/3 221/1/3 220/1/3
f 223/1/3 221/1/3 222/1/3
f 226/4/3 225/4/3 224/4/3
f 227/4/3 225/4/3 226/4/3
f 228/4/4 229/4/4 230/4/4
f 230/4/4 229/4/4 231/4/4
f 232/4/4 233/4/4 234/4/4
f 234/4/4 233/4/4 235/4/4
f 236/1/4 237/1/4 238/1/4
f 238/1/4 237/1/4 239/1/4
f 240/1/4 241/1/4 242/1/4
f 242/1/4 241/1/4 243/1/4
f 244/4/4 245/4/4 246/4/4
f 246/4/4 245/4/4 247/4/4
f 247/4/4 245/4/4 248/4/4
f 248/4/4 245/4/4 249/4/4
f 249/4/4 245/4/4 250/4/4
f 251/1/4 252/1/4 253/1/4
f 253/1/4 252/1/4 254/1/4
f 255/1/4 256/1/4 257/1/4
f 257/1/4 256/1/4 258/1/4
f 259/1/4 260/1/4 261/1/4
f 261/1/4 260/1/4 262/1/4
f 263/1/4 264/1/4 265/1/4
f 265/1/4 264/1/4 266/1/4
f 267/4/4 268/4/4 269/4/4
f 269/4/4 268/4/4 270/4/4
f 271/4/4 272/4/4 273/4/4
f 273/4/4 272/4/4 274/4/4
f 275/1/4 276/1/4 277/1/4
f 277/1/4 276/1/4 278/1/4
f 279/1/4 280/1/4 281/1/4
f 281/1/4 280/1/4 282/1/4
f 283/4/4 284/4/4 285/4/4
f 285/4/4 284/4/4 286/4/4
f 287/1/4 288/1/4 289/1/4
f 289/1/4 288/1/4 290/1/4
f 291/4/4 292/4/4 293/4/4
f 291/4/4 293/4/4 295/4/4
f 293/4/4 294/4/4 295/4/4
f 295/4/4 294/4/4 296/4/4
f 296/4/4 294/4/4 297/4/4
f 295/2/4 296/2/4 298/2/4
f 298/2/4 296/2/4 299/2/4
f 298/4/4 299/4/4 301/4/4
f 299/4/4 300/4/4 301/4/4
f 301/4/4 300/4/4 302/4/4
f 298/4/4 301/4/4 303/4/4
f 303/4/4 301/4/4 304/4/4
f 310/4/5 306/4/5 305/4/5
f 311/2/5 307/2/5 306/2/5
f 311/4/5 306/4/5 310/4/5
f 312/4/5 308/4/5 307/4/5
f 312/2/5 307/2/5 311/2/5
f 313/4/5 311/4/5 310/4/5
f 313/4/5 310/4/5 309/4/5
f 314/4/5 311/4/5 313/4/5
f 315/3/5 312/3/5 311/3/5
f 315/4/5 311/4/5 314/4/5
f 316/2/5 314/2/5 313/2/5
f 317/3/5 315/3/5 314/3/5
f 317/2/5 314/2/5 316/2/5
f 318/3/5 312/3/5 315/3/5
f 318/3/5 315/3/5 317/3/5
f 319/4/5 317/4/5 316/4/5
f 319/4/5 318/4/5 317/4/5
f 320/4/5 318/4/5 319/4/5
f 321/3/5 312/3/5 318/3/5
f 321/4/5 318/4/5 320/4/5
f 322/4/5 308/4/5 312/4/5
f 322/3/5 312/3/5 321/3/5
f 323/4/5 321/4/5 320/4/5
f 324/2/5 322/2/5 321/2/5
f 324/4/5 321/4/5 323/4/5
f 325/4/5 308/4/5 322/4/5
f 325/2/5 322/2/5 324/2/5
f 326/4/5 308/4/5 325/4/5
f 331/4/5 328/4/5 327/4/5
f 332/4/5 328/4/5 331/4/5
f 333/4/5 330/4/5 329/4/5
f 334/4/5 330/4/5 333/4/5
f 339/4/5 336/4/5 335/4/5
f 340/4/5 336/4/5 339/4/5
f 341/4/5 338/4/5 337/4/5
f 342/4/5 338/4/5 341/4/5
f 343/2/6 344/2/6 346/2/6
f 346/2/6 344/2/6 347/2/6
f 347/2/6 344/2/6 348/2/6
f 348/2/6 344/2/6 349/2/6
f 345/4/6 346/4/6 351/4/6
f 351/4/6 346/4/6 352/4/6
f 347/3/6 348/3/6 353/3/6
f 353/3/6 348/3/6 354/3/6
f 349/4/6 350/4/6 355/4/6
f 355/4/6 350/4/6 356/4/6
f 352/3/6 353/3/6 360/3/6
f 360/3/6 353/3/6 361/3/6
f 354/3/6 355/3/6 362/3/6
f 358/3/6 359/3/6 363/3/6
f 357/2/6 358/2/6 363/2/6
f 363/3/6 359/3/6 364/3/6
f 360/3/6 361/3/6 365/3/6
f 361/3/6 362/3/6 365/3/6
f 357/2/6 363/2/6 366/2/6
f 364/3/6 365/3/6 367/3/6
f 365/3/6 362/3/6 368/3/6
f 367/3/6 365/3/6 368/3/6
f 357/2/6 366/2/6 369/2/6
f 366/3/6 367/3/6 370/3/6
f 369/2/6 366/2/6 370/2/6
f 370/3/6 367/3/6 371/3/6
f 368/3/6 362/3/6 372/3/6
f 372/3/6 362/3/6 373/3/6
f 362/3/6 355/3/6 374/3/6
f 373/3/6 362/3/6 374/3/6
f 374/3/6 355/3/6 375/3/6
f 371/4/6 372/4/6 377/4/6
f 377/4/6 372/4/6 378/4/6
f 373/3/6 374/3/6 379/3/6
f 379/3/6 374/3/6 380/3/6
f 375/4/6 376/4/6 381/4/6
f 381/4/6 376/4/6 382/4/6
f 378/3/6 379/3/6 383/3/6
f 383/3/6 379/3/6 384/3/6
f 380/3/6 381/3/6 385/3/6
f 385/3/6 381/3/6 386/3/6
f 383/2/6 384/2/6 387/2/6
f 384/2/6 385/2/6 387/2/6
f 385/2/6 386/2/6 387/2/6
f 387/2/6 386/2/6 388/2/6
f 389/4/6 390/4/6 394/4/6
f 393/4/6 394/4/6 399/4/6
f 394/4/6 390/4/6 400/4/6
f 399/4/6 394/4/6 400/4/6
f 395/1/6 396/1/6 401/1/6
f 401/1/6 396/1/6 402/1/6
f 397/1/6 398/1/6 403/1/6
f 403/1/6 398/1/6 404/1/6
f 402/1/6 403/1/6 407/1/6
f 407/1/6 403/1/6 408/1/6
f 405/1/6 406/1/6 410/1/6
f 410/1/6 406/1/6 411/1/6
f 409/1/6 410/1/6 412/1/6
f 412/1/6 410/1/6 413/1/6
f 413/1/6 414/1/6 415/1/6
f 415/1/6 414/1/6 416/1/6
f 416/1/6 417/1/6 422/1/6
f 422/1/6 417/1/6 423/1/6
f 418/1/6 419/1/6 424/1/6
f 424/1/6 419/1/6 425/1/6
f 420/4/6 421/4/6 426/4/6
f 426/4/6 421/4/6 427/4/6
f 423/1/6 424/1/6 428/1/6
f 428/1/6 424/1/6 429/1/6
f 427/4/6 421/4/6 430/4/6
f 430/4/6 421/4/6 431/4/6
f 391/4/6 392/4/6 432/4/6
f 432/4/6 392/4/6 433/4/6
f 434/4/6 435/4/6 439/4/6
f 438/4/6 439/4/6 440/4/6
f 439/4/6 435/4/6 441/4/6
f 440/4/6 439/4/6 441/4/6
f 442/4/6 443/4/6 444/4/6
f 444/4/6 443/4/6 445/4/6
f 445/4/6 443/4/6 446/4/6
f 446/4/6 443/4/6 447/4/6
f 436/4/6 437/4/6 448/4/6
f 448/4/6 437/4/6 449/4/6
